<?xml version="1.0" encoding="utf-8"?>
<!-- Generator: Adobe Illustrator 29.8.5, SVG Export Plug-In . SVG Version: 9.03 Build 0)  -->
<svg version="1.0" id="body_1" xmlns="http://www.w3.org/2000/svg" xmlns:xlink="http://www.w3.org/1999/xlink" x="0px" y="0px"
	 viewBox="0 -260 825 940" style="enable-background:new 0 -260 825 940;" xml:space="preserve">
<g>
	<path d="M291.86,286.24c7.41-2.01,21.09-19.62,27.68-19.92c1.23-0.06,17.49,11.55,20.84,13.21c7.38,3.66,13.01,2.51,20.59-0.05
		c17.59-5.93,32.16-19.05,44.59-32.51c5.4-5.84,14.26-20.07,19.28-23.89c1.99-1.51,14.88-3.89,18.98-5.35
		c16.34-5.84,33.72-16.84,47.83-27.04c6.23-4.5,11.89-11.02,18.37-15.03c5.09-3.15,16.51-6.11,22.74-8.27
		c29.78-10.35,67.94-24.6,97.94-31.83c16.31-3.93,29.6,3.66,40.11,16c-0.13,1.54-10.36,5.77-12.33,6.91c-1.3,0.75-2.66,0.6-0.9,2.19
		c9.1-0.91,11.74-8.22,20.8-2.42c2.14,1.37,12.04,8.96,13.27,10.43l11.23,13.42c-3.51,3.19-9.67,3.18-13.57,4.87
		c-2.59,1.12,1.57,3.75,2.87,3.76c2.58,0.01,10.49-4.33,14.16-3.67c3.85,0.7,6.59,5.98,10.39,6.92l16.69,19.94
		c-0.25,1.18,1.29,3.97,0.64,4.64c-0.59,0.62-13.4,2.85-13.54,4.86c-0.34,4.79,11.49-1.5,13.24-1.33
		c7.09,0.71,20.33,23.54,23.91,30.18c-1.88,3.76-13.79,3.43-11.03,8.64c2.13,4.01,9.21-2.87,12.92-1.54
		c5.74,3.18,19.16,29.81,17.54,34.76c-1.29,3.93-12.67,4.39-11.39,8.19c0.9,2.67,1.36,1.42,2.74,1.07
		c10.13-2.63,10.08-6.23,14.96,6.89c3.9,10.49,4.8,28.45-4.6,36.35c-32.65,20.5-67.05,38.39-99.64,58.94
		c-16.46,10.37-37.53,23.43-52.78,34.92c-6.19,4.66-10.87,7.14-5.36,14.77c-20.6,15.05-42.15,29.02-63.51,43.03
		c-1.47,1.97,5.04,8.69,6.73,10.57c6.68,7.42,15.34,14.43,22.21,21.8c2.6,2.8,4.84,5.96,7.38,8.8l-147.98,123.9
		c-2.35-3-5.07-5.76-7.37-8.82c-6.06-8.06-11.44-17.77-17.56-25.69c-1.46-1.88-7.1-9.58-9.04-8.46l-52.56,54.19
		c-2.24,1.74-4.85-3.79-8.27-2.96c-2.19,0.53-6.47,4.62-8.36,6.38c-13.98,12.99-30.56,31.45-43.65,45.82
		c-25.94,28.48-49.61,59.2-75.54,87.73c-11.13,9.54-36,1.8-44.62-7.81c-1.87-2.08,3.56-8.25,4.4-10.55c0.42-1.14-0.32-1.9-1.09-2.33
		c-3.53-1.94-5.96,9.21-10.07,9.79c-1.63,0.23-16.17-8.19-18.32-9.87c-3.28-2.56-11.44-10.07-12.77-13.52
		c-1.49-3.84,7.61-9.43,3.75-12.45c-4.64-3.64-6.41,8.14-10.45,9.34c-5.9-4.68-26.05-21.74-25.5-28.84c0.32-4.1,7.94-8.8,3.77-14.21
		c-1.26-0.01-6.55,13.38-7.3,13.88c-0.78,0.52-3.25-1.48-4.46-1.44c-4.71-6.54-11.59-12.6-16.05-19.17
		c-1.1-1.62-5.57-10.56-5.66-12.21c-0.2-3.85,5.68-10.53,6.14-13.29c0.14-0.82-1.21-5.5-2.53-3.43c-2.63,4.11-4.25,8.95-7.84,12.45
		l-11.23-13.42c-1.45-5.34-9.53-14.83-9.54-20.01c-0.01-4.92,8.52-11.44,7.65-14.94c-1.25-2.02-1.34-0.64-2.31,0.5
		c-1.48,1.74-7.43,11.06-8.97,10.93c-13.25-16.64-15.25-29.03-6.05-47.74c17.48-35.54,39.32-70.2,57.24-105.67
		c19.63-17.02,40.95-35.63,53.85-58.41c2.3-4.05,6.42-15.74,8.61-17.75c6.14-5.63,25.65-13.43,34.43-19.63
		c9.73-6.88,21.39-16.88,28.21-26.59c2.34-3.33,8.73-14.96,9.02-18.56c0.78-9.62-8.41-22.18-10.61-31.63
		c6.37-8.33,15.51-14.06,23.3-21.03c0.96-0.86,1.09-2.26,1.19-2.35L291.86,286.24z M446.11,660.52l144.92-121.33
		c-82.48-84.73-165.41-168.8-247.63-253.69c-7.46-6.45-15.93-11.62-24.45-16.5c-19.4,15.49-39.78,29.63-58.45,46.05
		c-1.78,1.56-2.85,3.69-4.61,5.27c-9.15,8.2-18.43,16.29-27.67,24.37c4.67,21.39,19.7,37.38,31.95,54.8
		c52.65,74.94,105.73,149.73,159.04,224.22C428.05,636.06,437.78,647.82,446.11,660.52z M412.33,617.08L238.02,373.06
		c-0.99,0.96,0.16,4.52,0.67,5.37c3.42,5.65,9.17,13.23,13.17,18.91c46.66,66.42,94.81,131.96,142.16,197.87
		c5.42,7.55,10.37,15.73,15.67,23.39L412.33,617.08z M554.83,499.07c0.93-3.93-5.09-9.47-7.78-12.38
		c-11.99-12.95-26.11-25.51-38.5-38.22c-47.63-48.84-94.41-98.36-142.46-146.76c-4.9-4.93-11.34-11.92-16.3-16.29
		c-0.75-0.65-4.05-2.42-5.17-1.6L554.83,499.07z M408.43,620.28L237.4,380.1c-9.28,25.44-31.13,40.05-53.35,53.38
		c-3.4,2.04-17.73,8.65-19.06,10.2c-0.8,0.93-4.61,12.02-6.22,14.98c-13.27,24.35-35.29,42.05-54.77,61.17
		c3.87,50.48,23.43,100.26,58.05,137.95c28.3,30.81,80.18,69.25,123.84,68.43c7.17-0.13,7.68-0.16,13.23-5.24
		c15.35-14.07,29.83-35.5,45.43-48.56c5.03-4.21,9.44-4.28,14.31-0.1L408.43,620.28z M618.35,455.02
		c-4.34-4.75-2.29-9.93,2.22-13.71c15.53-13.01,39.26-23.57,55.79-36.19c1.8-1.38,4.69-3.37,5.86-5.15
		c1.34-2.03,2.59-16.31,2.7-19.64c1.32-41.48-21.47-87.96-46.09-120.5c-31.07-41.06-77.21-70.17-126.89-81.99
		c-19.7,14.61-38.98,30.85-61.79,40.37c-5.42,2.26-20.39,4.97-23.41,7.18c-7.74,5.66-19.86,24.79-28.44,33.01
		c-13.13,12.57-27.62,21.77-45.24,26.16l204.96,210.47L618.35,455.02z M101.12,524.2c-1.69-0.18-1.03,2.94-1.01,3.81
		c2.31,82.28,79.38,178.91,158.67,199.78c4.43,1.17,27.99,5.42,30.7,3.5c0.14-0.1,1.55-2.35,1.16-2.54
		c-37.86-0.58-71.78-17.86-100.67-41.55c-41.8-34.26-68.14-72.78-81.7-125.11C105.19,558.32,103.03,524.39,101.12,524.2z
		 M685.82,398.51c1.24-1.15,2.14-0.31,2.74-2.16c5.04-15.52,0.33-45.22-4.36-60.8c-18.52-61.5-68.05-120.09-126.33-147.28
		c-5.13-2.39-35.84-14.66-39.26-13.6c-1.75,0.54-1.08,1.53,0.52,2.17c6.95,2.78,15.43,4.5,22.77,7.44
		c45.83,18.39,81.2,46.62,108.62,87.95C675.43,309.78,692.46,353.04,685.82,398.51z M97.68,530.99l-16.82,29.74
		c0.97,1.56,2.14-0.71,2.7-1.53c1.76-2.6,10.87-21.45,12.08-21.29c1.12,0.93,1.39,2.04,1.78,3.35c2.24,7.42,2.33,18.74,4.57,27.38
		c0.93,3.61,6.6,17.87,5.85,19.68c-18.79,24.34-36.14,49.9-55.83,73.5c-9.97-11.11-12.36-25.11-3.43-37.57
		c0.32-2.11-1.41-0.18-1.86,0.53c-9.12,14.35-6.32,29.01,4.15,41.9l59.92-79.17C103.71,569.39,99.38,550.33,97.68,530.99z
		 M597.94,148.68l-73.18,24.74c18.96,4.97,36.82,13.11,53.86,22.76l87.94-44.98c-9.83-12.1-25.81-18.38-40.52-11.44
		c-0.73,0.35-3,1.65-0.85,1.72c13.83-6.61,27.19-1.79,36.38,9.98c-27.08,15.03-55.08,28.45-82.88,42.09
		c-6.1-2.64-11.59-6.5-17.64-9.27c-9.57-4.39-20.13-6.52-29.13-11.65c19.8-8.94,43.59-12.77,63.28-21.27
		C596.11,150.97,599.35,150.11,597.94,148.68z M95.15,543.54l-25.93,47.74c-0.07,10.66,5.51,20.98,11.25,29.74l24.69-34.36
		C100.21,572.69,96.66,558.28,95.15,543.54z M616.42,172.31c-7.67-7.36-16.62-14.21-27.3-16.31l-51.56,17.13
		c14.24,4.08,27.8,10.1,40.69,17.44L616.42,172.31z M67.1,595.72l-18.43,32.44c6.9,5.03,9.54,10.85,11.75,18.78l18.12-23.59
		C74.3,614.1,68.02,606.24,67.1,595.72z M629.03,142.26l-35.17,12.43c3.31,2.06,7.13,2.68,10.57,4.79
		c3.93,2.41,12.33,11.99,15.34,11.09l25.67-13.44c-3.36-2.41-7.34-3.33-10.44-6.41C633.24,148.97,629.54,142.34,629.03,142.26z
		 M658.11,150.44c-5.47-3.86-12.3-9.78-19.35-9.9c-0.79-0.01-6.88,0.6-7.16,0.83c-1.69,1.37,5.68,7.93,7,8.98
		C646.06,156.29,650.54,157.16,658.11,150.44z M49.12,630.33c-7.65,8.51-1.97,19.23,2.49,27.89
		C64.08,649.54,55.31,639.84,49.12,630.33z M75.01,698.63l-9.31-11.12c-0.72-0.86-6.56-13.63-6.55-14.42
		c0.01-1.95,12.19-19.15,14.26-22.53c1.42-2.32,1.3-2.53-0.82-0.79c-2.49,4.6-15.84,20.91-15.63,24.89
		c0.41,8.04,13.37,22.51,17.55,29.59c15.62-27.68,32.94-54.57,54.91-77.83l-15.77-31.2c-13.23,14.68-24.45,31.14-36.45,46.82
		c0.98,1.54,2.24-0.7,2.96-1.51c4.25-4.84,28.71-40.44,31.25-40.18c5.83,8.1,9.61,17.68,14.4,26.47
		C106.01,648.69,89.47,673.06,75.01,698.63z M684.47,169.47c3.32,3.2,6.04,7.76,9.31,11.12c-27.64,9.89-54.74,21.6-79.63,37.4
		c-7.77-6.33-16.5-11.79-23.52-18.86c0.19-2.54,39.54-20.37,45.05-23.69c0.93-0.56,3.35-1.41,2.01-2.65
		c-17.6,9-35.67,17.26-52.5,27.65l27.95,21.01c26.81-17.45,56.21-29.95,86.27-40.37c-6.23-5.37-18.2-20.66-26.04-22.48
		c-3.82-0.89-22.51,9.14-27.26,11.04c-2.17,1.81-1.85,1.9,0.63,0.92c3.54-1.39,23.06-10.36,24.69-10.08
		C672.37,160.64,683.27,168.3,684.47,169.47z M111.03,604.58c-3.19,5.93-22.26,24.95-22.88,29.91c-0.59,4.66,8.12,16.45,11.35,20.16
		l22.87-28.13C122.82,624.46,112.79,607.98,111.03,604.58z M646.18,196.95c-3.31-3.61-12.9-14.38-17.5-14.68
		c-5.76-0.38-26.91,14.95-33.82,17.23l18.91,14.86L646.18,196.95z M99.37,656.06c-7.17-5.09-11.11-11.92-13.11-20.31
		c-1.83,4.09-19.7,27.63-19.47,29.5c0.16,1.29,5.73,5.29,7.32,7.35c2.61,3.38,4.69,8.79,5.61,12.95L99.37,656.06z M662.37,166.6
		c-1.71-0.46-28.2,12.91-32.47,14c7.91,3.44,13.94,8.52,17.69,16.48c6.01-3.52,12.49-6.23,18.9-8.91c3.95-1.65,8.79-2.81,12.45-4.31
		c0.49-0.2,1.43-0.84,0.82-1.31c-4.04-1.24-9.39-4.94-12.12-8.13C666.12,172.63,663.74,166.97,662.37,166.6z M65.71,667.29
		c-0.42-0.02-3.87,5.36-3.72,6.58c0.31,2.48,11.18,20.81,12.63,21.17c0.67-2.16,3.33-4.99,3.71-6.93
		C78.97,684.8,68.45,667.44,65.71,667.29z M671.18,163.28c-1.29-0.13-5.17,1.92-6.62,2.64c-0.3,2.51,14.47,15.46,17.73,16.12
		c1.56,0.32,6-2.26,8.02-2.47C690.23,178.3,673.47,163.5,671.18,163.28z M130.93,628.35c-12.97,14.49-25.1,29.85-35.67,46.17
		c-1.5,2.31-10.99,16.78-10.99,17.83c0,0.81,1.82,2.11,2.39,3.05c12.07-22.78,27.28-43.67,44.21-63.16L130.93,628.35z
		 M685.97,188.59c-24.72,9.33-48.83,20.45-71.21,34.68l3.84,0.63c18.92-11.47,38.7-20.98,59.34-28.77c2.87-1.08,7.1-1.7,9.48-2.74
		C689.67,191.41,686.97,189.55,685.97,188.59z M156.81,662.58c-8.65-9.29-16.42-19.11-23.44-29.75
		c-20.63,24.19-38.71,50.3-52.06,79.15c5.22,11.86,14.12,20.9,22.5,30.38C117.72,713.53,137.01,687.64,156.81,662.58z
		 M731.75,216.61c-5.76-6.88-10.35-14.23-17.01-20.31c-2.88-2.63-6.8-6.85-10.77-6.62c-4.69,0.28-20.22,6.07-25.55,8
		c-20.9,7.56-40.33,17.88-59.69,28.78c9.24,8.8,17.59,18.15,25.17,28.36C671.94,239.48,700.95,225.27,731.75,216.61z M158.93,664.9
		c-1.67-0.18-18.54,22.94-20.89,26.18c-3.14,4.32-24.56,35.7-24.35,37.95c0.09,0.96,1.77,2.08,2.38,3.05
		c12.24-23.12,27.26-45.15,45.42-64.13C160.75,667.31,159.29,664.94,158.93,664.9z M716.91,224.01
		c-2.09-0.58-35.5,14.35-40.15,16.58c-3.91,1.87-30.81,14.93-30.93,16.68c-0.02,0.36,2.06,2.21,2.56,3.06
		c21.89-14.19,45.8-25.65,70.74-33.14C719.61,226.34,717.43,224.15,716.91,224.01z M163.55,668.86
		c-20.83,23.02-38.1,48.98-51.92,76.67c4.15,11.2,13.9,17.44,22.32,25.05c9.13-12.14,16.24-26.07,25.05-38.6
		c9.37-13.32,19.79-26.04,30.73-38.1L163.55,668.86z M754.25,251.25c-5.91-9.58-10.77-20.23-20.74-26.37
		c-29.73,8.71-58.27,21.18-84.61,37.63l20.03,30.17c19.82-12.82,41.15-22.96,62.83-32.08C734.91,259.28,754.09,252.8,754.25,251.25z
		 M195.75,697.96l-3.99-3.18c-9.82,11.85-19.73,23.62-28.69,36.15c-2.24,3.13-20.57,29.46-19.46,30.91c0.16,0.2,3.84,1.33,4.74,1.85
		C161.55,740.06,178.09,718.44,195.75,697.96z M745.31,263.96l-2.03-4.85c-25.76,9.23-50.26,21.77-73.81,35.73l2.43,4.49
		C695.29,285.45,719.68,273.05,745.31,263.96z M229.34,719.4l-29.95-18.39c-1.09-0.68-1.88-0.4-2.91,0.2
		c-2.82,1.64-13.01,15.53-15.87,19.2c-11.64,14.96-24.99,33.59-33.88,50.24c-1.23,2.31-3.79,5.18-2.48,7.6
		c2.17,3.99,24.65,20.86,27.57,19.4c10.92-14.91,20.4-31.13,31.42-46.12C211.38,740.45,219.97,729.38,229.34,719.4z M687.09,336.16
		c27.34-16.88,56.96-30.41,86.99-41.82c0.8-0.91-2.54-11.8-3.3-13.59c-1.55-3.63-9.62-18.89-12.85-18.89
		c-0.97,0-5.08,1.73-6.58,2.24c-26.33,8.79-52.33,22.66-76.38,36.5l-0.7,2.84L687.09,336.16z M233.44,721.18
		c-1.87-1.27-3.27,0.04-4.59,1.31c-6.11,5.85-15.51,19.89-21.03,27.31c-7.13,9.59-18.93,24.59-24.07,34.78
		c-2.45,4.85,0.14,6.07,3.13,2.44c8.49-10.35,17.4-27.19,25.78-38.92C219.23,738.9,225.96,729.68,233.44,721.18z M688.89,339.87
		c9.38-5.19,18.95-10.17,28.64-14.75c13.22-6.25,31.69-12.22,43.58-18.88c4.1-2.3,3.35-5.06-1.85-3.51
		c-16.52,4.94-54.08,24.03-68.99,33.51C688.49,337.38,686.64,338.09,688.89,339.87z M286.86,735.15c0.31-1.81-16.64-2.36-18.57-2.69
		c-11.49-1.98-22.28-6.02-33.23-9.88c-19.27,25.59-39.02,51.24-53.84,79.67c13,9.83,29.88,17.53,43.4,4.4
		c17.62-17.09,36.56-42.81,52.94-62.03C280.41,741.29,283.48,737.95,286.86,735.15z M776.64,303.05
		c-30.15,10.61-59.12,24.43-87.42,39.3c1.74,11.42,3.97,22.84,3.88,34.45c-0.01,1.96-2.45,18.74-0.61,18.75
		c3.35-2.84,7.18-5.27,10.96-7.48c21.88-12.79,50.35-26.83,70.37-41.21C788.63,336.21,784.94,316.89,776.64,303.05z"/>
	<path d="M322.04,274.01c17.81,15.01,34.47,31.46,50.76,48.17c50.81,52.11,100.26,105.7,150.68,158.14
		c19.11,19.88,38.99,39.01,57.55,59.42c-16.87,10.6-34.5,20.47-50.75,32.08c-31.15,22.25-57.13,50.11-81.89,78.97
		c-1.91-0.32-19.56-27.51-22.43-31.44c-51.51-70.64-104.28-140.63-155.13-211.8c-13.56-18.98-26.82-38.29-38.49-58.43
		c7.88-4.26,16.49-9.14,23.64-14.52c10.48-7.87,22.04-18.39,32.2-26.96C300.45,297.29,312.63,287.14,322.04,274.01z M322.43,277.6
		c-9.5,11.46-19.7,22.48-31.55,31.61c-7.93,6.11-11.03,8.74-18.42,15.42c-11.11,10.04-23.61,18.26-36.66,25.49
		c1.93,1.75,2.61,5.62,4.53,7.1c0.91,0.7,14.3-6.85,16.5-8.13c23.29-13.56,43.46-30.44,60.89-50.98
		c1.57-1.85,11.24-13.38,11.16-14.28C328.75,282.35,323.22,279.66,322.43,277.6z M331.03,284.75
		c-22.51,32.28-54.53,57.68-89.38,75.5c2.22,1.87,6.44-0.76,8.68-1.79c25.13-11.56,58.61-39.76,75.31-61.78
		c1.57-2.07,5.92-7.39,6.79-9.21C333.1,286.06,331.66,285.76,331.03,284.75z M252.71,359.51c-0.32-0.02-2.94,2.44-4.46,2.36
		c4.53,6.29,9.27,12.53,13.13,19.27c4.08,7.11,6.21,15.76,9.92,22.18c4.11,7.1,12.33,17.47,17.55,24.27c2.53,3.3,5.54,6.3,8.09,9.58
		l-6.51-15.12C285.62,414.93,256.35,359.8,252.71,359.51z M397.38,353.09c-3-3.34-5.63-7.08-8.65-10.41
		c-5.48-6.04-14.19-15.73-20.17-20.78c-5.66-4.78-13.81-8.4-20.09-13.67c-5.99-5.02-11.01-11.04-17.01-16
		c0.16,1.57-2.71,3.18-2.76,3.66c-0.28,2.88,37.74,34.23,43.01,38.54c7.27,5.94,14.99,11.83,22.61,17.31
		C395.27,352.42,396.36,354.26,397.38,353.09z M268.33,351.6l-12.18,6.56l-0.05,1.93c9.87,15.87,20.16,31.64,29.16,48.02
		c10.81,19.68,17.82,41.33,32.5,58.59L268.33,351.6z M422.79,378.77c-9.63-13.66-24.06-20.54-36.7-30.29
		c-19.93-15.38-38.88-32.06-57.41-49.14l-1.91-0.29l-8.6,10.84L422.79,378.77z M277.4,345.31l-5.98,3.72l51.38,124.88l81.65,111.93
		l-45.55-78.21C329.62,454.59,302.1,400.57,277.4,345.31z M315.09,312.47l-4.4,5.59c50.11,33.71,98.2,70.38,145.15,108.42
		l69.62,59.35l-96.47-100.82L315.09,312.47z M282,341.45l-2.77,3.08c42.85,95.01,93.06,186.73,149.25,274.67l-2.37-9.07
		c-11.68-31.93-32.77-59.24-50.18-88.21C340.9,463.63,310.34,403.13,282,341.45z M288.9,335.67c-1.74,1.66-5.06,2.97-4.13,5.67
		c25.25,55.41,51.92,110.29,82.94,162.81c22.92,38.82,51.8,75.11,65.04,118.63l-3.74-18.79c-3.93-14.17-6.79-23.79-15.51-35.45
		c-42.27-56.58-74.97-122.81-100.55-188.5c-1.7-4.36-7.46-24.54-8.97-26.35L288.9,335.67z M296.57,329.24l-5.38,4.5l24.28,30.54
		c1.31-3.05,3.66-5.01,6.89-5.76L296.57,329.24z M298.87,327.32l15.09,18.02c1.51,1.81,20.37,11.02,24.36,13.46
		c60.19,36.73,119.61,80.55,167.89,132.12c2.19,2.34,5.45,6.55,7.08,8.08c3.3,3.09,19.94,10.93,25.1,13.42
		c5.78,2.79,11.88,5.19,17.78,7.75c0.72,0.31,2.33,2.03,2.11,0.13c-41.55-20.32-72.66-55.93-107.4-85.78
		c-46.26-39.75-95.59-75.67-145.69-110.27C302.68,322.86,300.81,325.9,298.87,327.32z M308.82,319.19l-3.04,2.36
		c55.36,38.57,109.45,79.1,160.48,123.6c23.15,20.19,44.42,42.91,69.92,60.11l17.91,10.09c-1.3-1.68-2.66-3.3-4.18-4.81
		c-15.09-14.88-34.42-30.72-50.69-44.78C438.54,413.38,374.85,364.44,308.82,319.19z M341.62,437.6
		c-5.13-10.07-9.47-20.7-13.21-31.34c-4.46-12.7-6.57-26.28-13.33-37.39c-1.94-3.19-4.09-6.39-6.29-9.41l3.26,11.28
		c8.64,20.52,15.71,44.73,26.54,64.11C339.12,435.77,340.21,438.98,341.62,437.6z M394.02,398.94
		c-20.19-16.14-42.53-29.48-64.71-42.65l-10.53-5.2c2.94,4.18,7.94,6.55,11.64,9.51c1.44,1.15,1.64,3.13,3.08,4.28
		c5.7,4.52,20.79,8.01,27.23,13.36L394.02,398.94z M333.65,367.33c-1,6.27-5.13,9.73-11.48,9.61
		c11.64,43.27,31.64,84.03,53.79,122.97c12.38,21.77,26.31,42.39,39.72,63.5c2.62-6.32-1.75-16.45-4.36-22.74
		c-6.26-15.08-15.89-29.26-23.2-43.94c-3.2-6.44-13.56-33.26-16.9-35.98c-2.14-1.74-6.06-2.23-8.86-4.76
		c-8.62-7.81-11.12-15.84-9.59-26.99c0.24-1.75,1.9-3.47,1.88-5.51c-0.07-5.67-7.95-16.46-4.27-24.5c8.67-2.05,16.9,6.83,22.68,8.29
		c6.57,1.66,13.15-2.98,22.38,3.76c9.96,7.27,7.85,11.65,12.08,19.31c1.94,3.52,26.82,18.79,32.45,22.96
		c13.13,9.74,25.51,21.8,39.18,30.56c5.73,3.67,14.93,9.77,21.62,8.29C450.22,444.37,396.77,397.38,333.65,367.33z M371.26,407.56
		c-5.97-3.34-11.92-6.5-18.95-6.27c-1.46,6.87,0.61,13.29,2.84,19.75c4.34-1.92,1.07-12.64,3.03-14.28
		C362.18,407.91,367.46,410.89,371.26,407.56z M362.28,420.61c-17.55,20.63,13.12,49.08,33.01,30.66
		C418.24,430.04,384.12,394.95,362.28,420.61z M421.81,558.27c-11.35-32.22-27.61-62.58-36.13-95.87
		c-1.16-1.53-7.85,0.15-10.32-0.87c8.72,30.75,30.49,57.61,40.51,87.35c0.69,2.06,1.98,11.05,3.63,11.28
		c0.18,0.03,1.81-1.36,3.31-1.49c6.58-0.58,11.49,7.45,8.8,12.9c-0.94,1.9-4.16,3.82-4.2,4.25c-0.03,0.24,1.9,2.58,2.38,4.1
		c5.04,15.96,4.94,34.93,7.55,51.43l12.64-18.39c-8.91-18.5-9.43-38.48-13.29-57.97c-3.04-15.34-16.82-55.09-15.39-67.38
		c0.17-1.45,0.22-2.55,1.66-3.4c0.72-0.43,13.98,4.15,15.99,4.93c13.27,5.17,25.65,12.81,38.85,18.21
		c21.94,8.97,45.82,13.23,65.73,27.3l20.33-9.21c-15.39-5.09-32.65-8.41-47.23-15.64c-1.59-0.79-5.35-3.82-5.7-3.82
		c-0.7,0.01-2.81,2.7-4.91,3.32c-7.3,2.15-15.56-7.96-9.1-13.93c-6.68-4.46-14.35-7.59-21.24-12.17
		c-13.31-8.86-25.46-20.12-38.55-29.57c-9.46-6.82-19.43-12.98-29.17-19.37c-0.15,2.34-2.43,9.42-1.33,10.62
		c26.09,12.97,51.16,27.93,74.43,45.54l-9.83-5.11c-18.69-14.81-39.83-24.85-60.71-35.88c-4.98-2.63-4.24-5.4-8.7,1.68
		c-0.65,1.03-1.81,0.56-0.16,2.09c32.27,10.78,58.7,31.13,88.52,46.55c-5.59-0.62-11.73-4.18-16.78-6.84
		c-13.73-7.22-26.49-16.32-40.56-22.99c-11.04-5.24-22.94-8.4-33.93-13.75c-0.72,0.07-0.53,3.03-0.45,3.85
		c0.93,9.04,3.97,23.58,6.31,32.5c4.19,15.98,11.36,31.09,16.19,46.87c1.03,3.35,2.99,7.91,2.25,11.2
		c-7.71-23.02-18.37-44.87-24.14-68.5c-1.37-5.59-2.48-18.89-4.39-23.11c-1.02-2.26-5.72,2.33-7.26,2.81
		c8.39,30.38,21.34,58.97,32.9,88.2L421.81,558.27z M413.48,563.93c-16.62-24.15-31.93-49.09-46.64-74.4l3.17,7.72
		c11.28,20.98,23.46,41.34,37.27,60.8L413.48,563.93z M502.42,489.47c-17.55-20.1-37.87-37.4-58.75-53.85l-7.04-4.51
		c16.03,14.6,33.59,27.44,48.31,43.5L502.42,489.47z M541.59,536.24c-16.88-13.69-38.81-17.34-58.48-24.97
		c-15.79-6.13-30.75-15.39-46.4-21.13c-2.05-0.75-13.59-5.38-14.29-2.81c2.69,20.89,10.22,40.74,14.53,61.28
		c4.46,21.25,5.16,43.02,14.16,63.36c2.2-2.21,4.45-4.53,4.56-7.75c0.23-6.15-4.3-26.32-6-33.19
		c-4.72-19.11-11.42-33.69-11.74-54.28c-0.05-2.97-0.64-11.24,1.68-12.62c10.26,2.16,20.77,3.83,30.68,7.44
		c11.2,4.08,21.19,10.63,32,15.4c10.72,4.73,22.16,7.67,32.8,12.58L541.59,536.24z M532.63,541.12L495.3,525.9
		c-17.09-10.28-35.38-16.58-55.04-19.57c-1.26,19.69,3.23,39.09,9.59,57.63l8.42,39.43l5.14-6.45
		c-2.3-21.14-13.12-39.65-15.04-60.79c-0.17-1.85,0.7-4.32,0.36-5.71c-0.48-1.94-3.51-3.32-4.23-6.7
		c-1.5-6.98,5.55-12.88,12.16-10.18c3.2,1.31,4.02,4.53,5.85,5.34c1.3,0.58,3.89,0.16,5.68,0.65c15.36,4.2,24.47,11.49,38.16,17.97
		c4.32,2.04,14.8,6.66,19.04,7.55C526.69,545.35,530.98,541.87,532.63,541.12z M451.95,530.43c-3.01-0.27-0.03,16.5,0.34,18.13
		c3.62,15.79,12.15,30.88,12.99,47.64c1.32-0.88,2.18-2.16,2.65-3.66c1.85-5.97-11.42-35.28-13.53-43.79
		C453.19,546.78,452.87,530.51,451.95,530.43z M524.33,546.77c-17.65-4.02-32.26-16.82-48.74-22.66
		c-1.58-0.56-13.31-4.65-13.66-2.02c5.74,2.12,11.98,3.12,17.6,5.63c7.97,3.57,34.6,21.78,40.73,21.01
		C521.82,548.54,523.22,547.91,524.33,546.77z M518.32,550.49c-17.39-5.36-33.53-22.1-51.35-25.23c-6.83-1.2-3.9-0.11-8.04,3.36
		c-1.42,1.19-3.83,1.57-4.6,3.04c-0.71,1.36,0.26,8.72,0.59,10.74c2.71,16.74,12.64,31.66,15.1,48.54c2.06-2.31,7.03-4.67,8.11-7.44
		c1.01-2.6-7.03-27.43-1.06-33.48c6.74-1.23,13.78,0,20.18,2.09c2.52,0.83,10.9,5.31,12.33,5.09
		C512.25,556.79,515.81,552,518.32,550.49z M423.45,563.59c-5.92,0.89-4.68,8.76,0.37,8.03
		C429.43,570.81,426.16,563.18,423.45,563.59z M432.81,610.36c0.06-5.45-3.28-30.55-6.19-33.33c-0.83-0.79-3.42-0.33-4.65-0.63
		L432.81,610.36z M543.97,517.29l-31.52-16.64c0.08,1.27-0.83,3.74-0.2,4.69C514.47,508.68,538.59,516.39,543.97,517.29z
		 M506.94,558.72c-3.32-3.99-25.68-9.84-28.84-7.19c-3.26,2.73-0.75,24.96,1.68,29.28c11.63-4.68,4.49-15.28,2.85-23.87
		C491.22,560.3,499.16,568.48,506.94,558.72z M565.12,527.02c-12.73,6.29-25.68,12.01-37.61,19.86
		c-27.79,18.27-61.6,47.05-80.71,74.3c-2.51,3.57-9.55,11.98-5.31,15.15c22-35.84,55.99-66.66,91.65-88.93
		c10.67-6.67,22.69-12.86,34.81-16.3L565.12,527.02z M572.95,534.76c0.1-1.87-2.79-2.04-4.45-1.77c-5.23,0.86-15.63,6-20.64,8.59
		c-32.84,17-79.39,55.37-98.87,86.89c-1.2,1.95-8.41,12.55-4.07,13.47c0.27,0.06,1.67-4.11,2.25-5.12
		c9.63-16.39,30.15-34.77,45.26-46.4c0.96-0.74,2.37-2.97,3.31-1.48c-12,11.48-25.81,21.99-36.4,34.76
		c-2.67,3.22-12.02,15.98-12.72,19.3c-0.33,1.56,1.39,2.4,2.15,3.53c7.12-7.87,13.82-16.31,21.12-24.03
		c22.82-24.13,44.38-43.24,72.02-61.76c11.32-7.59,23.32-14.26,34.9-21.4c-0.98-0.95-1.51-2.79-3.1-2.74
		c-3.4,0.11-17.61,7.07-21.24,9.13c-10,5.67-19.37,13.05-28.09,20.54l-13.16,8.44c16.17-13.4,33.93-29.13,53.36-37.55
		C566.32,536.42,572.93,535.2,572.95,534.76z"/>
	<path d="M405.54,620.02l-44.76,46.86c-4.87,3.9-7.43-2.68-15.16,2.26c-18.07,17.32-34.46,36.52-52.35,54.13
		c-5.67,3.15-33.18-3.02-40.01-5.21c-47.85-15.37-97.19-61.7-120.62-105.54c-15.25-28.52-23.7-60.13-26.62-92.15
		c19.84-18.18,41.62-37.05,54.79-60.82c1.96-3.55,4.45-12.13,6.65-14.37c5.37-5.45,27.44-14.82,35.85-20.92
		c14.07-10.22,27.48-23.03,34.34-39.17L405.54,620.02z M176.34,444.24c-8.51-1.01-8.89,8.41-12.01,14.21
		c-19.16,35.61-31.15,88.35-35.11,128.93c-0.62,6.36-1.87,12.39,3.08,17.66C140.55,549.94,152.24,494.9,176.34,444.24z
		 M187.72,436.03c-2.51,2.95-6.78,3.52-9.17,6.6c-1.34,1.74-3.92,10.87-4.94,13.79c-12.96,37.06-24.06,78.71-32.35,117.1
		c-1.24,5.72-7.44,32.07-6.88,35.59c0.91,5.8,7.69,12.81,10.13,18.28c3.49-65.15,19.39-128.29,43.72-188.81L187.72,436.03z
		 M236.16,394.18c-3.28,4.25-5.98,8.88-9.49,12.99c-2.51,2.94-5.47,4.13-7.93,7.82c-6.33,9.48-15.78,39.83-20.17,52.16
		c-17.82,50.1-37.32,116-43.11,168.68c-1.15,10.45,1.98,8.3,8.19,15.98c9.67-60.97,23.87-119.95,44.81-178.11
		C217.91,447.42,231.1,421.57,236.16,394.18z M195.91,431.79c-6.07,3.27-8.28,12.73-10.83,19.26
		c-19.31,49.44-32.99,103.18-36.67,156.11l17.2-76.2l15.6-56.11L195.91,431.79z M264.73,608.46c21.63,2.87,45.74-9.81,51.6-31.49
		c6.5-24.02-5.13-48.93-15.25-70.21c-15.23-32.04-34.18-70.6-51.75-101.13c-2.23-3.88-5.43-8.15-8.19-11.72l9.82,33.16
		c11.23,29.09,22.43,58.5,37.92,85.71c5.58,9.79,13.24,19.31,18.05,29.28c20.98,43.49-44.49,81.16-66.79,35.26
		c-9.54-19.63,4.32-64.1,5.03-88.29c0.03-1.02,0.23-13.65-2.02-9.41c-8.56,21.66-19.68,43.31-20.2,67.07
		C222.39,573.13,235.35,604.56,264.73,608.46z M201.92,428.07c-1.74,1.22-3.09,2.38-4.21,4.23c-5.06,8.36-12.86,36.66-16.23,47.54
		c-15.24,49.22-25.29,99.84-35.43,150.25l6.68,8.69c1.63-0.77,1.06-1.85,1.34-3.07c4.37-19.01,6.75-39.33,11.02-58.65
		c11.9-53.93,28.91-106.83,50.37-157.75l-6.32,2.81c-1.39,0.72-2.31,1.8-3.13,3.09c-3.2,5.05-8.2,21.46-10.67,28.17
		c-8.54,23.1-15.38,46.84-22.44,70.42l-14.29,56.58c3.8-27.13,12.12-53.72,18.95-80.3L201.92,428.07z M175.97,664.98
		c2.47-33.66,7.78-65.57,15.83-98.33c3.03-12.3,6.54-28.65,10.39-40.25c11.97-36.11,33.9-77.35,37.19-115.96
		c0.13-1.52-0.48-11.01-1.55-11.13c-11.85,36.78-27.73,72.17-39.56,109c-15.15,47.21-24.9,95.89-32.96,144.73
		C167.35,658.29,172.75,660.68,175.97,664.98z M151.34,478.24c-6.03,6.97-8.53,18.1-11.15,27.04c-6.07,20.73-10.14,42.8-13.63,64.1
		l-1.45,0.58c3.53-26.83,9.66-53.34,16.96-79.42c-1.56-0.64-1.7,1.72-2.06,2.66c-6.56,16.98-10.62,37.6-13.7,55.58
		c-0.61,3.55-1.2,15.24-2.32,17.55c-0.21,0.43-1.09,1.25-1.45,0.58c2.49-23.56,6.94-46.94,13.27-69.81
		c-6,3.14-9.86,7.49-11.75,13.87c-5.25,17.73-9.32,47.21-4.42,64.92l3.03-2.57c0.18,2.29-1.07,5.71-0.61,7.77
		c0.22,0.98,1.56,1.57,1.76,2.37c0.63,2.59-0.83,5.93,2.56,8.28c1.72-0.88,1.14-2.34,1.4-3.77c3.42-18.35,5.37-36.96,9.3-55.26
		C141.02,514.33,146.45,496.35,151.34,478.24z M263.68,596.31c24.06,3.83,49.92-17.64,45.23-42.71
		c-2.56-13.66-13.77-26.62-20.65-38.74c-20.07-35.37-34.16-73.42-47.22-111.72c0.42,19.3,3.02,38.6,0.24,57.87l0.92,1.12
		c5.87-3.27,13.96,3.68,12.24,9.97c-0.68,2.49-3.22,4.09-3.28,5.56c-0.1,2.27,5.76,16.37,7.08,19.63
		c2.21,5.46,10.22,25.5,13.04,28.84c0.6,0.72,12.31,2.47,16.86,6.59c26.89,24.35-4.45,62.01-31.67,45.03
		c-14.94-9.32-18.04-31.31-4.99-43.49c8.65-8.08,10.42-1,7.05-16.35c-1.92-8.72-6.22-24.22-9.85-32.11
		c-0.42-0.91-1.5-3.34-2.68-2.01c2.58,23.09-5.69,45.79-7.88,68.52C236.48,569.1,244.97,593.33,263.68,596.31z M118.51,512.25
		c-2.06,2.1-5.07,4.85-6.07,7.62c-0.63,1.74-1.54,15.81-1.43,18.33c0.19,4.27,1.36,9.25,2.6,13.36L118.51,512.25z M215.52,498.82
		c10.7-16.54,27.11-30.76,25.52-52.03l-1.5-26.75l-12.15,45.41L215.52,498.82z M160.07,491.8c-2.69,4.79-4.3,10.87-5.93,16.15
		c-1.01,3.27-13.74,48.94-11.22,49.05l16.9-61.32L160.07,491.8z M240.83,477.65c-1.43-0.08-13.09,21.75-14.58,24.61
		c-17.78,34.02-23.51,70.22,5.99,100.44c29.47,30.19,86.92,10.7,93.53-29.87c6.7-41.15-25.64-92.65-47.24-126.28
		c-6.25-9.73-13.28-19.32-19.99-28.75c-0.64-0.9-1.83-3.33-2.98-2.04c13.88,27.02,29.06,53.54,42.46,80.79
		c17.36,35.29,44.07,94.91-12.31,111.58c-43.22,12.77-67.85-29.14-64.39-67.26c2.11-23.18,13.41-38.89,19.81-59.29
		C241.41,480.69,242.46,477.74,240.83,477.65z M245.38,466.35c-5.09-0.51-5,8.61,0.38,7.86C250.35,473.57,250,466.81,245.38,466.35z
		 M233.02,477.67c-11.58,15.27-23.02,31.3-29.32,49.57c-19.46,56.45,17.96,118.85,82.43,100.09c45.29-13.17,57.49-42.55,50.66-86.17
		c-0.48-3.07-3.24-20.21-5.35-20.7c0.72,8.25,2.32,16.86,2.82,25.44c2.26,39.2-11.34,72.99-54.44,80.6
		c-51.98,9.18-84.9-41.23-75.94-88.6c4.12-21.76,17.43-38.58,28.17-57.14C232.6,479.8,234.1,478.59,233.02,477.67z M237.49,475.23
		c-22.55,33.87-43.55,66.1-28.01,107.9c18.11,48.71,78.61,56.54,111.29,17.67c12.84-15.27,13.33-48.91,10.67-67.91
		c-3.2-22.9-13.98-31.27-26.89-49.23c-2.75-3.83-5.34-8.99-8.12-12.79c-0.81-1.11-3.31-5.29-4.92-4.34
		c27.57,39.21,64.7,117.33,4.43,146.2c-52.52,25.16-93.68-24.88-84.89-75.59c3.66-21.13,16.76-41.13,27.86-59.16L237.49,475.23z
		 M250.05,477.76l-3.71,1.79c5.51,9.19,9.34,20.89,12.44,31.27c1.65,5.53,3.85,11.62,3.48,17.35l5.05-0.99L250.05,477.76z
		 M196.72,558.93c-0.73-0.02-3.59,9.18-4.01,10.64c-5.38,18.33-8.6,38.71-10.57,57.62l10.4-46.28
		C194.68,573.42,198.08,566.96,196.72,558.93z M197.77,571.09c-1.03-0.06-2.54,6.54-2.93,7.9c-6.59,22.47-13.22,55.55-15.78,78.82
		c-0.78,7.11-1.33,9.55,4.74,14.96c3.17-25.94,6.23-51.88,12.32-77.34c0.88-3.66,3.6-9.38,3.88-12.43
		C200.3,579.57,197.79,574.83,197.77,571.09z M252.96,540.84c-15.02,17.74,9.37,46.03,29.44,32.42
		C311.52,553.52,275.77,513.88,252.96,540.84z M201.39,586.32c-1.94-0.17-7.23,25.72-7.84,28.76c-3.72,18.73-5.54,37.87-7.98,56.79
		c1,5.73,7.66,7.12,10.8,11.25c4.59-21.28,1.31-43.28,3.2-64.66c0.59-6.64,4.8-20.34,4.49-25.16
		C203.89,590.7,202.71,588.47,201.39,586.32z M206.14,596.68c-5.29,23.36-0.45,47.23-1.6,70.48c-0.16,3.26-2.65,18.05-2.4,18.97
		c0.84,3.1,15.47,13.08,16.65,12.09c-0.93-28.46-3.57-56.88-2.38-85.38L206.14,596.68z M248.29,713.98
		c-2.62-28.26-6.72-56.37-7.77-84.78c-8.09-4.16-16.02-8.51-22.44-15.12l-0.16,31.56l3.16,54.28l3.03,2.33l1.56-1.26l-2.41-65.17
		c1.35,1.08,1.07,2.56,1.27,4.01c0.88,6.33,1.11,14.81,1.54,21.43c0.92,14.01,0.82,28.09,1.82,42.1
		C229.73,707.12,244.2,711.49,248.29,713.98z M202.5,672.31c0.52-6,0.41-13.4,0.3-19.49c-0.09-5.31-0.06-11.82-1.56-16.81
		c-0.67,15.43,0.34,31-3.1,46.21l2.57,3.78C200.52,681.48,202.13,676.54,202.5,672.31z M397.19,625.67
		c1.28-4.15-31.64-51.17-33.3-60.1l-27.43-37.56c-0.6,2.26,1.47,6.25,2.44,8.37c14.84,32.6,37.8,60.87,52.77,93.41
		C392.15,630.4,396.95,626.43,397.19,625.67z M390.97,632.21l-52.06-91.92c-0.05,9.17,4.57,19.58,8.21,28.05
		c10.66,24.78,28.48,46.28,34.35,72.61C382.82,639.07,390.87,632.85,390.97,632.21z M243.72,629.13c-1.39,0.13-1.22,2.07-1.3,3.06
		c-0.51,6.46,1.05,17.99,1.57,24.98c1.44,19.11,3.7,38.54,7.5,57.17c0.93,0.94,13.62,4.63,14.47,4.39c1.32-0.36,0.37-4.98,0.3-6.35
		c-1.36-27.03-6.02-53.86-11.2-80.39C252.74,632.79,244.39,629.06,243.72,629.13z M375.53,647.87c7.43-4.66,3.05-14.33,0.38-20.9
		c-9.55-23.51-26.87-44.39-35.04-68.76c-0.52,3.97-1.29,10.66-0.93,14.46c0.55,5.9,9.46,25.36,12.53,31.64
		C359.69,619.04,369.55,632.54,375.53,647.87z M272.61,719.7c-2.69-24.57-4.65-49.24-9.2-73.59c-0.47-2.5-1.76-11.72-2.56-13.03
		c-0.83-1.36-2.29-0.81-3.55-0.98c-1.87,0.94-0.5,1.5-0.25,2.77c5.48,27.74,10.2,55,11.08,83.35
		C268.45,719.58,272.39,720.47,272.61,719.7z M279.66,720.32c-7.43-20.46-4.85-42.35-7.74-63.52c-0.52-3.83-2.93-20.92-4-23.13
		c-1.25-2.58-2.66-1.3-4.93-1.02c4.21,28.3,9.53,56.65,10.52,85.39C272.89,720.85,279.48,720.95,279.66,720.32z M276.26,630.67
		c-0.38-0.09-6.76,1.59-7.03,2.45c-0.47,1.5,4.64,26.31,5.15,31c1.48,13.61,0.61,27.23,3.04,40.73c0.42,2.32,2.86,14.21,3.57,15.24
		c1.2,1.73,13.81,2.89,13.4-2.56c-8.39-21.8-6.84-45.46-11.85-67.6C281.9,647.13,277.76,631.05,276.26,630.67z M366.97,656.34
		c2.26-1.89,7.06-5.89,6.61-8.99c-11.53-23.22-25.19-45.13-34.45-69.42c0,3.67-3.92,10.57-3.35,13.6
		c0.65,3.43,5.91,14.61,7.76,18.38C351.2,625.45,361.64,639.68,366.97,656.34z M288.57,628.15c-1.79,1.8-9.19,1.15-9.21,3.73
		c-0.03,4.08,4.9,17.6,5.98,23.27c3.87,20.39,2.75,41.89,10.98,61.66c1.5-2.85,10.42-9.72,10.73-11.82
		c0.13-0.84-5.38-12.54-6.3-15.82C295.32,669.86,298.39,647.01,288.57,628.15z M294.44,625.79c-0.69,1-2.64,1.19-3.16,1.76
		c-0.77,0.85,4.76,18.23,5.45,21.51c3.77,18.08,1.54,38.82,12.1,54.66c1.25-1.97,6-5.67,6.03-7.62c0.02-1.47-6.07-14.69-7.17-18.38
		C302.73,660.99,303.13,641.78,294.44,625.79z M299.54,624.21c-0.35-0.07-2.8,0.67-2.66,2.14c0.5,5.29,5.32,15.16,6.85,21.2
		c2.59,10.19,2.85,20.99,6,31.06c0.75,2.41,5.71,15.82,7,15.88c0.2,0.01,2.96-2.34,2.99-2.57
		C310.79,684.52,306.73,625.74,299.54,624.21z M356.9,665.9c1.01-0.13,5.3-4.09,6.19-5.28c3.03-4.01-2.81-15.2-4.88-19.6
		c-7.44-15.84-18.17-30.41-24.05-47.2c-1.29,3.43-5.74,7.27-6.9,10.38c-2.01,5.4,17.64,35.58,21,43.03c1.5,3.32,2.79,6.89,4.08,10.3
		C353.11,659.53,353.11,666.4,356.9,665.9z M333.64,677.53c-4.5-20.85-21.26-36.18-23.43-57.79c-1.04-1.08-7.35,2.7-8.48,3.84
		c8.9,14.37,8.22,32.79,12.75,49.05c0.44,1.58,5.65,19.18,7.27,17.68L333.64,677.53z M320.64,610.37c-4.93,4.93-9.73,4.7-8.38,12.38
		c3.39,19.25,18.34,33.77,22.48,52.74c4.29-3.94,7.81-7.96,12.87-10.92L320.64,610.37z M324.48,607.16
		c-0.85,0.89-2.13,0.9-1.88,2.45c0.42,2.53,3.86,10.27,5.12,13.09c6.55,14.71,16.96,27.45,22.12,42.77
		c0.85-0.87,2.05-0.87,1.86-2.45c-0.38-3.22-4.07-11.96-5.6-15.26C339.67,633.91,330.16,621.43,324.48,607.16z M398.26,623.62
		c1.48-1.26,4.35-2.75,3.45-5.01l-28-38.32l19.71,33.32L398.26,623.62z"/>
	<path d="M512.84,179.75c31.05,8.5,60.6,22.41,86.04,42.42c26.55,20.89,46.48,47.55,62.28,77.26
		c15.87,29.84,27.02,66.91,18.49,100.32l-58.78,38.74c-2.81,2.09-7.08,6.45-7.22,10.07c-0.11,2.83,2.83,5.3-1.37,7.73l-54.01,35.85
		L356.52,285.57c17.1-3.91,32.07-14.86,44.6-26.92c7.49-7.21,20.59-27.29,26.9-31.62c2.6-1.78,11.48-2.7,15.32-4.02
		C469.1,214.18,491.5,196.25,512.84,179.75z M560.9,214.13c-39.19-1.26-81.44-0.63-118.54,11.95c-6.58,2.23-15.12,0.81-17.13,9.15
		c54.29-13.53,110.23-17.05,165.96-14.41C585.62,212.38,570.36,214.43,560.9,214.13z M559.19,249.47
		c-46.56,1.9-93.02,7.56-138.81,16.32c-7.25,1.39-26.34,3.98-31.82,6.61c-3.4,1.64-5.35,4.46-8.36,6.23
		c-4.66,2.74-9.7,4.58-14.46,7.06c27.81-0.28,55.62-8.64,83.16-13.3c60.68-10.27,121.34-14.35,182.83-12.49
		c-1.81-2.27-6.21-10.12-8.22-10.74C602.13,248.75,580.54,248.6,559.19,249.47z M611.45,236.48l-16.22-13.19
		c-38.31,0.27-76.74,2.16-114.85,6.31c-7.97,0.87-55.09,6.33-58.34,8.86c-2.34,1.82-3.67,5.37-6.58,6.91l2.43,0.95
		C481.49,233,546.9,228.47,611.45,236.48z M589.42,236.64c-53.08-5.77-108.6-1.29-160.89,9.29c-6.46,1.31-14.77,1.41-18.69,6.76
		l44.97-6.9c42.19-5.63,84.62-6.68,127.07-8.06C584.19,237.64,587.48,237.85,589.42,236.64z M469.81,312.87
		c28.73,2.64,67.67-7.5,86.44,19.87c10.8,15.75,2.12,38.97-12.7,49.1c-29.08,19.87-45.3-2.52-65.71-19.43
		c-29.87-24.76-62.55-45.54-96.55-64.01l-16.69-7.84c3.03,3.34,6.67,7.24,10.1,10.12c36.53,30.71,79.53,59.8,118.63,87.21
		c60.18,37.18,113.38-45.6,49.01-80.49c-29.49-15.99-63.08-6.53-93.73,0.21l-0.18,2.08C455.53,310.4,462.73,312.22,469.81,312.87z
		 M562.68,242.08l-58.21,4.12c-22.57,2.44-45.12,5.01-67.51,8.81c-8.4,1.43-28.68,3.72-35.36,6.45c-3.85,1.58-4.87,5.18-8.1,7.52
		l55.89-10.03c56.39-9.26,113.59-12.88,170.68-11.44c1.97-1.1,0.46-1.72-0.46-2.91c-0.63-0.81-5.37-6.01-5.78-6.14
		c-55.74,1.29-111.79,2.23-167.08,10.16c-8.26,1.19-32.98,3.95-38.97,7.16c-0.84,0.45-3.33,1.81-2.03,2.91
		C457.13,248.16,510.25,241.93,562.68,242.08z M642.9,274.05c-3.67-3.92-5.07-9.66-9.88-12.59c-49.51-0.71-99.12,0.38-148.27,7
		c-38.35,5.16-75.98,14.65-114.26,19.78c-0.07,1.15,9.96,3.36,11.4,3.49c23.46,2.17,63.6-4.74,87.41-9.04
		c12.32-2.22,25.24-6.79,37.62-8c6.85-0.67,14.03,0.59,20.58,0.05c11.46-0.94,22.83-3.27,34.41-3.85
		C588.94,269.55,615.97,272.28,642.9,274.05z M454.02,314.81c0.06,0.02,0.59-0.5,1.21-0.19c5.29,2.62,35.76,20.31,39.16,18.09
		c1.27-0.83,2.78-4.43,5.04-6.26c21.45-17.25,53.22,4.38,43.96,30.7c-9.37,26.64-49.16,23.51-53.52-5.45
		c-0.37-2.46,0.73-6.87-0.42-8.25c-2.43-2.93-18.99-13.42-23.4-16.25c-3.3-2.11-18.3-11.75-20.77-12.08
		c-1.45-0.19-3.48,2.02-6.05,2.25c-6.5,0.59-11.91-8.59-7.67-13.8l-0.94-1.1c-19.47-0.65-38-6.61-56.93-10.41
		c9.37,6.22,19.71,10.77,29.42,16.43c25.2,14.7,50.41,31.6,72.93,50.2c15.44,12.75,29.37,33.03,52.17,28.09
		c20.96-4.54,40.49-32.54,27.31-51.99c-18.64-27.49-52.75-17.9-81.3-19.99c-7.28-0.53-15.17-1.5-22.01-3.7
		C450.77,311.97,453.33,314.1,454.02,314.81c-2.2-0.9-4.4-0.82-6.03-4.08l-2.1,3.69l45.31,25.33c3.39-5.95-3.4-5.7-7.82-7.82
		C475.52,328.16,459.75,320.62,454.02,314.81z M558.63,207.65l-34.51,1c-11.87,0.89-23.89,1.05-35.71,2.49
		c-8.22,1-18.06,1.33-25,5.83c18.92-1.65,37.81-3.87,56.83-4.5c19.81-0.65,39.76,0.04,59.55,0.94c2.13-1.51,0.51-0.97-0.55-1.84
		c-3.2-2.63-5.5-3.35-9.65-3.32l0.89-2.04l-7.04-0.64c-0.72-1.37,4.29-0.76,1.66-2.65c-9.21-6.62-23.29-6.63-34.33-7.08
		c-9.49-0.39-32.62-1.48-39.88,3.34c-1.76,1.17-3.81,3.01-5.38,4.49c-0.82,0.77-2.53,1.25-1.26,2.34c0.94-0.65,2.17-1.15,3.31-1.25
		c24.05-2.31,48.37-2.32,72.43-0.18c0.6,0.47-0.36,1.19-0.82,1.32c-2.01,0.57-17.44-1.13-21.2-1.17
		c-18.39-0.23-39.81,0.21-57.83,3.71c-0.99,0.19-3.33-0.09-2.98,1.56C504.19,207.58,531.59,205.53,558.63,207.65z M542.2,192.72
		c-5.49-4.07-29.38-8.61-34.6-5.97c-1.88,0.95-3.34,2.58-4.95,3.88L542.2,192.72z M471.75,283.03c-26.35,7.4-54.02,8.3-81.15,10.54
		l26.07,6.18c15.49,2.24,18.93,0.74,33.12-5.24c6.31-2.66,13.93-6.02,19.98-9.11C470.69,284.92,473.12,284.32,471.75,283.03z
		 M542.4,222.54c0.19-1.39-25.9,0.1-28.05,0.25c-9.88,0.67-20.3,1.55-30.08,3.04c-2.9,0.44-6.54,0.68-9.06,2.13L542.4,222.54z
		 M517.64,397.93c-38.3-6.8-95.51-60.49-128.44-84.71c-1.35-0.99-4.15-3.87-5.74-3.25c19.72,20.82,41.04,40.07,63.35,58.06
		c23.01,18.55,54.06,40.75,85.46,36.99c33.97-4.07,60.47-49.02,43.59-79.77c-17.43-31.77-51.44-42.31-85.24-35.06
		c-4.66,1-43.26,12.49-43.54,14.78c-0.2,1.63,2.89,1.11,3.81,0.99c7.63-0.98,17.35-4.63,25.39-6.1c25.94-4.75,53.34-5.2,75.67,11.24
		C594.46,342.38,566.63,406.62,517.64,397.93z M436.31,305.06c-3.92,3.86,1.92,9.36,5.69,5.56
		C445.53,307.04,439.27,302.14,436.31,305.06z M473.31,401.7c4.52,3.84,11.65,6.26,17.36,8.3c42.09,15.06,73.61,9.25,95.5-33.44
		c30.81-60.08-24.36-108.62-83.73-99.4c-18.96,2.94-37.96,11.59-54.71,20.77l45.07-16.07c42.05-10.31,94.01,12.68,97.35,60.27
		c3.39,48.32-40.16,80.91-86.03,68.3L473.31,401.7z M425.82,352.77l32.14,33.72c10.36,10.25,13.92,12.83,27.56,17.39
		c17.62,5.89,53.2,11.61,69.48,1c52.05-33.93,42.52-102.58-17.72-120.54c-33.15-9.88-61.78,4.62-92,16.92l2.44,1.88
		c32.49-14.71,77.84-27.61,108.71-2.65c26.37,21.32,35.04,47.73,16.94,77.78c-28.49,47.3-82.13,27.41-116.81-0.14L425.82,352.77z
		 M583.44,272.21c-11.74-0.04-25.75,0.38-37.4,1.54c-1.56,0.16-11.02,1.01-11.18,2.09c8.85,3.12,17.67-0.21,26.68-0.71
		c13.94-0.78,27.98-1.02,41.95-0.68l0.82-1.33C597.39,272.92,590.31,272.23,583.44,272.21z M648.55,282.35
		c-3.57-6.87-6.34-6.12-13.26-6.52c-23.88-1.37-56.65-0.91-80.36,1.68c-1.4,0.15-8.16,0.47-8.29,1.5c3.68,0.68,7.9,3.98,11.33,4.28
		c6.43,0.56,21.84-2.18,30.02-2.37c18.67-0.43,39.53,2.99,57.3,2.21C646.56,283.08,647.51,283.81,648.55,282.35z M499.09,334.77
		c-13.76,16.73,7.46,44.48,27.96,33.09C559.12,350.04,522.51,306.29,499.09,334.77z M657.17,297.32
		c-3.01-3.92-4.16-10.79-9.17-12.61c-19.06-0.92-38.21-2.5-57.31-2.13c-3.1,0.06-29.51,0.72-29.69,2.66
		c1.88,1.69,3.87,3.23,6.39,3.86c4.26,1.06,19.17-0.58,25.56,0C614.27,291.05,635.46,298.22,657.17,297.32z M638.29,302.14
		c-22.63-3.02-44.54-11.36-67.93-10.4l14.11,12.95c28.29,4.34,56.49,10.29,83.91,18.44c0.61-2.32-1.5-6.18-2.46-8.37
		c-1.18-2.68-3.96-9.47-6.09-10.91C658.94,303.25,641.74,302.6,638.29,302.14z M671.45,328.39c0.88-4.34-10.6-6.14-13.92-7.01
		c-13.79-3.61-27.97-5.87-41.74-9.58l-30.4-5.24c5.49,7.51,8.34,15.95,10.94,24.75c12.44,3.34,25.08,5.9,37.48,9.4
		c13.24,3.74,28.68,10.21,41.43,13.12c0.72,0.16,3.01,0.64,3.18,0.03c-1.73-4.47-3.48-19.48-6.86-21.95l-36.26-8.05l-30.83-8.51
		c19.81,3.21,39.09,9.16,58.86,12.62C664.69,328.21,671.12,330.01,671.45,328.39z M659.61,301.79l-3.64-2.89
		c-16.08,0.82-31.63-3.4-47.45-5.2c3.22,1.85,7.76,2.55,11.41,3.35C632.98,299.93,646.27,301.65,659.61,301.79z M570.65,480.6
		c-28.76-20.69-52.93-47.05-81.65-67.82l-9.15-4.82L512,441.57c8.63,3.26,48.91,43.9,53.31,43.33
		C566.69,484.72,569.11,481.46,570.65,480.6z M583.44,472.5c-25.44-11.03-43.85-32.76-67.09-47.87c-7.3-4.75-16.28-10.7-24.83-12.09
		l81.33,67.41L583.44,472.5z M678.87,373.04c1.71-0.16,0.74-9.93,0.41-11.65c-0.34-1.83-0.33-4.08-2.06-5.24
		c-17.8-6.06-35.75-11.8-53.96-16.5c-6.78-1.75-17.88-5.31-24.32-5.94c-0.99-0.1-2.87-0.6-3.24,0.74
		c-0.18,0.64,2.02,9.52,0.83,11.67C623.25,357.31,651.02,365.25,678.87,373.04z M590.98,467.49c-12.8-7.81-23.53-18.7-35.52-27.69
		c-8.14-6.1-19.29-14.13-28.15-18.84c-4.95-2.63-12.83-2.7-18.51-3.35c22.49,12.42,40.1,32.98,61.53,46.59
		C576.36,468.02,584.76,474.07,590.98,467.49z M597.36,347.39c-1.16,0.05-1.83,3.44-1.24,4.28c1.36,1.94,39.07,14.26,44.53,15.96
		c13.03,4.05,26.39,7.16,39.49,10.86l-1.05-4.35C651.27,367.38,623.31,359.63,597.36,347.39z M595.78,354.03
		c-2.29,4.84-0.88,4.4,2.94,6.14c19.65,8.92,41.1,10.93,60.93,17.35c6.86,2.22,13.17,5.42,19.86,8.02c0.14-2.36,1.48-5.24-1.52-6.13
		L595.78,354.03z M674.33,400.04c4-0.71,5.73-8.59,4.97-11.74c-0.53-2.22-18.42-8.66-21.87-9.73c-7.87-2.44-16.02-3.07-23.68-5.14
		c-12.84-3.47-25.47-8.27-37.89-13.03c-1.76-1.34-4.36,6.45-4.14,6.83c1.72,2.9,25.29,12,30.02,13.6c8.41,2.85,17.27,4.3,25.62,7.29
		C651.56,389.63,672.87,400.3,674.33,400.04z M541.41,418.07c-2.8-0.47-9,2.23-12.5,0.98c-0.68,0.38,0.13,1.08,0.58,1.48
		c5.75,5.07,16.61,10.03,23.51,15.1c5.78,4.24,35.54,30.43,39.21,30.19c1.44-0.1,8.49-4.36,8.62-5.26
		c-15.64-8.42-28.05-21.3-42.26-31.68C555.89,426.93,543.51,418.43,541.41,418.07z M672.77,401.62
		c-18.03-11.57-39.43-14.22-58.77-21.65c-5.36-2.06-17.86-9.29-21.86-9.97c-2.54-0.43-3.2,6.97-5.29,8.41
		c17.38,13.34,41.55,14.1,59.98,23.59c2.64,1.36,11.68,8.07,12.42,8.1C661.36,410.17,669.7,402.6,672.77,401.62z M657.69,411.65
		c-14.32-13.37-34.91-14.64-52.37-21.79c-3.06-1.25-18.55-9.49-19.53-8.88c-0.66,0.41-1.19,2.3-2.29,2.8
		c14.21,11.36,33.19,14.35,48.79,22.17c3.44,1.73,15.38,10.05,16.84,10.29C651.04,416.55,655.53,412.53,657.69,411.65z
		 M603.79,459.17c0.47-0.07,7.43-5.04,7.74-5.4c0.79-0.9-0.07-3.85-0.85-4.73c-0.83-0.93-11.47-5.66-14.2-7.47
		c-7.17-4.76-33.65-29.49-39.28-29.35c-0.66,0.02-12.1,4.41-12.15,5.06C554.77,421.06,597.58,460.1,603.79,459.17z M647.2,417.81
		c0.15-1.11-12.37-8.63-14.4-9.69c-8.09-4.24-17.11-6.02-25.42-9.58c-3.83-1.64-23.75-12.94-24.95-12.23
		c-0.55,0.33-1.11,2.37-2.25,2.85c19.51,13.89,45.41,15.44,63.96,31.13C644.38,420.31,647.17,418.01,647.2,417.81z M642.6,421.67
		c-14.23-12.21-33.94-15.23-50.16-22.72c-3.22-1.49-9.92-6.69-12.14-7.31c-2.39-0.67-4.11,3.58-5.43,5.22l52.17,34.43L642.6,421.67z
		 M562.15,408.28c-1.07,0.11-2.91,1.46-1.33,2.92c3.46,3.18,9.95,6.47,14.06,9.75c10.47,8.37,19.69,18.05,31.94,24.13
		c1.2,0.6,3.88,2.8,4.84,1.19c1.17-1.95-0.79-2.27-1.82-2.99c-2.1-1.47-4.47-2.4-6.76-4.14
		C597.47,434.86,566.26,407.84,562.15,408.28z M625.34,432.2c-17.94-7.41-29.61-24.68-47.97-31.4c-7.33-2.68-7.94,2.09-13.66,6.07
		l48.62,36.08C616.1,438.5,620.9,435.93,625.34,432.2z M563.11,485.61l-9-6.53l-29.34-25.26l32.8,34.3
		C559.62,489.41,561.62,486.83,563.11,485.61z"/>
	<path d="M692.7,343.71c18-9.86,36.35-19.28,55.39-26.94c3.4-1.37,25.91-10.03,27.13-9.23c5.51,11.28,7.46,26-1.83,35.96
		l-75.78,46.25c-1,0.36-2.22,0.34-2.76-0.71c-0.33-0.63,1.08-10.51,1.07-12.69C695.83,365.35,693.61,354.61,692.7,343.71z
		 M737.14,324.28l-43.03,21.73c4.91,12.62,4.11,27.35,4.11,40.82l43.86-27.51C741.84,347.32,741.46,335.7,737.14,324.28z
		 M773.41,339.55c-6.75-7.31-7.99-17-6.55-26.48c-3.95,0.49-27.7,9.49-28.19,11.33c5.5,10.83,5.93,22.74,5.32,34.54L773.41,339.55z
		 M773.21,309.72c-1.16,1.21-3.34,1.23-4.16,2.78c-2.39,4.51,1.19,21,5.25,24.99C779.92,329.63,777.01,317.72,773.21,309.72z"/>
	<path d="M281.62,738.24c-21.46,21.21-39.53,45.48-60.23,67.41c-10.7,8.03-26.03,2.36-35.83-4.45
		c13.56-26.87,31.18-51.64,50.24-74.94c10.56,2.86,20.75,6.82,31.55,8.9C269.67,735.6,281.92,735.49,281.62,738.24z M237.81,728.1
		l-28.96,38.48c10.34,6.32,21.55,8.32,33.07,11.14l35.35-38.46C263.85,736.97,249.84,735.01,237.81,728.1z M208.7,768.11
		c-1.88,0.15-14.82,22.03-16.11,25.76c9.58,0.25,18.9,3.17,24.91,11.1l24.26-25.55C230.01,778.18,218.4,775.31,208.7,768.11z
		 M215.32,805.48c-3.22-4.69-18.82-11.12-23.68-9.56c-1.67,0.53-2.07,2.68-3.47,3.61C195.69,804.74,206.23,809.78,215.32,805.48z"/>
	<path d="M134.28,638.58c5.62,9.23,11.95,17.53,19.57,25.15c-18.94,22.15-34.56,46.65-49.43,71.58
		c-4.87-3.68-19.55-20.83-18.5-26.13C98.92,683.72,114.78,659.62,134.28,638.58z M133.91,642.81l-22.92,28.49
		c4.32,8.35,9.93,15.76,16.26,22.73l23.03-29.9C144.76,657.04,138.52,650.55,133.91,642.81z M109.91,673.34l-17.18,28.68
		c6.64,6.16,12.04,12.19,16.4,20.22l17.99-26.8C118.59,689.52,113.87,682.8,109.91,673.34z M92.31,703.72
		c-1.5,0.95-4.11,5.62-3.84,7.11c0.06,0.33,2.82,5.69,3.04,5.95l12.52,14.95c0.96-1.18,4-6.17,3.89-7.11
		c-0.04-0.33-2.87-5.7-3.08-5.95L92.31,703.72z"/>
	<path d="M724.72,215.98c-27.19,10.19-53.98,21.39-79.15,36.09c-6.08-8.98-13.36-16.37-21.32-23.7c24.16-15.52,50.65-26.9,78-35.22
		C707.04,192.85,722.07,211.03,724.72,215.98z M680.07,231.19l-11.23-13.42c-1.16-1.39-7.46-5.93-9.44-5.58
		c-4.21,0.74-24.33,12.14-29.03,15.1c-4,2.52,2.29,5,4.33,7.27c4.1,4.56,7.64,9.67,11.89,14.09L680.07,231.19z M694.34,198.49
		l-32.37,12.65c8.92,3.42,14.73,10.3,18.6,18.88c10.16-2.71,20.48-7.63,30.44-11.71C704.11,212.49,698.52,206.58,694.34,198.49z
		 M721.26,214.96l-11.88-14.18c-0.25-0.29-5.6-4.68-5.96-4.81c-1.41-0.51-6.49,1.23-7.68,2.54l11.88,14.18
		c0.25,0.29,5.6,4.69,5.96,4.83C714.74,217.94,721.25,215.49,721.26,214.96z"/>
	<path d="M163.05,674.48c3.45,3.55,7.14,7.74,10.73,11.08c1.78,1.65,9.31,6.88,9.79,7.68c0.38,0.62,0.1,1.23-0.1,1.84
		c-9.43,12.59-19.26,24.94-28.01,38.01c-5.8,8.66-12.8,23.99-18.75,31.03c-0.89,1.05-1.84,2.32-3.41,1.85
		c-2.96-0.87-18.97-19.08-18.71-21.6C128.14,719.5,143.12,694.89,163.05,674.48z M163.44,678.07c-1.89-0.15-23.1,26.81-23.58,29.51
		c-0.63,3.52,12.94,15.46,16.14,18.52l25.15-31.56C174.63,689.82,168.43,684.39,163.44,678.07z M138.68,709.25l-18.24,29.62
		c8.24,3.19,12.94,10.72,17.58,17.87l18.11-28.21C148.97,722.87,141.64,718.52,138.68,709.25z M120.3,740.27
		c-0.62-0.01-2.82,2.99-2.83,4.01c-0.03,3.92,15.18,19.25,16.99,18.14c0.75-0.46,2.73-3.26,2.27-4.17
		c-0.47-0.93-5.39-7.65-6.37-8.79C127.69,746.39,123.3,743.2,120.3,740.27z"/>
	<path d="M654.53,263c23.61-15.99,50.42-26.54,77.33-35.43c2.53,0.19,17.64,19.16,17.98,22.22c0.18,1.63-1.23,2.34-2.43,3.03
		c-7.62,4.41-23.24,8.39-32.37,12.35c-14.95,6.48-29.33,14.14-43.83,21.56c-0.64,0.09-1.29,0.26-1.83-0.22
		c-0.7-0.62-4.52-8.95-5.83-10.99C660.89,271.39,657.42,267.02,654.53,263z M691.62,245.05l-34.26,18.19
		c5.6,6.26,10.1,13.53,13.73,21.1l35.24-17.95C708.15,264.24,694.06,247.65,691.62,245.05z M739.9,252.82
		c-6.43-5.67-12.17-11.86-14.87-20.17l-31.99,12.47c8.61,4.55,11.6,12.52,15.91,20.57L739.9,252.82z M731.26,230.4
		c-1.3-0.22-3.43,1.19-4.45,2.08c-0.2,1.26,12.86,17.86,14.82,19.33c1.02,0.76,3.51-0.93,4.53-1.56
		C747.48,248.92,735.34,231.1,731.26,230.4z"/>
	<path d="M757.33,264.5c7.16,7.93,11.79,18.11,14.14,28.46c-28.79,10.23-56.55,22.95-82.6,39.09c-2.87-10.53-7.15-20.53-12.22-30.19
		C702.52,287.22,729.19,274.06,757.33,264.5z M718.1,282.83l-37.99,20.05c3.22,3.19,8.56,23.23,10.23,24.61
		c1.67,1.39,33.01-19.26,38.56-19.95C730.55,305.26,720.01,286.06,718.1,282.83z M749.05,269.97l-30.19,12.22
		c7.35,6.79,9.53,15.58,12.72,24.55l29.55-12.99C754.33,287.32,751.85,278.5,749.05,269.97z M762.52,293.85
		c0.3,0.07,5.53-2.26,5.66-2.65c0.74-2.13-5.97-16.09-7.7-18.45c-2.82-3.87-3.96-6.07-8.81-3.49
		C750.31,270.64,761.21,293.54,762.52,293.85z"/>
	<path d="M197.41,703.1c4.4,2.99,8.51,6.51,13.03,9.33c3.76,2.35,10.25,4.8,12.91,6.72c1.04,0.75,1.65,0.68,1.24,2.32
		c-14.65,15.51-27.34,32.67-38.9,50.5c-3.2,4.94-10.06,19.24-13.28,22.29c-0.73,0.69-0.93,0.73-1.91,0.5
		c-3.63-0.85-23.67-15.62-24.06-18.82C160.79,749.92,178.38,725.92,197.41,703.1z M171.4,740.55c2.84,2.45,19.89,16.2,22.42,14.97
		c1.66-5.33,27.49-32.56,26.42-34.45c-1.13-1.99-19.87-10.41-22.43-14.39L171.4,740.55z M192.56,758.02
		c-8.28-4.72-16.54-8.4-21.94-16.84l-17.33,27.57c7.91,4.25,16.16,8.25,21.29,16.07L192.56,758.02z M153.15,770.16
		c-7.09,6.12,2.26,11.8,7.5,15.62c5.3,3.87,11.56,9.15,13.44,0.02L153.15,770.16z"/>
	<path d="M258.35,544.14c14.86-16.97,37.64,5,25.24,19.99C269.23,581.49,245.36,558.97,258.35,544.14z"/>
	<path d="M504.47,338.09c14.98-17.31,38.02,5.18,25.23,19.98C515.05,375.03,491.73,352.82,504.47,338.09z"/>
	<path d="M365.33,425.85c8.86-11.57,25.51-11.59,30.65,2.72c7.11,19.76-22.64,33.52-32.26,11.33
		C362.31,436.65,363.15,428.7,365.33,425.85z"/>
</g>
</svg>
