<?xml version="1.0" encoding="utf-8"?>
<!-- Generator: Adobe Illustrator 29.8.5, SVG Export Plug-In . SVG Version: 9.03 Build 0)  -->
<svg version="1.0" id="body_1" xmlns="http://www.w3.org/2000/svg" xmlns:xlink="http://www.w3.org/1999/xlink" x="0px" y="0px"
	 viewBox="0 0 825 392" style="enable-background:new 0 0 825 392;" xml:space="preserve">
<g>
	<path d="M169.65,51.42c7.41-2.01,21.09-19.62,27.68-19.92c1.23-0.06,17.49,11.55,20.84,13.21c7.38,3.66,13.01,2.51,20.59-0.05
		c17.59-5.93,32.16-19.05,44.59-32.51c5.4-5.84,14.26-20.07,19.28-23.89c1.99-1.51,14.88-3.89,18.98-5.35
		c16.34-5.84,33.72-16.84,47.83-27.04c6.23-4.5,11.89-11.02,18.37-15.03c5.09-3.15,16.51-6.11,22.74-8.27
		c29.78-10.35,67.94-24.6,97.94-31.83c16.31-3.93,29.6,3.66,40.11,16c-0.13,1.54-10.36,5.77-12.33,6.91c-1.3,0.75-2.66,0.6-0.9,2.19
		c9.1-0.91,11.74-8.22,20.8-2.42c2.14,1.37,12.04,8.96,13.27,10.43l11.23,13.42c-3.51,3.19-9.67,3.18-13.57,4.87
		c-2.59,1.12,1.57,3.75,2.87,3.76c2.58,0.01,10.49-4.33,14.16-3.67c3.85,0.7,6.59,5.98,10.39,6.92l16.69,19.94
		c-0.25,1.18,1.29,3.97,0.64,4.64c-0.59,0.62-13.4,2.85-13.54,4.86c-0.34,4.79,11.49-1.5,13.24-1.33
		c7.09,0.71,20.33,23.54,23.91,30.18c-1.88,3.76-13.79,3.43-11.03,8.64c2.13,4.01,9.21-2.87,12.92-1.54
		c5.74,3.18,19.16,29.81,17.54,34.76c-1.29,3.93-12.67,4.39-11.39,8.19c0.9,2.67,1.36,1.42,2.74,1.07
		c10.13-2.63,10.08-6.23,14.96,6.89c3.9,10.49,4.8,28.45-4.6,36.35c-32.65,20.5-67.05,38.39-99.64,58.94
		c-16.46,10.37-37.53,23.43-52.78,34.92c-6.19,4.66-10.87,7.14-5.36,14.77c-20.6,15.05-42.15,29.02-63.51,43.03
		c-1.47,1.97,5.04,8.69,6.73,10.57c6.68,7.42,15.34,14.43,22.21,21.8c2.6,2.8,4.84,5.96,7.38,8.8l-147.98,123.9
		c-2.35-3-5.07-5.76-7.37-8.82c-6.06-8.06-11.44-17.77-17.56-25.69c-1.46-1.88-7.1-9.58-9.04-8.46l-52.56,54.19
		c-2.24,1.74-4.85-3.79-8.27-2.96c-2.19,0.53-6.47,4.62-8.36,6.38c-13.98,12.99-30.56,31.45-43.65,45.82
		c-25.94,28.48-49.61,59.2-75.54,87.73c-11.13,9.54-36,1.8-44.62-7.81c-1.87-2.08,3.56-8.25,4.4-10.55c0.42-1.14-0.32-1.9-1.09-2.33
		c-3.53-1.94-5.96,9.21-10.07,9.79c-1.63,0.23-16.17-8.19-18.32-9.87c-3.28-2.56-11.44-10.07-12.77-13.52
		c-1.49-3.84,7.61-9.43,3.75-12.45c-4.64-3.64-6.41,8.14-10.45,9.34c-5.9-4.68-26.05-21.74-25.5-28.84c0.32-4.1,7.94-8.8,3.77-14.21
		c-1.26-0.01-6.55,13.38-7.3,13.88c-0.78,0.52-3.25-1.48-4.46-1.44c-4.71-6.54-11.59-12.6-16.05-19.17
		c-1.1-1.62-5.57-10.56-5.66-12.21c-0.2-3.85,5.68-10.53,6.14-13.29c0.14-0.82-1.21-5.5-2.53-3.43c-2.63,4.11-4.25,8.95-7.84,12.45
		l-11.23-13.42c-1.45-5.34-9.53-14.83-9.54-20.01c-0.01-4.92,8.52-11.44,7.65-14.94c-1.25-2.02-1.34-0.64-2.31,0.5
		c-1.48,1.74-7.43,11.06-8.97,10.93c-13.25-16.64-15.25-29.03-6.05-47.74c17.48-35.54,39.32-70.2,57.24-105.67
		c19.63-17.02,40.95-35.63,53.85-58.41c2.3-4.05,6.42-15.74,8.61-17.75c6.14-5.63,25.65-13.43,34.43-19.63
		c9.73-6.88,21.39-16.88,28.21-26.59c2.34-3.33,8.73-14.96,9.02-18.56c0.78-9.62-8.41-22.18-10.61-31.63
		c6.37-8.33,15.51-14.06,23.3-21.03c0.96-0.86,1.09-2.26,1.19-2.35L169.65,51.42z M323.9,425.7l144.92-121.33
		c-82.48-84.73-165.41-168.8-247.63-253.69c-7.46-6.45-15.93-11.62-24.45-16.5c-19.4,15.49-39.78,29.63-58.45,46.05
		c-1.78,1.56-2.85,3.69-4.61,5.27c-9.15,8.2-18.43,16.29-27.67,24.37c4.67,21.39,19.7,37.38,31.95,54.8
		C190.61,239.61,243.69,314.4,297,388.89C305.84,401.24,315.57,413,323.9,425.7z M290.12,382.26L115.81,138.24
		c-0.99,0.96,0.16,4.52,0.67,5.37c3.42,5.65,9.17,13.23,13.17,18.91c46.66,66.42,94.81,131.96,142.16,197.87
		c5.42,7.55,10.37,15.73,15.67,23.39L290.12,382.26z M432.62,264.25c0.93-3.93-5.09-9.47-7.78-12.38
		c-11.99-12.95-26.11-25.51-38.5-38.22c-47.63-48.84-94.41-98.36-142.46-146.76c-4.9-4.93-11.34-11.92-16.3-16.29
		c-0.75-0.65-4.05-2.42-5.17-1.6L432.62,264.25z M286.22,385.46L115.19,145.28c-9.28,25.44-31.13,40.05-53.35,53.38
		c-3.4,2.04-17.73,8.65-19.06,10.2c-0.8,0.93-4.61,12.02-6.22,14.98c-13.27,24.35-35.29,42.05-54.77,61.17
		c3.87,50.48,23.43,100.26,58.05,137.95c28.3,30.81,80.18,69.25,123.84,68.43c7.17-0.13,7.68-0.16,13.23-5.24
		c15.35-14.07,29.83-35.5,45.43-48.56c5.03-4.21,9.44-4.28,14.31-0.1L286.22,385.46z M496.14,220.2c-4.34-4.75-2.29-9.93,2.22-13.71
		c15.53-13.01,39.26-23.57,55.79-36.19c1.8-1.38,4.69-3.37,5.86-5.15c1.34-2.03,2.59-16.31,2.7-19.64
		c1.32-41.48-21.47-87.96-46.09-120.5c-31.07-41.06-77.21-70.17-126.89-81.99c-19.7,14.61-38.98,30.85-61.79,40.37
		c-5.42,2.26-20.39,4.97-23.41,7.18c-7.74,5.66-19.86,24.79-28.44,33.01c-13.13,12.57-27.62,21.77-45.24,26.16l204.96,210.47
		L496.14,220.2z M-21.09,289.38c-1.69-0.18-1.03,2.94-1.01,3.81c2.31,82.28,79.38,178.91,158.67,199.78
		c4.43,1.17,27.99,5.42,30.7,3.5c0.14-0.1,1.55-2.35,1.16-2.54c-37.86-0.58-71.78-17.86-100.67-41.55
		c-41.8-34.26-68.14-72.78-81.7-125.11C-17.02,323.5-19.18,289.57-21.09,289.38z M563.61,163.69c1.24-1.15,2.14-0.31,2.74-2.16
		c5.04-15.52,0.33-45.22-4.36-60.8C543.47,39.23,493.94-19.36,435.66-46.55c-5.13-2.39-35.84-14.66-39.26-13.6
		c-1.75,0.54-1.08,1.53,0.52,2.17c6.95,2.78,15.43,4.5,22.77,7.44c45.83,18.39,81.2,46.62,108.62,87.95
		C553.22,74.96,570.25,118.22,563.61,163.69z M-24.53,296.17l-16.82,29.74c0.97,1.56,2.14-0.71,2.7-1.53
		c1.76-2.6,10.87-21.45,12.08-21.29c1.12,0.93,1.39,2.04,1.78,3.35c2.24,7.42,2.33,18.74,4.57,27.38c0.93,3.61,6.6,17.87,5.85,19.68
		c-18.79,24.34-36.14,49.9-55.83,73.5c-9.97-11.11-12.36-25.11-3.43-37.57c0.32-2.11-1.41-0.18-1.86,0.53
		c-9.12,14.35-6.32,29.01,4.15,41.9l59.92-79.17C-18.5,334.57-22.83,315.51-24.53,296.17z M475.73-86.14L402.55-61.4
		c18.96,4.97,36.82,13.11,53.86,22.76l87.94-44.98c-9.83-12.1-25.81-18.38-40.52-11.44c-0.73,0.35-3,1.65-0.85,1.72
		c13.83-6.61,27.19-1.79,36.38,9.98c-27.08,15.03-55.08,28.45-82.88,42.09c-6.1-2.64-11.59-6.5-17.64-9.27
		c-9.57-4.39-20.13-6.52-29.13-11.65c19.8-8.94,43.59-12.77,63.28-21.27C473.9-83.85,477.14-84.71,475.73-86.14z M-27.06,308.72
		l-25.93,47.74c-0.07,10.66,5.51,20.98,11.25,29.74l24.69-34.36C-22,337.87-25.55,323.46-27.06,308.72z M494.21-62.51
		c-7.67-7.36-16.62-14.21-27.3-16.31l-51.56,17.13c14.24,4.08,27.8,10.1,40.69,17.44L494.21-62.51z M-55.11,360.9l-18.43,32.44
		c6.9,5.03,9.54,10.85,11.75,18.78l18.12-23.59C-47.91,379.28-54.19,371.42-55.11,360.9z M506.82-92.56l-35.17,12.43
		c3.31,2.06,7.13,2.68,10.57,4.79c3.93,2.41,12.33,11.99,15.34,11.09l25.67-13.44c-3.36-2.41-7.34-3.33-10.44-6.41
		C511.03-85.85,507.33-92.48,506.82-92.56z M535.9-84.38c-5.47-3.86-12.3-9.78-19.35-9.9c-0.79-0.01-6.88,0.6-7.16,0.83
		c-1.69,1.37,5.68,7.93,7,8.98C523.85-78.53,528.33-77.66,535.9-84.38z M-73.09,395.51c-7.65,8.51-1.97,19.23,2.49,27.89
		C-58.13,414.72-66.9,405.02-73.09,395.51z M-47.2,463.81l-9.31-11.12c-0.72-0.86-6.56-13.63-6.55-14.42
		c0.01-1.95,12.19-19.15,14.26-22.53c1.42-2.32,1.3-2.53-0.82-0.79c-2.49,4.6-15.84,20.91-15.63,24.89
		c0.41,8.04,13.37,22.51,17.55,29.59c15.62-27.68,32.94-54.57,54.91-77.83L-8.56,360.4c-13.23,14.68-24.45,31.14-36.45,46.82
		c0.98,1.54,2.24-0.7,2.96-1.51c4.25-4.84,28.71-40.44,31.25-40.18c5.83,8.1,9.61,17.68,14.4,26.47
		C-16.2,413.87-32.74,438.24-47.2,463.81z M562.26-65.35c3.32,3.2,6.04,7.76,9.31,11.12c-27.64,9.89-54.74,21.6-79.63,37.4
		c-7.77-6.33-16.5-11.79-23.52-18.86c0.19-2.54,39.54-20.37,45.05-23.69c0.93-0.56,3.35-1.41,2.01-2.65
		c-17.6,9-35.67,17.26-52.5,27.65l27.95,21.01c26.81-17.45,56.21-29.95,86.27-40.37c-6.23-5.37-18.2-20.66-26.04-22.48
		c-3.82-0.89-22.51,9.14-27.26,11.04c-2.17,1.81-1.85,1.9,0.63,0.92c3.54-1.39,23.06-10.36,24.69-10.08
		C550.16-74.18,561.06-66.52,562.26-65.35z M-11.18,369.76c-3.19,5.93-22.26,24.95-22.88,29.91c-0.59,4.66,8.12,16.45,11.35,20.16
		L0.16,391.7C0.61,389.64-9.42,373.16-11.18,369.76z M523.97-37.87c-3.31-3.61-12.9-14.38-17.5-14.68
		c-5.76-0.38-26.91,14.95-33.82,17.23l18.91,14.86L523.97-37.87z M-22.84,421.24c-7.17-5.09-11.11-11.92-13.11-20.31
		c-1.83,4.09-19.7,27.63-19.47,29.5c0.16,1.29,5.73,5.29,7.32,7.35c2.61,3.38,4.69,8.79,5.61,12.95L-22.84,421.24z M540.16-68.22
		c-1.71-0.46-28.2,12.91-32.47,14c7.91,3.44,13.94,8.52,17.69,16.48c6.01-3.52,12.49-6.23,18.9-8.91c3.95-1.65,8.79-2.81,12.45-4.31
		c0.49-0.2,1.43-0.84,0.82-1.31c-4.04-1.24-9.39-4.94-12.12-8.13C543.91-62.19,541.53-67.85,540.16-68.22z M-56.5,432.47
		c-0.42-0.02-3.87,5.36-3.72,6.58c0.31,2.48,11.18,20.81,12.63,21.17c0.67-2.16,3.33-4.99,3.71-6.93
		C-43.24,449.98-53.76,432.62-56.5,432.47z M548.97-71.54c-1.29-0.13-5.17,1.92-6.62,2.64c-0.3,2.51,14.47,15.46,17.73,16.12
		c1.56,0.32,6-2.26,8.02-2.47C568.02-56.52,551.26-71.32,548.97-71.54z M8.72,393.53c-12.97,14.49-25.1,29.85-35.67,46.17
		c-1.5,2.31-10.99,16.78-10.99,17.83c0,0.81,1.82,2.11,2.39,3.05c12.07-22.78,27.28-43.67,44.21-63.16L8.72,393.53z M563.76-46.23
		c-24.72,9.33-48.83,20.45-71.21,34.68l3.84,0.63c18.92-11.47,38.7-20.98,59.34-28.77c2.87-1.08,7.1-1.7,9.48-2.74
		C567.46-43.41,564.76-45.27,563.76-46.23z M34.6,427.76c-8.65-9.29-16.42-19.11-23.44-29.75c-20.63,24.19-38.71,50.3-52.06,79.15
		c5.22,11.86,14.12,20.9,22.5,30.38C-4.49,478.71,14.8,452.82,34.6,427.76z M609.54-18.21c-5.76-6.88-10.35-14.23-17.01-20.31
		c-2.88-2.63-6.8-6.85-10.77-6.62c-4.69,0.28-20.22,6.07-25.55,8c-20.9,7.56-40.33,17.88-59.69,28.78
		c9.24,8.8,17.59,18.15,25.17,28.36C549.73,4.66,578.74-9.55,609.54-18.21z M36.72,430.08c-1.67-0.18-18.54,22.94-20.89,26.18
		c-3.14,4.32-24.56,35.7-24.35,37.95c0.09,0.96,1.77,2.08,2.38,3.05c12.24-23.12,27.26-45.15,45.42-64.13
		C38.54,432.49,37.08,430.12,36.72,430.08z M594.7-10.81c-2.09-0.58-35.5,14.35-40.15,16.58c-3.91,1.87-30.81,14.93-30.93,16.68
		c-0.02,0.36,2.06,2.21,2.56,3.06c21.89-14.19,45.8-25.65,70.74-33.14C597.4-8.48,595.22-10.67,594.7-10.81z M41.34,434.04
		c-20.83,23.02-38.1,48.98-51.92,76.67c4.15,11.2,13.9,17.44,22.32,25.05c9.13-12.14,16.24-26.07,25.05-38.6
		c9.37-13.32,19.79-26.04,30.73-38.1L41.34,434.04z M632.04,16.43C626.13,6.85,621.27-3.8,611.3-9.94
		c-29.73,8.71-58.27,21.18-84.61,37.63l20.03,30.17c19.82-12.82,41.15-22.96,62.83-32.08C612.7,24.46,631.88,17.98,632.04,16.43z
		 M73.54,463.14l-3.99-3.18c-9.82,11.85-19.73,23.62-28.69,36.15c-2.24,3.13-20.57,29.46-19.46,30.91c0.16,0.2,3.84,1.33,4.74,1.85
		C39.34,505.24,55.88,483.62,73.54,463.14z M623.1,29.14l-2.03-4.85c-25.76,9.23-50.26,21.77-73.81,35.73l2.43,4.49
		C573.08,50.63,597.47,38.23,623.1,29.14z M107.13,484.58l-29.95-18.39c-1.09-0.68-1.88-0.4-2.91,0.2
		c-2.82,1.64-13.01,15.53-15.87,19.2c-11.64,14.96-24.99,33.59-33.88,50.24c-1.23,2.31-3.79,5.18-2.48,7.6
		c2.17,3.99,24.65,20.86,27.57,19.4c10.92-14.91,20.4-31.13,31.42-46.12C89.17,505.63,97.76,494.56,107.13,484.58z M564.88,101.34
		c27.34-16.88,56.96-30.41,86.99-41.82c0.8-0.91-2.54-11.8-3.3-13.59c-1.55-3.63-9.62-18.89-12.85-18.89
		c-0.97,0-5.08,1.73-6.58,2.24c-26.33,8.79-52.33,22.66-76.38,36.5l-0.7,2.84L564.88,101.34z M111.23,486.36
		c-1.87-1.27-3.27,0.04-4.59,1.31c-6.11,5.85-15.51,19.89-21.03,27.31c-7.13,9.59-18.93,24.59-24.07,34.78
		c-2.45,4.85,0.14,6.07,3.13,2.44c8.49-10.35,17.4-27.19,25.78-38.92C97.02,504.08,103.75,494.86,111.23,486.36z M566.68,105.05
		c9.38-5.19,18.95-10.17,28.64-14.75c13.22-6.25,31.69-12.22,43.58-18.88c4.1-2.3,3.35-5.06-1.85-3.51
		c-16.52,4.94-54.08,24.03-68.99,33.51C566.28,102.56,564.43,103.27,566.68,105.05z M164.65,500.33c0.31-1.81-16.64-2.36-18.57-2.69
		c-11.49-1.98-22.28-6.02-33.23-9.88C93.58,513.35,73.83,539,59.01,567.43c13,9.83,29.88,17.53,43.4,4.4
		c17.62-17.09,36.56-42.81,52.94-62.03C158.2,506.47,161.27,503.13,164.65,500.33z M654.43,68.23
		c-30.15,10.61-59.12,24.43-87.42,39.3c1.74,11.42,3.97,22.84,3.88,34.45c-0.01,1.96-2.45,18.74-0.61,18.75
		c3.35-2.84,7.18-5.27,10.96-7.48c21.88-12.79,50.35-26.83,70.37-41.21C666.42,101.39,662.73,82.07,654.43,68.23z"/>
	<path d="M199.83,39.19c17.81,15.01,34.47,31.46,50.76,48.17c50.81,52.11,100.26,105.7,150.68,158.14
		c19.11,19.88,38.99,39.01,57.55,59.42c-16.87,10.6-34.5,20.47-50.75,32.08c-31.15,22.25-57.13,50.11-81.89,78.97
		c-1.91-0.32-19.56-27.51-22.43-31.44c-51.51-70.64-104.28-140.63-155.13-211.8c-13.56-18.98-26.82-38.29-38.49-58.43
		c7.88-4.26,16.49-9.14,23.64-14.52c10.48-7.87,22.04-18.39,32.2-26.96C178.24,62.47,190.42,52.32,199.83,39.19z M200.22,42.78
		c-9.5,11.46-19.7,22.48-31.55,31.61c-7.93,6.11-11.03,8.74-18.42,15.42c-11.11,10.04-23.61,18.26-36.66,25.49
		c1.93,1.75,2.61,5.62,4.53,7.1c0.91,0.7,14.3-6.85,16.5-8.13c23.29-13.56,43.46-30.44,60.89-50.98
		c1.57-1.85,11.24-13.38,11.16-14.28C206.54,47.53,201.01,44.84,200.22,42.78z M208.82,49.93c-22.51,32.28-54.53,57.68-89.38,75.5
		c2.22,1.87,6.44-0.76,8.68-1.79c25.13-11.56,58.61-39.76,75.31-61.78c1.57-2.07,5.92-7.39,6.79-9.21
		C210.89,51.24,209.45,50.94,208.82,49.93z M130.5,124.69c-0.32-0.02-2.94,2.44-4.46,2.36c4.53,6.29,9.27,12.53,13.13,19.27
		c4.08,7.11,6.21,15.76,9.92,22.18c4.11,7.1,12.33,17.47,17.55,24.27c2.53,3.3,5.54,6.3,8.09,9.58l-6.51-15.12
		C163.41,180.11,134.14,124.98,130.5,124.69z M275.17,118.27c-3-3.34-5.63-7.08-8.65-10.41c-5.48-6.04-14.19-15.73-20.17-20.78
		c-5.66-4.78-13.81-8.4-20.09-13.67c-5.99-5.02-11.01-11.04-17.01-16c0.16,1.57-2.71,3.18-2.76,3.66
		c-0.28,2.88,37.74,34.23,43.01,38.54c7.27,5.94,14.99,11.83,22.61,17.31C273.06,117.6,274.15,119.44,275.17,118.27z M146.12,116.78
		l-12.18,6.56l-0.05,1.93c9.87,15.87,20.16,31.64,29.16,48.02c10.81,19.68,17.82,41.33,32.5,58.59L146.12,116.78z M300.58,143.95
		c-9.63-13.66-24.06-20.54-36.7-30.29c-19.93-15.38-38.88-32.06-57.41-49.14l-1.91-0.29l-8.6,10.84L300.58,143.95z M155.19,110.49
		l-5.98,3.72l51.38,124.88l81.65,111.93l-45.55-78.21C207.41,219.77,179.89,165.75,155.19,110.49z M192.88,77.65l-4.4,5.59
		c50.11,33.71,98.2,70.38,145.15,108.42l69.62,59.35l-96.47-100.82L192.88,77.65z M159.79,106.63l-2.77,3.08
		c42.85,95.01,93.06,186.73,149.25,274.67l-2.37-9.07c-11.68-31.93-32.77-59.24-50.18-88.21
		C218.69,228.81,188.13,168.31,159.79,106.63z M166.69,100.85c-1.74,1.66-5.06,2.97-4.13,5.67
		c25.25,55.41,51.92,110.29,82.94,162.81c22.92,38.82,51.8,75.11,65.04,118.63l-3.74-18.79c-3.93-14.17-6.79-23.79-15.51-35.45
		c-42.27-56.58-74.97-122.81-100.55-188.5c-1.7-4.36-7.46-24.54-8.97-26.35L166.69,100.85z M174.36,94.42l-5.38,4.5l24.28,30.54
		c1.31-3.05,3.66-5.01,6.89-5.76L174.36,94.42z M176.66,92.5l15.09,18.02c1.51,1.81,20.37,11.02,24.36,13.46
		c60.19,36.73,119.61,80.55,167.89,132.12c2.19,2.34,5.45,6.55,7.08,8.08c3.3,3.09,19.94,10.93,25.1,13.42
		c5.78,2.79,11.88,5.19,17.78,7.75c0.72,0.31,2.33,2.03,2.11,0.13c-41.55-20.32-72.66-55.93-107.4-85.78
		c-46.26-39.75-95.59-75.67-145.69-110.27C180.47,88.04,178.6,91.08,176.66,92.5z M186.61,84.37l-3.04,2.36
		c55.36,38.57,109.45,79.1,160.48,123.6c23.15,20.19,44.42,42.91,69.92,60.11l17.91,10.09c-1.3-1.68-2.66-3.3-4.18-4.81
		c-15.09-14.88-34.42-30.72-50.69-44.78C316.33,178.56,252.64,129.62,186.61,84.37z M219.41,202.78
		c-5.13-10.07-9.47-20.7-13.21-31.34c-4.46-12.7-6.57-26.28-13.33-37.39c-1.94-3.19-4.09-6.39-6.29-9.41l3.26,11.28
		c8.64,20.52,15.71,44.73,26.54,64.11C216.91,200.95,218,204.16,219.41,202.78z M271.81,164.12
		c-20.19-16.14-42.53-29.48-64.71-42.65l-10.53-5.2c2.94,4.18,7.94,6.55,11.64,9.51c1.44,1.15,1.64,3.13,3.08,4.28
		c5.7,4.52,20.79,8.01,27.23,13.36L271.81,164.12z M211.44,132.51c-1,6.27-5.13,9.73-11.48,9.61
		c11.64,43.27,31.64,84.03,53.79,122.97c12.38,21.77,26.31,42.39,39.72,63.5c2.62-6.32-1.75-16.45-4.36-22.74
		c-6.26-15.08-15.89-29.26-23.2-43.94c-3.2-6.44-13.56-33.26-16.9-35.98c-2.14-1.74-6.06-2.23-8.86-4.76
		c-8.62-7.81-11.12-15.84-9.59-26.99c0.24-1.75,1.9-3.47,1.88-5.51c-0.07-5.67-7.95-16.46-4.27-24.5c8.67-2.05,16.9,6.83,22.68,8.29
		c6.57,1.66,13.15-2.98,22.38,3.76c9.96,7.27,7.85,11.65,12.08,19.31c1.94,3.52,26.82,18.79,32.45,22.96
		c13.13,9.74,25.51,21.8,39.18,30.56c5.73,3.67,14.93,9.77,21.62,8.29C328.01,209.55,274.56,162.56,211.44,132.51z M249.05,172.74
		c-5.97-3.34-11.92-6.5-18.95-6.27c-1.46,6.87,0.61,13.29,2.84,19.75c4.34-1.92,1.07-12.64,3.03-14.28
		C239.97,173.09,245.25,176.07,249.05,172.74z M240.07,185.79c-17.55,20.63,13.12,49.08,33.01,30.66
		C296.03,195.22,261.91,160.13,240.07,185.79z M299.6,323.45c-11.35-32.22-27.61-62.58-36.13-95.87c-1.16-1.53-7.85,0.15-10.32-0.87
		c8.72,30.75,30.49,57.61,40.51,87.35c0.69,2.06,1.98,11.05,3.63,11.28c0.18,0.03,1.81-1.36,3.31-1.49
		c6.58-0.58,11.49,7.45,8.8,12.9c-0.94,1.9-4.16,3.82-4.2,4.25c-0.03,0.24,1.9,2.58,2.38,4.1c5.04,15.96,4.94,34.93,7.55,51.43
		l12.64-18.39c-8.91-18.5-9.43-38.48-13.29-57.97c-3.04-15.34-16.82-55.09-15.39-67.38c0.17-1.45,0.22-2.55,1.66-3.4
		c0.72-0.43,13.98,4.15,15.99,4.93c13.27,5.17,25.65,12.81,38.85,18.21c21.94,8.97,45.82,13.23,65.73,27.3l20.33-9.21
		c-15.39-5.09-32.65-8.41-47.23-15.64c-1.59-0.79-5.35-3.82-5.7-3.82c-0.7,0.01-2.81,2.7-4.91,3.32c-7.3,2.15-15.56-7.96-9.1-13.93
		c-6.68-4.46-14.35-7.59-21.24-12.17c-13.31-8.86-25.46-20.12-38.55-29.57c-9.46-6.82-19.43-12.98-29.17-19.37
		c-0.15,2.34-2.43,9.42-1.33,10.62c26.09,12.97,51.16,27.93,74.43,45.54l-9.83-5.11c-18.69-14.81-39.83-24.85-60.71-35.88
		c-4.98-2.63-4.24-5.4-8.7,1.68c-0.65,1.03-1.81,0.56-0.16,2.09c32.27,10.78,58.7,31.13,88.52,46.55
		c-5.59-0.62-11.73-4.18-16.78-6.84c-13.73-7.22-26.49-16.32-40.56-22.99c-11.04-5.24-22.94-8.4-33.93-13.75
		c-0.72,0.07-0.53,3.03-0.45,3.85c0.93,9.04,3.97,23.58,6.31,32.5c4.19,15.98,11.36,31.09,16.19,46.87
		c1.03,3.35,2.99,7.91,2.25,11.2c-7.71-23.02-18.37-44.87-24.14-68.5c-1.37-5.59-2.48-18.89-4.39-23.11
		c-1.02-2.26-5.72,2.33-7.26,2.81c8.39,30.38,21.34,58.97,32.9,88.2L299.6,323.45z M291.27,329.11
		c-16.62-24.15-31.93-49.09-46.64-74.4l3.17,7.72c11.28,20.98,23.46,41.34,37.27,60.8L291.27,329.11z M380.21,254.65
		c-17.55-20.1-37.87-37.4-58.75-53.85l-7.04-4.51c16.03,14.6,33.59,27.44,48.31,43.5L380.21,254.65z M419.38,301.42
		c-16.88-13.69-38.81-17.34-58.48-24.97c-15.79-6.13-30.75-15.39-46.4-21.13c-2.05-0.75-13.59-5.38-14.29-2.81
		c2.69,20.89,10.22,40.74,14.53,61.28c4.46,21.25,5.16,43.02,14.16,63.36c2.2-2.21,4.45-4.53,4.56-7.75c0.23-6.15-4.3-26.32-6-33.19
		c-4.72-19.11-11.42-33.69-11.74-54.28c-0.05-2.97-0.64-11.24,1.68-12.62c10.26,2.16,20.77,3.83,30.68,7.44
		c11.2,4.08,21.19,10.63,32,15.4c10.72,4.73,22.16,7.67,32.8,12.58L419.38,301.42z M410.42,306.3l-37.33-15.22
		c-17.09-10.28-35.38-16.58-55.04-19.57c-1.26,19.69,3.23,39.09,9.59,57.63l8.42,39.43l5.14-6.45
		c-2.3-21.14-13.12-39.65-15.04-60.79c-0.17-1.85,0.7-4.32,0.36-5.71c-0.48-1.94-3.51-3.32-4.23-6.7
		c-1.5-6.98,5.55-12.88,12.16-10.18c3.2,1.31,4.02,4.53,5.85,5.34c1.3,0.58,3.89,0.16,5.68,0.65c15.36,4.2,24.47,11.49,38.16,17.97
		c4.32,2.04,14.8,6.66,19.04,7.55C404.48,310.53,408.77,307.05,410.42,306.3z M329.74,295.61c-3.01-0.27-0.03,16.5,0.34,18.13
		c3.62,15.79,12.15,30.88,12.99,47.64c1.32-0.88,2.18-2.16,2.65-3.66c1.85-5.97-11.42-35.28-13.53-43.79
		C330.98,311.96,330.66,295.69,329.74,295.61z M402.12,311.95c-17.65-4.02-32.26-16.82-48.74-22.66
		c-1.58-0.56-13.31-4.65-13.66-2.02c5.74,2.12,11.98,3.12,17.6,5.63c7.97,3.57,34.6,21.78,40.73,21.01
		C399.61,313.72,401.01,313.09,402.12,311.95z M396.11,315.67c-17.39-5.36-33.53-22.1-51.35-25.23c-6.83-1.2-3.9-0.11-8.04,3.36
		c-1.42,1.19-3.83,1.57-4.6,3.04c-0.71,1.36,0.26,8.72,0.59,10.74c2.71,16.74,12.64,31.66,15.1,48.54c2.06-2.31,7.03-4.67,8.11-7.44
		c1.01-2.6-7.03-27.43-1.06-33.48c6.74-1.23,13.78,0,20.18,2.09c2.52,0.83,10.9,5.31,12.33,5.09
		C390.04,321.97,393.6,317.18,396.11,315.67z M301.24,328.77c-5.92,0.89-4.68,8.76,0.37,8.03
		C307.22,335.99,303.95,328.36,301.24,328.77z M310.6,375.54c0.06-5.45-3.28-30.55-6.19-33.33c-0.83-0.79-3.42-0.33-4.65-0.63
		L310.6,375.54z M421.76,282.47l-31.52-16.64c0.08,1.27-0.83,3.74-0.2,4.69C392.26,273.86,416.38,281.57,421.76,282.47z
		 M384.73,323.9c-3.32-3.99-25.68-9.84-28.84-7.19c-3.26,2.73-0.75,24.96,1.68,29.28c11.63-4.68,4.49-15.28,2.85-23.87
		C369.01,325.48,376.95,333.66,384.73,323.9z M442.91,292.2c-12.73,6.29-25.68,12.01-37.61,19.86
		c-27.79,18.27-61.6,47.05-80.71,74.3c-2.51,3.57-9.55,11.98-5.31,15.15c22-35.84,55.99-66.66,91.65-88.93
		c10.67-6.67,22.69-12.86,34.81-16.3L442.91,292.2z M450.74,299.94c0.1-1.87-2.79-2.04-4.45-1.77c-5.23,0.86-15.63,6-20.64,8.59
		c-32.84,17-79.39,55.37-98.87,86.89c-1.2,1.95-8.41,12.55-4.07,13.47c0.27,0.06,1.67-4.11,2.25-5.12
		c9.63-16.39,30.15-34.77,45.26-46.4c0.96-0.74,2.37-2.97,3.31-1.48c-12,11.48-25.81,21.99-36.4,34.76
		c-2.67,3.22-12.02,15.98-12.72,19.3c-0.33,1.56,1.39,2.4,2.15,3.53c7.12-7.87,13.82-16.31,21.12-24.03
		c22.82-24.13,44.38-43.24,72.02-61.76c11.32-7.59,23.32-14.26,34.9-21.4c-0.98-0.95-1.51-2.79-3.1-2.74
		c-3.4,0.11-17.61,7.07-21.24,9.13c-10,5.67-19.37,13.05-28.09,20.54l-13.16,8.44c16.17-13.4,33.93-29.13,53.36-37.55
		C444.11,301.6,450.72,300.38,450.74,299.94z"/>
	<path d="M283.33,385.2l-44.76,46.86c-4.87,3.9-7.43-2.68-15.16,2.26c-18.07,17.32-34.46,36.52-52.35,54.13
		c-5.67,3.15-33.18-3.02-40.01-5.21C83.2,467.87,33.86,421.54,10.43,377.7c-15.25-28.52-23.7-60.13-26.62-92.15
		c19.84-18.18,41.62-37.05,54.79-60.82c1.96-3.55,4.45-12.13,6.65-14.37c5.37-5.45,27.44-14.82,35.85-20.92
		c14.07-10.22,27.48-23.03,34.34-39.17L283.33,385.2z M54.13,209.42c-8.51-1.01-8.89,8.41-12.01,14.21
		c-19.16,35.61-31.15,88.35-35.11,128.93c-0.62,6.36-1.87,12.39,3.08,17.66C18.34,315.12,30.03,260.08,54.13,209.42z M65.51,201.21
		c-2.51,2.95-6.78,3.52-9.17,6.6c-1.34,1.74-3.92,10.87-4.94,13.79c-12.96,37.06-24.06,78.71-32.35,117.1
		c-1.24,5.72-7.44,32.07-6.88,35.59c0.91,5.8,7.69,12.81,10.13,18.28c3.49-65.15,19.39-128.29,43.72-188.81L65.51,201.21z
		 M113.95,159.36c-3.28,4.25-5.98,8.88-9.49,12.99c-2.51,2.94-5.47,4.13-7.93,7.82c-6.33,9.48-15.78,39.83-20.17,52.16
		c-17.82,50.1-37.32,116-43.11,168.68c-1.15,10.45,1.98,8.3,8.19,15.98c9.67-60.97,23.87-119.95,44.81-178.11
		C95.7,212.6,108.89,186.75,113.95,159.36z M73.7,196.97c-6.07,3.27-8.28,12.73-10.83,19.26c-19.31,49.44-32.99,103.18-36.67,156.11
		l17.2-76.2L59,240.03L73.7,196.97z M142.52,373.64c21.63,2.87,45.74-9.81,51.6-31.49c6.5-24.02-5.13-48.93-15.25-70.21
		c-15.23-32.04-34.18-70.6-51.75-101.13c-2.23-3.88-5.43-8.15-8.19-11.72l9.82,33.16c11.23,29.09,22.43,58.5,37.92,85.71
		c5.58,9.79,13.24,19.31,18.05,29.28c20.98,43.49-44.49,81.16-66.79,35.26c-9.54-19.63,4.32-64.1,5.03-88.29
		c0.03-1.02,0.23-13.65-2.02-9.41c-8.56,21.66-19.68,43.31-20.2,67.07C100.18,338.31,113.14,369.74,142.52,373.64z M79.71,193.25
		c-1.74,1.22-3.09,2.38-4.21,4.23c-5.06,8.36-12.86,36.66-16.23,47.54c-15.24,49.22-25.29,99.84-35.43,150.25l6.68,8.69
		c1.63-0.77,1.06-1.85,1.34-3.07c4.37-19.01,6.75-39.33,11.02-58.65c11.9-53.93,28.91-106.83,50.37-157.75l-6.32,2.81
		c-1.39,0.72-2.31,1.8-3.13,3.09c-3.2,5.05-8.2,21.46-10.67,28.17c-8.54,23.1-15.38,46.84-22.44,70.42l-14.29,56.58
		c3.8-27.13,12.12-53.72,18.95-80.3L79.71,193.25z M53.76,430.16c2.47-33.66,7.78-65.57,15.83-98.33
		c3.03-12.3,6.54-28.65,10.39-40.25c11.97-36.11,33.9-77.35,37.19-115.96c0.13-1.52-0.48-11.01-1.55-11.13
		c-11.85,36.78-27.73,72.17-39.56,109c-15.15,47.21-24.9,95.89-32.96,144.73C45.14,423.47,50.54,425.86,53.76,430.16z M29.13,243.42
		c-6.03,6.97-8.53,18.1-11.15,27.04c-6.07,20.73-10.14,42.8-13.63,64.1l-1.45,0.58c3.53-26.83,9.66-53.34,16.96-79.42
		c-1.56-0.64-1.7,1.72-2.06,2.66c-6.56,16.98-10.62,37.6-13.7,55.58c-0.61,3.55-1.2,15.24-2.32,17.55
		c-0.21,0.43-1.09,1.25-1.45,0.58c2.49-23.56,6.94-46.94,13.27-69.81c-6,3.14-9.86,7.49-11.75,13.87
		c-5.25,17.73-9.32,47.21-4.42,64.92l3.03-2.57c0.18,2.29-1.07,5.71-0.61,7.77c0.22,0.98,1.56,1.57,1.76,2.37
		c0.63,2.59-0.83,5.93,2.56,8.28c1.72-0.88,1.14-2.34,1.4-3.77c3.42-18.35,5.37-36.96,9.3-55.26
		C18.81,279.51,24.24,261.53,29.13,243.42z M141.47,361.49c24.06,3.83,49.92-17.64,45.23-42.71c-2.56-13.66-13.77-26.62-20.65-38.74
		c-20.07-35.37-34.16-73.42-47.22-111.72c0.42,19.3,3.02,38.6,0.24,57.87l0.92,1.12c5.87-3.27,13.96,3.68,12.24,9.97
		c-0.68,2.49-3.22,4.09-3.28,5.56c-0.1,2.27,5.76,16.37,7.08,19.63c2.21,5.46,10.22,25.5,13.04,28.84
		c0.6,0.72,12.31,2.47,16.86,6.59c26.89,24.35-4.45,62.01-31.67,45.03c-14.94-9.32-18.04-31.31-4.99-43.49
		c8.65-8.08,10.42-1,7.05-16.35c-1.92-8.72-6.22-24.22-9.85-32.11c-0.42-0.91-1.5-3.34-2.68-2.01c2.58,23.09-5.69,45.79-7.88,68.52
		C114.27,334.28,122.76,358.51,141.47,361.49z M-3.7,277.43c-2.06,2.1-5.07,4.85-6.07,7.62c-0.63,1.74-1.54,15.81-1.43,18.33
		c0.19,4.27,1.36,9.25,2.6,13.36L-3.7,277.43z M93.31,264c10.7-16.54,27.11-30.76,25.52-52.03l-1.5-26.75l-12.15,45.41L93.31,264z
		 M37.86,256.98c-2.69,4.79-4.3,10.87-5.93,16.15c-1.01,3.27-13.74,48.94-11.22,49.05l16.9-61.32L37.86,256.98z M118.62,242.83
		c-1.43-0.08-13.09,21.75-14.58,24.61c-17.78,34.02-23.51,70.22,5.99,100.44c29.47,30.19,86.92,10.7,93.53-29.87
		c6.7-41.15-25.64-92.65-47.24-126.28c-6.25-9.73-13.28-19.32-19.99-28.75c-0.64-0.9-1.83-3.33-2.98-2.04
		c13.88,27.02,29.06,53.54,42.46,80.79c17.36,35.29,44.07,94.91-12.31,111.58c-43.22,12.77-67.85-29.14-64.39-67.26
		c2.11-23.18,13.41-38.89,19.81-59.29C119.2,245.87,120.25,242.92,118.62,242.83z M123.17,231.53c-5.09-0.51-5,8.61,0.38,7.86
		C128.14,238.75,127.79,231.99,123.17,231.53z M110.81,242.85c-11.58,15.27-23.02,31.3-29.32,49.57
		c-19.46,56.45,17.96,118.85,82.43,100.09c45.29-13.17,57.49-42.55,50.66-86.17c-0.48-3.07-3.24-20.21-5.35-20.7
		c0.72,8.25,2.32,16.86,2.82,25.44c2.26,39.2-11.34,72.99-54.44,80.6c-51.98,9.18-84.9-41.23-75.94-88.6
		c4.12-21.76,17.43-38.58,28.17-57.14C110.39,244.98,111.89,243.77,110.81,242.85z M115.28,240.41
		c-22.55,33.87-43.55,66.1-28.01,107.9c18.11,48.71,78.61,56.54,111.29,17.67c12.84-15.27,13.33-48.91,10.67-67.91
		c-3.2-22.9-13.98-31.27-26.89-49.23c-2.75-3.83-5.34-8.99-8.12-12.79c-0.81-1.11-3.31-5.29-4.92-4.34
		c27.57,39.21,64.7,117.33,4.43,146.2c-52.52,25.16-93.68-24.88-84.89-75.59c3.66-21.13,16.76-41.13,27.86-59.16L115.28,240.41z
		 M127.84,242.94l-3.71,1.79c5.51,9.19,9.34,20.89,12.44,31.27c1.65,5.53,3.85,11.62,3.48,17.35l5.05-0.99L127.84,242.94z
		 M74.51,324.11c-0.73-0.02-3.59,9.18-4.01,10.64c-5.38,18.33-8.6,38.71-10.57,57.62l10.4-46.28
		C72.47,338.6,75.87,332.14,74.51,324.11z M75.56,336.27c-1.03-0.06-2.54,6.54-2.93,7.9c-6.59,22.47-13.22,55.55-15.78,78.82
		c-0.78,7.11-1.33,9.55,4.74,14.96c3.17-25.94,6.23-51.88,12.32-77.34c0.88-3.66,3.6-9.38,3.88-12.43
		C78.09,344.75,75.58,340.01,75.56,336.27z M130.75,306.02c-15.02,17.74,9.37,46.03,29.44,32.42
		C189.31,318.7,153.56,279.06,130.75,306.02z M79.18,351.5c-1.94-0.17-7.23,25.72-7.84,28.76c-3.72,18.73-5.54,37.87-7.98,56.79
		c1,5.73,7.66,7.12,10.8,11.25c4.59-21.28,1.31-43.28,3.2-64.66c0.59-6.64,4.8-20.34,4.49-25.16
		C81.68,355.88,80.5,353.65,79.18,351.5z M83.93,361.86c-5.29,23.36-0.45,47.23-1.6,70.48c-0.16,3.26-2.65,18.05-2.4,18.97
		c0.84,3.1,15.47,13.08,16.65,12.09c-0.93-28.46-3.57-56.88-2.38-85.38L83.93,361.86z M126.08,479.16
		c-2.62-28.26-6.72-56.37-7.77-84.78c-8.09-4.16-16.02-8.51-22.44-15.12l-0.16,31.56l3.16,54.28l3.03,2.33l1.56-1.26L101.05,401
		c1.35,1.08,1.07,2.56,1.27,4.01c0.88,6.33,1.11,14.81,1.54,21.43c0.92,14.01,0.82,28.09,1.82,42.1
		C107.52,472.3,121.99,476.67,126.08,479.16z M80.29,437.49c0.52-6,0.41-13.4,0.3-19.49c-0.09-5.31-0.06-11.82-1.56-16.81
		c-0.67,15.43,0.34,31-3.1,46.21l2.57,3.78C78.31,446.66,79.92,441.72,80.29,437.49z M274.98,390.85
		c1.28-4.15-31.64-51.17-33.3-60.1l-27.43-37.56c-0.6,2.26,1.47,6.25,2.44,8.37c14.84,32.6,37.8,60.87,52.77,93.41
		C269.94,395.58,274.74,391.61,274.98,390.85z M268.76,397.39l-52.06-91.92c-0.05,9.17,4.57,19.58,8.21,28.05
		c10.66,24.78,28.48,46.28,34.35,72.61C260.61,404.25,268.66,398.03,268.76,397.39z M121.51,394.31c-1.39,0.13-1.22,2.07-1.3,3.06
		c-0.51,6.46,1.05,17.99,1.57,24.98c1.44,19.11,3.7,38.54,7.5,57.17c0.93,0.94,13.62,4.63,14.47,4.39c1.32-0.36,0.37-4.98,0.3-6.35
		c-1.36-27.03-6.02-53.86-11.2-80.39C130.53,397.97,122.18,394.24,121.51,394.31z M253.32,413.05c7.43-4.66,3.05-14.33,0.38-20.9
		c-9.55-23.51-26.87-44.39-35.04-68.76c-0.52,3.97-1.29,10.66-0.93,14.46c0.55,5.9,9.46,25.36,12.53,31.64
		C237.48,384.22,247.34,397.72,253.32,413.05z M150.4,484.88c-2.69-24.57-4.65-49.24-9.2-73.59c-0.47-2.5-1.76-11.72-2.56-13.03
		c-0.83-1.36-2.29-0.81-3.55-0.98c-1.87,0.94-0.5,1.5-0.25,2.77c5.48,27.74,10.2,55,11.08,83.35
		C146.24,484.76,150.18,485.65,150.4,484.88z M157.45,485.5c-7.43-20.46-4.85-42.35-7.74-63.52c-0.52-3.83-2.93-20.92-4-23.13
		c-1.25-2.58-2.66-1.3-4.93-1.02c4.21,28.3,9.53,56.65,10.52,85.39C150.68,486.03,157.27,486.13,157.45,485.5z M154.05,395.85
		c-0.38-0.09-6.76,1.59-7.03,2.45c-0.47,1.5,4.64,26.31,5.15,31c1.48,13.61,0.61,27.23,3.04,40.73c0.42,2.32,2.86,14.21,3.57,15.24
		c1.2,1.73,13.81,2.89,13.4-2.56c-8.39-21.8-6.84-45.46-11.85-67.6C159.69,412.31,155.55,396.23,154.05,395.85z M244.76,421.52
		c2.26-1.89,7.06-5.89,6.61-8.99c-11.53-23.22-25.19-45.13-34.45-69.42c0,3.67-3.92,10.57-3.35,13.6
		c0.65,3.43,5.91,14.61,7.76,18.38C228.99,390.63,239.43,404.86,244.76,421.52z M166.36,393.33c-1.79,1.8-9.19,1.15-9.21,3.73
		c-0.03,4.08,4.9,17.6,5.98,23.27c3.87,20.39,2.75,41.89,10.98,61.66c1.5-2.85,10.42-9.72,10.73-11.82
		c0.13-0.84-5.38-12.54-6.3-15.82C173.11,435.04,176.18,412.19,166.36,393.33z M172.23,390.97c-0.69,1-2.64,1.19-3.16,1.76
		c-0.77,0.85,4.76,18.23,5.45,21.51c3.77,18.08,1.54,38.82,12.1,54.66c1.25-1.97,6-5.67,6.03-7.62c0.02-1.47-6.07-14.69-7.17-18.38
		C180.52,426.17,180.92,406.96,172.23,390.97z M177.33,389.39c-0.35-0.07-2.8,0.67-2.66,2.14c0.5,5.29,5.32,15.16,6.85,21.2
		c2.59,10.19,2.85,20.99,6,31.06c0.75,2.41,5.71,15.82,7,15.88c0.2,0.01,2.96-2.34,2.99-2.57
		C188.58,449.7,184.52,390.92,177.33,389.39z M234.69,431.08c1.01-0.13,5.3-4.09,6.19-5.28c3.03-4.01-2.81-15.2-4.88-19.6
		c-7.44-15.84-18.17-30.41-24.05-47.2c-1.29,3.43-5.74,7.27-6.9,10.38c-2.01,5.4,17.64,35.58,21,43.03c1.5,3.32,2.79,6.89,4.08,10.3
		C230.9,424.71,230.9,431.58,234.69,431.08z M211.43,442.71c-4.5-20.85-21.26-36.18-23.43-57.79c-1.04-1.08-7.35,2.7-8.48,3.84
		c8.9,14.37,8.22,32.79,12.75,49.05c0.44,1.58,5.65,19.18,7.27,17.68L211.43,442.71z M198.43,375.55c-4.93,4.93-9.73,4.7-8.38,12.38
		c3.39,19.25,18.34,33.77,22.48,52.74c4.29-3.94,7.81-7.96,12.87-10.92L198.43,375.55z M202.27,372.34
		c-0.85,0.89-2.13,0.9-1.88,2.45c0.42,2.53,3.86,10.27,5.12,13.09c6.55,14.71,16.96,27.45,22.12,42.77
		c0.85-0.87,2.05-0.87,1.86-2.45c-0.38-3.22-4.07-11.96-5.6-15.26C217.46,399.09,207.95,386.61,202.27,372.34z M276.05,388.8
		c1.48-1.26,4.35-2.75,3.45-5.01l-28-38.32l19.71,33.32L276.05,388.8z"/>
	<path d="M390.63-55.07c31.05,8.5,60.6,22.41,86.04,42.42c26.55,20.89,46.48,47.55,62.28,77.26
		c15.87,29.84,27.02,66.91,18.49,100.32l-58.78,38.74c-2.81,2.09-7.08,6.45-7.22,10.07c-0.11,2.83,2.83,5.3-1.37,7.73l-54.01,35.85
		L234.31,50.75c17.1-3.91,32.07-14.86,44.6-26.92c7.49-7.21,20.59-27.29,26.9-31.62c2.6-1.78,11.48-2.7,15.32-4.02
		C346.89-20.64,369.29-38.57,390.63-55.07z M438.69-20.69c-39.19-1.26-81.44-0.63-118.54,11.95c-6.58,2.23-15.12,0.81-17.13,9.15
		C357.31-13.12,413.25-16.64,468.98-14C463.41-22.44,448.15-20.39,438.69-20.69z M436.98,14.65c-46.56,1.9-93.02,7.56-138.81,16.32
		c-7.25,1.39-26.34,3.98-31.82,6.61c-3.4,1.64-5.35,4.46-8.36,6.23c-4.66,2.74-9.7,4.58-14.46,7.06
		c27.81-0.28,55.62-8.64,83.16-13.3c60.68-10.27,121.34-14.35,182.83-12.49c-1.81-2.27-6.21-10.12-8.22-10.74
		C479.92,13.93,458.33,13.78,436.98,14.65z M489.24,1.66l-16.22-13.19c-38.31,0.27-76.74,2.16-114.85,6.31
		c-7.97,0.87-55.09,6.33-58.34,8.86c-2.34,1.82-3.67,5.37-6.58,6.91l2.43,0.95C359.28-1.82,424.69-6.35,489.24,1.66z M467.21,1.82
		c-53.08-5.77-108.6-1.29-160.89,9.29c-6.46,1.31-14.77,1.41-18.69,6.76l44.97-6.9c42.19-5.63,84.62-6.68,127.07-8.06
		C461.98,2.82,465.27,3.03,467.21,1.82z M347.6,78.05c28.73,2.64,67.67-7.5,86.44,19.87c10.8,15.75,2.12,38.97-12.7,49.1
		c-29.08,19.87-45.3-2.52-65.71-19.43c-29.87-24.76-62.55-45.54-96.55-64.01l-16.69-7.84c3.03,3.34,6.67,7.24,10.1,10.12
		c36.53,30.71,79.53,59.8,118.63,87.21c60.18,37.18,113.38-45.6,49.01-80.49c-29.49-15.99-63.08-6.53-93.73,0.21l-0.18,2.08
		C333.32,75.58,340.52,77.4,347.6,78.05z M440.47,7.26l-58.21,4.12c-22.57,2.44-45.12,5.01-67.51,8.81
		c-8.4,1.43-28.68,3.72-35.36,6.45c-3.85,1.58-4.87,5.18-8.1,7.52l55.89-10.03c56.39-9.26,113.59-12.88,170.68-11.44
		c1.97-1.1,0.46-1.72-0.46-2.91c-0.63-0.81-5.37-6.01-5.78-6.14C435.88,4.93,379.83,5.87,324.54,13.8
		c-8.26,1.19-32.98,3.95-38.97,7.16c-0.84,0.45-3.33,1.81-2.03,2.91C334.92,13.34,388.04,7.11,440.47,7.26z M520.69,39.23
		c-3.67-3.92-5.07-9.66-9.88-12.59c-49.51-0.71-99.12,0.38-148.27,7c-38.35,5.16-75.98,14.65-114.26,19.78
		c-0.07,1.15,9.96,3.36,11.4,3.49c23.46,2.17,63.6-4.74,87.41-9.04c12.32-2.22,25.24-6.79,37.62-8c6.85-0.67,14.03,0.59,20.58,0.05
		c11.46-0.94,22.83-3.27,34.41-3.85C466.73,34.73,493.76,37.46,520.69,39.23z M331.81,79.99c0.06,0.02,0.59-0.5,1.21-0.19
		c5.29,2.62,35.76,20.31,39.16,18.09c1.27-0.83,2.78-4.43,5.04-6.26c21.45-17.25,53.22,4.38,43.96,30.7
		c-9.37,26.64-49.16,23.51-53.52-5.45c-0.37-2.46,0.73-6.87-0.42-8.25c-2.43-2.93-18.99-13.42-23.4-16.25
		c-3.3-2.11-18.3-11.75-20.77-12.08c-1.45-0.19-3.48,2.02-6.05,2.25c-6.5,0.59-11.91-8.59-7.67-13.8l-0.94-1.1
		c-19.47-0.65-38-6.61-56.93-10.41c9.37,6.22,19.71,10.77,29.42,16.43c25.2,14.7,50.41,31.6,72.93,50.2
		c15.44,12.75,29.37,33.03,52.17,28.09c20.96-4.54,40.49-32.54,27.31-51.99c-18.64-27.49-52.75-17.9-81.3-19.99
		c-7.28-0.53-15.17-1.5-22.01-3.7C328.56,77.15,331.12,79.28,331.81,79.99c-2.2-0.9-4.4-0.82-6.03-4.08l-2.1,3.69l45.31,25.33
		c3.39-5.95-3.4-5.7-7.82-7.82C353.31,93.34,337.54,85.8,331.81,79.99z M436.42-27.17l-34.51,1c-11.87,0.89-23.89,1.05-35.71,2.49
		c-8.22,1-18.06,1.33-25,5.83c18.92-1.65,37.81-3.87,56.83-4.5c19.81-0.65,39.76,0.04,59.55,0.94c2.13-1.51,0.51-0.97-0.55-1.84
		c-3.2-2.63-5.5-3.35-9.65-3.32l0.89-2.04l-7.04-0.64c-0.72-1.37,4.29-0.76,1.66-2.65c-9.21-6.62-23.29-6.63-34.33-7.08
		c-9.49-0.39-32.62-1.48-39.88,3.34c-1.76,1.17-3.81,3.01-5.38,4.49c-0.82,0.77-2.53,1.25-1.26,2.34c0.94-0.65,2.17-1.15,3.31-1.25
		c24.05-2.31,48.37-2.32,72.43-0.18c0.6,0.47-0.36,1.19-0.82,1.32c-2.01,0.57-17.44-1.13-21.2-1.17
		c-18.39-0.23-39.81,0.21-57.83,3.71c-0.99,0.19-3.33-0.09-2.98,1.56C381.98-27.24,409.38-29.29,436.42-27.17z M419.99-42.1
		c-5.49-4.07-29.38-8.61-34.6-5.97c-1.88,0.95-3.34,2.58-4.95,3.88L419.99-42.1z M349.54,48.21c-26.35,7.4-54.02,8.3-81.15,10.54
		l26.07,6.18c15.49,2.24,18.93,0.74,33.12-5.24c6.31-2.66,13.93-6.02,19.98-9.11C348.48,50.1,350.91,49.5,349.54,48.21z
		 M420.19-12.28c0.19-1.39-25.9,0.1-28.05,0.25c-9.88,0.67-20.3,1.55-30.08,3.04c-2.9,0.44-6.54,0.68-9.06,2.13L420.19-12.28z
		 M395.43,163.11c-38.3-6.8-95.51-60.49-128.44-84.71c-1.35-0.99-4.15-3.87-5.74-3.25c19.72,20.82,41.04,40.07,63.35,58.06
		c23.01,18.55,54.06,40.75,85.46,36.99c33.97-4.07,60.47-49.02,43.59-79.77c-17.43-31.77-51.44-42.31-85.24-35.06
		c-4.66,1-43.26,12.49-43.54,14.78c-0.2,1.63,2.89,1.11,3.81,0.99c7.63-0.98,17.35-4.63,25.39-6.1c25.94-4.75,53.34-5.2,75.67,11.24
		C472.25,107.56,444.42,171.8,395.43,163.11z M314.1,70.24c-3.92,3.86,1.92,9.36,5.69,5.56C323.32,72.22,317.06,67.32,314.1,70.24z
		 M351.1,166.88c4.52,3.84,11.65,6.26,17.36,8.3c42.09,15.06,73.61,9.25,95.5-33.44c30.81-60.08-24.36-108.62-83.73-99.4
		c-18.96,2.94-37.96,11.59-54.71,20.77l45.07-16.07c42.05-10.31,94.01,12.68,97.35,60.27c3.39,48.32-40.16,80.91-86.03,68.3
		L351.1,166.88z M303.61,117.95l32.14,33.72c10.36,10.25,13.92,12.83,27.56,17.39c17.62,5.89,53.2,11.61,69.48,1
		c52.05-33.93,42.52-102.58-17.72-120.54c-33.15-9.88-61.78,4.62-92,16.92l2.44,1.88c32.49-14.71,77.84-27.61,108.71-2.65
		c26.37,21.32,35.04,47.73,16.94,77.78c-28.49,47.3-82.13,27.41-116.81-0.14L303.61,117.95z M461.23,37.39
		c-11.74-0.04-25.75,0.38-37.4,1.54c-1.56,0.16-11.02,1.01-11.18,2.09c8.85,3.12,17.67-0.21,26.68-0.71
		c13.94-0.78,27.98-1.02,41.95-0.68l0.82-1.33C475.18,38.1,468.1,37.41,461.23,37.39z M526.34,47.53
		c-3.57-6.87-6.34-6.12-13.26-6.52c-23.88-1.37-56.65-0.91-80.36,1.68c-1.4,0.15-8.16,0.47-8.29,1.5c3.68,0.68,7.9,3.98,11.33,4.28
		c6.43,0.56,21.84-2.18,30.02-2.37c18.67-0.43,39.53,2.99,57.3,2.21C524.35,48.26,525.3,48.99,526.34,47.53z M376.88,99.95
		c-13.76,16.73,7.46,44.48,27.96,33.09C436.91,115.22,400.3,71.47,376.88,99.95z M534.96,62.5c-3.01-3.92-4.16-10.79-9.17-12.61
		c-19.06-0.92-38.21-2.5-57.31-2.13c-3.1,0.06-29.51,0.72-29.69,2.66c1.88,1.69,3.87,3.23,6.39,3.86c4.26,1.06,19.17-0.58,25.56,0
		C492.06,56.23,513.25,63.4,534.96,62.5z M516.08,67.32c-22.63-3.02-44.54-11.36-67.93-10.4l14.11,12.95
		c28.29,4.34,56.49,10.29,83.91,18.44c0.61-2.32-1.5-6.18-2.46-8.37c-1.18-2.68-3.96-9.47-6.09-10.91
		C536.73,68.43,519.53,67.78,516.08,67.32z M549.24,93.57c0.88-4.34-10.6-6.14-13.92-7.01c-13.79-3.61-27.97-5.87-41.74-9.58
		l-30.4-5.24c5.49,7.51,8.34,15.95,10.94,24.75c12.44,3.34,25.08,5.9,37.48,9.4c13.24,3.74,28.68,10.21,41.43,13.12
		c0.72,0.16,3.01,0.64,3.18,0.03c-1.73-4.47-3.48-19.48-6.86-21.95l-36.26-8.05l-30.83-8.51c19.81,3.21,39.09,9.16,58.86,12.62
		C542.48,93.39,548.91,95.19,549.24,93.57z M537.4,66.97l-3.64-2.89c-16.08,0.82-31.63-3.4-47.45-5.2
		c3.22,1.85,7.76,2.55,11.41,3.35C510.77,65.11,524.06,66.83,537.4,66.97z M448.44,245.78c-28.76-20.69-52.93-47.05-81.65-67.82
		l-9.15-4.82l32.15,33.61c8.63,3.26,48.91,43.9,53.31,43.33C444.48,249.9,446.9,246.64,448.44,245.78z M461.23,237.68
		c-25.44-11.03-43.85-32.76-67.09-47.87c-7.3-4.75-16.28-10.7-24.83-12.09l81.33,67.41L461.23,237.68z M556.66,138.22
		c1.71-0.16,0.74-9.93,0.41-11.65c-0.34-1.83-0.33-4.08-2.06-5.24c-17.8-6.06-35.75-11.8-53.96-16.5
		c-6.78-1.75-17.88-5.31-24.32-5.94c-0.99-0.1-2.87-0.6-3.24,0.74c-0.18,0.64,2.02,9.52,0.83,11.67
		C501.04,122.49,528.81,130.43,556.66,138.22z M468.77,232.67c-12.8-7.81-23.53-18.7-35.52-27.69c-8.14-6.1-19.29-14.13-28.15-18.84
		c-4.95-2.63-12.83-2.7-18.51-3.35c22.49,12.42,40.1,32.98,61.53,46.59C454.15,233.2,462.55,239.25,468.77,232.67z M475.15,112.57
		c-1.16,0.05-1.83,3.44-1.24,4.28c1.36,1.94,39.07,14.26,44.53,15.96c13.03,4.05,26.39,7.16,39.49,10.86l-1.05-4.35
		C529.06,132.56,501.1,124.81,475.15,112.57z M473.57,119.21c-2.29,4.84-0.88,4.4,2.94,6.14c19.65,8.92,41.1,10.93,60.93,17.35
		c6.86,2.22,13.17,5.42,19.86,8.02c0.14-2.36,1.48-5.24-1.52-6.13L473.57,119.21z M552.12,165.22c4-0.71,5.73-8.59,4.97-11.74
		c-0.53-2.22-18.42-8.66-21.87-9.73c-7.87-2.44-16.02-3.07-23.68-5.14c-12.84-3.47-25.47-8.27-37.89-13.03
		c-1.76-1.34-4.36,6.45-4.14,6.83c1.72,2.9,25.29,12,30.02,13.6c8.41,2.85,17.27,4.3,25.62,7.29
		C529.35,154.81,550.66,165.48,552.12,165.22z M419.2,183.25c-2.8-0.47-9,2.23-12.5,0.98c-0.68,0.38,0.13,1.08,0.58,1.48
		c5.75,5.07,16.61,10.03,23.51,15.1c5.78,4.24,35.54,30.43,39.21,30.19c1.44-0.1,8.49-4.36,8.62-5.26
		c-15.64-8.42-28.05-21.3-42.26-31.68C433.68,192.11,421.3,183.61,419.2,183.25z M550.56,166.8
		c-18.03-11.57-39.43-14.22-58.77-21.65c-5.36-2.06-17.86-9.29-21.86-9.97c-2.54-0.43-3.2,6.97-5.29,8.41
		c17.38,13.34,41.55,14.1,59.98,23.59c2.64,1.36,11.68,8.07,12.42,8.1C539.15,175.35,547.49,167.78,550.56,166.8z M535.48,176.83
		c-14.32-13.37-34.91-14.64-52.37-21.79c-3.06-1.25-18.55-9.49-19.53-8.88c-0.66,0.41-1.19,2.3-2.29,2.8
		c14.21,11.36,33.19,14.35,48.79,22.17c3.44,1.73,15.38,10.05,16.84,10.29C528.83,181.73,533.32,177.71,535.48,176.83z
		 M481.58,224.35c0.47-0.07,7.43-5.04,7.74-5.4c0.79-0.9-0.07-3.85-0.85-4.73c-0.83-0.93-11.47-5.66-14.2-7.47
		c-7.17-4.76-33.65-29.49-39.28-29.35c-0.66,0.02-12.1,4.41-12.15,5.06C432.56,186.24,475.37,225.28,481.58,224.35z M524.99,182.99
		c0.15-1.11-12.37-8.63-14.4-9.69c-8.09-4.24-17.11-6.02-25.42-9.58c-3.83-1.64-23.75-12.94-24.95-12.23
		c-0.55,0.33-1.11,2.37-2.25,2.85c19.51,13.89,45.41,15.44,63.96,31.13C522.17,185.49,524.96,183.19,524.99,182.99z M520.39,186.85
		c-14.23-12.21-33.94-15.23-50.16-22.72c-3.22-1.49-9.92-6.69-12.14-7.31c-2.39-0.67-4.11,3.58-5.43,5.22l52.17,34.43L520.39,186.85
		z M439.94,173.46c-1.07,0.11-2.91,1.46-1.33,2.92c3.46,3.18,9.95,6.47,14.06,9.75c10.47,8.37,19.69,18.05,31.94,24.13
		c1.2,0.6,3.88,2.8,4.84,1.19c1.17-1.95-0.79-2.27-1.82-2.99c-2.1-1.47-4.47-2.4-6.76-4.14
		C475.26,200.04,444.05,173.02,439.94,173.46z M503.13,197.38c-17.94-7.41-29.61-24.68-47.97-31.4c-7.33-2.68-7.94,2.09-13.66,6.07
		l48.62,36.08C493.89,203.68,498.69,201.11,503.13,197.38z M440.9,250.79l-9-6.53L402.56,219l32.8,34.3
		C437.41,254.59,439.41,252.01,440.9,250.79z"/>
	<path d="M570.49,108.89c18-9.86,36.35-19.28,55.39-26.94c3.4-1.37,25.91-10.03,27.13-9.23c5.51,11.28,7.46,26-1.83,35.96
		l-75.78,46.25c-1,0.36-2.22,0.34-2.76-0.71c-0.33-0.63,1.08-10.51,1.07-12.69C573.62,130.53,571.4,119.79,570.49,108.89z
		 M614.93,89.46l-43.03,21.73c4.91,12.62,4.11,27.35,4.11,40.82l43.86-27.51C619.63,112.5,619.25,100.88,614.93,89.46z
		 M651.2,104.73c-6.75-7.31-7.99-17-6.55-26.48c-3.95,0.49-27.7,9.49-28.19,11.33c5.5,10.83,5.93,22.74,5.32,34.54L651.2,104.73z
		 M651,74.9c-1.16,1.21-3.34,1.23-4.16,2.78c-2.39,4.51,1.19,21,5.25,24.99C657.71,94.81,654.8,82.9,651,74.9z"/>
	<path d="M159.41,503.42c-21.46,21.21-39.53,45.48-60.23,67.41c-10.7,8.03-26.03,2.36-35.83-4.45
		c13.56-26.87,31.18-51.64,50.24-74.94c10.56,2.86,20.75,6.82,31.55,8.9C147.46,500.78,159.71,500.67,159.41,503.42z M115.6,493.28
		l-28.96,38.48c10.34,6.32,21.55,8.32,33.07,11.14l35.35-38.46C141.64,502.15,127.63,500.19,115.6,493.28z M86.49,533.29
		c-1.88,0.15-14.82,22.03-16.11,25.76c9.58,0.25,18.9,3.17,24.91,11.1l24.26-25.55C107.8,543.36,96.19,540.49,86.49,533.29z
		 M93.11,570.66c-3.22-4.69-18.82-11.12-23.68-9.56c-1.67,0.53-2.07,2.68-3.47,3.61C73.48,569.92,84.02,574.96,93.11,570.66z"/>
	<path d="M12.07,403.76c5.62,9.23,11.95,17.53,19.57,25.15c-18.94,22.15-34.56,46.65-49.43,71.58c-4.87-3.68-19.55-20.83-18.5-26.13
		C-23.29,448.9-7.43,424.8,12.07,403.76z M11.7,407.99l-22.92,28.49c4.32,8.35,9.93,15.76,16.26,22.73l23.03-29.9
		C22.55,422.22,16.31,415.73,11.7,407.99z M-12.3,438.52l-17.18,28.68c6.64,6.16,12.04,12.19,16.4,20.22l17.99-26.8
		C-3.62,454.7-8.34,447.98-12.3,438.52z M-29.9,468.9c-1.5,0.95-4.11,5.62-3.84,7.11c0.06,0.33,2.82,5.69,3.04,5.95l12.52,14.95
		c0.96-1.18,4-6.17,3.89-7.11c-0.04-0.33-2.87-5.7-3.08-5.95L-29.9,468.9z"/>
	<path d="M602.51-18.84c-27.19,10.19-53.98,21.39-79.15,36.09C517.28,8.27,510,0.88,502.04-6.45c24.16-15.52,50.65-26.9,78-35.22
		C584.83-41.97,599.86-23.79,602.51-18.84z M557.86-3.63l-11.23-13.42c-1.16-1.39-7.46-5.93-9.44-5.58
		c-4.21,0.74-24.33,12.14-29.03,15.1c-4,2.52,2.29,5,4.33,7.27c4.1,4.56,7.64,9.67,11.89,14.09L557.86-3.63z M572.13-36.33
		l-32.37,12.65c8.92,3.42,14.73,10.3,18.6,18.88c10.16-2.71,20.48-7.63,30.44-11.71C581.9-22.33,576.31-28.24,572.13-36.33z
		 M599.05-19.86l-11.88-14.18c-0.25-0.29-5.6-4.68-5.96-4.81c-1.41-0.51-6.49,1.23-7.68,2.54l11.88,14.18
		c0.25,0.29,5.6,4.69,5.96,4.83C592.53-16.88,599.04-19.33,599.05-19.86z"/>
	<path d="M40.84,439.66c3.45,3.55,7.14,7.74,10.73,11.08c1.78,1.65,9.31,6.88,9.79,7.68c0.38,0.62,0.1,1.23-0.1,1.84
		c-9.43,12.59-19.26,24.94-28.01,38.01c-5.8,8.66-12.8,23.99-18.75,31.03c-0.89,1.05-1.84,2.32-3.41,1.85
		c-2.96-0.87-18.97-19.08-18.71-21.6C5.93,484.68,20.91,460.07,40.84,439.66z M41.23,443.25c-1.89-0.15-23.1,26.81-23.58,29.51
		c-0.63,3.52,12.94,15.46,16.14,18.52l25.15-31.56C52.42,455,46.22,449.57,41.23,443.25z M16.47,474.43l-18.24,29.62
		c8.24,3.19,12.94,10.72,17.58,17.87l18.11-28.21C26.76,488.05,19.43,483.7,16.47,474.43z M-1.91,505.45
		c-0.62-0.01-2.82,2.99-2.83,4.01c-0.03,3.92,15.18,19.25,16.99,18.14c0.75-0.46,2.73-3.26,2.27-4.17
		c-0.47-0.93-5.39-7.65-6.37-8.79C5.48,511.57,1.09,508.38-1.91,505.45z"/>
	<path d="M532.32,28.18c23.61-15.99,50.42-26.54,77.33-35.43c2.53,0.19,17.64,19.16,17.98,22.22c0.18,1.63-1.23,2.34-2.43,3.03
		c-7.62,4.41-23.24,8.39-32.37,12.35C577.88,36.83,563.5,44.49,549,51.91c-0.64,0.09-1.29,0.26-1.83-0.22
		c-0.7-0.62-4.52-8.95-5.83-10.99C538.68,36.57,535.21,32.2,532.32,28.18z M569.41,10.23l-34.26,18.19
		c5.6,6.26,10.1,13.53,13.73,21.1l35.24-17.95C585.94,29.42,571.85,12.83,569.41,10.23z M617.69,18
		c-6.43-5.67-12.17-11.86-14.87-20.17L570.83,10.3c8.61,4.55,11.6,12.52,15.91,20.57L617.69,18z M609.05-4.42
		c-1.3-0.22-3.43,1.19-4.45,2.08c-0.2,1.26,12.86,17.86,14.82,19.33c1.02,0.76,3.51-0.93,4.53-1.56
		C625.27,14.1,613.13-3.72,609.05-4.42z"/>
	<path d="M635.12,29.68c7.16,7.93,11.79,18.11,14.14,28.46c-28.79,10.23-56.55,22.95-82.6,39.09c-2.87-10.53-7.15-20.53-12.22-30.19
		C580.31,52.4,606.98,39.24,635.12,29.68z M595.89,48.01L557.9,68.06c3.22,3.19,8.56,23.23,10.23,24.61
		c1.67,1.39,33.01-19.26,38.56-19.95C608.34,70.44,597.8,51.24,595.89,48.01z M626.84,35.15l-30.19,12.22
		c7.35,6.79,9.53,15.58,12.72,24.55l29.55-12.99C632.12,52.5,629.64,43.68,626.84,35.15z M640.31,59.03
		c0.3,0.07,5.53-2.26,5.66-2.65c0.74-2.13-5.97-16.09-7.7-18.45c-2.82-3.87-3.96-6.07-8.81-3.49C628.1,35.82,639,58.72,640.31,59.03
		z"/>
	<path d="M75.2,468.28c4.4,2.99,8.51,6.51,13.03,9.33c3.76,2.35,10.25,4.8,12.91,6.72c1.04,0.75,1.65,0.68,1.24,2.32
		c-14.65,15.51-27.34,32.67-38.9,50.5c-3.2,4.94-10.06,19.24-13.28,22.29c-0.73,0.69-0.93,0.73-1.91,0.5
		c-3.63-0.85-23.67-15.62-24.06-18.82C38.58,515.1,56.17,491.1,75.2,468.28z M49.19,505.73c2.84,2.45,19.89,16.2,22.42,14.97
		c1.66-5.33,27.49-32.56,26.42-34.45c-1.13-1.99-19.87-10.41-22.43-14.39L49.19,505.73z M70.35,523.2
		c-8.28-4.72-16.54-8.4-21.94-16.84l-17.33,27.57c7.91,4.25,16.16,8.25,21.29,16.07L70.35,523.2z M30.94,535.34
		c-7.09,6.12,2.26,11.8,7.5,15.62c5.3,3.87,11.56,9.15,13.44,0.02L30.94,535.34z"/>
	<path d="M136.14,309.32c14.86-16.97,37.64,5,25.24,19.99C147.02,346.67,123.15,324.15,136.14,309.32z"/>
	<path d="M382.26,103.27c14.98-17.31,38.02,5.18,25.23,19.98C392.84,140.21,369.52,118,382.26,103.27z"/>
	<path d="M243.12,191.03c8.86-11.57,25.51-11.59,30.65,2.72c7.11,19.76-22.64,33.52-32.26,11.33
		C240.1,201.83,240.94,193.88,243.12,191.03z"/>
</g>
</svg>
