<?xml version="1.0" encoding="utf-8"?>
<!-- Generator: Adobe Illustrator 29.8.5, SVG Export Plug-In . SVG Version: 9.03 Build 0)  -->
<svg version="1.0" id="body_1" xmlns="http://www.w3.org/2000/svg" xmlns:xlink="http://www.w3.org/1999/xlink" x="0px" y="0px"
	 viewBox="0 0 825 392" style="enable-background:new 0 0 825 392;" xml:space="preserve">
<g>
	<path d="M440,0c6.97,3.22,28.77-1.51,34.01,2.49C474.99,3.24,480,22.58,481.5,26c3.31,7.54,8.37,10.28,15.82,13.18
		c17.29,6.75,36.89,6.04,55.06,3.7c7.89-1.02,23.82-6.24,30.11-5.94c2.49,0.12,13.9,6.57,17.99,8.08
		c16.28,6.01,36.66,8.74,54.03,9.97c7.67,0.55,16.19-0.82,23.73,0.27c5.92,0.85,16.58,5.91,22.75,8.25
		c29.48,11.18,67.88,24.75,95.53,38.47c15.03,7.46,20.34,21.81,20.49,38.02c-1.09,1.09-11.64-2.23-13.89-2.62
		c-1.48-0.26-2.43-1.25-2.1,1.1c7.56,5.14,14.28,1.23,17.51,11.5c0.76,2.43,3.48,14.6,3.48,16.52V184
		c-4.74,0.19-9.46-3.77-13.53-4.98c-2.71-0.8-1.21,3.89-0.21,4.73c1.97,1.67,10.82,3.41,13.21,6.28c2.5,3,1.22,8.81,3.53,11.97v26
		c-0.95,0.75-1.56,3.87-2.49,3.97c-0.85,0.09-12.1-6.42-13.51-4.96c-3.34,3.46,9.77,6.22,11.01,7.48c4.98,5.09,0.48,31.1-1.04,38.48
		c-3.86,1.67-12.78-6.22-14-0.45c-0.94,4.44,8.9,3.71,10.9,7.12c2.36,6.12-4.44,35.16-8.86,37.91c-3.51,2.19-12.53-4.77-13.99-1.03
		c-1.03,2.62,0.13,1.96,1.42,2.58c9.45,4.49,11.73,1.69,7.05,14.89c-3.74,10.55-14.58,24.9-26.86,24.92
		c-38.19-5.24-76.06-13.6-114.24-18.77c-19.28-2.61-43.81-6.13-62.89-7.11c-7.74-0.4-12.92-1.51-13.59,7.88
		c-25.45-1.69-50.95-4.81-76.32-7.78c-2.39,0.57-1.71,9.9-1.62,12.43c0.36,9.98,2.5,20.92,3.03,30.97c0.2,3.82-0.11,7.68,0.01,11.49
		H316c0.12-3.81-0.19-7.67,0.01-11.49c0.53-10.07,2.64-20.97,3.03-30.97c0.09-2.38,0.7-11.9-1.5-12.29l-75.09,7.81
		c-2.84-0.1-1.28-6.02-4.44-7.58c-2.02-1-7.93-0.61-10.5-0.48c-19.06,0.99-43.62,4.5-62.89,7.11
		c-38.17,5.18-76.04,13.54-114.24,18.77c-14.66,0.17-28.76-21.73-29.2-34.63c-0.1-2.79,8.02-4.04,10.15-5.26
		c1.05-0.6,0.98-1.67,0.66-2.49c-1.46-3.75-10.48,3.24-14,1.04c-1.4-0.87-7.14-16.67-7.71-19.33c-0.87-4.07-2.31-15.06-1.12-18.56
		c1.32-3.9,11.89-2.35,10.87-7.14c-1.22-5.77-10.15,2.13-14,0.45c-1.52-7.38-6.02-33.39-1.04-38.48c2.87-2.94,11.74-1.65,12.01-8.48
		c-0.96-0.81-13.61,6.06-14.51,5.96c-0.93-0.1-1.54-3.22-2.49-3.97c0.59-8.04-0.8-17.1,0-25c0.2-1.94,2.51-11.68,3.5-13
		c2.32-3.08,11.11-4.43,13.24-6.25c0.63-0.54,2.6-5,0.26-4.26c-4.65,1.47-9.01,4.14-14,4.51v-17.5c2.32-5.03,2.21-17.49,5.53-21.47
		c3.15-3.78,13.87-3.3,15.46-6.54c0.33-2.35-0.62-1.35-2.1-1.1C19.64,137.77,9.1,141.1,8,140c0.52-21.26,6.95-32.05,26.01-40.49
		c36.22-16.03,75.22-28.58,111.72-44.28c25.98-0.45,54.27-1.04,78.78-10.22c4.36-1.63,15.02-7.95,17.99-8.08
		c8.32-0.37,28.29,6.17,39,7.05c11.87,0.97,27.24,0.79,38.7-2.28c3.93-1.05,16.29-5.86,18.83-8.44c6.77-6.87,7.79-22.4,12.17-31.06
		c10.23-2.3,20.92-0.83,31.37-1.16C383.87,1,384.87,0,385,0H440z M318,386h189c-8.85-117.92-18.47-235.61-27.01-353.49
		c-1.58-9.74-4.75-19.14-8.15-28.34c-24.82-0.58-49.52-2.82-74.38-2.21c-2.36,0.06-4.55,1-6.92,1.08
		c-12.28,0.42-24.59,0.66-36.87,0.92c-10.15,19.4-8.89,41.31-10.69,62.53c-7.73,91.26-15.03,182.68-21.98,274.02
		C319.86,355.65,319.77,370.91,318,386z M320,331.01l22.99-299c-1.38,0.1-2.78,3.57-2.94,4.55c-1.01,6.53-1.46,16.03-2.05,22.95
		c-6.86,80.88-12.02,162.04-18.02,242.98c-0.69,9.27-2.15,18.72-3.01,28L320,331.01z M505.01,332c3.24-2.42,2.18-10.53,1.98-14.49
		c-0.88-17.62-3.64-36.32-4.98-54.02c-5.17-68.02-9.25-136.03-15.02-203.98c-0.59-6.93-1.04-16.42-2.05-22.95
		c-0.15-0.98-1.56-4.45-2.94-4.55L505.01,332z M314.95,330.96L337.99,37c-23.44,13.55-49.58,10.73-75.18,6.68
		c-3.92-0.62-19.14-4.75-21.16-4.41c-1.2,0.2-11.25,6.26-14.39,7.49c-25.8,10.15-54.05,9.59-81.26,11.74
		c-29.44,41.18-46.39,91.92-44.05,143.04c1.92,41.79,17.03,104.57,51.03,131.97c5.58,4.5,5.99,4.81,13.51,4.47
		c20.8-0.94,45.66-8.07,66-8.07c6.56,0,9.99,2.78,11.04,9.11L314.95,330.96z M581.99,339.01c-0.28-6.43,4.62-9.09,10.51-9.09
		c20.26,0,45.23,7.13,66,8.07c2.26,0.1,5.76,0.42,7.79-0.19c2.33-0.7,12.46-10.84,14.67-13.32c27.64-30.96,40.01-81.22,42.02-121.98
		c2.54-51.43-14.15-103.37-44.66-144.32c-24.48-1.44-49.7-1.37-73.29-8.71c-5.6-1.74-18.83-9.28-22.56-9.52
		c-9.56-0.63-31.14,6.26-42.99,7.05c-18.14,1.21-35.15-1.04-51.48-8.98l22.04,292.95L581.99,339.01z M140.99,60.01
		c-1.19-1.22-2.68,1.59-3.22,2.27c-51.05,64.57-53.98,188.14-6.59,255.04c2.65,3.74,17.98,22.13,21.29,22.39
		c0.18,0.01,2.7-0.8,2.52-1.2c-28.66-24.75-43.57-59.77-50.52-96.48c-10.05-53.1-5.52-99.55,17.67-148.37
		C122.21,88.78,142.34,61.39,140.99,60.01z M670,338.99c1.69-0.08,1.84,1.14,3.49,0.11c13.83-8.67,29.28-34.47,35.68-49.42
		c25.28-59.05,24.91-135.77-2.32-194.03c-2.4-5.13-18.06-34.25-21.37-35.63c-1.69-0.71-1.81,0.48-0.99,2
		c3.55,6.59,8.95,13.36,12.68,20.32c23.34,43.53,32.33,87.87,26.82,137.17C718.99,264.28,704.28,308.39,670,338.99z M134,63.01
		l-31.99,12c-0.25,1.82,2.09,0.83,3.05,0.56c3.02-0.86,22.1-9.47,22.93-8.56c0.26,1.43-0.25,2.46-0.78,3.71
		c-3.04,7.12-10.24,15.87-14.07,23.93c-1.6,3.37-6.41,17.94-8.15,18.85C74.95,120.09,45.24,128.55,15,134
		c-0.51-14.92,6.64-27.19,21.49-31.01c1.6-1.41-0.97-1.04-1.77-0.79C18.51,107.35,11.25,120.4,11,137l96.77-22.23
		C113.97,96.33,122.88,78.93,134,63.01z M762.99,91.01l-71.99-28c11.35,15.98,19.81,33.69,26.69,52.02L814,137
		c0.23-15.59-7.99-30.66-23.73-34.78c-0.79-0.21-3.36-0.66-1.76,0.78c14.85,3.81,22,16.08,21.49,31.01
		c-30.42-5.86-60.5-13.54-90.57-20.93c-2.98-5.94-4.71-12.43-7.57-18.43c-4.52-9.51-11.25-17.92-14.85-27.64
		c20.92,5.85,41.62,18.19,62.18,24.31C760.12,91.6,763.16,93.02,762.99,91.01z M124,71.01L73.47,90.97
		c-6.9,8.13-9.25,19.62-10.47,30.02L104,110.5C109.17,96.61,115.7,83.28,124,71.01z M761.99,121c-1.16-10.57-3.62-21.56-10.46-30.03
		L701,71.01c8.3,12.27,14.83,25.6,20,39.49L761.99,121z M69,93.01l-34.95,13.04c2.06,8.29,0.35,14.44-3.04,21.94l29.03-6.46
		C62.71,111.73,62.95,101.67,69,93.01z M790.95,106.05L756.01,93c1.21,3.7,3.75,6.63,5.03,10.46c1.47,4.37,1.76,17.11,4.65,18.35
		l28.31,6.18c-1.03-4.01-3.49-7.26-3.89-11.61C789.87,113.89,791.29,106.44,790.95,106.05z M808,130.99
		c-1.72-6.47-3.15-15.4-8.48-20.01c-0.6-0.52-5.66-3.96-6.02-3.96c-2.17-0.03-0.74,9.72-0.4,11.38
		C795.01,127.74,797.88,131.28,808,130.99z M32.99,108.01c-11.32,1.61-13.86,13.48-15.99,22.98
		C32.13,132.34,31.63,119.27,32.99,108.01z M9,177v-14.5c0-1.12,3.72-14.66,4.23-15.26c1.26-1.49,21.64-6.85,25.4-8.12
		c2.58-0.87,2.62-1.1-0.12-1.13c-4.86,1.93-25.57,5.87-27.97,9.05c-4.84,6.43-4.2,25.84-5.54,33.95
		c29.75-11.2,60.29-20.7,92.06-24.43l7.94-34.06c-19.57,2.76-38.73,8.18-58.01,12.5c-0.23,1.81,2.17,0.91,3.24,0.74
		c6.36-0.99,47.98-12.58,49.75-10.75c-0.73,9.95-3.98,19.72-5.95,29.54C64.82,158.6,36.5,166.68,9,177z M816,162.5
		c0.49,4.59-0.35,9.83,0,14.5c-27.55-10.16-55.84-18.58-85.06-22.44c-1.89-9.84-5.08-19.63-5.93-29.56
		c1.77-1.83,43.39,9.76,49.75,10.75c1.07,0.17,3.47,1.07,3.24-0.74c-19.27-4.4-38.43-9.67-58.01-12.5l7.94,34.06
		c31.76,3.83,62.32,13.12,92.06,24.43c-1.33-8.11-0.69-27.52-5.54-33.95c-2.36-3.14-23.12-7.44-27.98-9.04
		c-2.82-0.01-2.64,0.27-0.11,1.11c3.61,1.2,24.33,6.86,25.4,8.12C812.38,147.96,815.82,160.83,816,162.5z M96.99,128
		c-6.25,2.49-33.08,4.84-36.75,8.25c-3.44,3.2-4.33,17.82-4.24,22.75l35.6-6.89C93.27,150.81,96.16,131.74,96.99,128z M768.99,159
		c-0.22-4.9-0.66-19.3-4-22.49c-4.17-3.99-30.23-5.82-36.99-8.5l4.96,23.53L768.99,159z M55,159.99
		c-2.23-8.51-0.87-16.28,2.99-23.99c-4.03,1.96-32.84,8.54-33.87,10.12c-0.71,1.09,0.99,7.73,0.89,10.34
		c-0.17,4.27-2.05,9.75-4.01,13.53L55,159.99z M800.89,146.11c-1.01-1.45-29.91-8.21-33.88-10.11c3.85,7.72,5.22,15.48,2.99,24
		c6.87,1.16,13.58,3.24,20.21,5.3c4.09,1.27,8.54,3.49,12.31,4.69c0.51,0.16,1.63,0.27,1.47-0.48c-2.3-3.55-4.03-9.81-4.07-14.02
		C799.89,153.14,801.71,147.27,800.89,146.11z M21.99,147c-0.31-0.29-6.41,1.63-7.08,2.66c-1.36,2.1-4.79,23.13-3.9,24.34
		c1.9-1.23,5.76-1.68,7.29-2.94C20.91,168.94,23.99,148.87,21.99,147z M809.77,149.22c-0.91-0.93-5.2-1.84-6.77-2.23
		c-1.84,1.73,1.17,21.14,3.25,23.75c1,1.25,6.05,2.11,7.73,3.26C814.74,172.97,811.39,150.87,809.77,149.22z M96.99,159.01
		c-19.25,2.79-38.41,6.77-56.99,12.5c-2.63,0.81-19.2,5.82-19.87,6.62c-0.52,0.62,0.04,2.79-0.13,3.87
		c23.88-9.72,48.95-15.97,74.45-20.04L96.99,159.01z M804.87,178.12c-24.95-8.71-50.57-15.67-76.86-19.12l2.54,2.95
		c21.87,3.35,43.14,8.76,63.97,16.03c2.9,1.01,6.54,3.25,9.02,3.98C805.89,182.66,805.02,179.5,804.87,178.12z M94.86,201.86
		c-0.67-12.68-0.32-25.19,1.13-37.86c-31.35,5.3-61.97,13.72-90.73,27.26C1.65,203.71,2.67,216.35,3.01,229
		C32.18,215.83,63.59,208.37,94.86,201.86z M821.99,229c0-8.97,1.2-17.55,0-26.49c-0.52-3.87-0.82-9.62-4.01-11.99
		c-3.77-2.79-19.4-8.32-24.73-10.27c-20.88-7.62-42.41-12.18-64.24-16.25c1.43,12.68,1.83,25.21,1.09,37.9
		C761.45,208.14,792.81,215.86,821.99,229z M95,205.01c-1.16-1.21-28.94,5.69-32.83,6.67c-5.18,1.3-41.75,11.61-43.03,13.46
		c-0.54,0.79,0.02,2.73-0.13,3.86c24.23-9.87,49.89-17.12,75.99-20.01C94.84,208.02,95.25,205.26,95,205.01z M805.86,225.14
		c-1.24-1.79-36.43-11.79-41.43-13.07c-4.2-1.07-33.21-8.33-34.43-7.07c-0.25,0.26,0.16,3.02-0.01,3.99
		c25.89,3.17,51.58,9.73,75.51,20C806.43,228.66,806.17,225.59,805.86,225.14z M95.99,211c-30.75,4.28-60.65,13.1-89.03,25.46
		C2.96,247.72,6.43,258.76,8,270c14.8-3.45,29.19-9.57,43.98-13.52c15.73-4.2,31.89-7.27,48.02-9.49L95.99,211z M817,270
		c1.62-11.14,4.73-22.43,1.03-33.53c-28.39-12.41-58.27-21.17-89.03-25.46L724.99,247c23.42,2.89,46.29,8.82,68.77,15.74
		C797.02,263.74,815.88,271.09,817,270z M102.01,253.99l-1.02-5c-15.14,2.78-30.29,5.44-45.21,9.29
		c-3.73,0.96-34.69,9.38-34.76,11.21c-0.01,0.25,2.09,3.48,2.45,4.46C48.76,264.31,75.32,258.36,102.01,253.99z M801.98,274.01
		l1.56-5.03c-25.67-9.46-52.51-15.58-79.53-19.99l-1.02,5C749.84,258.37,776.5,264.52,801.98,274.01z M114,291.99l-11.16-33.33
		c-0.4-1.22-1.18-1.51-2.36-1.71c-3.21-0.55-19.95,3.56-24.49,4.54c-18.53,3.99-40.72,9.71-58.23,16.77
		c-2.43,0.98-6.24,1.54-6.78,4.24c-0.9,4.45,5.51,31.82,8.69,32.57c17.94-4.42,35.63-10.77,53.7-15.19
		C86.72,296.6,100.4,293.63,114,291.99z M711,291.99c31.8,4.61,63.2,13.25,93.54,23.78c1.2-0.18,5.63-10.68,6.19-12.54
		c1.14-3.78,4.75-20.66,2.27-22.74c-0.75-0.62-5.01-1.93-6.49-2.51c-25.84-10.16-54.67-16.22-82-21.04l-2.36,1.73L711,291.99z
		 M116,295.99c-0.62-2.18-2.54-2.07-4.36-1.94c-8.44,0.56-24.66,5.29-33.65,7.44c-11.62,2.78-30.3,6.7-40.79,11.21
		c-4.99,2.15-3.79,4.75,0.83,3.88c13.16-2.48,30.79-9.67,44.75-13.29C93.73,300.45,104.81,297.7,116,295.99z M709.99,295.99
		c10.52,2.05,21.06,4.37,31.43,7.08c14.15,3.69,32.14,10.97,45.54,13.5c4.62,0.87,5.82-1.73,0.83-3.88
		c-15.84-6.82-56.89-16.29-74.41-18.6C711.29,293.83,709.42,293.18,709.99,295.99z M148,340.99c1.4-1.19-11.24-12.49-12.51-13.98
		c-7.54-8.89-13.22-18.92-19.14-28.91c-31.21,7.24-62.81,14.23-92.43,26.52c3.66,15.89,11.66,32.62,30.46,31.24
		c24.48-1.8,55.52-9.35,80.42-13.58C139.11,341.56,143.6,340.96,148,340.99z M800.91,324.09c-29.93-11.23-61.01-19.22-92.26-25.99
		c-6,9.87-11.62,20.06-19.14,28.91c-1.27,1.49-13.9,12.8-12.51,13.98c4.39-0.03,8.89,0.56,13.2,1.3
		c24.99,4.24,55.83,11.75,80.42,13.58C788.82,357.21,798.4,340.03,800.91,324.09z"/>
	<path d="M470.99,10c4.02,22.94,6.23,46.25,8,69.51c5.5,72.57,9.02,145.41,14.02,217.98c1.9,27.51,4.85,54.94,5.98,82.51
		c-19.75-2.7-39.6-6.45-59.5-7.99c-38.16-2.94-75.97,1.75-113.48,7.99c-1.25-1.47,2.66-33.65,2.98-38.51
		c5.85-87.23,10.32-174.77,17.02-261.98c1.79-23.25,4.02-46.57,8-69.51c8.78,1.8,18.51,3.58,27.45,4.04c13.09,0.69,28.7,0.05,42,0
		C439.49,13.98,455.36,14.02,470.99,10z M468.99,13c-14.65,2.69-29.54,4.59-44.48,3.99c-10-0.41-14.06-0.38-24.03,0
		c-14.97,0.57-29.83-1.16-44.48-3.99c0.35,2.58-1.61,5.99-1.08,8.35c0.25,1.12,15.36,3.93,17.86,4.36c26.56,4.55,52.87,4.56,79.42,0
		c2.39-0.41,17.2-3.04,17.72-3.79C470.78,20.7,468.27,15.09,468.99,13z M470.99,24c-37.98,10.3-78.83,9.22-117,0.51
		c0.5,2.86,5.42,3.55,7.8,4.2c26.69,7.27,70.46,7.14,97.4,0.98c2.54-0.58,9.28-1.87,11.12-2.7C471.74,26.33,470.82,25.18,470.99,24z
		 M362.94,31.05c-0.23-0.23-3.82-0.02-4.93-1.05c-0.56,7.73-0.94,15.56-2.3,23.21c-1.44,8.07-5.36,16.07-6.63,23.37
		c-1.41,8.08-1.75,21.31-2.12,29.88c-0.18,4.16,0.2,8.38,0.05,12.54l4.71-15.77C352.6,94.66,365.56,33.61,362.94,31.05z
		 M477.99,118.99c-0.15-4.49,0.23-9.04,0.05-13.54c-0.33-8.15-0.78-21.17-2.12-28.88c-1.27-7.3-5.19-15.31-6.63-23.37
		c-1.37-7.69-1.36-15.53-2.77-23.19c-0.89,1.3-4.12,0.7-4.46,1.03c-2.06,2.02,6.96,50.47,8.24,57.16c1.76,9.22,3.9,18.69,6.22,27.79
		C476.81,117.13,476.46,119.24,477.99,118.99z M380.01,35.01l-13.55-2.79l-1.28,1.45c-2.62,18.51-4.86,37.2-8.47,55.54
		c-4.34,22.03-12.86,43.13-12.7,65.79L380.01,35.01z M480.99,154.99c1.38-16.66-5.27-31.19-8.7-46.79
		c-5.41-24.59-9.23-49.55-12.47-74.53l-1.28-1.45l-13.55,2.79L480.99,154.99z M391,36.01l-6.97-0.99l-40.77,128.73l-9.25,138.24
		l15.28-89.2C360.88,153.32,374.46,94.24,391,36.01z M440.97,35.03l-6.96,1.46c16.78,58.01,30.12,117,41.69,176.31l15.28,90.2
		l-9.25-139.23L440.97,35.03z M396.99,36.01l-4.1,0.58C364.76,136.94,344.38,239.5,331.01,343l4.01-8.48
		c11.54-31.98,12.9-66.46,18.15-99.85C363.73,167.5,379.14,101.48,396.99,36.01z M406,36c-2.4,0.15-5.79-0.97-6.81,1.69
		c-16.21,58.69-30.99,117.9-40.92,178.08c-7.34,44.48-8.5,90.84-26.28,132.72l9.19-16.81c6.08-13.39,10.06-22.6,10.87-37.14
		c3.91-70.51,21.35-142.29,43.91-209.08C397.46,81.03,406,61.85,406,59.5V36z M416.01,35.99h-7.01l-0.98,39
		c2.96-1.49,6.02-1.49,8.98,0L416.01,35.99z M419,36v23.5c0,2.35,8.54,21.53,10.04,25.96c22.57,66.8,40,138.55,43.91,209.08
		c0.18,3.2-0.03,8.53,0.24,10.74c0.54,4.49,8.27,21.18,10.63,26.4c2.64,5.85,5.77,11.61,8.66,17.36c0.35,0.7,0.48,3.06,1.53,1.45
		c-18.82-42.26-19.81-89.53-27.28-134.72c-9.95-60.18-24.71-119.38-40.92-178.08C424.79,35.03,421.4,36.15,419,36z M431.85,36.15
		l-3.85-0.14c17.69,65.11,33.14,130.91,43.7,197.79c4.79,30.34,6.51,61.42,15.02,90.98l7.26,19.23c0.08-2.12,0.08-4.24-0.12-6.37
		c-2.02-21.1-6.67-45.65-10.12-66.87C470.85,191.64,453.44,113.23,431.85,36.15z M380.99,147.99c2.53-11.02,6.03-21.95,9.99-32.51
		c4.73-12.6,11.83-24.37,13.78-37.22c0.56-3.69,0.96-7.53,1.22-11.25l-4.74,10.75c-6.55,21.28-16.67,44.38-20.81,66.2
		C380.25,144.99,379.02,148.15,380.99,147.99z M445.99,152c-5.12-25.34-13.68-49.91-22.24-74.24L419.01,67
		c-0.43,5.1,1.88,10.12,2.82,14.76c0.36,1.8-0.76,3.45-0.38,5.26c1.47,7.12,10.8,19.49,12.31,27.73L445.99,152z M419.99,89
		c-4.8,4.16-10.18,4.16-14.98,0c-18.85,40.65-29.69,84.74-37.7,128.81c-4.48,24.64-7.04,49.39-10.3,74.19
		c6.07-3.16,9.22-13.74,11.25-20.24c4.88-15.58,6.6-32.63,10.42-48.58c1.68-6.99,10.95-34.21,10.14-38.43
		c-0.52-2.71-3.22-5.6-3.73-9.34c-1.6-11.52,1.64-19.28,9.98-26.85c1.31-1.18,3.69-1.44,4.98-3.02c3.59-4.39,4.47-17.73,12.46-21.52
		c7.96,4,8.57,16.09,12.07,20.91c3.97,5.49,11.99,6.16,14.75,17.25c2.97,11.96-1.46,13.97-3.13,22.56
		c-0.77,3.95,8.51,31.63,10.14,38.43c3.82,15.9,5.57,33.09,10.42,48.58c2.04,6.5,5.18,17.08,11.25,20.24
		C459.91,222.9,449.1,152.56,419.99,89z M423,143.99c-2.43-6.39-4.97-12.64-10.5-16.97c-5.53,4.33-8.07,10.58-10.5,16.97
		c4.56,1.31,8.93-9,11.49-9C415.82,138.43,417.95,144.1,423,143.99z M407.74,148.24c-26.7,4.55-21.45,46.05,5.63,44.7
		C444.59,191.38,440.96,142.58,407.74,148.24z M365.01,291.99c11.98-31.99,19-65.7,33.84-96.7c0.09-1.92-6.11-4.92-7.35-7.29
		c-13.06,29.17-13.61,63.75-25.01,92.98c-0.79,2.03-5.58,9.74-4.46,10.98c0.12,0.13,2.26,0.12,3.5,0.98
		c5.42,3.78,4.03,13.09-1.54,15.54c-1.94,0.85-5.64,0.26-5.95,0.56c-0.17,0.16-0.2,3.19-0.81,4.67
		c-6.38,15.47-18.64,29.96-27.22,44.28l21.5-5.99c5.04-19.91,17.47-35.56,27.02-52.98c7.52-13.71,22.47-53.04,31.45-61.54
		c1.06-1,1.81-1.81,3.46-1.54c0.83,0.13,8.06,12.16,9.09,14.05c6.86,12.48,11.44,26.29,18.1,38.9
		c11.06,20.96,26.64,39.56,32.88,63.12l21.5,5.99c-8.54-13.78-19.64-27.41-26.18-42.31c-0.71-1.62-1.65-6.37-1.92-6.59
		c-0.54-0.44-3.89,0.26-5.89-0.61c-6.98-3.04-6.82-16.09,1.96-16.52c-2.26-7.71-6.13-15.03-8.47-22.96
		c-4.52-15.33-6.6-31.77-10.58-47.42c-2.87-11.31-6.57-22.43-9.93-33.58c-1.62,1.7-7.91,5.66-7.84,7.29
		c11.68,26.69,21.3,54.26,27.84,82.7l-4.25-10.23c-4.82-23.36-14.59-44.62-23.51-66.49c-2.13-5.22,0.22-6.86-7.75-4.3
		c-1.15,0.37-1.74-0.73-1.47,1.5c17.82,28.98,25.03,61.55,37.99,92.52c-3.88-4.06-6.31-10.74-8.47-16.02
		c-5.89-14.35-9.84-29.52-16.34-43.66c-5.11-11.11-12.2-21.17-17.19-32.32c-0.6-0.41-2.35,1.98-2.82,2.67
		c-5.09,7.53-12.09,20.63-16.02,28.98c-7.05,14.95-11.25,31.13-17.67,46.33c-1.36,3.23-2.79,7.99-5.46,10.03
		c8.86-22.6,14.72-46.19,25.47-68.02c2.54-5.16,10.23-16.08,11.47-20.54c0.67-2.39-5.88-1.89-7.38-2.51
		c-13.07,28.68-21.49,58.92-31.39,88.75L365.01,291.99z M354.99,291c2.76-29.19,7.03-58.14,12-86.99l-2.53,7.96
		c-4.82,23.33-8.55,46.76-10.45,70.55L354.99,291z M470.99,290.99c-0.56-26.68-5.03-52.99-10.48-79.01l-2.5-7.98
		c2.92,21.48,8.14,42.6,9.12,64.37L470.99,290.99z M470.99,352c-4.15-21.33-18.63-38.21-28.81-56.68
		c-8.17-14.83-13.7-31.54-22.01-45.99c-1.09-1.89-6.97-12.85-9.15-11.32c-11.35,17.74-18.32,37.8-28.2,56.31
		c-10.22,19.15-23.66,36.3-29.82,57.67c3.11-0.28,6.32-0.62,8.48-3.01c4.12-4.57,13.6-22.94,16.71-29.29
		c8.65-17.69,12.87-33.17,25.85-49.15c1.87-2.3,6.73-9.02,9.39-8.6c6.47,8.24,13.47,16.27,18.75,25.4
		c5.97,10.32,9.42,21.75,14.65,32.35c5.18,10.51,12.06,20.11,17.07,30.7L470.99,352z M460.99,349.99l-18.85-35.64
		c-6.51-18.85-16.49-35.43-29.64-50.34c-13.61,14.29-22.62,32.04-29.64,50.34L364,349.99l8.08-1.65
		c11.81-17.68,15.39-38.83,27.5-56.27c1.06-1.53,3.31-2.87,3.94-4.15c0.88-1.8-0.56-4.79,1.05-7.85c3.33-6.31,12.52-6.31,15.85,0
		c1.61,3.06,0.18,6.05,1.05,7.85c0.62,1.28,2.88,2.62,3.94,4.15c9.08,13.08,11.38,24.52,17.72,38.28c2,4.34,7.07,14.6,9.76,18.01
		C453.72,349.42,459.25,349.51,460.99,349.99z M405.99,290.01c-2.14-2.14-10.61,12.63-11.37,14.12
		c-7.36,14.43-10.51,31.48-20.62,44.87c1.58,0.17,3.06-0.26,4.38-1.11c5.25-3.39,13.89-34.38,17.74-42.26
		C396.45,303.33,406.65,290.66,405.99,290.01z M451,348.99c-10.95-14.41-13.93-33.61-22.83-48.66c-0.85-1.45-7.22-12.11-9.17-10.32
		c3.04,5.31,7.18,10.08,9.88,15.61c3.82,7.85,12.55,38.91,17.74,42.26C447.94,348.73,449.42,349.16,451,348.99z M444,347.99
		c-9.89-15.28-11.52-38.47-23.17-52.31c-4.46-5.3-2.93-2.59-8.33-2.59c-1.85,0-3.95-1.26-5.48-0.63c-1.42,0.58-5.4,6.85-6.44,8.61
		c-8.67,14.58-10.63,32.39-19.58,46.91c3.06-0.45,8.39,0.93,10.99-0.5c2.44-1.34,12.22-25.54,20.68-26.35
		c5.96,3.38,10.57,8.84,14.13,14.56c1.4,2.25,4.95,11.06,6.19,11.82C435.3,348.92,441.11,347.53,444,347.99z M362.86,297.14
		c-5.11-3.12-9.21,3.71-4.87,6.39C362.8,306.51,365.19,298.56,362.86,297.14z M340.01,339c3.55-4.14,17.1-25.53,16.65-29.52
		c-0.13-1.14-2.41-2.45-3.17-3.47L340.01,339z M484.99,339L471.5,306c-0.75,1.02-3.04,2.33-3.17,3.47
		C467.89,313.47,481.44,334.86,484.99,339z M430,346.99c0.02-5.19-13.38-24.03-17.5-24.03c-4.25,0-16.6,18.66-17.51,23.52
		c11.92,3.88,13.25-8.84,17.51-16.47C416.93,338.11,417.77,349.49,430,346.99z M494.96,360.04c-13.79-3.35-27.4-7.27-41.58-8.91
		c-33.03-3.83-77.44-3.46-109.58,5.16c-4.21,1.13-15.01,3.05-13.8,8.2c39.87-13.36,85.73-15.17,127.36-9.35
		c12.46,1.74,25.65,4.71,37.15,9.85L494.96,360.04z M495.99,371c1.28-1.36-0.83-3.35-2.28-4.21c-4.56-2.7-15.84-5.43-21.34-6.66
		c-36.09-8.05-96.41-8.51-131.59,3.15c-2.17,0.72-14.5,4.22-11.77,7.72c0.17,0.22,3.92-2.09,5.01-2.48
		c17.9-6.38,45.44-7.31,64.49-6.52c1.22,0.05,3.72-0.76,3.48,0.99c-16.57,1.1-33.9,0.29-50.22,3.28
		c-4.11,0.75-19.47,4.54-22.15,6.63c-1.25,0.98-0.48,2.73-0.62,4.09c10.52-1.47,21.07-3.63,31.62-4.87
		c32.99-3.86,61.79-4.66,94.87-1.12c13.55,1.45,27.03,4.04,40.5,5.99c-0.14-1.36,0.63-3.11-0.62-4.09
		c-2.67-2.1-18.04-5.88-22.15-6.63c-11.31-2.07-23.23-2.43-34.72-2.28l-15.51-1.98c21,0.1,44.72-0.56,65.02,5.47
		C489.84,368.02,495.69,371.32,495.99,371z"/>
	<path d="M312.9,328.9l-64.4,7.2c-6.24-0.14-3.97-6.83-13.08-8.01c-24.97,1.68-49.87,5.88-74.89,7.89
		c-6.37-1.23-23.5-23.61-27.33-29.68c-26.82-42.49-34.9-109.69-24.73-158.34c6.62-31.66,20.43-61.31,38.74-87.74
		c26.88-1.2,55.69-1.69,81.05-11.46c3.78-1.46,11.2-6.45,14.33-6.75c7.62-0.74,30.56,6.26,40.92,6.97
		c17.35,1.2,35.86-0.01,51.48-7.99L312.9,328.9z M250,46.99c-5.88-6.24-12.21,0.74-18.32,3.18c-37.55,15-80.6,47.74-109.69,76.31
		c-4.56,4.48-9.39,8.3-8.98,15.51C154.7,105.06,199,70.36,250,46.99z M264,48.01c-3.82,0.65-7.46-1.66-11.27-0.82
		c-2.15,0.47-9.99,5.82-12.64,7.4c-33.73,20.1-68.98,44.9-99.98,69.02c-4.62,3.6-26.29,19.81-28.13,22.87
		c-3.02,5.03-2.33,14.75-3.97,20.52c44.5-47.71,97.22-85.92,154.73-116.71L264,48.01z M328,47.01c-5.25,1.15-10.29,2.97-15.62,3.87
		c-3.81,0.64-6.84-0.35-11.1,0.9c-10.94,3.2-37.67,20.41-48.95,27.05c-45.83,26.98-103.09,64.99-141.34,101.66
		c-7.59,7.28-3.81,7.63-3.98,17.51c46.55-40.55,95.31-76.64,148.69-107.8C279.84,76.11,306.54,64.76,328,47.01z M273,50.01
		c-6.75-1.39-14.52,4.45-20.67,7.82C205.78,83.34,160.8,115.76,124,153.99l62.11-47.38l47.98-33.02L273,50.01z M212.35,229.65
		c14.74,16.09,41.37,21.84,59.78,8.98c20.41-14.25,27.47-40.81,33.38-63.62c8.89-34.35,19.11-76.07,25.24-110.76
		c0.78-4.4,1.07-9.73,1.25-14.24l-13.76,31.73c-10.07,29.51-20.36,59.25-25.94,90.06c-2.01,11.08-2.24,23.31-4.96,34.04
		c-11.83,46.81-86.21,33.66-73.84-15.84c5.29-21.18,44.46-46.37,60.53-64.47c0.68-0.76,8.94-10.32,4.49-8.52
		c-20.47,11.12-42.89,20.57-58.54,38.46C202.57,175.38,192.33,207.79,212.35,229.65z M280,51.01c-2.12-0.19-3.89-0.16-5.94,0.54
		c-9.25,3.16-33.4,19.85-42.97,26.03c-43.28,27.95-83.48,60.32-123.62,92.46L107.01,181c1.74,0.46,2-0.74,3-1.49
		c15.56-11.77,30.42-25.82,46.1-37.9c43.75-33.72,90.75-63.35,139.89-88.62l-6.65-1.9c-1.53-0.34-2.92-0.1-4.39,0.36
		c-5.7,1.82-20.06,11.2-26.26,14.74c-21.38,12.23-41.86,26.04-62.41,39.59L149,139.99c20.33-18.36,43.78-33.41,66.08-49.41
		L280,51.01z M108.01,216c23.5-24.23,48.06-45.28,75.26-65.23c10.22-7.49,23.41-17.77,33.81-24.19
		c32.36-20.01,75.65-37.55,102.96-65.04c1.08-1.08,6.69-8.75,5.96-9.53c-32.7,20.59-67.59,37.53-100.3,58.19
		c-41.92,26.47-80.65,57.54-118.18,89.82C105.69,205.34,108.31,210.64,108.01,216z M209,57.01c-9.1,1.47-18.17,8.4-25.91,13.58
		c-17.97,12-35.25,26.3-51.6,40.4L130,110.5c19.93-18.31,41.64-34.7,63.99-50.01c-0.79-1.5-2.41,0.23-3.29,0.72
		c-15.93,8.81-32.28,22.02-46.18,33.82c-2.75,2.33-10.7,10.92-13.04,11.97c-0.44,0.2-1.64,0.26-1.48-0.49
		C147.04,90.04,165.46,74.97,185,61.5c-6.61-1.44-12.37-0.59-17.91,3.09c-15.41,10.23-37.45,30.22-45.07,46.94l3.98-0.03
		c-1.33,1.87-4.49,3.69-5.46,5.57c-0.46,0.89,0.19,2.21-0.18,2.94c-1.18,2.39-4.44,4.02-3.35,7.99c1.88,0.43,2.37-1.06,3.5-1.99
		c14.4-11.87,27.84-24.9,42.6-36.4C177.92,78.05,193.62,67.76,209,57.01z M219.34,219.66c15.99,18.39,49.6,18.52,62.1-3.72
		c6.81-12.12,6.53-29.25,9.04-42.96c7.32-40,20.94-78.23,35.51-115.98c-12.07,15.07-22.46,31.53-36.97,44.53l-0.02,1.45
		c6.6,1.27,8.34,11.78,2.98,15.5c-2.12,1.47-5.09,1.07-6.08,2.15c-1.53,1.67-6.09,16.25-7.17,19.6c-1.81,5.61-8.53,26.11-8.52,30.48
		c0,0.94,7.85,9.8,8.7,15.87c4.99,35.93-43.22,44.69-53.19,14.19c-5.47-16.74,6.27-35.58,24.09-36.55
		c11.82-0.64,8.63,5.93,15.9-8.01c4.13-7.92,10.78-22.56,13.06-30.94c0.26-0.96,0.99-3.52-0.76-3.26
		c-12.84,19.36-33.76,31.46-50.03,47.48C215.96,181.33,206.92,205.37,219.34,219.66z M162,62.01c-2.93,0.28-7,0.47-9.55,1.94
		c-1.6,0.93-11.34,11.13-12.87,13.13c-2.59,3.39-4.89,7.97-6.58,11.91L162,62.01z M245.01,113.99c18.82-5.81,40.54-6.18,52.97-23.52
		L313.99,69l-38.47,27.02L245.01,113.99z M207,73.01c-5.14,1.94-10.28,5.57-14.92,8.57c-2.87,1.86-41.95,28.71-40.08,30.41
		l52.33-36.16L207,73.01z M277.99,114.01c-1.05-0.97-23.99,8.27-26.98,9.51c-35.47,14.68-63.1,38.75-59.89,80.86
		c3.21,42.07,59.78,64,90.88,37.14c31.55-27.25,39.81-87.5,44.84-127.16c1.46-11.47,2.22-23.34,3.13-34.88
		c0.09-1.1,0.73-3.73-0.98-3.48c-6.7,29.62-12.09,59.7-19.3,89.2c-9.34,38.2-27.14,101.07-81.07,77.65
		c-41.34-17.95-33.32-65.9-6.19-92.9c16.49-16.42,35.25-21.21,53.26-32.74C276.49,116.71,279.19,115.12,277.99,114.01z
		 M288.74,108.26c-3.58-3.66-9.36,3.4-4.75,6.27C287.92,116.99,291.99,111.58,288.74,108.26z M271.99,109.01
		c-18.68,4.28-37.75,9.22-54.3,19.18c-51.16,30.79-62.52,102.66-1.05,129.66c43.18,18.97,71.4,4.28,94.17-33.55
		c1.6-2.66,10.49-17.58,9.18-19.31c-4.74,6.79-9.04,14.42-14.17,21.32c-23.43,31.51-55.55,48.69-93.49,26.85
		c-45.75-26.33-38.63-86.12-1.35-116.68c17.12-14.04,38.13-18.39,58.28-25.73C270.31,110.37,272.23,110.41,271.99,109.01z
		 M276.99,110c-39.04,11.49-75.82,22.72-90.74,64.75c-17.38,48.98,23.98,93.82,73.99,84.99c19.65-3.47,41.62-28.95,51.78-45.22
		c12.25-19.62,9.35-32.95,10.99-55.01c0.35-4.71,1.67-10.33,1.98-15.02c0.09-1.37,0.86-6.18-0.98-6.49
		c-4.03,47.76-25.71,131.5-90.45,114.94c-56.42-14.43-55.86-79.22-16.57-112.46c16.37-13.85,39.26-20.78,59.34-27.47L276.99,110z
		 M285,120.01l-3.99-1.01c-1.68,10.59-6.25,22.01-10.54,31.96c-2.28,5.3-4.51,11.38-8.46,15.54l4.51,2.49L285,120.01z M192,148.01
		c-0.55-0.48-8.64,4.74-9.91,5.58c-15.89,10.6-31.44,24.17-45.09,37.4l37.68-28.81C181.13,157.81,187.89,155.04,192,148.01z
		 M185,158.01c-0.76-0.71-6.15,3.39-7.32,4.17c-19.47,12.99-45.79,34.11-62.7,50.3c-5.16,4.95-7.15,6.46-5.98,14.51
		c19.08-17.86,38.08-35.78,59.1-51.39c3.03-2.25,8.79-4.88,10.96-7.04C181.5,166.14,182.62,160.89,185,158.01z M246.74,170.24
		c-22.9,3.97-22.36,41.31,1.75,43.76C283.5,217.55,281.53,164.22,246.74,170.24z M178,172.01c-1.38-1.37-22.06,15.08-24.47,17.02
		c-14.88,11.97-28.55,25.48-42.57,38.42c-2.92,5.04,1.3,10.38,1.06,15.56c17.18-13.37,28.79-32.34,43.97-47.52
		c4.71-4.71,16.74-12.51,19.59-16.41C177.1,176.97,177.63,174.5,178,172.01z M174.99,183c-19.05,14.51-30.67,35.92-46.48,53.01
		c-2.21,2.39-13.62,12.14-14.02,13.01c-1.35,2.92,3.46,19.96,5.01,19.96c17.55-22.42,33.77-45.91,52.99-66.99L174.99,183z
		 M132.01,300c16.13-23.36,31.03-47.54,48.47-69.99c-3.53-8.38-6.82-16.81-7.49-26l-20.38,24.1l-32.42,43.64l0.83,3.73l2.01,0.04
		L162.99,224c0.34,1.69-0.82,2.65-1.6,3.89c-3.39,5.42-8.66,12.07-12.58,17.42c-8.29,11.33-17.41,22.06-25.63,33.45
		C122.18,282.82,130.47,295.46,132.01,300z M123.65,238.65c4.24-4.27,8.91-10.01,12.75-14.75c3.34-4.13,7.54-9.11,9.59-13.9
		c-10.42,11.4-19.64,23.98-32.04,33.45L113.5,248C116.24,244.41,120.65,241.66,123.65,238.65z M302.87,327.87
		c3.64-2.36,8.59-59.54,13.05-67.46l3.08-46.41c-1.91,1.35-2.88,5.74-3.5,7.98c-9.55,34.52-10.09,70.94-19.5,105.5
		C295.96,328.27,302.19,328.31,302.87,327.87z M293.9,328.9L312.99,225c-5.93,7-9.06,17.94-11.71,26.78
		c-7.74,25.84-7.88,53.77-20.27,77.73C283.25,328.92,293.41,329.32,293.9,328.9z M182.98,232.01c-1.15-0.79-2.26,0.8-2.96,1.51
		c-4.54,4.62-10.75,14.47-14.83,20.17c-11.16,15.57-21.9,31.92-30.95,48.65c0.11,1.32,7.47,12.29,8.28,12.66
		c1.24,0.57,3.48-3.58,4.31-4.68c16.31-21.59,29.96-45.16,43.02-68.83C187.54,240.6,183.53,232.39,182.98,232.01z M272,330.99
		c8.69,1.19,11.54-9.03,13.71-15.78c7.77-24.15,7.89-51.29,17.27-75.22c-2.94,2.71-7.83,7.35-10,10.49
		c-3.37,4.88-9.03,25.51-10.7,32.3C278.37,298.72,277.26,315.4,272,330.99z M146.98,320c13.71-20.57,28.05-40.74,40.19-62.33
		c1.25-2.22,6.17-10.11,6.4-11.63c0.24-1.58-1.23-2.09-2.09-3.03c-2.04-0.47-1.35,0.84-1.96,1.96c-13.61,24.79-27.49,48.72-45,71.02
		C143.87,317.24,146.32,320.45,146.98,320z M151.98,325c7.43-20.46,23.46-35.58,34.84-53.67c2.06-3.27,11.19-17.92,11.78-20.3
		c0.69-2.78-1.21-2.7-3.13-3.94c-14.94,24.4-29.06,49.55-46.75,72.22C146.46,321.06,151.45,325.36,151.98,325z M206.94,254.07
		c-0.23-0.31-6.2-3.12-6.97-2.63c-1.32,0.85-13.33,23.15-15.95,27.08c-7.6,11.39-17.01,21.27-23.82,33.18
		c-1.17,2.05-6.93,12.73-7.04,13.98c-0.19,2.09,8.74,11.08,11.92,6.63c7.56-22.1,23.94-39.24,34.31-59.44
		C200.69,270.32,207.84,255.33,206.94,254.07z M260,331.99c2.95,0,9.2,0.02,10.84-2.65c6.07-25.2,9.66-50.78,18.15-75.34
		c-2.35,2.82-9.79,5.59-11.3,8.28c-1.71,3.05-4.85,15-5.84,19.07C267.75,298.18,266.61,315.8,260,331.99z M217.98,260.05
		c-2.53,0.24-7.79-5.02-9.45-3.06c-2.65,3.11-7.54,16.64-10.36,21.68c-10.12,18.12-24.78,33.88-31.17,54.32
		c2.98-1.22,14.23-0.77,15.81-2.17c0.64-0.57,3.92-13.07,5.33-16.18C196.39,296.37,213.41,280.81,217.98,260.05z M224,262.01
		c-1.16,0.32-2.79-0.78-3.56-0.68c-1.13,0.15-8.05,17.04-9.63,19.99c-8.72,16.28-23.74,30.75-25.81,49.68
		c2.22-0.7,8.24-0.5,9.52-1.97c0.96-1.12,4.77-15.16,6.31-18.69C207.77,294.32,220.4,279.84,224,262.01z M228.93,264.07
		c-0.22-0.28-2.57-1.28-3.41-0.07c-3.01,4.37-5.66,15.04-8.36,20.66c-4.56,9.48-11.29,17.92-15.34,27.66
		c-0.97,2.33-5.78,15.79-4.82,16.67c0.15,0.13,3.77,0.1,3.94-0.05C198.84,317.53,233.46,269.85,228.93,264.07z M246.15,332.86
		c0.86,0.55,6.69,0.26,8.13-0.07c4.9-1.13,7.6-13.46,8.84-18.16c4.46-16.92,5.6-34.98,11.86-51.63c-3.19,1.8-9.07,1.89-11.96,3.53
		c-5.01,2.85-9.31,38.6-11.52,46.48c-0.98,3.51-2.28,7.07-3.48,10.52C247.33,325.54,242.92,330.81,246.15,332.86z M220.85,326.84
		c9.94-18.88,6.93-41.39,19.13-59.35c-0.1-1.5-7.37-2.65-8.97-2.5c-2.4,16.73-14.75,30.42-21.72,45.79
		c-0.68,1.49-7.98,18.33-5.77,18.23L220.85,326.84z M254,267.01c-6.94,0.62-10.48-2.65-14.38,4.12
		c-9.76,16.94-7.62,37.67-16.62,54.87c5.82-0.27,11.1-1.09,16.88-0.11L254,267.01z M259,267.01c-1.23,0.14-2.21-0.68-3.01,0.67
		c-1.3,2.21-3.63,10.35-4.48,13.32c-4.42,15.48-4.62,31.94-10.5,46.99c1.21-0.12,2.13,0.65,3-0.69c1.77-2.71,4.56-11.78,5.5-15.3
		C253.48,297.27,254.2,281.6,259,267.01z M305,326.99c1.94-0.02,5.1,0.68,5.86-1.63l3.13-47.36l-6.28,38.2L305,326.99z"/>
	<path d="M677.8,60.21c18.35,26.45,32.08,56.08,38.73,87.76c6.95,33.07,5.11,66.3-1.84,99.23c-6.99,33.06-22.24,68.65-50.22,88.79
		l-69.94-8.04c-3.5-0.2-9.57,0.4-12,3.09c-1.9,2.1-1.23,5.88-6.01,5.05l-64.42-7.18L490.01,41c15.62,7.97,34.13,9.19,51.48,7.99
		c10.37-0.72,33.31-7.71,40.92-6.97c3.14,0.3,10.54,5.29,14.33,6.75C622.16,58.53,650.84,59.16,677.8,60.21z M692.58,117.42
		c-29.24-26.12-62.04-52.76-98.56-66.94c-6.48-2.51-12.12-9.09-19.01-3.98c50.32,24.48,95.47,57.69,136.5,95.49
		C712.65,131.95,699.64,123.72,692.58,117.42z M668.58,143.42c-36.92-28.43-76.18-53.92-116.91-76.59
		c-6.45-3.59-22.75-13.86-28.64-15.36c-3.66-0.93-6.97-0.02-10.41-0.59c-5.33-0.9-10.37-2.72-15.62-3.87
		c21.5,17.64,48.19,29.09,72.3,43.19c53.12,31.08,102.25,66.89,148.2,107.8c0.07-2.9,1.73-11.75,0.59-13.51
		C701.96,170.43,685.51,156.46,668.58,143.42z M716.99,167l-3.97-20.52c-29.54-24.38-60.23-47.61-92.11-68.89
		c-6.67-4.45-46.3-30.51-50.43-30.66c-2.96-0.11-6.26,1.76-9.48,1.07l1.26,2.29C619.57,80.91,672.64,119.42,716.99,167z M700,152.99
		c-37-38.49-82.44-70.7-129.33-96.16c-5.79-3.14-12.23-8.4-18.67-6.82l38.91,23.57c35.96,22.77,69.17,49.2,102.61,75.39
		C695.34,150.4,697.73,152.67,700,152.99z M559.35,134.65c20.34,20.47,56.71,37.69,53.53,70.73c-1.83,19.01-23.39,31.25-41.25,29.5
		c-35.06-3.43-33.12-31.01-37.91-57.08c-7.01-38.16-18.73-75.08-32.94-111.06L493.01,50c0.18,4.51,0.47,9.83,1.25,14.24
		c8.29,47,22.59,96.9,34.98,143.02c22.27,67.14,116.2,37.82,89.25-30.25c-12.35-31.19-44.18-45.5-72-60.01l-1.48,1.48
		C549.99,123.6,554.34,129.61,559.35,134.65z M676,139.99l-47.28-34.21c-18.87-12.62-37.81-25.12-57.42-36.58
		c-7.35-4.3-24.37-15.56-31.26-17.75c-3.97-1.26-7.06,0.84-11.04,0.56l49.3,28.19c49.19,29.1,95.36,63.04,138.21,100.79
		c2.22,0.42,1.46-1.02,1.52-2.53c0.04-1.02-0.26-8.05-0.5-8.42c-43.55-34.78-87.14-70.05-134.62-99.46
		c-7.1-4.4-27.83-18.14-34.48-19.53c-0.94-0.19-3.72-0.75-3.43,0.93C591.17,76.9,635.9,106.22,676,139.99z M716.99,216
		c-0.3-5.36,2.32-10.66,0.5-16c-37.51-32.33-76.24-63.34-118.18-89.82C566.6,89.53,531.65,72.64,499.01,52
		c-0.79,0.84,5.48,8.97,6.5,9.99c16.59,16.72,51.81,37.19,72.82,49.18c10.88,6.21,23.71,11,33.98,18.02
		c5.68,3.89,10.38,9.46,15.75,13.25c9.39,6.63,19.61,12.15,28.86,19.14C678.5,177.91,697.48,197.36,716.99,216z M546,126
		c0.03,0.05,0.77-0.01,1.05,0.63c2.37,5.4,14.38,38.53,18.41,39.01c1.51,0.18,4.97-1.62,7.88-1.56c27.52,0.54,38,37.52,14,51.76
		c-24.29,14.41-52.78-13.53-37.53-38.53c1.29-2.12,4.97-4.8,4.98-6.59c0.01-3.81-5.95-22.48-7.52-27.48
		c-1.17-3.73-6.49-20.76-8.17-22.6c-0.99-1.08-3.96-0.68-6.08-2.15c-5.36-3.72-3.62-14.24,2.98-15.5l-0.02-1.45
		c-14.51-13-24.9-29.46-36.97-44.53c3.2,10.78,8.2,20.91,12.01,31.48c9.89,27.45,18.37,56.59,23.69,85.31
		c3.65,19.69,1.32,44.18,21.97,55.03c18.98,9.97,51.94,1.04,54.31-22.33c3.35-33.04-28.96-47.59-49.5-67.52
		c-5.24-5.08-10.67-10.89-14.5-16.96C545.33,121.73,545.92,125.02,546,126c-1.11-2.11-2.85-3.46-2.01-7l-3.98,1.48l18.48,48.51
		c6.42-2.39,1.05-6.55-0.98-11.01C553.91,150.04,546.67,134.14,546,126z M695,110.99L667.9,89.6c-9.67-6.94-19-14.53-28.98-21.02
		c-6.94-4.51-14.7-10.57-22.91-11.58c15.57,10.88,31.48,21.3,46.46,33.03c15.6,12.22,30.46,25.55,45.06,38.95
		c2.6,0.21,1.01-0.41,0.76-1.76c-0.77-4.07-2.07-6.1-5.27-8.74l1.99-0.99L700,112.5c0.32-1.51,3.78,2.17,2.98-0.97
		c-2.82-10.99-13.6-20.03-21.78-27.47c-7.03-6.39-24.06-22.07-32.72-23.04c-2.1-0.24-4.85-0.14-7.01-0.01
		c-1.12,0.07-2.74-0.67-2.47,0.98c1.14,0.1,2.4,0.51,3.34,1.16c19.93,13.67,38.58,29.27,55.65,46.36c0.16,0.74-1.05,0.68-1.48,0.49
		c-1.91-0.85-12.65-12.06-15.5-14.51c-13.95-11.98-30.66-25.4-46.72-34.28c-0.88-0.49-2.5-2.21-3.29-0.72
		C653.31,75.99,675.63,92.01,695,110.99z M691.99,89c-1.59-6.65-17-25.47-22.7-26.79c-2.06-0.48-4.22-0.17-6.29-0.2L691.99,89z
		 M579.99,113.01C555.04,101.77,533.25,84.7,511.01,69l16.02,21.47c10.44,11.66,14.04,12.72,28.76,17.24
		c6.55,2.01,14.54,4.33,21.17,5.84C577.97,113.78,580.21,114.89,579.99,113.01z M673,111.99c1.04-0.95-19.92-16.55-21.67-17.82
		c-8-5.83-16.56-11.85-25.02-16.98c-2.51-1.52-5.45-3.68-8.31-4.18L673,111.99z M541.42,230.58c-25-29.8-34.4-107.7-44.1-147.4
		c-0.4-1.62-0.7-5.63-2.31-6.17c1.75,28.62,5.74,57.07,11.3,85.18c5.74,29,15.29,65.95,41.78,83.22
		c28.66,18.69,77.83,1.23,84.63-33.18c7.03-35.55-12.28-65.46-42.85-81.6c-4.22-2.23-41.19-18.19-42.87-16.62
		c-1.2,1.12,1.5,2.7,2.28,3.21c6.48,4.15,16.27,7.59,23.38,11.62c22.94,13.02,44.24,30.25,50.81,57.19
		C635.98,237.3,573.4,268.69,541.42,230.58z M538.68,107.16c-5.48,0.44-4.53,8.41,0.79,7.91
		C544.48,114.6,542.82,106.82,538.68,107.16z M505.01,205.01c0.99,5.85,4.92,12.28,7.98,17.5c22.6,38.57,50.5,54.35,94.69,35.67
		c62.19-26.29,51.05-98.93-0.39-129.97c-16.43-9.91-36.55-15.49-55.28-19.2l44.87,16.61c38.86,19.09,63.94,70.07,35.95,108.71
		c-28.42,39.23-82.73,36.25-109.8-2.86L505.01,205.01z M500.01,137.01l3,46.49c1.37,14.51,2.44,18.78,9.97,31.03
		c9.73,15.82,33.34,43.05,52.63,45.37c61.69,7.4,98.45-51.36,63.8-103.8c-19.07-28.85-50.33-36.12-81.4-46.09l0.66,3.01
		c34.36,9.58,77.41,28.8,85.05,67.76c6.53,33.28-3.77,59.09-36.94,70.51c-52.21,17.98-80.57-31.7-89.47-75.1L500.01,137.01z
		 M672.58,176.42c-8.97-7.57-19.99-16.24-29.67-22.83c-1.29-0.88-9.1-6.3-9.91-5.58c4.78,8.07,13.68,11.18,20.91,16.58
		c11.19,8.35,22.11,17.19,32.6,26.41l1.48-0.49C682.82,185.92,677.83,180.85,672.58,176.42z M715.99,226
		c1.67-7.56-0.93-8.76-5.98-13.51c-17.43-16.38-42.85-37.06-62.7-50.3c-1.17-0.78-6.56-4.88-7.32-4.17
		c2.38,2.88,3.5,8.13,5.93,10.56c4.57,4.56,18.14,12.35,24.54,17.46c14.59,11.66,28.39,27.67,42.52,38.48
		C714,225.27,714.26,226.45,715.99,226z M567.74,170.24c-21.29,3.99-22.83,38.89,0.2,43.32
		C603.97,220.49,603.99,163.44,567.74,170.24z M712.99,243c0.21-4.94,3.74-10.94,1.06-15.56c-14.02-12.94-27.7-26.45-42.57-38.42
		c-2.41-1.94-23.09-18.39-24.47-17.02c0.36,2.5,0.9,4.96,2.43,7.06c2.58,3.54,15.07,11.86,19.59,16.41
		C684.12,210.66,695.77,229.76,712.99,243z M695.42,234.58c-15.41-16.84-26.86-37.3-45.41-51.58l2.5,18.99
		c18.91,21.49,36.71,44.15,52.5,68.01c1.96-1.39,2.81-5.7,3.48-8c0.82-2.81,3.04-9.8,2.34-12.27
		C710.54,248.69,697.77,237.15,695.42,234.58z M703.99,275.99c3.46-2.77-4.19-11.52-6.17-14.31c-8.26-11.62-17.68-22.45-25.86-34.14
		l-19.95-23.53c-0.61,9.28-3.85,17.58-7.49,26c7.39,10.55,15.45,20.63,22.7,31.27c7.75,11.37,15.43,26.24,23.35,36.65
		c0.45,0.59,1.9,2.42,2.42,2.07c1.55-4.54,9.84-17.17,8.84-21.24l-22.64-29.45L661.01,223c13.13,15.18,24.1,32.11,37.03,47.46
		C698.93,271.52,702.7,277.03,703.99,275.99z M711.99,248l-0.94-4.55c-12.85-9.69-22.07-22.91-33.04-34.45
		c1.28,3.49,4.31,6.94,6.59,9.9C692.77,229.48,701.86,239.33,711.99,248z M529,327.99c-8.77-34.33-10.38-70.06-19.07-104.42
		l-3.91-9.57l3.07,46.41c4.53,8.04,9.32,65.06,13.06,67.44C523.32,328.61,527.26,327.67,529,327.99z M544,329.99
		c-12.43-24.79-12.6-53.27-20.71-79.78c-2.55-8.33-5.61-18.66-11.28-25.21l19.09,103.9L544,329.99z M681.02,314.99
		c1.42,0.98,6.94-7.15,7.8-8.67c0.91-1.62,2.36-3.34,1.78-5.35c-9.76-16.07-19.84-32-30.78-47.29c-4.08-5.69-10.3-15.55-14.83-20.17
		c-0.7-0.71-1.81-2.3-2.96-1.51c-0.55,0.38-4.56,8.59-6.86,9.48C648.47,267.23,664.67,291.15,681.02,314.99z M553,330.99
		c-4.81-14.2-6.04-29.44-9.46-44.03c-2.32-9.9-5.72-23.21-9.49-32.51c-2.11-5.2-8.1-10.31-12.04-14.45
		c9.27,23.96,9.57,51.03,17.27,75.22C541.44,322.01,544.01,332.04,553,330.99z M634.99,243c-0.92-0.7-3.61,1.46-3.7,2.49
		c-0.2,2.36,20.8,36.01,23.9,40.83c7.39,11.47,15.64,22.43,23.31,33.68l1.99-4C663.49,292.94,647.03,269.04,634.99,243z
		 M629.52,247.08c-4.87,2.24-3.5,2.81-1.68,6.59c9.34,19.45,24.49,34.76,35.58,52.41c3.83,6.11,6.61,12.61,10.08,18.9
		c1.62-1.73,4.5-3.07,2.77-5.68L629.52,247.08z M660.2,332.78c3.52,2.03,9.91-2.91,11.35-5.81c1.02-2.05-8.56-18.46-10.52-21.5
		c-4.46-6.92-10.31-12.64-14.86-19.14c-7.62-10.9-14.22-22.7-20.69-34.32c-0.49-2.16-7.49,2.15-7.56,2.58
		c-0.54,3.33,11.69,25.44,14.29,29.7c4.62,7.58,10.48,14.38,14.96,22.04C649.43,310.18,658.92,332.05,660.2,332.78z M546.71,261.28
		c-1.84-2.16-8.33-4.07-10.22-7.27c-0.77-0.15-0.6,0.91-0.51,1.5c1.15,7.58,6.3,18.36,8.34,26.67c1.71,6.96,7.71,46.15,10.68,48.32
		c1.17,0.85,9.31,2.11,9.99,1.5c-6.59-16.5-7.83-34.34-12.07-51.42C552.13,277.37,548.1,262.9,546.71,261.28z M657.99,332.99
		c-6.4-20.44-21.1-36.22-31.17-54.32c-2.79-5.02-7.73-18.59-10.36-21.68c-1.67-1.96-6.93,3.29-9.45,3.06
		c4.77,21.39,22.81,37.49,30.84,56.59c1.15,2.74,3.77,13.69,4.32,14.18C643.76,332.23,655.02,331.77,657.99,332.99z M639.99,331
		c-2.4-19.45-17.37-33.63-26.17-50.32c-1.54-2.93-8.13-19.19-9.27-19.35c-0.77-0.1-2.39,1-3.56,0.68
		c3.6,17.83,16.24,32.31,23.18,48.32c1.53,3.54,5.34,17.58,6.31,18.69C631.75,330.5,637.77,330.29,639.99,331z M568.16,332.83
		c0.4,0.25,8.94,0.91,9.4,0.83c1.18-0.19,2.42-3,2.38-4.17c-0.04-1.24-5.16-11.71-6.09-14.84c-2.44-8.25-6.87-44.21-11.28-47.72
		c-0.51-0.41-12.1-4.39-12.57-3.92C555.04,272.15,562.8,329.56,568.16,332.83z M628,328.99c0.83-0.75-3.94-14.56-4.81-16.67
		c-3.48-8.45-9.25-15.6-13.34-23.66c-1.89-3.72-9.9-25.17-11.28-25.39c-0.63-0.1-2.37,1.1-3.55,0.74
		c6.04,23.17,24.91,40.99,29.06,64.93C624.23,329.1,627.85,329.13,628,328.99z M621.99,329c-3.07-18.5-16.25-33.46-23.87-49.62
		c-1.52-3.21-3.32-11.5-4.62-13.39c-1.4-2.05-5.45,0.11-7.51,0.51l17.9,59.89L621.99,329z M568.9,267.09
		c-0.9-0.6-3.17-0.75-2.89,1.38c0.61,4.65,3.48,11.35,4.52,16.5c2.65,13.14,3.51,26.48,9.01,39c0.54,1.23,1.17,4.64,2.94,4.02
		c2.15-0.75,0.85-2.25,0.53-3.46c-0.67-2.48-1.89-4.7-2.53-7.51C578.92,310.14,572.34,269.39,568.9,267.09z M602,325.99
		c-9-17.2-6.87-37.93-16.62-54.87c-3.89-6.76-7.43-3.5-14.38-4.12l14.11,58.87C590.87,324.89,596.2,325.99,602,325.99z M520,326.99
		l-2.71-10.78l-6.28-38.2l3.13,47.36C514.89,327.67,518.07,326.97,520,326.99z"/>
	<path d="M710.45,301.38c20.13,4,40.24,8.55,59.77,14.9c3.49,1.13,26.31,8.94,26.73,10.34c-3.01,12.19-10.97,24.72-24.49,26.39
		l-87.79-13.18c-1-0.37-1.92-1.17-1.66-2.32c0.15-0.7,7.58-7.36,8.96-9.05C698.96,319.98,704.16,310.33,710.45,301.38z M757,315.01
		l-46.95-10.96c-4.34,12.83-14.4,23.61-23.05,33.94l51.29,7.06C745.81,335.69,752.98,326.54,757,315.01z M775,350
		c-0.48-9.94,4.79-18.16,11.98-24.5c-3.35-2.16-27.33-10.5-28.88-9.41c-2.73,11.83-10.05,21.24-18.1,29.9L775,350z M794,327.01
		c-1.67,0.18-3.35-1.21-4.98-0.54c-4.73,1.93-12.57,16.87-12.02,22.53C786.36,346.58,791.78,335.58,794,327.01z"/>
	<path d="M141.99,339.99c-30.08,2.49-59.51,9.5-89.46,13.02c-13.35-0.71-21.48-14.9-24.62-26.42
		c27.65-11.89,57.06-19.58,86.63-25.21c6.26,8.97,11.53,18.55,18.48,27.07C134.52,330.3,143.99,338.08,141.99,339.99z M114.91,304.1
		L68,315.01c3.87,11.48,11.18,20.21,18.2,29.77l51.8-6.79C129.18,327.62,119.69,317.12,114.91,304.1z M66.9,316.09
		c-1.54-1.09-25.51,7.37-28.88,9.41c7.19,6.34,12.46,14.57,11.98,24.5l35-4.01C76.78,337.49,69.72,327.84,66.9,316.09z M47.99,349
		c0.55-5.66-7.29-20.6-12.02-22.53c-1.62-0.66-3.3,0.73-4.98,0.54C33.42,335.82,38.26,346.45,47.99,349z"/>
	<path d="M92.99,169.01c-1.62,10.69-2.09,21.11-1.14,31.85C63.11,205.68,35.41,214.44,8,224c-1.37-5.95-1.62-28.52,2.59-31.91
		C36.91,180.91,64.54,172.61,92.99,169.01z M89.99,172l-35.86,7.13c-2.04,9.18-2.5,18.46-2.13,27.86l36.86-8.14
		C89.18,189.88,88.57,180.9,89.99,172z M51.99,180l-31.58,10.96c1.14,8.98,1.41,17.08-0.41,26.03l31-9
		C48.26,197.99,48.95,189.8,51.99,180z M19,192c-1.76-0.24-6.76,1.67-7.51,2.99c-0.17,0.29-1.49,6.18-1.49,6.51V221
		c1.49-0.29,7.03-2.16,7.54-2.96c0.18-0.28,1.46-6.21,1.46-6.54V192z"/>
	<path d="M817,224c-27.39-9.64-55.12-18.25-83.86-23.14c1.1-10.79,0.27-21.12-1.13-31.86c28.49,3.61,56.1,11.89,82.42,23.07
		C818.29,194.91,818.14,218.51,817,224z M773,207v-17.5c0-1.81-1.92-9.33-3.66-10.34c-3.71-2.13-26.45-6.31-31.96-7.06
		c-4.68-0.64-1.45,5.3-1.34,8.35c0.22,6.13-0.34,12.32,0.07,18.44L773,207z M804.94,191.09L772,180.01
		c4.64,8.35,4.68,17.36,2.14,26.42c9.53,4.45,20.6,7.29,30.85,10.57C803.44,208.1,802.94,199.98,804.94,191.09z M815,221v-18.5
		c0-0.38-1.29-7.19-1.48-7.52c-0.75-1.29-5.77-3.22-7.52-2.98v18.5c0,0.38,1.28,7.19,1.47,7.53C808.09,219.09,814.65,221.4,815,221z
		"/>
	<path d="M92,214.99c0.37,4.94,0.51,10.52,1.12,15.38c0.3,2.41,2.72,11.25,2.58,12.17c-0.11,0.72-0.71,1.01-1.26,1.35
		c-15.32,3.6-30.77,6.76-45.88,11.16c-10.01,2.92-25.22,10.18-34.3,11.76c-1.36,0.24-2.9,0.59-3.81-0.77
		c-1.71-2.57-2.3-26.81-0.48-28.58C36.34,227.11,63.62,217.85,92,214.99z M90,218c-1.35-1.33-34.92,5.73-37.02,7.49
		c-2.74,2.29-0.01,20.16,0.48,24.56l39.54-8.06C91.03,234.19,89.77,226.05,90,218z M51,226.01l-33,11.01
		c4.27,7.74,3.04,16.53,2.01,24.98L52,252C50.15,243.06,47.32,235.02,51,226.01z M16.99,238c-0.47-0.41-4.08,0.48-4.75,1.26
		c-2.54,2.98-0.72,24.5,1.38,24.81c0.87,0.13,4.19-0.74,4.42-1.74c0.23-1.01,0.78-9.32,0.76-10.83
		C18.74,247.43,17.41,242.17,16.99,238z"/>
	<path d="M733,214.99c28.36,2.89,55.7,12.02,82.03,22.48c1.82,1.77,1.23,26.01-0.48,28.58c-0.91,1.36-2.45,1-3.81,0.77
		c-8.67-1.51-23.21-8.48-32.75-11.31c-15.62-4.63-31.56-7.99-47.44-11.61c-0.55-0.34-1.15-0.63-1.26-1.35
		c-0.14-0.92,2.28-9.76,2.58-12.17C732.49,225.51,732.63,219.93,733,214.99z M772.95,225.04L735.01,217
		c0.27,8.4-0.95,16.86-3.02,24.99l38.54,8.86C773.31,250.37,773.16,228.6,772.95,225.04z M804.99,262
		c-1.29-8.48-1.72-16.91,1.55-25.01L774,226.01c3.68,9.01,0.85,17.05-1,25.99L804.99,262z M812.75,239.26
		c-0.85-1-3.39-1.29-4.75-1.26c-0.96,0.83-1.6,21.95-1.05,24.33c0.29,1.24,3.29,1.54,4.48,1.71
		C813.3,263.86,815.44,242.41,812.75,239.26z"/>
	<path d="M810.86,282.14c0.4,10.67-2.58,21.46-7.43,30.9c-28.64-10.64-58.09-18.71-88.43-23.06c4.55-9.92,7.7-20.33,10.01-31
		C754.25,264.37,783.14,271.4,810.86,282.14z M769.01,271.01l-42-9.02c0.42,4.51-8.34,23.31-7.96,25.44
		c0.39,2.14,37.67,6.43,42.37,9.45C764.15,296.2,768.4,274.71,769.01,271.01z M801,281.01L770.01,271
		c1.28,9.93-2.69,18.06-6.01,26.99l30.99,9C793.91,297.71,797.66,289.35,801,281.01z M796,307.97c0.19,0.25,5.69,1.81,6.04,1.6
		c1.94-1.16,5.75-16.17,5.94-19.09c0.32-4.78,0.86-7.2-4.52-8.33C801.53,282.34,795.19,306.89,796,307.97z"/>
	<path d="M99.98,258.99c1.46,5.12,2.34,10.45,4,15.52c1.38,4.21,4.78,10.25,5.59,13.44c0.31,1.24,0.83,1.58-0.54,2.57
		c-21.19,2.49-41.93,7.5-62.25,13.75c-5.62,1.73-20.06,8.29-24.49,8.57c-1,0.06-1.18-0.03-1.79-0.84
		c-2.24-2.98-8.12-27.17-6.37-29.88C41.84,271.39,70.74,264.28,99.98,258.99z M55.99,271.01c0.6,3.7,4.85,25.19,7.58,25.87
		c4.7-3.02,41.98-7.32,42.37-9.45c0.41-2.26-8.55-20.74-7.96-25.44L55.99,271.01z M61,297.99c-3.32-8.93-7.29-17.06-6.01-26.99
		L24,281.01c3.34,8.34,7.09,16.7,6.01,25.98L61,297.99z M22.99,282c-9.37,0.14-5.84,10.5-4.28,16.79
		c1.58,6.37,2.99,14.44,10.29,8.64L22.99,282z"/>
	<path d="M248.75,176.23c22.28-3.47,25.65,28,6.52,31.53C233.11,211.86,229.27,179.26,248.75,176.23z"/>
	<path d="M569.74,176.24c22.6-3.66,25.82,28.38,6.52,31.52C554.14,211.35,550.51,179.36,569.74,176.24z"/>
	<path d="M406.71,154.21c14.22-3.18,27,7.48,21.76,21.77c-7.24,19.72-38.88,11.17-32.01-12.02
		C397.47,160.55,403.21,154.99,406.71,154.21z"/>
</g>
</svg>
