<svg width="12" height="9" viewBox="0 0 12 9" fill="none" xmlns="http://www.w3.org/2000/svg">
<path d="M4.79883 8.58984H0.046875V7.74609H1.94531V1.21875L0 1.79883V0.884766L2.90625 0V7.74609H4.79883V8.58984ZM8.63672 8.73047C7.80469 8.73047 7.1543 8.37305 6.68555 7.6582C6.2207 6.94336 5.98828 5.91016 5.98828 4.55859C5.98828 3.07422 6.23047 1.95117 6.71484 1.18945C7.20312 0.427734 7.90625 0.046875 8.82422 0.046875C10.582 0.046875 11.4609 1.48242 11.4609 4.35352C11.4609 5.77539 11.2129 6.86133 10.7168 7.61133C10.2207 8.35742 9.52734 8.73047 8.63672 8.73047ZM8.77148 0.861328C7.57227 0.861328 6.97266 2.07812 6.97266 4.51172C6.97266 6.78516 7.56055 7.92188 8.73633 7.92188C9.89648 7.92188 10.4766 6.76562 10.4766 4.45312C10.4766 2.05859 9.9082 0.861328 8.77148 0.861328Z" fill="black"/>
</svg>
