<svg width="12" height="9" viewBox="0 0 12 9" fill="none" xmlns="http://www.w3.org/2000/svg">
<path d="M4.79883 8.58984H0.046875V7.74609H1.94531V1.21875L0 1.79883V0.884766L2.90625 0V7.74609H4.79883V8.58984ZM11.1094 8.58984H6.04688V7.73438L8.49609 5.2793C9.12109 4.6543 9.56641 4.13477 9.83203 3.7207C10.1016 3.30273 10.2363 2.85742 10.2363 2.38477C10.2363 1.90039 10.0977 1.52539 9.82031 1.25977C9.54297 0.994141 9.14844 0.861328 8.63672 0.861328C7.88672 0.861328 7.16797 1.18164 6.48047 1.82227V0.814453C7.13672 0.302734 7.90039 0.046875 8.77148 0.046875C9.52148 0.046875 10.1113 0.25 10.541 0.65625C10.9707 1.0625 11.1855 1.60742 11.1855 2.29102C11.1855 2.83008 11.0371 3.35742 10.7402 3.87305C10.4434 4.38477 9.91016 5.02148 9.14062 5.7832L7.20117 7.69922V7.72266H11.1094V8.58984Z" fill="black"/>
</svg>
