<svg width="12" height="9" viewBox="0 0 12 9" fill="none" xmlns="http://www.w3.org/2000/svg">
<path d="M4.79883 8.58984H0.046875V7.74609H1.94531V1.21875L0 1.79883V0.884766L2.90625 0V7.74609H4.79883V8.58984ZM6.25195 8.2793V7.24219C6.82617 7.69531 7.47461 7.92188 8.19727 7.92188C8.7832 7.92188 9.25 7.77539 9.59766 7.48242C9.94922 7.18945 10.125 6.79492 10.125 6.29883C10.125 5.20117 9.3457 4.65234 7.78711 4.65234H7.08984V3.83789H7.75195C9.13867 3.83789 9.83203 3.32227 9.83203 2.29102C9.83203 1.33789 9.30273 0.861328 8.24414 0.861328C7.6543 0.861328 7.09766 1.0625 6.57422 1.46484V0.527344C7.11328 0.207031 7.75 0.046875 8.48438 0.046875C9.19141 0.046875 9.75586 0.234375 10.1777 0.609375C10.6035 0.984375 10.8164 1.46484 10.8164 2.05078C10.8164 3.15625 10.2539 3.86719 9.12891 4.18359V4.20703C9.73438 4.26562 10.2148 4.47852 10.5703 4.8457C10.9297 5.20898 11.1094 5.66406 11.1094 6.21094C11.1094 6.96484 10.8379 7.57422 10.2949 8.03906C9.75586 8.5 9.04297 8.73047 8.15625 8.73047C7.35938 8.73047 6.72461 8.58008 6.25195 8.2793Z" fill="black"/>
</svg>
