<svg width="12" height="9" viewBox="0 0 12 9" fill="none" xmlns="http://www.w3.org/2000/svg">
<path d="M4.79883 8.58984H0.046875V7.74609H1.94531V1.21875L0 1.79883V0.884766L2.90625 0V7.74609H4.79883V8.58984ZM6.44531 8.38477V7.36523C7.01953 7.73633 7.60352 7.92188 8.19727 7.92188C8.79102 7.92188 9.26953 7.75391 9.63281 7.41797C9.99609 7.08203 10.1777 6.63672 10.1777 6.08203C10.1777 5.53125 9.99219 5.10156 9.62109 4.79297C9.25 4.48438 8.71875 4.33008 8.02734 4.33008C7.79297 4.33008 7.35352 4.35352 6.70898 4.40039V0.1875H10.7754V1.05469H7.61719V3.51562C7.875 3.5 8.11328 3.49219 8.33203 3.49219C9.23047 3.49219 9.92578 3.71875 10.418 4.17188C10.9102 4.62109 11.1562 5.23828 11.1562 6.02344C11.1562 6.83594 10.8906 7.49023 10.3594 7.98633C9.83203 8.48242 9.10742 8.73047 8.18555 8.73047C7.4082 8.73047 6.82812 8.61523 6.44531 8.38477Z" fill="black"/>
</svg>
