<svg width="12" height="9" viewBox="0 0 12 9" fill="none" xmlns="http://www.w3.org/2000/svg">
<path d="M4.79883 8.58984H0.046875V7.74609H1.94531V1.21875L0 1.79883V0.884766L2.90625 0V7.74609H4.79883V8.58984ZM10.957 0.287109V1.19531C10.5234 0.972656 10.0664 0.861328 9.58594 0.861328C8.83984 0.861328 8.24219 1.19336 7.79297 1.85742C7.34766 2.52148 7.125 3.41016 7.125 4.52344H7.14844C7.53906 3.73047 8.17969 3.33398 9.07031 3.33398C9.80469 3.33398 10.3887 3.57031 10.8223 4.04297C11.2559 4.51172 11.4727 5.14062 11.4727 5.92969C11.4727 6.75391 11.2246 7.42773 10.7285 7.95117C10.2324 8.4707 9.60156 8.73047 8.83594 8.73047C7.99219 8.73047 7.33008 8.39453 6.84961 7.72266C6.36914 7.05078 6.12891 6.10742 6.12891 4.89258C6.12891 3.41992 6.44336 2.24414 7.07227 1.36523C7.70117 0.486328 8.53125 0.046875 9.5625 0.046875C10.1484 0.046875 10.6133 0.126953 10.957 0.287109ZM8.85938 4.14844C8.36328 4.14844 7.96094 4.31641 7.65234 4.65234C7.34375 4.98828 7.18945 5.38477 7.18945 5.8418C7.18945 6.41602 7.3418 6.90625 7.64648 7.3125C7.95508 7.71875 8.36328 7.92188 8.87109 7.92188C9.35547 7.92188 9.74609 7.74609 10.043 7.39453C10.3398 7.03906 10.4883 6.58984 10.4883 6.04688C10.4883 5.45312 10.3457 4.98828 10.0605 4.65234C9.77539 4.31641 9.375 4.14844 8.85938 4.14844Z" fill="black"/>
</svg>
