<svg width="12" height="9" viewBox="0 0 12 9" fill="none" xmlns="http://www.w3.org/2000/svg">
<path d="M4.79883 8.58984H0.046875V7.74609H1.94531V1.21875L0 1.79883V0.884766L2.90625 0V7.74609H4.79883V8.58984ZM7.88672 4.18359V4.16016C6.87891 3.69141 6.375 3.01172 6.375 2.12109C6.375 1.51563 6.60547 1.01953 7.06641 0.632812C7.52734 0.242187 8.12109 0.046875 8.84766 0.046875C9.50391 0.046875 10.043 0.228516 10.4648 0.591797C10.8867 0.955078 11.0977 1.42188 11.0977 1.99219C11.0977 2.92188 10.5781 3.64453 9.53906 4.16016V4.18359C10.7656 4.62109 11.3789 5.37891 11.3789 6.45703C11.3789 7.15234 11.1289 7.70508 10.6289 8.11523C10.1289 8.52539 9.43359 8.73047 8.54297 8.73047C7.82422 8.73047 7.23242 8.52734 6.76758 8.12109C6.30273 7.71484 6.07031 7.1875 6.07031 6.53906C6.07031 5.46094 6.67578 4.67578 7.88672 4.18359ZM10.1133 2.10938C10.1133 1.72266 9.99219 1.41797 9.75 1.19531C9.50781 0.972656 9.17773 0.861328 8.75977 0.861328C8.36914 0.861328 8.03711 0.978516 7.76367 1.21289C7.49414 1.44336 7.35938 1.73828 7.35938 2.09766C7.35938 2.82812 7.81445 3.37891 8.72461 3.75C9.65039 3.36719 10.1133 2.82031 10.1133 2.10938ZM8.66016 4.64062C7.58984 5.06641 7.05469 5.68359 7.05469 6.49219C7.05469 6.91016 7.20898 7.25391 7.51758 7.52344C7.83008 7.78906 8.24023 7.92188 8.74805 7.92188C9.23242 7.92188 9.62695 7.79102 9.93164 7.5293C10.2402 7.26367 10.3945 6.92969 10.3945 6.52734C10.3945 5.68359 9.81641 5.05469 8.66016 4.64062Z" fill="black"/>
</svg>
