<svg width="12" height="9" viewBox="0 0 12 9" fill="none" xmlns="http://www.w3.org/2000/svg">
<path d="M4.79883 8.58984H0.046875V7.74609H1.94531V1.21875L0 1.79883V0.884766L2.90625 0V7.74609H4.79883V8.58984ZM6.49219 8.44922V7.52344C6.96094 7.78906 7.45703 7.92188 7.98047 7.92188C8.74219 7.92188 9.33398 7.61523 9.75586 7.00195C10.1816 6.38867 10.3945 5.51758 10.3945 4.38867C10.3867 4.39258 10.3789 4.39258 10.3711 4.38867C10.0117 5.11133 9.38672 5.47266 8.49609 5.47266C7.77734 5.47266 7.1875 5.22852 6.72656 4.74023C6.26562 4.25195 6.03516 3.62305 6.03516 2.85352C6.03516 2.0332 6.28711 1.36133 6.79102 0.837891C7.29883 0.310547 7.94727 0.046875 8.73633 0.046875C9.56445 0.046875 10.209 0.375 10.6699 1.03125C11.1348 1.68359 11.3672 2.63477 11.3672 3.88477C11.3672 5.43555 11.0664 6.63086 10.4648 7.4707C9.86328 8.31055 9.02734 8.73047 7.95703 8.73047C7.39453 8.73047 6.90625 8.63672 6.49219 8.44922ZM8.64844 0.861328C8.18359 0.861328 7.79492 1.03711 7.48242 1.38867C7.17383 1.73633 7.01953 2.17969 7.01953 2.71875C7.01953 3.30859 7.17188 3.77344 7.47656 4.11328C7.78125 4.44922 8.19336 4.61719 8.71289 4.61719C9.16602 4.61719 9.54883 4.46289 9.86133 4.1543C10.1777 3.8457 10.3359 3.46875 10.3359 3.02344C10.3359 2.38672 10.1797 1.86719 9.86719 1.46484C9.55469 1.0625 9.14844 0.861328 8.64844 0.861328Z" fill="black"/>
</svg>
