<svg width="12" height="9" viewBox="0 0 12 9" fill="none" xmlns="http://www.w3.org/2000/svg">
<path d="M5.0625 8.54297H0V7.6875L2.44922 5.23242C3.07422 4.60742 3.51953 4.08789 3.78516 3.67383C4.05469 3.25586 4.18945 2.81055 4.18945 2.33789C4.18945 1.85352 4.05078 1.47852 3.77344 1.21289C3.49609 0.947266 3.10156 0.814453 2.58984 0.814453C1.83984 0.814453 1.12109 1.13477 0.433594 1.77539V0.767578C1.08984 0.255859 1.85352 0 2.72461 0C3.47461 0 4.06445 0.203125 4.49414 0.609375C4.92383 1.01562 5.13867 1.56055 5.13867 2.24414C5.13867 2.7832 4.99023 3.31055 4.69336 3.82617C4.39648 4.33789 3.86328 4.97461 3.09375 5.73633L1.1543 7.65234V7.67578H5.0625V8.54297ZM9.05859 8.68359C8.22656 8.68359 7.57617 8.32617 7.10742 7.61133C6.64258 6.89648 6.41016 5.86328 6.41016 4.51172C6.41016 3.02734 6.65234 1.9043 7.13672 1.14258C7.625 0.380859 8.32812 0 9.24609 0C11.0039 0 11.8828 1.43555 11.8828 4.30664C11.8828 5.72852 11.6348 6.81445 11.1387 7.56445C10.6426 8.31055 9.94922 8.68359 9.05859 8.68359ZM9.19336 0.814453C7.99414 0.814453 7.39453 2.03125 7.39453 4.46484C7.39453 6.73828 7.98242 7.875 9.1582 7.875C10.3184 7.875 10.8984 6.71875 10.8984 4.40625C10.8984 2.01172 10.3301 0.814453 9.19336 0.814453Z" fill="black"/>
</svg>
