<svg width="12" height="9" viewBox="0 0 12 9" fill="none" xmlns="http://www.w3.org/2000/svg">
<path d="M5.0625 8.58984H0V7.73438L2.44922 5.2793C3.07422 4.6543 3.51953 4.13477 3.78516 3.7207C4.05469 3.30273 4.18945 2.85742 4.18945 2.38477C4.18945 1.90039 4.05078 1.52539 3.77344 1.25977C3.49609 0.994141 3.10156 0.861328 2.58984 0.861328C1.83984 0.861328 1.12109 1.18164 0.433594 1.82227V0.814453C1.08984 0.302734 1.85352 0.046875 2.72461 0.046875C3.47461 0.046875 4.06445 0.25 4.49414 0.65625C4.92383 1.0625 5.13867 1.60742 5.13867 2.29102C5.13867 2.83008 4.99023 3.35742 4.69336 3.87305C4.39648 4.38477 3.86328 5.02148 3.09375 5.7832L1.1543 7.69922V7.72266H5.0625V8.58984ZM11.6895 8.58984H6.9375V7.74609H8.83594V1.21875L6.89062 1.79883V0.884766L9.79688 0V7.74609H11.6895V8.58984Z" fill="black"/>
</svg>
