<svg width="12" height="9" viewBox="0 0 12 9" fill="none" xmlns="http://www.w3.org/2000/svg">
<path d="M5.0625 8.54297H0V7.6875L2.44922 5.23242C3.07422 4.60742 3.51953 4.08789 3.78516 3.67383C4.05469 3.25586 4.18945 2.81055 4.18945 2.33789C4.18945 1.85352 4.05078 1.47852 3.77344 1.21289C3.49609 0.947266 3.10156 0.814453 2.58984 0.814453C1.83984 0.814453 1.12109 1.13477 0.433594 1.77539V0.767578C1.08984 0.255859 1.85352 0 2.72461 0C3.47461 0 4.06445 0.203125 4.49414 0.609375C4.92383 1.01562 5.13867 1.56055 5.13867 2.24414C5.13867 2.7832 4.99023 3.31055 4.69336 3.82617C4.39648 4.33789 3.86328 4.97461 3.09375 5.73633L1.1543 7.65234V7.67578H5.0625V8.54297ZM11.5312 8.54297H6.46875V7.6875L8.91797 5.23242C9.54297 4.60742 9.98828 4.08789 10.2539 3.67383C10.5234 3.25586 10.6582 2.81055 10.6582 2.33789C10.6582 1.85352 10.5195 1.47852 10.2422 1.21289C9.96484 0.947266 9.57031 0.814453 9.05859 0.814453C8.30859 0.814453 7.58984 1.13477 6.90234 1.77539V0.767578C7.55859 0.255859 8.32227 0 9.19336 0C9.94336 0 10.5332 0.203125 10.9629 0.609375C11.3926 1.01562 11.6074 1.56055 11.6074 2.24414C11.6074 2.7832 11.459 3.31055 11.1621 3.82617C10.8652 4.33789 10.332 4.97461 9.5625 5.73633L7.62305 7.65234V7.67578H11.5312V8.54297Z" fill="black"/>
</svg>
