<svg width="12" height="9" viewBox="0 0 12 9" fill="none" xmlns="http://www.w3.org/2000/svg">
<path d="M5.0625 8.54297H0V7.6875L2.44922 5.23242C3.07422 4.60742 3.51953 4.08789 3.78516 3.67383C4.05469 3.25586 4.18945 2.81055 4.18945 2.33789C4.18945 1.85352 4.05078 1.47852 3.77344 1.21289C3.49609 0.947266 3.10156 0.814453 2.58984 0.814453C1.83984 0.814453 1.12109 1.13477 0.433594 1.77539V0.767578C1.08984 0.255859 1.85352 0 2.72461 0C3.47461 0 4.06445 0.203125 4.49414 0.609375C4.92383 1.01562 5.13867 1.56055 5.13867 2.24414C5.13867 2.7832 4.99023 3.31055 4.69336 3.82617C4.39648 4.33789 3.86328 4.97461 3.09375 5.73633L1.1543 7.65234V7.67578H5.0625V8.54297ZM6.67383 8.23242V7.19531C7.24805 7.64844 7.89648 7.875 8.61914 7.875C9.20508 7.875 9.67188 7.72852 10.0195 7.43555C10.3711 7.14258 10.5469 6.74805 10.5469 6.25195C10.5469 5.1543 9.76758 4.60547 8.20898 4.60547H7.51172V3.79102H8.17383C9.56055 3.79102 10.2539 3.27539 10.2539 2.24414C10.2539 1.29102 9.72461 0.814453 8.66602 0.814453C8.07617 0.814453 7.51953 1.01562 6.99609 1.41797V0.480469C7.53516 0.160156 8.17188 0 8.90625 0C9.61328 0 10.1777 0.1875 10.5996 0.5625C11.0254 0.9375 11.2383 1.41797 11.2383 2.00391C11.2383 3.10938 10.6758 3.82031 9.55078 4.13672V4.16016C10.1562 4.21875 10.6367 4.43164 10.9922 4.79883C11.3516 5.16211 11.5312 5.61719 11.5312 6.16406C11.5312 6.91797 11.2598 7.52734 10.7168 7.99219C10.1777 8.45312 9.46484 8.68359 8.57812 8.68359C7.78125 8.68359 7.14648 8.5332 6.67383 8.23242Z" fill="black"/>
</svg>
