<svg width="12" height="9" viewBox="0 0 12 9" fill="none" xmlns="http://www.w3.org/2000/svg">
<path d="M5.0625 8.54297H0V7.6875L2.44922 5.23242C3.07422 4.60742 3.51953 4.08789 3.78516 3.67383C4.05469 3.25586 4.18945 2.81055 4.18945 2.33789C4.18945 1.85352 4.05078 1.47852 3.77344 1.21289C3.49609 0.947266 3.10156 0.814453 2.58984 0.814453C1.83984 0.814453 1.12109 1.13477 0.433594 1.77539V0.767578C1.08984 0.255859 1.85352 0 2.72461 0C3.47461 0 4.06445 0.203125 4.49414 0.609375C4.92383 1.01562 5.13867 1.56055 5.13867 2.24414C5.13867 2.7832 4.99023 3.31055 4.69336 3.82617C4.39648 4.33789 3.86328 4.97461 3.09375 5.73633L1.1543 7.65234V7.67578H5.0625V8.54297ZM11.9648 6.31055H10.8867V8.54297H9.9375V6.31055H5.98828V5.68359L9.72656 0.140625H10.8867V5.53125H11.9648V6.31055ZM9.9375 5.53125V1.89844C9.9375 1.64062 9.94531 1.35156 9.96094 1.03125H9.9375C9.88281 1.17188 9.77539 1.38672 9.61523 1.67578L7.03125 5.53125H9.9375Z" fill="black"/>
</svg>
