<svg width="12" height="9" viewBox="0 0 12 9" fill="none" xmlns="http://www.w3.org/2000/svg">
<path d="M5.0625 8.54297H0V7.6875L2.44922 5.23242C3.07422 4.60742 3.51953 4.08789 3.78516 3.67383C4.05469 3.25586 4.18945 2.81055 4.18945 2.33789C4.18945 1.85352 4.05078 1.47852 3.77344 1.21289C3.49609 0.947266 3.10156 0.814453 2.58984 0.814453C1.83984 0.814453 1.12109 1.13477 0.433594 1.77539V0.767578C1.08984 0.255859 1.85352 0 2.72461 0C3.47461 0 4.06445 0.203125 4.49414 0.609375C4.92383 1.01562 5.13867 1.56055 5.13867 2.24414C5.13867 2.7832 4.99023 3.31055 4.69336 3.82617C4.39648 4.33789 3.86328 4.97461 3.09375 5.73633L1.1543 7.65234V7.67578H5.0625V8.54297ZM6.86719 8.33789V7.31836C7.44141 7.68945 8.02539 7.875 8.61914 7.875C9.21289 7.875 9.69141 7.70703 10.0547 7.37109C10.418 7.03516 10.5996 6.58984 10.5996 6.03516C10.5996 5.48438 10.4141 5.05469 10.043 4.74609C9.67188 4.4375 9.14062 4.2832 8.44922 4.2832C8.21484 4.2832 7.77539 4.30664 7.13086 4.35352V0.140625H11.1973V1.00781H8.03906V3.46875C8.29688 3.45312 8.53516 3.44531 8.75391 3.44531C9.65234 3.44531 10.3477 3.67188 10.8398 4.125C11.332 4.57422 11.5781 5.19141 11.5781 5.97656C11.5781 6.78906 11.3125 7.44336 10.7812 7.93945C10.2539 8.43555 9.5293 8.68359 8.60742 8.68359C7.83008 8.68359 7.25 8.56836 6.86719 8.33789Z" fill="black"/>
</svg>
