<svg width="12" height="9" viewBox="0 0 12 9" fill="none" xmlns="http://www.w3.org/2000/svg">
<path d="M5.0625 8.54297H0V7.6875L2.44922 5.23242C3.07422 4.60742 3.51953 4.08789 3.78516 3.67383C4.05469 3.25586 4.18945 2.81055 4.18945 2.33789C4.18945 1.85352 4.05078 1.47852 3.77344 1.21289C3.49609 0.947266 3.10156 0.814453 2.58984 0.814453C1.83984 0.814453 1.12109 1.13477 0.433594 1.77539V0.767578C1.08984 0.255859 1.85352 0 2.72461 0C3.47461 0 4.06445 0.203125 4.49414 0.609375C4.92383 1.01562 5.13867 1.56055 5.13867 2.24414C5.13867 2.7832 4.99023 3.31055 4.69336 3.82617C4.39648 4.33789 3.86328 4.97461 3.09375 5.73633L1.1543 7.65234V7.67578H5.0625V8.54297ZM11.3789 0.240234V1.14844C10.9453 0.925781 10.4883 0.814453 10.0078 0.814453C9.26172 0.814453 8.66406 1.14648 8.21484 1.81055C7.76953 2.47461 7.54688 3.36328 7.54688 4.47656H7.57031C7.96094 3.68359 8.60156 3.28711 9.49219 3.28711C10.2266 3.28711 10.8105 3.52344 11.2441 3.99609C11.6777 4.46484 11.8945 5.09375 11.8945 5.88281C11.8945 6.70703 11.6465 7.38086 11.1504 7.9043C10.6543 8.42383 10.0234 8.68359 9.25781 8.68359C8.41406 8.68359 7.75195 8.34766 7.27148 7.67578C6.79102 7.00391 6.55078 6.06055 6.55078 4.8457C6.55078 3.37305 6.86523 2.19727 7.49414 1.31836C8.12305 0.439453 8.95312 0 9.98438 0C10.5703 0 11.0352 0.0800781 11.3789 0.240234ZM9.28125 4.10156C8.78516 4.10156 8.38281 4.26953 8.07422 4.60547C7.76562 4.94141 7.61133 5.33789 7.61133 5.79492C7.61133 6.36914 7.76367 6.85938 8.06836 7.26562C8.37695 7.67188 8.78516 7.875 9.29297 7.875C9.77734 7.875 10.168 7.69922 10.4648 7.34766C10.7617 6.99219 10.9102 6.54297 10.9102 6C10.9102 5.40625 10.7676 4.94141 10.4824 4.60547C10.1973 4.26953 9.79688 4.10156 9.28125 4.10156Z" fill="black"/>
</svg>
