<svg width="12" height="9" viewBox="0 0 12 9" fill="none" xmlns="http://www.w3.org/2000/svg">
<path d="M5.0625 8.54297H0V7.6875L2.44922 5.23242C3.07422 4.60742 3.51953 4.08789 3.78516 3.67383C4.05469 3.25586 4.18945 2.81055 4.18945 2.33789C4.18945 1.85352 4.05078 1.47852 3.77344 1.21289C3.49609 0.947266 3.10156 0.814453 2.58984 0.814453C1.83984 0.814453 1.12109 1.13477 0.433594 1.77539V0.767578C1.08984 0.255859 1.85352 0 2.72461 0C3.47461 0 4.06445 0.203125 4.49414 0.609375C4.92383 1.01562 5.13867 1.56055 5.13867 2.24414C5.13867 2.7832 4.99023 3.31055 4.69336 3.82617C4.39648 4.33789 3.86328 4.97461 3.09375 5.73633L1.1543 7.65234V7.67578H5.0625V8.54297ZM8.30859 4.13672V4.11328C7.30078 3.64453 6.79688 2.96484 6.79688 2.07422C6.79688 1.46875 7.02734 0.972656 7.48828 0.585938C7.94922 0.195312 8.54297 0 9.26953 0C9.92578 0 10.4648 0.181641 10.8867 0.544922C11.3086 0.908203 11.5195 1.375 11.5195 1.94531C11.5195 2.875 11 3.59766 9.96094 4.11328V4.13672C11.1875 4.57422 11.8008 5.33203 11.8008 6.41016C11.8008 7.10547 11.5508 7.6582 11.0508 8.06836C10.5508 8.47852 9.85547 8.68359 8.96484 8.68359C8.24609 8.68359 7.6543 8.48047 7.18945 8.07422C6.72461 7.66797 6.49219 7.14062 6.49219 6.49219C6.49219 5.41406 7.09766 4.62891 8.30859 4.13672ZM10.5352 2.0625C10.5352 1.67578 10.4141 1.37109 10.1719 1.14844C9.92969 0.925781 9.59961 0.814453 9.18164 0.814453C8.79102 0.814453 8.45898 0.931641 8.18555 1.16602C7.91602 1.39648 7.78125 1.69141 7.78125 2.05078C7.78125 2.78125 8.23633 3.33203 9.14648 3.70312C10.0723 3.32031 10.5352 2.77344 10.5352 2.0625ZM9.08203 4.59375C8.01172 5.01953 7.47656 5.63672 7.47656 6.44531C7.47656 6.86328 7.63086 7.20703 7.93945 7.47656C8.25195 7.74219 8.66211 7.875 9.16992 7.875C9.6543 7.875 10.0488 7.74414 10.3535 7.48242C10.6621 7.2168 10.8164 6.88281 10.8164 6.48047C10.8164 5.63672 10.2383 5.00781 9.08203 4.59375Z" fill="black"/>
</svg>
