<svg width="12" height="9" viewBox="0 0 12 9" fill="none" xmlns="http://www.w3.org/2000/svg">
<path d="M5.0625 8.54297H0V7.6875L2.44922 5.23242C3.07422 4.60742 3.51953 4.08789 3.78516 3.67383C4.05469 3.25586 4.18945 2.81055 4.18945 2.33789C4.18945 1.85352 4.05078 1.47852 3.77344 1.21289C3.49609 0.947266 3.10156 0.814453 2.58984 0.814453C1.83984 0.814453 1.12109 1.13477 0.433594 1.77539V0.767578C1.08984 0.255859 1.85352 0 2.72461 0C3.47461 0 4.06445 0.203125 4.49414 0.609375C4.92383 1.01562 5.13867 1.56055 5.13867 2.24414C5.13867 2.7832 4.99023 3.31055 4.69336 3.82617C4.39648 4.33789 3.86328 4.97461 3.09375 5.73633L1.1543 7.65234V7.67578H5.0625V8.54297ZM6.91406 8.40234V7.47656C7.38281 7.74219 7.87891 7.875 8.40234 7.875C9.16406 7.875 9.75586 7.56836 10.1777 6.95508C10.6035 6.3418 10.8164 5.4707 10.8164 4.3418C10.8086 4.3457 10.8008 4.3457 10.793 4.3418C10.4336 5.06445 9.80859 5.42578 8.91797 5.42578C8.19922 5.42578 7.60938 5.18164 7.14844 4.69336C6.6875 4.20508 6.45703 3.57617 6.45703 2.80664C6.45703 1.98633 6.70898 1.31445 7.21289 0.791016C7.7207 0.263672 8.36914 0 9.1582 0C9.98633 0 10.6309 0.328125 11.0918 0.984375C11.5566 1.63672 11.7891 2.58789 11.7891 3.83789C11.7891 5.38867 11.4883 6.58398 10.8867 7.42383C10.2852 8.26367 9.44922 8.68359 8.37891 8.68359C7.81641 8.68359 7.32812 8.58984 6.91406 8.40234ZM9.07031 0.814453C8.60547 0.814453 8.2168 0.990234 7.9043 1.3418C7.5957 1.68945 7.44141 2.13281 7.44141 2.67188C7.44141 3.26172 7.59375 3.72656 7.89844 4.06641C8.20312 4.40234 8.61523 4.57031 9.13477 4.57031C9.58789 4.57031 9.9707 4.41602 10.2832 4.10742C10.5996 3.79883 10.7578 3.42188 10.7578 2.97656C10.7578 2.33984 10.6016 1.82031 10.2891 1.41797C9.97656 1.01562 9.57031 0.814453 9.07031 0.814453Z" fill="black"/>
</svg>
