<svg width="12" height="9" viewBox="0 0 12 9" fill="none" xmlns="http://www.w3.org/2000/svg">
<path d="M0 8.23242V7.19531C0.574219 7.64844 1.22266 7.875 1.94531 7.875C2.53125 7.875 2.99805 7.72852 3.3457 7.43555C3.69727 7.14258 3.87305 6.74805 3.87305 6.25195C3.87305 5.1543 3.09375 4.60547 1.53516 4.60547H0.837891V3.79102H1.5C2.88672 3.79102 3.58008 3.27539 3.58008 2.24414C3.58008 1.29102 3.05078 0.814453 1.99219 0.814453C1.40234 0.814453 0.845703 1.01562 0.322266 1.41797V0.480469C0.861328 0.160156 1.49805 0 2.23242 0C2.93945 0 3.50391 0.1875 3.92578 0.5625C4.35156 0.9375 4.56445 1.41797 4.56445 2.00391C4.56445 3.10938 4.00195 3.82031 2.87695 4.13672V4.16016C3.48242 4.21875 3.96289 4.43164 4.31836 4.79883C4.67773 5.16211 4.85742 5.61719 4.85742 6.16406C4.85742 6.91797 4.58594 7.52734 4.04297 7.99219C3.50391 8.45312 2.79102 8.68359 1.9043 8.68359C1.10742 8.68359 0.472656 8.5332 0 8.23242ZM8.85352 8.68359C8.02148 8.68359 7.37109 8.32617 6.90234 7.61133C6.4375 6.89648 6.20508 5.86328 6.20508 4.51172C6.20508 3.02734 6.44727 1.9043 6.93164 1.14258C7.41992 0.380859 8.12305 0 9.04102 0C10.7988 0 11.6777 1.43555 11.6777 4.30664C11.6777 5.72852 11.4297 6.81445 10.9336 7.56445C10.4375 8.31055 9.74414 8.68359 8.85352 8.68359ZM8.98828 0.814453C7.78906 0.814453 7.18945 2.03125 7.18945 4.46484C7.18945 6.73828 7.77734 7.875 8.95312 7.875C10.1133 7.875 10.6934 6.71875 10.6934 4.40625C10.6934 2.01172 10.125 0.814453 8.98828 0.814453Z" fill="black"/>
</svg>
