<svg width="12" height="9" viewBox="0 0 12 9" fill="none" xmlns="http://www.w3.org/2000/svg">
<path d="M0 8.2793V7.24219C0.574219 7.69531 1.22266 7.92188 1.94531 7.92188C2.53125 7.92188 2.99805 7.77539 3.3457 7.48242C3.69727 7.18945 3.87305 6.79492 3.87305 6.29883C3.87305 5.20117 3.09375 4.65234 1.53516 4.65234H0.837891V3.83789H1.5C2.88672 3.83789 3.58008 3.32227 3.58008 2.29102C3.58008 1.33789 3.05078 0.861328 1.99219 0.861328C1.40234 0.861328 0.845703 1.0625 0.322266 1.46484V0.527344C0.861328 0.207031 1.49805 0.046875 2.23242 0.046875C2.93945 0.046875 3.50391 0.234375 3.92578 0.609375C4.35156 0.984375 4.56445 1.46484 4.56445 2.05078C4.56445 3.15625 4.00195 3.86719 2.87695 4.18359V4.20703C3.48242 4.26562 3.96289 4.47852 4.31836 4.8457C4.67773 5.20898 4.85742 5.66406 4.85742 6.21094C4.85742 6.96484 4.58594 7.57422 4.04297 8.03906C3.50391 8.5 2.79102 8.73047 1.9043 8.73047C1.10742 8.73047 0.472656 8.58008 0 8.2793ZM11.4844 8.58984H6.73242V7.74609H8.63086V1.21875L6.68555 1.79883V0.884766L9.5918 0V7.74609H11.4844V8.58984Z" fill="black"/>
</svg>
