<svg width="12" height="9" viewBox="0 0 12 9" fill="none" xmlns="http://www.w3.org/2000/svg">
<path d="M0 8.23242V7.19531C0.574219 7.64844 1.22266 7.875 1.94531 7.875C2.53125 7.875 2.99805 7.72852 3.3457 7.43555C3.69727 7.14258 3.87305 6.74805 3.87305 6.25195C3.87305 5.1543 3.09375 4.60547 1.53516 4.60547H0.837891V3.79102H1.5C2.88672 3.79102 3.58008 3.27539 3.58008 2.24414C3.58008 1.29102 3.05078 0.814453 1.99219 0.814453C1.40234 0.814453 0.845703 1.01562 0.322266 1.41797V0.480469C0.861328 0.160156 1.49805 0 2.23242 0C2.93945 0 3.50391 0.1875 3.92578 0.5625C4.35156 0.9375 4.56445 1.41797 4.56445 2.00391C4.56445 3.10938 4.00195 3.82031 2.87695 4.13672V4.16016C3.48242 4.21875 3.96289 4.43164 4.31836 4.79883C4.67773 5.16211 4.85742 5.61719 4.85742 6.16406C4.85742 6.91797 4.58594 7.52734 4.04297 7.99219C3.50391 8.45312 2.79102 8.68359 1.9043 8.68359C1.10742 8.68359 0.472656 8.5332 0 8.23242ZM11.3262 8.54297H6.26367V7.6875L8.71289 5.23242C9.33789 4.60742 9.7832 4.08789 10.0488 3.67383C10.3184 3.25586 10.4531 2.81055 10.4531 2.33789C10.4531 1.85352 10.3145 1.47852 10.0371 1.21289C9.75977 0.947266 9.36523 0.814453 8.85352 0.814453C8.10352 0.814453 7.38477 1.13477 6.69727 1.77539V0.767578C7.35352 0.255859 8.11719 0 8.98828 0C9.73828 0 10.3281 0.203125 10.7578 0.609375C11.1875 1.01562 11.4023 1.56055 11.4023 2.24414C11.4023 2.7832 11.2539 3.31055 10.957 3.82617C10.6602 4.33789 10.127 4.97461 9.35742 5.73633L7.41797 7.65234V7.67578H11.3262V8.54297Z" fill="black"/>
</svg>
