<svg width="12" height="9" viewBox="0 0 12 9" fill="none" xmlns="http://www.w3.org/2000/svg">
<path d="M0 8.23242V7.19531C0.574219 7.64844 1.22266 7.875 1.94531 7.875C2.53125 7.875 2.99805 7.72852 3.3457 7.43555C3.69727 7.14258 3.87305 6.74805 3.87305 6.25195C3.87305 5.1543 3.09375 4.60547 1.53516 4.60547H0.837891V3.79102H1.5C2.88672 3.79102 3.58008 3.27539 3.58008 2.24414C3.58008 1.29102 3.05078 0.814453 1.99219 0.814453C1.40234 0.814453 0.845703 1.01562 0.322266 1.41797V0.480469C0.861328 0.160156 1.49805 0 2.23242 0C2.93945 0 3.50391 0.1875 3.92578 0.5625C4.35156 0.9375 4.56445 1.41797 4.56445 2.00391C4.56445 3.10938 4.00195 3.82031 2.87695 4.13672V4.16016C3.48242 4.21875 3.96289 4.43164 4.31836 4.79883C4.67773 5.16211 4.85742 5.61719 4.85742 6.16406C4.85742 6.91797 4.58594 7.52734 4.04297 7.99219C3.50391 8.45312 2.79102 8.68359 1.9043 8.68359C1.10742 8.68359 0.472656 8.5332 0 8.23242ZM6.46875 8.23242V7.19531C7.04297 7.64844 7.69141 7.875 8.41406 7.875C9 7.875 9.4668 7.72852 9.81445 7.43555C10.166 7.14258 10.3418 6.74805 10.3418 6.25195C10.3418 5.1543 9.5625 4.60547 8.00391 4.60547H7.30664V3.79102H7.96875C9.35547 3.79102 10.0488 3.27539 10.0488 2.24414C10.0488 1.29102 9.51953 0.814453 8.46094 0.814453C7.87109 0.814453 7.31445 1.01562 6.79102 1.41797V0.480469C7.33008 0.160156 7.9668 0 8.70117 0C9.4082 0 9.97266 0.1875 10.3945 0.5625C10.8203 0.9375 11.0332 1.41797 11.0332 2.00391C11.0332 3.10938 10.4707 3.82031 9.3457 4.13672V4.16016C9.95117 4.21875 10.4316 4.43164 10.7871 4.79883C11.1465 5.16211 11.3262 5.61719 11.3262 6.16406C11.3262 6.91797 11.0547 7.52734 10.5117 7.99219C9.97266 8.45312 9.25977 8.68359 8.37305 8.68359C7.57617 8.68359 6.94141 8.5332 6.46875 8.23242Z" fill="black"/>
</svg>
