<svg width="12" height="9" viewBox="0 0 12 9" fill="none" xmlns="http://www.w3.org/2000/svg">
<path d="M0 8.23242V7.19531C0.574219 7.64844 1.22266 7.875 1.94531 7.875C2.53125 7.875 2.99805 7.72852 3.3457 7.43555C3.69727 7.14258 3.87305 6.74805 3.87305 6.25195C3.87305 5.1543 3.09375 4.60547 1.53516 4.60547H0.837891V3.79102H1.5C2.88672 3.79102 3.58008 3.27539 3.58008 2.24414C3.58008 1.29102 3.05078 0.814453 1.99219 0.814453C1.40234 0.814453 0.845703 1.01562 0.322266 1.41797V0.480469C0.861328 0.160156 1.49805 0 2.23242 0C2.93945 0 3.50391 0.1875 3.92578 0.5625C4.35156 0.9375 4.56445 1.41797 4.56445 2.00391C4.56445 3.10938 4.00195 3.82031 2.87695 4.13672V4.16016C3.48242 4.21875 3.96289 4.43164 4.31836 4.79883C4.67773 5.16211 4.85742 5.61719 4.85742 6.16406C4.85742 6.91797 4.58594 7.52734 4.04297 7.99219C3.50391 8.45312 2.79102 8.68359 1.9043 8.68359C1.10742 8.68359 0.472656 8.5332 0 8.23242ZM6.66211 8.33789V7.31836C7.23633 7.68945 7.82031 7.875 8.41406 7.875C9.00781 7.875 9.48633 7.70703 9.84961 7.37109C10.2129 7.03516 10.3945 6.58984 10.3945 6.03516C10.3945 5.48438 10.209 5.05469 9.83789 4.74609C9.4668 4.4375 8.93555 4.2832 8.24414 4.2832C8.00977 4.2832 7.57031 4.30664 6.92578 4.35352V0.140625H10.9922V1.00781H7.83398V3.46875C8.0918 3.45312 8.33008 3.44531 8.54883 3.44531C9.44727 3.44531 10.1426 3.67188 10.6348 4.125C11.127 4.57422 11.373 5.19141 11.373 5.97656C11.373 6.78906 11.1074 7.44336 10.5762 7.93945C10.0488 8.43555 9.32422 8.68359 8.40234 8.68359C7.625 8.68359 7.04492 8.56836 6.66211 8.33789Z" fill="black"/>
</svg>
