<svg width="12" height="9" viewBox="0 0 12 9" fill="none" xmlns="http://www.w3.org/2000/svg">
<path d="M0 8.23242V7.19531C0.574219 7.64844 1.22266 7.875 1.94531 7.875C2.53125 7.875 2.99805 7.72852 3.3457 7.43555C3.69727 7.14258 3.87305 6.74805 3.87305 6.25195C3.87305 5.1543 3.09375 4.60547 1.53516 4.60547H0.837891V3.79102H1.5C2.88672 3.79102 3.58008 3.27539 3.58008 2.24414C3.58008 1.29102 3.05078 0.814453 1.99219 0.814453C1.40234 0.814453 0.845703 1.01562 0.322266 1.41797V0.480469C0.861328 0.160156 1.49805 0 2.23242 0C2.93945 0 3.50391 0.1875 3.92578 0.5625C4.35156 0.9375 4.56445 1.41797 4.56445 2.00391C4.56445 3.10938 4.00195 3.82031 2.87695 4.13672V4.16016C3.48242 4.21875 3.96289 4.43164 4.31836 4.79883C4.67773 5.16211 4.85742 5.61719 4.85742 6.16406C4.85742 6.91797 4.58594 7.52734 4.04297 7.99219C3.50391 8.45312 2.79102 8.68359 1.9043 8.68359C1.10742 8.68359 0.472656 8.5332 0 8.23242ZM11.1738 0.240234V1.14844C10.7402 0.925781 10.2832 0.814453 9.80273 0.814453C9.05664 0.814453 8.45898 1.14648 8.00977 1.81055C7.56445 2.47461 7.3418 3.36328 7.3418 4.47656H7.36523C7.75586 3.68359 8.39648 3.28711 9.28711 3.28711C10.0215 3.28711 10.6055 3.52344 11.0391 3.99609C11.4727 4.46484 11.6895 5.09375 11.6895 5.88281C11.6895 6.70703 11.4414 7.38086 10.9453 7.9043C10.4492 8.42383 9.81836 8.68359 9.05273 8.68359C8.20898 8.68359 7.54688 8.34766 7.06641 7.67578C6.58594 7.00391 6.3457 6.06055 6.3457 4.8457C6.3457 3.37305 6.66016 2.19727 7.28906 1.31836C7.91797 0.439453 8.74805 0 9.7793 0C10.3652 0 10.8301 0.0800781 11.1738 0.240234ZM9.07617 4.10156C8.58008 4.10156 8.17773 4.26953 7.86914 4.60547C7.56055 4.94141 7.40625 5.33789 7.40625 5.79492C7.40625 6.36914 7.55859 6.85938 7.86328 7.26562C8.17188 7.67188 8.58008 7.875 9.08789 7.875C9.57227 7.875 9.96289 7.69922 10.2598 7.34766C10.5566 6.99219 10.7051 6.54297 10.7051 6C10.7051 5.40625 10.5625 4.94141 10.2773 4.60547C9.99219 4.26953 9.5918 4.10156 9.07617 4.10156Z" fill="black"/>
</svg>
