<svg width="12" height="9" viewBox="0 0 12 9" fill="none" xmlns="http://www.w3.org/2000/svg">
<path d="M0 8.23242V7.19531C0.574219 7.64844 1.22266 7.875 1.94531 7.875C2.53125 7.875 2.99805 7.72852 3.3457 7.43555C3.69727 7.14258 3.87305 6.74805 3.87305 6.25195C3.87305 5.1543 3.09375 4.60547 1.53516 4.60547H0.837891V3.79102H1.5C2.88672 3.79102 3.58008 3.27539 3.58008 2.24414C3.58008 1.29102 3.05078 0.814453 1.99219 0.814453C1.40234 0.814453 0.845703 1.01562 0.322266 1.41797V0.480469C0.861328 0.160156 1.49805 0 2.23242 0C2.93945 0 3.50391 0.1875 3.92578 0.5625C4.35156 0.9375 4.56445 1.41797 4.56445 2.00391C4.56445 3.10938 4.00195 3.82031 2.87695 4.13672V4.16016C3.48242 4.21875 3.96289 4.43164 4.31836 4.79883C4.67773 5.16211 4.85742 5.61719 4.85742 6.16406C4.85742 6.91797 4.58594 7.52734 4.04297 7.99219C3.50391 8.45312 2.79102 8.68359 1.9043 8.68359C1.10742 8.68359 0.472656 8.5332 0 8.23242ZM8.10352 4.13672V4.11328C7.0957 3.64453 6.5918 2.96484 6.5918 2.07422C6.5918 1.46875 6.82227 0.972656 7.2832 0.585938C7.74414 0.195312 8.33789 0 9.06445 0C9.7207 0 10.2598 0.181641 10.6816 0.544922C11.1035 0.908203 11.3145 1.375 11.3145 1.94531C11.3145 2.875 10.7949 3.59766 9.75586 4.11328V4.13672C10.9824 4.57422 11.5957 5.33203 11.5957 6.41016C11.5957 7.10547 11.3457 7.6582 10.8457 8.06836C10.3457 8.47852 9.65039 8.68359 8.75977 8.68359C8.04102 8.68359 7.44922 8.48047 6.98438 8.07422C6.51953 7.66797 6.28711 7.14062 6.28711 6.49219C6.28711 5.41406 6.89258 4.62891 8.10352 4.13672ZM10.3301 2.0625C10.3301 1.67578 10.209 1.37109 9.9668 1.14844C9.72461 0.925781 9.39453 0.814453 8.97656 0.814453C8.58594 0.814453 8.25391 0.931641 7.98047 1.16602C7.71094 1.39648 7.57617 1.69141 7.57617 2.05078C7.57617 2.78125 8.03125 3.33203 8.94141 3.70312C9.86719 3.32031 10.3301 2.77344 10.3301 2.0625ZM8.87695 4.59375C7.80664 5.01953 7.27148 5.63672 7.27148 6.44531C7.27148 6.86328 7.42578 7.20703 7.73438 7.47656C8.04688 7.74219 8.45703 7.875 8.96484 7.875C9.44922 7.875 9.84375 7.74414 10.1484 7.48242C10.457 7.2168 10.6113 6.88281 10.6113 6.48047C10.6113 5.63672 10.0332 5.00781 8.87695 4.59375Z" fill="black"/>
</svg>
