<svg width="12" height="9" viewBox="0 0 12 9" fill="none" xmlns="http://www.w3.org/2000/svg">
<path d="M0 8.23242V7.19531C0.574219 7.64844 1.22266 7.875 1.94531 7.875C2.53125 7.875 2.99805 7.72852 3.3457 7.43555C3.69727 7.14258 3.87305 6.74805 3.87305 6.25195C3.87305 5.1543 3.09375 4.60547 1.53516 4.60547H0.837891V3.79102H1.5C2.88672 3.79102 3.58008 3.27539 3.58008 2.24414C3.58008 1.29102 3.05078 0.814453 1.99219 0.814453C1.40234 0.814453 0.845703 1.01562 0.322266 1.41797V0.480469C0.861328 0.160156 1.49805 0 2.23242 0C2.93945 0 3.50391 0.1875 3.92578 0.5625C4.35156 0.9375 4.56445 1.41797 4.56445 2.00391C4.56445 3.10938 4.00195 3.82031 2.87695 4.13672V4.16016C3.48242 4.21875 3.96289 4.43164 4.31836 4.79883C4.67773 5.16211 4.85742 5.61719 4.85742 6.16406C4.85742 6.91797 4.58594 7.52734 4.04297 7.99219C3.50391 8.45312 2.79102 8.68359 1.9043 8.68359C1.10742 8.68359 0.472656 8.5332 0 8.23242ZM6.70898 8.40234V7.47656C7.17773 7.74219 7.67383 7.875 8.19727 7.875C8.95898 7.875 9.55078 7.56836 9.97266 6.95508C10.3984 6.3418 10.6113 5.4707 10.6113 4.3418C10.6035 4.3457 10.5957 4.3457 10.5879 4.3418C10.2285 5.06445 9.60352 5.42578 8.71289 5.42578C7.99414 5.42578 7.4043 5.18164 6.94336 4.69336C6.48242 4.20508 6.25195 3.57617 6.25195 2.80664C6.25195 1.98633 6.50391 1.31445 7.00781 0.791016C7.51562 0.263672 8.16406 0 8.95312 0C9.78125 0 10.4258 0.328125 10.8867 0.984375C11.3516 1.63672 11.584 2.58789 11.584 3.83789C11.584 5.38867 11.2832 6.58398 10.6816 7.42383C10.0801 8.26367 9.24414 8.68359 8.17383 8.68359C7.61133 8.68359 7.12305 8.58984 6.70898 8.40234ZM8.86523 0.814453C8.40039 0.814453 8.01172 0.990234 7.69922 1.3418C7.39062 1.68945 7.23633 2.13281 7.23633 2.67188C7.23633 3.26172 7.38867 3.72656 7.69336 4.06641C7.99805 4.40234 8.41016 4.57031 8.92969 4.57031C9.38281 4.57031 9.76562 4.41602 10.0781 4.10742C10.3945 3.79883 10.5527 3.42188 10.5527 2.97656C10.5527 2.33984 10.3965 1.82031 10.084 1.41797C9.77148 1.01562 9.36523 0.814453 8.86523 0.814453Z" fill="black"/>
</svg>
