<svg width="13" height="9" viewBox="0 0 13 9" fill="none" xmlns="http://www.w3.org/2000/svg">
<path d="M5.97656 6.31055H4.89844V8.54297H3.94922V6.31055H0V5.68359L3.73828 0.140625H4.89844V5.53125H5.97656V6.31055ZM3.94922 5.53125V1.89844C3.94922 1.64062 3.95703 1.35156 3.97266 1.03125H3.94922C3.89453 1.17188 3.78711 1.38672 3.62695 1.67578L1.04297 5.53125H3.94922ZM9.53906 8.68359C8.70703 8.68359 8.05664 8.32617 7.58789 7.61133C7.12305 6.89648 6.89062 5.86328 6.89062 4.51172C6.89062 3.02734 7.13281 1.9043 7.61719 1.14258C8.10547 0.380859 8.80859 0 9.72656 0C11.4844 0 12.3633 1.43555 12.3633 4.30664C12.3633 5.72852 12.1152 6.81445 11.6191 7.56445C11.123 8.31055 10.4297 8.68359 9.53906 8.68359ZM9.67383 0.814453C8.47461 0.814453 7.875 2.03125 7.875 4.46484C7.875 6.73828 8.46289 7.875 9.63867 7.875C10.7988 7.875 11.3789 6.71875 11.3789 4.40625C11.3789 2.01172 10.8105 0.814453 9.67383 0.814453Z" fill="black"/>
</svg>
