<svg width="13" height="9" viewBox="0 0 13 9" fill="none" xmlns="http://www.w3.org/2000/svg">
<path d="M5.97656 6.31055H4.89844V8.54297H3.94922V6.31055H0V5.68359L3.73828 0.140625H4.89844V5.53125H5.97656V6.31055ZM3.94922 5.53125V1.89844C3.94922 1.64062 3.95703 1.35156 3.97266 1.03125H3.94922C3.89453 1.17188 3.78711 1.38672 3.62695 1.67578L1.04297 5.53125H3.94922ZM12.0117 8.54297H6.94922V7.6875L9.39844 5.23242C10.0234 4.60742 10.4688 4.08789 10.7344 3.67383C11.0039 3.25586 11.1387 2.81055 11.1387 2.33789C11.1387 1.85352 11 1.47852 10.7227 1.21289C10.4453 0.947266 10.0508 0.814453 9.53906 0.814453C8.78906 0.814453 8.07031 1.13477 7.38281 1.77539V0.767578C8.03906 0.255859 8.80273 0 9.67383 0C10.4238 0 11.0137 0.203125 11.4434 0.609375C11.873 1.01562 12.0879 1.56055 12.0879 2.24414C12.0879 2.7832 11.9395 3.31055 11.6426 3.82617C11.3457 4.33789 10.8125 4.97461 10.043 5.73633L8.10352 7.65234V7.67578H12.0117V8.54297Z" fill="black"/>
</svg>
