<svg width="13" height="9" viewBox="0 0 13 9" fill="none" xmlns="http://www.w3.org/2000/svg">
<path d="M5.97656 6.31055H4.89844V8.54297H3.94922V6.31055H0V5.68359L3.73828 0.140625H4.89844V5.53125H5.97656V6.31055ZM3.94922 5.53125V1.89844C3.94922 1.64062 3.95703 1.35156 3.97266 1.03125H3.94922C3.89453 1.17188 3.78711 1.38672 3.62695 1.67578L1.04297 5.53125H3.94922ZM7.1543 8.23242V7.19531C7.72852 7.64844 8.37695 7.875 9.09961 7.875C9.68555 7.875 10.1523 7.72852 10.5 7.43555C10.8516 7.14258 11.0273 6.74805 11.0273 6.25195C11.0273 5.1543 10.248 4.60547 8.68945 4.60547H7.99219V3.79102H8.6543C10.041 3.79102 10.7344 3.27539 10.7344 2.24414C10.7344 1.29102 10.2051 0.814453 9.14648 0.814453C8.55664 0.814453 8 1.01562 7.47656 1.41797V0.480469C8.01562 0.160156 8.65234 0 9.38672 0C10.0938 0 10.6582 0.1875 11.0801 0.5625C11.5059 0.9375 11.7188 1.41797 11.7188 2.00391C11.7188 3.10938 11.1562 3.82031 10.0312 4.13672V4.16016C10.6367 4.21875 11.1172 4.43164 11.4727 4.79883C11.832 5.16211 12.0117 5.61719 12.0117 6.16406C12.0117 6.91797 11.7402 7.52734 11.1973 7.99219C10.6582 8.45312 9.94531 8.68359 9.05859 8.68359C8.26172 8.68359 7.62695 8.5332 7.1543 8.23242Z" fill="black"/>
</svg>
