<svg width="13" height="9" viewBox="0 0 13 9" fill="none" xmlns="http://www.w3.org/2000/svg">
<path d="M5.97656 6.16992H4.89844V8.40234H3.94922V6.16992H0V5.54297L3.73828 0H4.89844V5.39062H5.97656V6.16992ZM3.94922 5.39062V1.75781C3.94922 1.5 3.95703 1.21094 3.97266 0.890625H3.94922C3.89453 1.03125 3.78711 1.24609 3.62695 1.53516L1.04297 5.39062H3.94922ZM12.4453 6.16992H11.3672V8.40234H10.418V6.16992H6.46875V5.54297L10.207 0H11.3672V5.39062H12.4453V6.16992ZM10.418 5.39062V1.75781C10.418 1.5 10.4258 1.21094 10.4414 0.890625H10.418C10.3633 1.03125 10.2559 1.24609 10.0957 1.53516L7.51172 5.39062H10.418Z" fill="black"/>
</svg>
