<svg width="13" height="9" viewBox="0 0 13 9" fill="none" xmlns="http://www.w3.org/2000/svg">
<path d="M5.97656 6.16992H4.89844V8.40234H3.94922V6.16992H0V5.54297L3.73828 0H4.89844V5.39062H5.97656V6.16992ZM3.94922 5.39062V1.75781C3.94922 1.5 3.95703 1.21094 3.97266 0.890625H3.94922C3.89453 1.03125 3.78711 1.24609 3.62695 1.53516L1.04297 5.39062H3.94922ZM7.34766 8.19727V7.17773C7.92188 7.54883 8.50586 7.73438 9.09961 7.73438C9.69336 7.73438 10.1719 7.56641 10.5352 7.23047C10.8984 6.89453 11.0801 6.44922 11.0801 5.89453C11.0801 5.34375 10.8945 4.91406 10.5234 4.60547C10.1523 4.29688 9.62109 4.14258 8.92969 4.14258C8.69531 4.14258 8.25586 4.16602 7.61133 4.21289V0H11.6777V0.867188H8.51953V3.32812C8.77734 3.3125 9.01562 3.30469 9.23438 3.30469C10.1328 3.30469 10.8281 3.53125 11.3203 3.98438C11.8125 4.43359 12.0586 5.05078 12.0586 5.83594C12.0586 6.64844 11.793 7.30273 11.2617 7.79883C10.7344 8.29492 10.0098 8.54297 9.08789 8.54297C8.31055 8.54297 7.73047 8.42773 7.34766 8.19727Z" fill="black"/>
</svg>
