<svg width="13" height="21" viewBox="0 0 13 21" fill="none" xmlns="http://www.w3.org/2000/svg">
<path d="M5.97656 6.31055H4.89844V8.54297H3.94922V6.31055H0V5.68359L3.73828 0.140625H4.89844V5.53125H5.97656V6.31055ZM3.94922 5.53125V1.89844C3.94922 1.64062 3.95703 1.35156 3.97266 1.03125H3.94922C3.89453 1.17188 3.78711 1.38672 3.62695 1.67578L1.04297 5.53125H3.94922ZM11.8594 0.240234V1.14844C11.4258 0.925781 10.9688 0.814453 10.4883 0.814453C9.74219 0.814453 9.14453 1.14648 8.69531 1.81055C8.25 2.47461 8.02734 3.36328 8.02734 4.47656H8.05078C8.44141 3.68359 9.08203 3.28711 9.97266 3.28711C10.707 3.28711 11.291 3.52344 11.7246 3.99609C12.1582 4.46484 12.375 5.09375 12.375 5.88281C12.375 6.70703 12.127 7.38086 11.6309 7.9043C11.1348 8.42383 10.5039 8.68359 9.73828 8.68359C8.89453 8.68359 8.23242 8.34766 7.75195 7.67578C7.27148 7.00391 7.03125 6.06055 7.03125 4.8457C7.03125 3.37305 7.3457 2.19727 7.97461 1.31836C8.60352 0.439453 9.43359 0 10.4648 0C11.0508 0 11.5156 0.0800781 11.8594 0.240234ZM9.76172 4.10156C9.26562 4.10156 8.86328 4.26953 8.55469 4.60547C8.24609 4.94141 8.0918 5.33789 8.0918 5.79492C8.0918 6.36914 8.24414 6.85938 8.54883 7.26562C8.85742 7.67188 9.26562 7.875 9.77344 7.875C10.2578 7.875 10.6484 7.69922 10.9453 7.34766C11.2422 6.99219 11.3906 6.54297 11.3906 6C11.3906 5.40625 11.248 4.94141 10.9629 4.60547C10.6777 4.26953 10.2773 4.10156 9.76172 4.10156ZM9.49219 20.1914C8.87109 20.5195 8.09766 20.6836 7.17188 20.6836C5.97656 20.6836 5.01953 20.2988 4.30078 19.5293C3.58203 18.7598 3.22266 17.75 3.22266 16.5C3.22266 15.1562 3.62695 14.0703 4.43555 13.2422C5.24414 12.4141 6.26953 12 7.51172 12C8.30859 12 8.96875 12.1152 9.49219 12.3457V13.3945C8.89062 13.0586 8.22656 12.8906 7.5 12.8906C6.53516 12.8906 5.75195 13.2129 5.15039 13.8574C4.55273 14.502 4.25391 15.3633 4.25391 16.4414C4.25391 17.4648 4.5332 18.2812 5.0918 18.8906C5.6543 19.4961 6.39062 19.7988 7.30078 19.7988C8.14453 19.7988 8.875 19.6113 9.49219 19.2363V20.1914Z" fill="black"/>
</svg>
