<svg width="13" height="9" viewBox="0 0 13 9" fill="none" xmlns="http://www.w3.org/2000/svg">
<path d="M5.97656 6.31055H4.89844V8.54297H3.94922V6.31055H0V5.68359L3.73828 0.140625H4.89844V5.53125H5.97656V6.31055ZM3.94922 5.53125V1.89844C3.94922 1.64062 3.95703 1.35156 3.97266 1.03125H3.94922C3.89453 1.17188 3.78711 1.38672 3.62695 1.67578L1.04297 5.53125H3.94922ZM8.78906 4.13672V4.11328C7.78125 3.64453 7.27734 2.96484 7.27734 2.07422C7.27734 1.46875 7.50781 0.972656 7.96875 0.585938C8.42969 0.195312 9.02344 0 9.75 0C10.4062 0 10.9453 0.181641 11.3672 0.544922C11.7891 0.908203 12 1.375 12 1.94531C12 2.875 11.4805 3.59766 10.4414 4.11328V4.13672C11.668 4.57422 12.2812 5.33203 12.2812 6.41016C12.2812 7.10547 12.0312 7.6582 11.5312 8.06836C11.0312 8.47852 10.3359 8.68359 9.44531 8.68359C8.72656 8.68359 8.13477 8.48047 7.66992 8.07422C7.20508 7.66797 6.97266 7.14062 6.97266 6.49219C6.97266 5.41406 7.57812 4.62891 8.78906 4.13672ZM11.0156 2.0625C11.0156 1.67578 10.8945 1.37109 10.6523 1.14844C10.4102 0.925781 10.0801 0.814453 9.66211 0.814453C9.27148 0.814453 8.93945 0.931641 8.66602 1.16602C8.39648 1.39648 8.26172 1.69141 8.26172 2.05078C8.26172 2.78125 8.7168 3.33203 9.62695 3.70312C10.5527 3.32031 11.0156 2.77344 11.0156 2.0625ZM9.5625 4.59375C8.49219 5.01953 7.95703 5.63672 7.95703 6.44531C7.95703 6.86328 8.11133 7.20703 8.41992 7.47656C8.73242 7.74219 9.14258 7.875 9.65039 7.875C10.1348 7.875 10.5293 7.74414 10.834 7.48242C11.1426 7.2168 11.2969 6.88281 11.2969 6.48047C11.2969 5.63672 10.7188 5.00781 9.5625 4.59375Z" fill="black"/>
</svg>
