<svg width="13" height="9" viewBox="0 0 13 9" fill="none" xmlns="http://www.w3.org/2000/svg">
<path d="M5.97656 6.31055H4.89844V8.54297H3.94922V6.31055H0V5.68359L3.73828 0.140625H4.89844V5.53125H5.97656V6.31055ZM3.94922 5.53125V1.89844C3.94922 1.64062 3.95703 1.35156 3.97266 1.03125H3.94922C3.89453 1.17188 3.78711 1.38672 3.62695 1.67578L1.04297 5.53125H3.94922ZM7.39453 8.40234V7.47656C7.86328 7.74219 8.35938 7.875 8.88281 7.875C9.64453 7.875 10.2363 7.56836 10.6582 6.95508C11.084 6.3418 11.2969 5.4707 11.2969 4.3418C11.2891 4.3457 11.2812 4.3457 11.2734 4.3418C10.9141 5.06445 10.2891 5.42578 9.39844 5.42578C8.67969 5.42578 8.08984 5.18164 7.62891 4.69336C7.16797 4.20508 6.9375 3.57617 6.9375 2.80664C6.9375 1.98633 7.18945 1.31445 7.69336 0.791016C8.20117 0.263672 8.84961 0 9.63867 0C10.4668 0 11.1113 0.328125 11.5723 0.984375C12.0371 1.63672 12.2695 2.58789 12.2695 3.83789C12.2695 5.38867 11.9688 6.58398 11.3672 7.42383C10.7656 8.26367 9.92969 8.68359 8.85938 8.68359C8.29688 8.68359 7.80859 8.58984 7.39453 8.40234ZM9.55078 0.814453C9.08594 0.814453 8.69727 0.990234 8.38477 1.3418C8.07617 1.68945 7.92188 2.13281 7.92188 2.67188C7.92188 3.26172 8.07422 3.72656 8.37891 4.06641C8.68359 4.40234 9.0957 4.57031 9.61523 4.57031C10.0684 4.57031 10.4512 4.41602 10.7637 4.10742C11.0801 3.79883 11.2383 3.42188 11.2383 2.97656C11.2383 2.33984 11.082 1.82031 10.7695 1.41797C10.457 1.01562 10.0508 0.814453 9.55078 0.814453Z" fill="black"/>
</svg>
