<svg width="12" height="9" viewBox="0 0 12 9" fill="none" xmlns="http://www.w3.org/2000/svg">
<path d="M0 8.33789V7.31836C0.574219 7.68945 1.1582 7.875 1.75195 7.875C2.3457 7.875 2.82422 7.70703 3.1875 7.37109C3.55078 7.03516 3.73242 6.58984 3.73242 6.03516C3.73242 5.48438 3.54688 5.05469 3.17578 4.74609C2.80469 4.4375 2.27344 4.2832 1.58203 4.2832C1.34766 4.2832 0.908203 4.30664 0.263672 4.35352V0.140625H4.33008V1.00781H1.17188V3.46875C1.42969 3.45312 1.66797 3.44531 1.88672 3.44531C2.78516 3.44531 3.48047 3.67188 3.97266 4.125C4.46484 4.57422 4.71094 5.19141 4.71094 5.97656C4.71094 6.78906 4.44531 7.44336 3.91406 7.93945C3.38672 8.43555 2.66211 8.68359 1.74023 8.68359C0.962891 8.68359 0.382812 8.56836 0 8.33789ZM8.66016 8.68359C7.82812 8.68359 7.17773 8.32617 6.70898 7.61133C6.24414 6.89648 6.01172 5.86328 6.01172 4.51172C6.01172 3.02734 6.25391 1.9043 6.73828 1.14258C7.22656 0.380859 7.92969 0 8.84766 0C10.6055 0 11.4844 1.43555 11.4844 4.30664C11.4844 5.72852 11.2363 6.81445 10.7402 7.56445C10.2441 8.31055 9.55078 8.68359 8.66016 8.68359ZM8.79492 0.814453C7.5957 0.814453 6.99609 2.03125 6.99609 4.46484C6.99609 6.73828 7.58398 7.875 8.75977 7.875C9.91992 7.875 10.5 6.71875 10.5 4.40625C10.5 2.01172 9.93164 0.814453 8.79492 0.814453Z" fill="black"/>
</svg>
