<svg width="12" height="9" viewBox="0 0 12 9" fill="none" xmlns="http://www.w3.org/2000/svg">
<path d="M0 8.38477V7.36523C0.574219 7.73633 1.1582 7.92188 1.75195 7.92188C2.3457 7.92188 2.82422 7.75391 3.1875 7.41797C3.55078 7.08203 3.73242 6.63672 3.73242 6.08203C3.73242 5.53125 3.54688 5.10156 3.17578 4.79297C2.80469 4.48438 2.27344 4.33008 1.58203 4.33008C1.34766 4.33008 0.908203 4.35352 0.263672 4.40039V0.1875H4.33008V1.05469H1.17188V3.51562C1.42969 3.5 1.66797 3.49219 1.88672 3.49219C2.78516 3.49219 3.48047 3.71875 3.97266 4.17188C4.46484 4.62109 4.71094 5.23828 4.71094 6.02344C4.71094 6.83594 4.44531 7.49023 3.91406 7.98633C3.38672 8.48242 2.66211 8.73047 1.74023 8.73047C0.962891 8.73047 0.382812 8.61523 0 8.38477ZM11.291 8.58984H6.53906V7.74609H8.4375V1.21875L6.49219 1.79883V0.884766L9.39844 0V7.74609H11.291V8.58984Z" fill="black"/>
</svg>
