<svg width="12" height="9" viewBox="0 0 12 9" fill="none" xmlns="http://www.w3.org/2000/svg">
<path d="M0 8.33789V7.31836C0.574219 7.68945 1.1582 7.875 1.75195 7.875C2.3457 7.875 2.82422 7.70703 3.1875 7.37109C3.55078 7.03516 3.73242 6.58984 3.73242 6.03516C3.73242 5.48438 3.54688 5.05469 3.17578 4.74609C2.80469 4.4375 2.27344 4.2832 1.58203 4.2832C1.34766 4.2832 0.908203 4.30664 0.263672 4.35352V0.140625H4.33008V1.00781H1.17188V3.46875C1.42969 3.45312 1.66797 3.44531 1.88672 3.44531C2.78516 3.44531 3.48047 3.67188 3.97266 4.125C4.46484 4.57422 4.71094 5.19141 4.71094 5.97656C4.71094 6.78906 4.44531 7.44336 3.91406 7.93945C3.38672 8.43555 2.66211 8.68359 1.74023 8.68359C0.962891 8.68359 0.382812 8.56836 0 8.33789ZM11.1328 8.54297H6.07031V7.6875L8.51953 5.23242C9.14453 4.60742 9.58984 4.08789 9.85547 3.67383C10.125 3.25586 10.2598 2.81055 10.2598 2.33789C10.2598 1.85352 10.1211 1.47852 9.84375 1.21289C9.56641 0.947266 9.17188 0.814453 8.66016 0.814453C7.91016 0.814453 7.19141 1.13477 6.50391 1.77539V0.767578C7.16016 0.255859 7.92383 0 8.79492 0C9.54492 0 10.1348 0.203125 10.5645 0.609375C10.9941 1.01562 11.209 1.56055 11.209 2.24414C11.209 2.7832 11.0605 3.31055 10.7637 3.82617C10.4668 4.33789 9.93359 4.97461 9.16406 5.73633L7.22461 7.65234V7.67578H11.1328V8.54297Z" fill="black"/>
</svg>
