<svg width="6" height="9" viewBox="0 0 6 9" fill="none" xmlns="http://www.w3.org/2000/svg">
<path d="M4.82812 0.240234V1.14844C4.39453 0.925781 3.9375 0.814453 3.45703 0.814453C2.71094 0.814453 2.11328 1.14648 1.66406 1.81055C1.21875 2.47461 0.996094 3.36328 0.996094 4.47656H1.01953C1.41016 3.68359 2.05078 3.28711 2.94141 3.28711C3.67578 3.28711 4.25977 3.52344 4.69336 3.99609C5.12695 4.46484 5.34375 5.09375 5.34375 5.88281C5.34375 6.70703 5.0957 7.38086 4.59961 7.9043C4.10352 8.42383 3.47266 8.68359 2.70703 8.68359C1.86328 8.68359 1.20117 8.34766 0.720703 7.67578C0.240234 7.00391 0 6.06055 0 4.8457C0 3.37305 0.314453 2.19727 0.943359 1.31836C1.57227 0.439453 2.40234 0 3.43359 0C4.01953 0 4.48438 0.0800781 4.82812 0.240234ZM2.73047 4.10156C2.23438 4.10156 1.83203 4.26953 1.52344 4.60547C1.21484 4.94141 1.06055 5.33789 1.06055 5.79492C1.06055 6.36914 1.21289 6.85938 1.51758 7.26562C1.82617 7.67188 2.23438 7.875 2.74219 7.875C3.22656 7.875 3.61719 7.69922 3.91406 7.34766C4.21094 6.99219 4.35938 6.54297 4.35938 6C4.35938 5.40625 4.2168 4.94141 3.93164 4.60547C3.64648 4.26953 3.24609 4.10156 2.73047 4.10156Z" fill="black"/>
</svg>
