<svg width="20" height="18" viewBox="0 0 20 18" fill="none" xmlns="http://www.w3.org/2000/svg">
<path d="M10.9316 0.0400391C11.5636 0.0925898 12.1782 0.198146 12.7705 0.351562L12.6455 0.833984C13.2289 0.985113 13.7895 1.18467 14.3203 1.42773L14.5264 0.975586C15.0999 1.23812 15.6414 1.54815 16.1445 1.90137L15.8584 2.30957C16.3475 2.653 16.7977 3.0377 17.2021 3.45801L17.5605 3.1123C17.9953 3.5641 18.38 4.05532 18.709 4.5791L18.2881 4.84375C18.6005 5.34131 18.8585 5.86939 19.0547 6.4209L19.5244 6.25391C19.7312 6.83536 19.8747 7.44214 19.9463 8.06836L19.4502 8.125C19.483 8.41242 19.5 8.70449 19.5 9C19.5 9.29551 19.483 9.58758 19.4502 9.875L19.9463 9.93066C19.8748 10.5569 19.7312 11.1636 19.5244 11.7451L19.0547 11.5791C18.8585 12.1306 18.6005 12.6587 18.2881 13.1562L18.709 13.4199C18.38 13.9438 17.9953 14.4349 17.5605 14.8867L17.2021 14.542C16.7977 14.9623 16.3475 15.347 15.8584 15.6904L16.1445 16.0977C15.6414 16.4509 15.0999 16.7609 14.5264 17.0234L14.3203 16.5723C13.7895 16.8153 13.2289 17.0149 12.6455 17.166L12.7705 17.6475C12.1781 17.8009 11.5636 17.9064 10.9316 17.959L10.8916 17.4629C10.5983 17.4873 10.3007 17.5 10 17.5C9.69933 17.5 9.40171 17.4873 9.1084 17.4629L9.06738 17.959C8.43541 17.9064 7.82087 17.801 7.22852 17.6475L7.35449 17.166C6.77108 17.0149 6.21052 16.8153 5.67969 16.5723L5.47266 17.0234C4.89917 16.7608 4.35755 16.451 3.85449 16.0977L4.1416 15.6904C3.65249 15.347 3.20226 14.9623 2.79785 14.542L2.43848 14.8867C2.00379 14.4349 1.61893 13.9437 1.29004 13.4199L1.71191 13.1562C1.39946 12.6587 1.14147 12.1306 0.945312 11.5791L0.474609 11.7451C0.267909 11.1637 0.12421 10.5568 0.0527344 9.93066L0.549805 9.875C0.516966 9.58758 0.5 9.29551 0.5 9C0.5 8.70449 0.516966 8.41242 0.549805 8.125L0.0527344 8.06836C0.124282 7.44222 0.267849 6.8353 0.474609 6.25391L0.945312 6.4209C1.14147 5.86939 1.39946 5.34131 1.71191 4.84375L1.29004 4.5791C1.61896 4.05534 2.00378 3.56409 2.43848 3.1123L2.79785 3.45801C3.20226 3.0377 3.65249 2.653 4.1416 2.30957L3.85449 1.90137C4.35753 1.54812 4.89921 1.23816 5.47266 0.975586L5.67969 1.42773C6.21052 1.18467 6.77108 0.985113 7.35449 0.833984L7.22852 0.351562C7.82082 0.198096 8.43547 0.0926441 9.06738 0.0400391L9.1084 0.537109C9.40171 0.512691 9.69933 0.5 10 0.5C10.3007 0.5 10.5983 0.512691 10.8916 0.537109L10.9316 0.0400391Z" stroke="black" stroke-dasharray="2 2"/>
</svg>
