<svg width="613" height="174" viewBox="0 0 613 174" fill="none" xmlns="http://www.w3.org/2000/svg">
<path d="M191.212 147.913C186.902 141.45 178.398 132.382 173.194 127.234H163.184C164.185 124.91 165.586 120.261 163.184 120.261C160.782 120.261 157.178 119.906 154.175 118.202C151.172 116.498 147.168 119.239 145.166 115.148C143.164 111.058 134.656 111.894 130.652 112.824C121.042 106.874 111.299 110.345 107.629 112.824C92.8141 108.734 77.0985 112.669 71.0926 115.148H46.5683C31.7536 109.199 23.5454 111.695 16.5385 112.824L3.02507 115.148L0.522583 169.068L29.0509 170.462C40.262 175.668 46.7351 172.631 48.5702 170.462L111.132 169.068L125.647 166.744H163.184L193.714 163.955C192.88 162.405 191.712 158.377 193.714 154.658C194.359 153.461 193.257 150.981 191.212 147.913ZM191.212 147.913C195.883 139.935 208.129 121.377 219.74 110.965C229.416 110.345 249.069 109.477 250.27 110.965C251.772 112.824 260.781 112.359 260.781 110.965C260.781 109.849 283.804 106.472 295.315 104.922H359.879C366.386 102.753 381.801 100.088 391.41 106.781C392.411 108.021 395.615 110.128 400.419 108.641C402.421 107.246 408.627 105.294 417.436 108.641C427.613 113.289 450.369 125.374 459.978 136.53M504.523 166.279L503.021 144.897C502.22 141.922 491.009 139.009 485.504 137.925L459.978 124.91C440.96 116.078 442.049 106.781 441.46 102.598C440.871 98.4146 441.961 114.683 442.461 102.598C442.861 92.9297 431.951 87.7237 431.951 83.0754V80.2865C431.951 67.7362 426.946 58.5947 423.943 50.0729C423.542 47.0981 419.438 35.8183 417.436 30.5503C413.833 19.3946 405.591 8.85856 401.921 4.98503C396.716 -1.33657 389.408 0.801616 386.405 2.66091C384.003 5.63578 379.732 2.35103 377.897 0.336792M503.021 144.897C496.214 148.616 487.506 146.605 484.002 145.135C480.399 145.135 476.495 143.427 474.993 142.573C464.983 139.226 458.219 142.886 456.087 145.135M442.461 169.533C442.461 166.93 442.461 156.982 442.461 152.334C442.795 151.25 442.861 149.173 440.459 149.545C438.457 148.616 435.654 146.384 440.459 144.897C442.294 144.122 446.665 143.038 449.468 144.897C450.582 145.636 453.397 146.657 456.087 145.135M456.087 145.135C456.217 145.062 456.346 144.982 456.475 144.897C459.278 143.038 457.384 144.281 456.087 145.135ZM177.198 127.234C176.864 123.67 177.098 115.799 180.701 112.824C181.202 114.528 182.203 119.796 182.203 127.234H177.198ZM186.207 127.234C185.873 123.67 186.107 115.799 189.71 112.824C190.211 114.528 191.212 119.796 191.212 127.234H186.207ZM170.691 120.261C174.695 116.853 185.706 112.08 197.718 120.261H170.691ZM251.772 95.6257C251.438 92.062 251.672 84.191 255.275 81.2161C255.776 82.9205 256.777 88.1885 256.777 95.6257H251.772ZM260.781 95.6257C260.447 92.062 260.681 84.191 264.284 81.2161C264.785 82.9205 265.786 88.1885 265.786 95.6257H260.781ZM245.265 88.6533C249.269 85.2446 260.28 80.4724 272.292 88.6533H245.265ZM340.86 94.696C340.527 91.1324 340.76 83.2613 344.364 80.2865C344.864 81.9908 345.865 87.2588 345.865 94.696H340.86ZM349.869 94.696C349.535 91.1324 349.769 83.2613 353.373 80.2865C353.873 81.9908 354.874 87.2588 354.874 94.696H349.869ZM334.354 87.7237C338.358 84.3149 349.369 79.5428 361.381 87.7237H334.354ZM375.394 90.0478C375.061 86.4841 375.294 78.6131 378.898 75.6382C379.398 77.3426 380.399 82.6106 380.399 90.0478H375.394ZM384.403 90.0478C384.07 86.4841 384.303 78.6131 387.907 75.6382C388.407 77.3426 389.408 82.6106 389.408 90.0478H384.403ZM368.888 83.0754C372.892 79.6667 383.903 74.8945 395.915 83.0754H368.888Z" stroke="black"/>
<path d="M330.89 64.0121C331.09 64.6049 331.229 65.2232 331.299 65.8607L330.803 65.9144C330.835 66.2077 330.85 66.5057 330.85 66.807C330.85 67.1081 330.835 67.4056 330.803 67.6986L331.299 67.7523C331.229 68.3895 331.09 69.0074 330.89 69.6L330.417 69.4408C330.225 70.0072 329.972 70.5493 329.666 71.0609L330.093 71.3158C329.769 71.8568 329.389 72.3646 328.96 72.8324L328.594 72.4965C328.191 72.9346 327.743 73.3361 327.256 73.6947L327.55 74.0951C327.045 74.4661 326.502 74.7923 325.926 75.0687L325.712 74.6205C325.177 74.8772 324.611 75.0886 324.022 75.2484L324.152 75.7279C323.552 75.8909 322.928 76.0041 322.287 76.0599L322.245 75.5638C321.948 75.5898 321.646 75.6029 321.341 75.6029C321.036 75.6029 320.735 75.5897 320.437 75.5638L320.393 76.0599C319.752 76.004 319.129 75.8908 318.529 75.7279L318.66 75.2484C318.071 75.0886 317.505 74.8773 316.97 74.6205L316.755 75.0687C316.178 74.7923 315.635 74.4662 315.131 74.0951L315.427 73.6947C314.939 73.3361 314.491 72.9346 314.089 72.4965L313.722 72.8314C313.292 72.3638 312.911 71.8575 312.588 71.3168L313.016 71.0609C312.709 70.5494 312.457 70.0072 312.265 69.4408L311.792 69.6C311.591 69.0074 311.451 68.3895 311.382 67.7523L311.879 67.6986C311.863 67.5522 311.851 67.4047 311.843 67.2562L311.831 66.807C311.831 66.5057 311.847 66.2076 311.879 65.9144L311.382 65.8607C311.451 65.2232 311.591 64.605 311.792 64.0121L312.265 64.1732C312.457 63.6066 312.709 63.0638 313.016 62.5521L312.588 62.2953C312.912 61.7547 313.292 61.2482 313.722 60.7806L314.089 61.1166C314.491 60.6785 314.939 60.2769 315.427 59.9183L315.131 59.517C315.635 59.146 316.179 58.8197 316.755 58.5433L316.97 58.9926C317.505 58.7358 318.071 58.5245 318.66 58.3646L318.529 57.8842C319.129 57.7213 319.752 57.608 320.393 57.5521L320.437 58.0492C320.735 58.0233 321.036 58.0101 321.341 58.0101C321.646 58.0101 321.948 58.0233 322.245 58.0492L322.287 57.5521C322.928 57.608 323.552 57.7212 324.152 57.8842L324.022 58.3646C324.611 58.5245 325.177 58.7358 325.712 58.9926L325.926 58.5433C326.502 58.8197 327.045 59.146 327.55 59.517L327.256 59.9183C327.743 60.2769 328.191 60.6784 328.594 61.1166L328.96 60.7797C329.389 61.2474 329.769 61.7553 330.093 62.2963L329.666 62.5521C329.972 63.0639 330.225 63.6066 330.417 64.1732L330.89 64.0121Z" stroke="black" stroke-dasharray="2 2"/>
<path d="M46.0677 166.744C46.8685 169.347 50.4054 171.547 52.0737 172.322C63.2515 168.758 85.8072 161.724 86.608 162.096C87.4088 162.467 87.9426 158.222 88.1095 156.053C80.1015 154.194 56.745 162.405 46.0677 166.744Z" stroke="black"/>
<path d="M244.765 158.377C236.757 151.683 212.733 150.01 201.722 150.01C201.722 151.869 203.724 155.743 204.725 157.447L240.761 162.096L244.765 158.377Z" stroke="black"/>
<path d="M301.321 153.729C293.713 151.126 274.127 158.222 265.285 162.095L271.291 166.279L300.32 157.447L301.321 153.729Z" stroke="black"/>
<path d="M339.859 165.349C332.652 159.028 314.834 154.348 306.827 152.799V159.771L335.355 169.533L339.859 165.349Z" stroke="black"/>
<path d="M371.391 156.518C361.381 155.774 348.201 162.095 342.862 165.349L347.367 168.603L371.391 161.166V156.518Z" stroke="black"/>
<path d="M409.929 161.631C403.923 157.54 384.07 156.517 374.894 156.517C374.894 159.12 376.896 161.94 377.897 163.025L406.926 165.814L409.929 161.631Z" stroke="black"/>
<path d="M441.46 157.447C433.452 155.96 418.437 162.095 411.931 165.349L417.436 169.068L441.46 160.701V157.447Z" stroke="black"/>
<path d="M457.61 160.827H456.239L452.993 156.983C452.871 156.838 452.797 156.741 452.77 156.69H452.746V160.827H451.762V152.424H452.746V156.373H452.77C452.825 156.287 452.899 156.192 452.993 156.086L456.133 152.424H457.358L453.754 156.455L457.61 160.827ZM460.138 152.284L459.317 154.897H458.626L459.276 152.284H460.138ZM465.742 160.827H464.781V159.889H464.757C464.339 160.608 463.724 160.967 462.912 160.967C462.314 160.967 461.845 160.809 461.506 160.493C461.17 160.176 461.002 159.756 461.002 159.233C461.002 158.112 461.662 157.459 462.982 157.276L464.781 157.024C464.781 156.004 464.369 155.495 463.545 155.495C462.822 155.495 462.17 155.741 461.588 156.233V155.248C462.177 154.873 462.857 154.686 463.627 154.686C465.037 154.686 465.742 155.432 465.742 156.924V160.827ZM464.781 157.791L463.334 157.991C462.888 158.053 462.552 158.164 462.326 158.325C462.099 158.481 461.986 158.76 461.986 159.162C461.986 159.455 462.089 159.696 462.297 159.883C462.507 160.067 462.787 160.159 463.134 160.159C463.611 160.159 464.004 159.993 464.312 159.661C464.625 159.325 464.781 158.901 464.781 158.389V157.791ZM472.014 160.827H471.053V158.342H470.25C469.864 158.342 469.512 158.655 469.196 159.28L468.416 160.827H467.303L468.311 158.975C468.545 158.545 468.828 158.262 469.16 158.125C468.692 158.063 468.334 157.891 468.088 157.61C467.842 157.328 467.719 156.977 467.719 156.555C467.719 156.024 467.91 155.604 468.293 155.295C468.68 154.983 469.221 154.827 469.916 154.827H472.014V160.827ZM471.053 157.539V155.647H469.916C469.108 155.647 468.703 155.953 468.703 156.567C468.703 157.215 469.096 157.539 469.881 157.539H471.053ZM477.642 155.647H475.268V160.827H474.308V154.827H477.642V155.647ZM480.445 152.284L479.625 154.897H478.933L479.584 152.284H480.445ZM482.375 160.827V154.827H484.988C485.578 154.827 486.043 154.957 486.383 155.219C486.727 155.481 486.899 155.838 486.899 156.291C486.899 157.069 486.516 157.541 485.75 157.709C486.668 157.827 487.127 158.289 487.127 159.098C487.127 159.586 486.938 159.996 486.559 160.328C486.184 160.661 485.717 160.827 485.158 160.827H482.375ZM483.336 155.647V157.334H484.778C485.551 157.334 485.938 157.034 485.938 156.432C485.938 155.909 485.59 155.647 484.895 155.647H483.336ZM483.336 158.155V160.006H485C485.778 160.006 486.166 159.692 486.166 159.063C486.166 158.457 485.731 158.155 484.86 158.155H483.336ZM494.126 160.827H493.259V156.039C493.173 156.207 493.042 156.444 492.866 156.748L490.095 160.827H489.098V154.827H489.977V159.555C490.024 159.442 490.126 159.248 490.282 158.975L493.13 154.827H494.126V160.827ZM500.199 155.647H498.4V160.827H497.439V155.647H495.634V154.827H500.199V155.647ZM508.436 157.862H505.237V157.106H508.436V157.862ZM520.664 160.827H519.715V155.881C519.629 156.131 519.496 156.498 519.316 156.983L517.816 160.827H516.955L515.408 156.983C515.326 156.776 515.193 156.409 515.01 155.881V160.827H514.184V154.827H515.408L516.99 158.741C517.104 159.026 517.248 159.42 517.424 159.924L517.852 158.764L519.387 154.827H520.664V160.827ZM527.792 158.067H523.555C523.571 158.735 523.751 159.25 524.094 159.614C524.438 159.977 524.911 160.159 525.512 160.159C526.188 160.159 526.809 159.936 527.376 159.491V160.393C526.848 160.776 526.151 160.967 525.284 160.967C524.436 160.967 523.77 160.696 523.286 160.153C522.801 159.606 522.559 158.838 522.559 157.85C522.559 156.916 522.823 156.157 523.35 155.571C523.882 154.981 524.54 154.686 525.325 154.686C526.11 154.686 526.717 154.94 527.147 155.448C527.577 155.955 527.792 156.661 527.792 157.563V158.067ZM526.807 157.252C526.803 156.698 526.669 156.266 526.403 155.957C526.141 155.649 525.776 155.495 525.307 155.495C524.854 155.495 524.469 155.657 524.153 155.981C523.837 156.305 523.641 156.729 523.567 157.252H526.807ZM533.701 160.551C533.24 160.828 532.693 160.967 532.06 160.967C531.204 160.967 530.513 160.69 529.986 160.135C529.462 159.577 529.201 158.854 529.201 157.967C529.201 156.979 529.484 156.186 530.05 155.588C530.617 154.987 531.372 154.686 532.318 154.686C532.845 154.686 533.31 154.784 533.712 154.979V155.963C533.267 155.651 532.79 155.495 532.283 155.495C531.669 155.495 531.165 155.715 530.771 156.157C530.38 156.594 530.185 157.17 530.185 157.885C530.185 158.588 530.368 159.143 530.736 159.549C531.107 159.955 531.603 160.159 532.224 160.159C532.747 160.159 533.24 159.985 533.701 159.637V160.551ZM539.281 155.647H537.482V160.827H536.521V155.647H534.717V154.827H539.281V155.647ZM543.081 160.967C542.194 160.967 541.485 160.688 540.954 160.129C540.426 159.567 540.163 158.823 540.163 157.897C540.163 156.889 540.438 156.102 540.989 155.536C541.54 154.969 542.284 154.686 543.221 154.686C544.116 154.686 544.813 154.961 545.313 155.512C545.817 156.063 546.069 156.827 546.069 157.803C546.069 158.76 545.797 159.528 545.254 160.106C544.715 160.68 543.991 160.967 543.081 160.967ZM543.151 155.495C542.534 155.495 542.046 155.705 541.686 156.127C541.327 156.545 541.147 157.123 541.147 157.862C541.147 158.573 541.329 159.133 541.692 159.543C542.055 159.953 542.542 160.159 543.151 160.159C543.772 160.159 544.249 159.957 544.581 159.555C544.917 159.153 545.085 158.58 545.085 157.838C545.085 157.088 544.917 156.51 544.581 156.104C544.249 155.698 543.772 155.495 543.151 155.495ZM556.849 163.012H556.035V160.827H551.57V163.012H550.75V160.012H551.283C552.307 158.536 552.826 156.807 552.842 154.827H555.959V160.012H556.849V163.012ZM554.998 160.012V155.641H553.668C553.562 157.258 553.107 158.715 552.303 160.012H554.998ZM563.034 160.827H562.079V155.641H560.684C560.524 157.582 560.249 158.946 559.858 159.731C559.471 160.516 558.95 160.909 558.293 160.909C558.094 160.909 557.922 160.881 557.778 160.827V160C557.915 160.071 558.063 160.106 558.223 160.106C559.083 160.106 559.635 158.346 559.881 154.827H563.034V160.827ZM569.446 160.827H568.486V158.342H567.683C567.296 158.342 566.944 158.655 566.628 159.28L565.849 160.827H564.736L565.743 158.975C565.978 158.545 566.261 158.262 566.593 158.125C566.124 158.063 565.767 157.891 565.521 157.61C565.275 157.328 565.152 156.977 565.152 156.555C565.152 156.024 565.343 155.604 565.726 155.295C566.112 154.983 566.653 154.827 567.349 154.827H569.446V160.827ZM568.486 157.539V155.647H567.349C566.54 155.647 566.136 155.953 566.136 156.567C566.136 157.215 566.528 157.539 567.314 157.539H568.486ZM580.373 160.827H579.026L576.377 157.944H576.354V160.827H575.393V154.827H576.354V157.575H576.377L578.897 154.827H580.157L577.373 157.721L580.373 160.827ZM586.013 160.827H585.052V159.889H585.028C584.61 160.608 583.995 160.967 583.183 160.967C582.585 160.967 582.116 160.809 581.776 160.493C581.441 160.176 581.273 159.756 581.273 159.233C581.273 158.112 581.933 157.459 583.253 157.276L585.052 157.024C585.052 156.004 584.64 155.495 583.816 155.495C583.093 155.495 582.441 155.741 581.858 156.233V155.248C582.448 154.873 583.128 154.686 583.898 154.686C585.308 154.686 586.013 155.432 586.013 156.924V160.827ZM585.052 157.791L583.605 157.991C583.159 158.053 582.823 158.164 582.597 158.325C582.37 158.481 582.257 158.76 582.257 159.162C582.257 159.455 582.36 159.696 582.567 159.883C582.778 160.067 583.058 160.159 583.405 160.159C583.882 160.159 584.274 159.993 584.583 159.661C584.896 159.325 585.052 158.901 585.052 158.389V157.791ZM592.285 160.827H591.324V158.342H590.521C590.134 158.342 589.783 158.655 589.467 159.28L588.687 160.827H587.574L588.582 158.975C588.816 158.545 589.099 158.262 589.431 158.125C588.963 158.063 588.605 157.891 588.359 157.61C588.113 157.328 587.99 156.977 587.99 156.555C587.99 156.024 588.181 155.604 588.564 155.295C588.951 154.983 589.492 154.827 590.187 154.827H592.285V160.827ZM591.324 157.539V155.647H590.187C589.379 155.647 588.974 155.953 588.974 156.567C588.974 157.215 589.367 157.539 590.152 157.539H591.324ZM599.559 160.827H598.211L595.563 157.944H595.539V160.827H594.578V154.827H595.539V157.575H595.563L598.082 154.827H599.342L596.559 157.721L599.559 160.827ZM603.165 160.967C602.278 160.967 601.569 160.688 601.038 160.129C600.511 159.567 600.247 158.823 600.247 157.897C600.247 156.889 600.522 156.102 601.073 155.536C601.624 154.969 602.368 154.686 603.306 154.686C604.2 154.686 604.897 154.961 605.397 155.512C605.901 156.063 606.153 156.827 606.153 157.803C606.153 158.76 605.882 159.528 605.339 160.106C604.8 160.68 604.075 160.967 603.165 160.967ZM603.235 155.495C602.618 155.495 602.13 155.705 601.771 156.127C601.411 156.545 601.231 157.123 601.231 157.862C601.231 158.573 601.413 159.133 601.776 159.543C602.14 159.953 602.626 160.159 603.235 160.159C603.856 160.159 604.333 159.957 604.665 159.555C605.001 159.153 605.169 158.58 605.169 157.838C605.169 157.088 605.001 156.51 604.665 156.104C604.333 155.698 603.856 155.495 603.235 155.495ZM608.048 160.827V154.827H610.662C611.252 154.827 611.716 154.957 612.056 155.219C612.4 155.481 612.572 155.838 612.572 156.291C612.572 157.069 612.189 157.541 611.423 157.709C612.341 157.827 612.8 158.289 612.8 159.098C612.8 159.586 612.611 159.996 612.232 160.328C611.857 160.661 611.39 160.827 610.832 160.827H608.048ZM609.009 155.647V157.334H610.451C611.224 157.334 611.611 157.034 611.611 156.432C611.611 155.909 611.263 155.647 610.568 155.647H609.009ZM609.009 158.155V160.006H610.673C611.451 160.006 611.839 159.692 611.839 159.063C611.839 158.457 611.404 158.155 610.533 158.155H609.009Z" fill="black"/>
<path d="M269.976 132.375V131.308C270.632 131.789 271.376 132.029 272.208 132.029C272.814 132.029 273.294 131.882 273.65 131.589C274.009 131.297 274.189 130.902 274.189 130.406C274.189 129.328 273.46 128.789 272.003 128.789H271.13V127.974H271.933C272.554 127.974 273.035 127.839 273.374 127.57C273.718 127.3 273.89 126.92 273.89 126.427C273.89 126.005 273.748 125.668 273.462 125.414C273.181 125.16 272.792 125.033 272.296 125.033C271.593 125.033 270.91 125.254 270.246 125.695V124.699C270.863 124.355 271.574 124.183 272.378 124.183C273.175 124.183 273.802 124.373 274.259 124.752C274.716 125.13 274.945 125.629 274.945 126.246C274.945 127.336 274.414 128.023 273.351 128.308V128.332C273.929 128.398 274.388 128.615 274.728 128.982C275.068 129.349 275.238 129.804 275.238 130.347C275.238 131.117 274.964 131.73 274.417 132.187C273.871 132.64 273.123 132.867 272.173 132.867C271.224 132.867 270.492 132.703 269.976 132.375ZM281.522 132.726H280.561V131.789H280.537C280.119 132.507 279.504 132.867 278.692 132.867C278.094 132.867 277.625 132.709 277.285 132.392C276.949 132.076 276.781 131.656 276.781 131.132C276.781 130.011 277.442 129.359 278.762 129.175L280.561 128.923C280.561 127.904 280.149 127.394 279.324 127.394C278.602 127.394 277.949 127.64 277.367 128.132V127.148C277.957 126.773 278.637 126.586 279.406 126.586C280.817 126.586 281.522 127.332 281.522 128.824V132.726ZM280.561 129.691L279.113 129.89C278.668 129.953 278.332 130.064 278.106 130.224C277.879 130.38 277.766 130.66 277.766 131.062C277.766 131.355 277.869 131.595 278.076 131.783C278.287 131.966 278.567 132.058 278.914 132.058C279.391 132.058 279.783 131.892 280.092 131.56C280.404 131.224 280.561 130.8 280.561 130.289V129.691ZM288.673 132.726H287.712V127.547H284.653V132.726H283.692V126.726H288.673V132.726ZM295.273 132.726H294.312V131.789H294.288C293.871 132.507 293.255 132.867 292.443 132.867C291.845 132.867 291.376 132.709 291.037 132.392C290.701 132.076 290.533 131.656 290.533 131.132C290.533 130.011 291.193 129.359 292.513 129.175L294.312 128.923C294.312 127.904 293.9 127.394 293.076 127.394C292.353 127.394 291.701 127.64 291.119 128.132V127.148C291.708 126.773 292.388 126.586 293.158 126.586C294.568 126.586 295.273 127.332 295.273 128.824V132.726ZM294.312 129.691L292.865 129.89C292.419 129.953 292.083 130.064 291.857 130.224C291.63 130.38 291.517 130.66 291.517 131.062C291.517 131.355 291.621 131.595 291.828 131.783C292.038 131.966 292.318 132.058 292.665 132.058C293.142 132.058 293.535 131.892 293.843 131.56C294.156 131.224 294.312 130.8 294.312 130.289V129.691ZM302.676 134.912H301.861V132.726H297.397V134.912H296.576V131.912H297.109C298.133 130.435 298.652 128.707 298.668 126.726H301.785V131.912H302.676V134.912ZM300.824 131.912V127.541H299.494C299.389 129.158 298.934 130.615 298.129 131.912H300.824ZM309.346 132.726H308.385V130.002H305.327V132.726H304.366V126.726H305.327V129.187H308.385V126.726H309.346V132.726ZM314.159 132.867C313.273 132.867 312.564 132.588 312.033 132.029C311.505 131.466 311.242 130.722 311.242 129.797C311.242 128.789 311.517 128.002 312.068 127.435C312.618 126.869 313.363 126.586 314.3 126.586C315.195 126.586 315.892 126.861 316.392 127.412C316.896 127.963 317.148 128.726 317.148 129.703C317.148 130.66 316.876 131.427 316.333 132.005C315.794 132.58 315.07 132.867 314.159 132.867ZM314.23 127.394C313.613 127.394 313.124 127.605 312.765 128.027C312.406 128.445 312.226 129.023 312.226 129.761C312.226 130.472 312.408 131.033 312.771 131.443C313.134 131.853 313.62 132.058 314.23 132.058C314.851 132.058 315.327 131.857 315.659 131.455C315.995 131.052 316.163 130.48 316.163 129.738C316.163 128.988 315.995 128.41 315.659 128.004C315.327 127.597 314.851 127.394 314.23 127.394ZM323.865 129.966H319.629C319.644 130.634 319.824 131.15 320.168 131.513C320.512 131.877 320.984 132.058 321.586 132.058C322.262 132.058 322.883 131.836 323.449 131.39V132.293C322.922 132.675 322.225 132.867 321.357 132.867C320.51 132.867 319.844 132.595 319.359 132.052C318.875 131.505 318.633 130.738 318.633 129.75C318.633 128.816 318.896 128.056 319.424 127.47C319.955 126.88 320.613 126.586 321.398 126.586C322.184 126.586 322.791 126.839 323.221 127.347C323.65 127.855 323.865 128.56 323.865 129.463V129.966ZM322.881 129.152C322.877 128.597 322.742 128.166 322.477 127.857C322.215 127.548 321.85 127.394 321.381 127.394C320.928 127.394 320.543 127.556 320.227 127.88C319.91 128.205 319.715 128.629 319.641 129.152H322.881ZM329.337 132.726V126.726H331.95C332.54 126.726 333.005 126.857 333.345 127.119C333.689 127.38 333.861 127.738 333.861 128.191C333.861 128.968 333.478 129.441 332.712 129.609C333.63 129.726 334.089 130.189 334.089 130.998C334.089 131.486 333.9 131.896 333.521 132.228C333.146 132.56 332.679 132.726 332.12 132.726H329.337ZM330.298 127.547V129.234H331.739C332.513 129.234 332.9 128.933 332.9 128.332C332.9 127.808 332.552 127.547 331.857 127.547H330.298ZM330.298 130.054V131.906H331.962C332.739 131.906 333.128 131.591 333.128 130.963C333.128 130.357 332.693 130.054 331.822 130.054H330.298ZM338.568 132.867C337.682 132.867 336.973 132.588 336.441 132.029C335.914 131.466 335.65 130.722 335.65 129.797C335.65 128.789 335.926 128.002 336.476 127.435C337.027 126.869 337.771 126.586 338.709 126.586C339.603 126.586 340.301 126.861 340.801 127.412C341.305 127.963 341.557 128.726 341.557 129.703C341.557 130.66 341.285 131.427 340.742 132.005C340.203 132.58 339.478 132.867 338.568 132.867ZM338.639 127.394C338.021 127.394 337.533 127.605 337.174 128.027C336.814 128.445 336.635 129.023 336.635 129.761C336.635 130.472 336.816 131.033 337.18 131.443C337.543 131.853 338.029 132.058 338.639 132.058C339.26 132.058 339.736 131.857 340.068 131.455C340.404 131.052 340.572 130.48 340.572 129.738C340.572 128.988 340.404 128.41 340.068 128.004C339.736 127.597 339.26 127.394 338.639 127.394ZM342.948 132.556V131.613C343.471 131.906 344.083 132.052 344.782 132.052C345.84 132.052 346.37 131.716 346.37 131.045C346.37 130.38 345.79 130.048 344.629 130.048H344.038V129.234H344.6C345.62 129.234 346.129 128.918 346.129 128.285C346.129 128.015 346.012 127.8 345.778 127.64C345.543 127.48 345.223 127.4 344.817 127.4C344.235 127.4 343.651 127.547 343.065 127.839V126.943C343.729 126.701 344.338 126.58 344.893 126.58C346.354 126.58 347.084 127.117 347.084 128.191C347.084 128.539 346.975 128.839 346.756 129.093C346.542 129.343 346.239 129.509 345.848 129.591V129.621C346.293 129.656 346.651 129.806 346.92 130.072C347.19 130.338 347.325 130.673 347.325 131.08C347.325 131.627 347.104 132.062 346.663 132.386C346.221 132.711 345.614 132.873 344.84 132.873C344.016 132.873 343.385 132.767 342.948 132.556ZM349.167 132.726V126.726H351.78C352.37 126.726 352.835 126.857 353.175 127.119C353.519 127.38 353.691 127.738 353.691 128.191C353.691 128.968 353.308 129.441 352.542 129.609C353.46 129.726 353.919 130.189 353.919 130.998C353.919 131.486 353.73 131.896 353.351 132.228C352.976 132.56 352.509 132.726 351.95 132.726H349.167ZM350.128 127.547V129.234H351.569C352.343 129.234 352.73 128.933 352.73 128.332C352.73 127.808 352.382 127.547 351.687 127.547H350.128ZM350.128 130.054V131.906H351.792C352.569 131.906 352.958 131.591 352.958 130.963C352.958 130.357 352.523 130.054 351.652 130.054H350.128ZM362.453 132.726H361.504V126.726H362.453V132.726ZM355.89 132.726V126.726H356.851V129.029H358.469C359.082 129.029 359.568 129.189 359.928 129.509C360.291 129.83 360.472 130.277 360.472 130.851C360.472 131.429 360.291 131.886 359.928 132.222C359.564 132.558 359.105 132.726 358.551 132.726H355.89ZM356.851 129.855V131.906H358.293C359.09 131.906 359.488 131.554 359.488 130.851C359.488 130.187 359.086 129.855 358.281 129.855H356.851ZM372.422 132.726H364.77V126.726H365.731V131.906H368.122V126.726H369.077V131.906H371.461V126.726H372.422V132.726ZM379.55 129.966H375.314C375.329 130.634 375.509 131.15 375.853 131.513C376.196 131.877 376.669 132.058 377.271 132.058C377.946 132.058 378.567 131.836 379.134 131.39V132.293C378.607 132.675 377.909 132.867 377.042 132.867C376.194 132.867 375.528 132.595 375.044 132.052C374.56 131.505 374.317 130.738 374.317 129.75C374.317 128.816 374.581 128.056 375.108 127.47C375.64 126.88 376.298 126.586 377.083 126.586C377.868 126.586 378.476 126.839 378.905 127.347C379.335 127.855 379.55 128.56 379.55 129.463V129.966ZM378.566 129.152C378.562 128.597 378.427 128.166 378.161 127.857C377.899 127.548 377.534 127.394 377.066 127.394C376.612 127.394 376.228 127.556 375.911 127.88C375.595 128.205 375.399 128.629 375.325 129.152H378.566ZM386.349 132.726H385.388V130.002H382.33V132.726H381.369V126.726H382.33V129.187H385.388V126.726H386.349V132.726ZM393.682 132.726H392.815V127.939C392.729 128.107 392.598 128.343 392.422 128.648L389.651 132.726H388.655V126.726H389.534V131.455C389.58 131.341 389.682 131.148 389.838 130.875L392.686 126.726H393.682V132.726ZM400.81 129.966H396.573C396.589 130.634 396.769 131.15 397.112 131.513C397.456 131.877 397.929 132.058 398.53 132.058C399.206 132.058 399.827 131.836 400.394 131.39V132.293C399.866 132.675 399.169 132.867 398.302 132.867C397.454 132.867 396.788 132.595 396.304 132.052C395.819 131.505 395.577 130.738 395.577 129.75C395.577 128.816 395.841 128.056 396.368 127.47C396.899 126.88 397.558 126.586 398.343 126.586C399.128 126.586 399.735 126.839 400.165 127.347C400.595 127.855 400.81 128.56 400.81 129.463V129.966ZM399.825 129.152C399.821 128.597 399.687 128.166 399.421 127.857C399.159 127.548 398.794 127.394 398.325 127.394C397.872 127.394 397.487 127.556 397.171 127.88C396.854 128.205 396.659 128.629 396.585 129.152H399.825Z" fill="black"/>
<path d="M437.252 68.1667L434.191 69.0149L433.89 68.0778L441.987 65.8335L442.694 68.0314C442.969 68.8867 442.97 69.6071 442.699 70.1926C442.43 70.7817 441.911 71.1827 441.143 71.3956C440.375 71.6084 439.662 71.5205 439.004 71.1318C438.347 70.7467 437.876 70.1098 437.591 69.221L437.252 68.1667ZM441.43 67.0085L438.11 67.9288L438.426 68.9106C438.634 69.5577 438.941 70.0092 439.347 70.2652C439.758 70.5239 440.236 70.5776 440.782 70.4263C441.851 70.13 442.185 69.357 441.783 68.1075L441.43 67.0085ZM435.997 75.0542C435.942 74.8831 435.957 74.719 436.042 74.5619C436.128 74.4084 436.257 74.3077 436.43 74.2597C436.604 74.2117 436.771 74.23 436.934 74.3146C437.101 74.4018 437.212 74.531 437.267 74.7021C437.324 74.8768 437.307 75.0433 437.219 75.2015C437.134 75.3587 437.005 75.4613 436.832 75.5093C436.659 75.5573 436.49 75.5371 436.327 75.4488C436.163 75.3605 436.053 75.229 435.997 75.0542ZM419.674 69.5624L419.255 68.2571L421.966 64.1399C422.068 63.986 422.14 63.8893 422.18 63.8497L422.173 63.8274L418.187 64.9323L417.885 63.9951L425.982 61.7508L426.284 62.688L422.478 63.7429L422.485 63.7652C422.585 63.7943 422.7 63.8394 422.83 63.9005L427.32 65.9123L427.694 67.0782L422.707 64.7243L419.674 69.5624ZM427.197 73.376L419.645 72.6078C418.297 72.471 417.487 71.9787 417.214 71.1308C417.138 70.8928 417.098 70.687 417.096 70.5135L417.926 70.2835C417.922 70.4994 417.946 70.6891 417.998 70.8527C418.146 71.3139 418.536 71.5825 419.167 71.6587L420.41 71.8125L425.463 67.9817L425.79 68.9969L421.837 71.7754C421.786 71.8097 421.652 71.8894 421.434 72.0146L421.445 72.0481C421.541 72.0417 421.696 72.0392 421.91 72.0407L426.892 72.4277L427.197 73.376ZM423.417 81.2093L423.152 80.3836L427.765 79.105C427.577 79.068 427.309 79.0066 426.962 78.9206L422.184 77.3713L421.879 76.423L427.661 74.8203L427.93 75.6571L423.373 76.9201C423.497 76.9345 423.714 76.9795 424.025 77.0553L428.894 78.6583L429.199 79.6066L423.417 81.2093ZM425.683 88.2599L425.271 86.9769L427.238 83.6854L427.231 83.6631L424.453 84.4331L424.159 83.5183L429.941 81.9157L430.235 82.8305L427.587 83.5645L427.594 83.5868L431.013 85.2515L431.399 86.4509L427.758 84.5743L425.683 88.2599Z" fill="black"/>
<path d="M228.432 141.522L228.167 142.323L227.378 142.097L225.266 148.471L226.055 148.697L225.79 149.498L223.266 148.776L223.531 147.976L224.32 148.201L226.431 141.827L225.643 141.601L225.908 140.8L228.432 141.522Z" fill="black"/>
<path d="M278.212 145.653L278.462 146.459L277.67 146.671L279.661 153.084L280.453 152.872L280.703 153.678L278.167 154.357L277.917 153.551L278.71 153.339L276.719 146.926L275.927 147.138L275.676 146.332L278.212 145.653ZM281.766 144.702L282.016 145.508L281.224 145.72L283.215 152.133L284.007 151.921L284.257 152.726L281.721 153.405L281.471 152.599L282.264 152.387L280.273 145.974L279.481 146.186L279.231 145.381L281.766 144.702Z" fill="black"/>
<path d="M320.007 144.626L319.673 145.401L318.904 145.115L316.244 151.28L317.013 151.567L316.678 152.341L314.218 151.426L314.552 150.651L315.321 150.937L317.981 144.772L317.212 144.486L317.547 143.711L320.007 144.626ZM323.455 145.909L323.121 146.684L322.352 146.398L319.692 152.564L320.461 152.85L320.127 153.624L317.666 152.709L318.001 151.934L318.769 152.22L321.429 146.055L320.661 145.769L320.995 144.994L323.455 145.909ZM326.903 147.193L326.569 147.967L325.8 147.681L323.14 153.847L323.909 154.133L323.575 154.908L321.115 153.992L321.449 153.217L322.218 153.503L324.878 147.338L324.109 147.052L324.443 146.277L326.903 147.193Z" fill="black"/>
<path d="M347.674 149.63L348.017 150.401L347.251 150.695L349.98 156.83L350.746 156.536L351.089 157.307L348.639 158.247L348.296 157.476L349.061 157.183L346.332 151.047L345.566 151.341L345.223 150.57L347.674 149.63ZM355.255 146.721L355.766 155.512L354.754 155.9L348.494 149.315L349.517 148.923L354.397 154.176C354.553 154.346 354.707 154.552 354.858 154.795L354.88 154.787C354.814 154.561 354.771 154.308 354.753 154.027L354.265 147.101L355.255 146.721Z" fill="black"/>
<path d="M396.626 147.4L391.674 154.973L390.611 154.76L389.525 145.977L390.599 146.192L391.372 153.139C391.396 153.362 391.396 153.615 391.37 153.897L391.393 153.901C391.477 153.679 391.597 153.446 391.754 153.203L395.586 147.191L396.626 147.4Z" fill="black"/>
<path d="M424.001 148.502L423.538 157.332L422.492 157.618L417.015 150.411L418.072 150.122L422.328 155.86C422.465 156.045 422.594 156.267 422.717 156.525L422.739 156.518C422.699 156.287 422.685 156.03 422.698 155.747L422.978 148.781L424.001 148.502ZM427.369 147.581L427.624 148.386L426.833 148.602L428.861 155.003L429.652 154.787L429.907 155.591L427.375 156.283L427.12 155.479L427.911 155.263L425.883 148.861L425.092 149.078L424.837 148.273L427.369 147.581Z" fill="black"/>
<path d="M60.0714 148.453L59.7996 157.283L58.7597 157.589L53.1238 150.497L54.1749 150.188L58.5576 155.836C58.6981 156.019 58.8325 156.238 58.9608 156.493L58.9833 156.486C58.9376 156.256 58.9181 155.999 58.9248 155.716L59.054 148.752L60.0714 148.453ZM63.4211 147.467L63.6935 148.266L62.9066 148.497L65.0747 154.852L65.8617 154.621L66.1341 155.419L63.6159 156.16L63.3434 155.362L64.1304 155.13L61.9622 148.775L61.1753 149.007L60.9029 148.208L63.4211 147.467ZM66.9507 146.428L67.2231 147.227L66.4362 147.459L68.6043 153.814L69.3912 153.582L69.6637 154.381L67.1454 155.122L66.873 154.323L67.6599 154.092L65.4918 147.736L64.7049 147.968L64.4324 147.169L66.9507 146.428Z" fill="black"/>
<path d="M216.283 92.7513H211.531V91.9076H213.429V85.3802L211.484 85.9603V85.0463L214.39 84.1615V91.9076H216.283V92.7513Z" fill="black"/>
<path d="M206.958 116.814H205.88V119.046H204.931V116.814H200.982V116.187L204.72 110.644H205.88V116.035H206.958V116.814ZM204.931 116.035V112.402C204.931 112.144 204.939 111.855 204.954 111.535H204.931C204.876 111.675 204.769 111.89 204.608 112.179L202.025 116.035H204.931ZM209.049 118.841V117.822C209.623 118.193 210.207 118.378 210.801 118.378C211.395 118.378 211.873 118.21 212.237 117.874C212.6 117.538 212.782 117.093 212.782 116.538C212.782 115.988 212.596 115.558 212.225 115.249C211.854 114.941 211.323 114.786 210.631 114.786C210.397 114.786 209.957 114.81 209.313 114.857V110.644H213.379V111.511H210.221V113.972C210.479 113.956 210.717 113.949 210.936 113.949C211.834 113.949 212.53 114.175 213.022 114.628C213.514 115.078 213.76 115.695 213.76 116.48C213.76 117.292 213.495 117.947 212.963 118.443C212.436 118.939 211.711 119.187 210.789 119.187C210.012 119.187 209.432 119.072 209.049 118.841Z" fill="black"/>
<path d="M235.143 92.7513H230.081V91.8959L232.53 89.4408C233.155 88.8158 233.601 88.2963 233.866 87.8822C234.136 87.4642 234.27 87.0189 234.27 86.5463C234.27 86.0619 234.132 85.6869 233.854 85.4213C233.577 85.1556 233.183 85.0228 232.671 85.0228C231.921 85.0228 231.202 85.3431 230.515 85.9838V84.976C231.171 84.4642 231.935 84.2084 232.806 84.2084C233.556 84.2084 234.145 84.4115 234.575 84.8177C235.005 85.224 235.22 85.7689 235.22 86.4525C235.22 86.9916 235.071 87.5189 234.774 88.0345C234.477 88.5463 233.944 89.183 233.175 89.9447L231.235 91.8607V91.8842H235.143V92.7513Z" fill="black"/>
<path d="M252.308 80.3553V79.3182C252.882 79.7714 253.531 79.9979 254.253 79.9979C254.839 79.9979 255.306 79.8514 255.654 79.5585C256.005 79.2655 256.181 78.871 256.181 78.3749C256.181 77.2772 255.402 76.7284 253.843 76.7284H253.146V75.9139H253.808C255.195 75.9139 255.888 75.3983 255.888 74.3671C255.888 73.4139 255.359 72.9374 254.3 72.9374C253.71 72.9374 253.154 73.1385 252.63 73.5409V72.6034C253.169 72.2831 253.806 72.1229 254.54 72.1229C255.247 72.1229 255.812 72.3104 256.234 72.6854C256.66 73.0604 256.872 73.5409 256.872 74.1268C256.872 75.2323 256.31 75.9432 255.185 76.2596V76.2831C255.79 76.3417 256.271 76.5546 256.626 76.9218C256.986 77.285 257.165 77.7401 257.165 78.287C257.165 79.0409 256.894 79.6503 256.351 80.1151C255.812 80.576 255.099 80.8065 254.212 80.8065C253.415 80.8065 252.781 80.6561 252.308 80.3553Z" fill="black"/>
<path d="M275.617 78.4335H274.539V80.6659H273.59V78.4335H269.64V77.8065L273.379 72.2635H274.539V77.6542H275.617V78.4335ZM273.59 77.6542V74.0214C273.59 73.7635 273.597 73.4745 273.613 73.1542H273.59C273.535 73.2948 273.427 73.5096 273.267 73.7987L270.683 77.6542H273.59Z" fill="black"/>
<path d="M319.568 81.5848V80.5653C320.142 80.9364 320.726 81.1219 321.32 81.1219C321.914 81.1219 322.392 80.954 322.755 80.618C323.119 80.2821 323.3 79.8368 323.3 79.2821C323.3 78.7313 323.115 78.3016 322.744 77.993C322.373 77.6844 321.841 77.5302 321.15 77.5302C320.915 77.5302 320.476 77.5536 319.831 77.6005V73.3876H323.898V74.2548H320.74V76.7157C320.998 76.7001 321.236 76.6923 321.455 76.6923C322.353 76.6923 323.048 76.9188 323.54 77.3719C324.033 77.8212 324.279 78.4384 324.279 79.2235C324.279 80.036 324.013 80.6903 323.482 81.1864C322.955 81.6825 322.23 81.9305 321.308 81.9305C320.531 81.9305 319.951 81.8153 319.568 81.5848ZM324.947 93.4384C324.326 93.7665 323.552 93.9305 322.626 93.9305C321.431 93.9305 320.474 93.5458 319.755 92.7762C319.037 92.0067 318.677 90.9969 318.677 89.7469C318.677 88.4032 319.081 87.3173 319.89 86.4891C320.699 85.661 321.724 85.2469 322.966 85.2469C323.763 85.2469 324.423 85.3622 324.947 85.5927V86.6415C324.345 86.3055 323.681 86.1376 322.955 86.1376C321.99 86.1376 321.206 86.4598 320.605 87.1044C320.007 87.7489 319.708 88.6102 319.708 89.6884C319.708 90.7118 319.988 91.5282 320.546 92.1376C321.109 92.743 321.845 93.0458 322.755 93.0458C323.599 93.0458 324.33 92.8583 324.947 92.4833V93.4384Z" fill="black"/>
<path d="M347.603 70.6984V71.6066C347.169 71.3839 346.712 71.2726 346.232 71.2726C345.486 71.2726 344.888 71.6046 344.439 72.2687C343.994 72.9327 343.771 73.8214 343.771 74.9347H343.794C344.185 74.1417 344.826 73.7452 345.716 73.7452C346.451 73.7452 347.035 73.9816 347.468 74.4542C347.902 74.923 348.119 75.5519 348.119 76.3409C348.119 77.1652 347.871 77.839 347.374 78.3624C346.878 78.882 346.247 79.1417 345.482 79.1417C344.638 79.1417 343.976 78.8058 343.496 78.1339C343.015 77.462 342.775 76.5187 342.775 75.3038C342.775 73.8312 343.089 72.6554 343.718 71.7765C344.347 70.8976 345.177 70.4581 346.208 70.4581C346.794 70.4581 347.259 70.5382 347.603 70.6984ZM345.505 74.5597C345.009 74.5597 344.607 74.7277 344.298 75.0636C343.99 75.3995 343.835 75.796 343.835 76.2531C343.835 76.8273 343.988 77.3175 344.292 77.7238C344.601 78.13 345.009 78.3331 345.517 78.3331C346.001 78.3331 346.392 78.1573 346.689 77.8058C346.986 77.4503 347.134 77.0011 347.134 76.4581C347.134 75.8644 346.992 75.3995 346.706 75.0636C346.421 74.7277 346.021 74.5597 345.505 74.5597Z" fill="black"/>
<path d="M366.066 70.9034L362.738 79.0011H361.742L364.888 71.4659H360.652V70.5988H366.066V70.9034Z" fill="black"/>
<path d="M387.575 69.9467V69.9232C386.568 69.4545 386.064 68.7748 386.064 67.8842C386.064 67.2787 386.294 66.7826 386.755 66.3959C387.216 66.0052 387.81 65.8099 388.536 65.8099C389.193 65.8099 389.732 65.9916 390.154 66.3549C390.575 66.7181 390.786 67.1849 390.786 67.7552C390.786 68.6849 390.267 69.4076 389.228 69.9232V69.9467C390.454 70.3842 391.068 71.142 391.068 72.2201C391.068 72.9154 390.818 73.4681 390.318 73.8783C389.818 74.2885 389.122 74.4935 388.232 74.4935C387.513 74.4935 386.921 74.2904 386.456 73.8842C385.991 73.4779 385.759 72.9506 385.759 72.3021C385.759 71.224 386.364 70.4388 387.575 69.9467ZM389.802 67.8724C389.802 67.4857 389.681 67.181 389.439 66.9584C389.196 66.7357 388.866 66.6244 388.448 66.6244C388.058 66.6244 387.726 66.7416 387.452 66.976C387.183 67.2064 387.048 67.5013 387.048 67.8607C387.048 68.5912 387.503 69.142 388.413 69.5131C389.339 69.1302 389.802 68.5834 389.802 67.8724ZM388.349 70.4037C387.279 70.8295 386.743 71.4467 386.743 72.2552C386.743 72.6732 386.898 73.017 387.206 73.2865C387.519 73.5521 387.929 73.6849 388.437 73.6849C388.921 73.6849 389.316 73.5541 389.62 73.2924C389.929 73.0267 390.083 72.6927 390.083 72.2904C390.083 71.4467 389.505 70.8177 388.349 70.4037Z" fill="black"/>
<path d="M406.201 70.4935V69.5677C406.669 69.8334 407.165 69.9662 407.689 69.9662C408.451 69.9662 409.042 69.6595 409.464 69.0463C409.89 68.433 410.103 67.5619 410.103 66.433C410.095 66.4369 410.087 66.4369 410.08 66.433C409.72 67.1556 409.095 67.517 408.205 67.517C407.486 67.517 406.896 67.2728 406.435 66.7845C405.974 66.2963 405.744 65.6674 405.744 64.8978C405.744 64.0775 405.996 63.4056 406.499 62.8822C407.007 62.3549 407.656 62.0912 408.445 62.0912C409.273 62.0912 409.917 62.4193 410.378 63.0756C410.843 63.7279 411.076 64.6791 411.076 65.9291C411.076 67.4799 410.775 68.6752 410.173 69.515C409.572 70.3549 408.736 70.7748 407.665 70.7748C407.103 70.7748 406.615 70.681 406.201 70.4935ZM408.357 62.9056C407.892 62.9056 407.503 63.0814 407.191 63.433C406.882 63.7806 406.728 64.224 406.728 64.7631C406.728 65.3529 406.88 65.8177 407.185 66.1576C407.49 66.4935 407.902 66.6615 408.421 66.6615C408.874 66.6615 409.257 66.5072 409.57 66.1986C409.886 65.89 410.044 65.5131 410.044 65.0677C410.044 64.431 409.888 63.9115 409.576 63.5092C409.263 63.1068 408.857 62.9056 408.357 62.9056Z" fill="black"/>
<path d="M418.753 89.2272H414.001V88.3834H415.899V81.8561L413.954 82.4362V81.5221L416.86 80.6373V88.3834H418.753V89.2272ZM422.591 89.3678C421.759 89.3678 421.108 89.0104 420.639 88.2955C420.175 87.5807 419.942 86.5475 419.942 85.1959C419.942 83.7115 420.184 82.5885 420.669 81.8268C421.157 81.0651 421.86 80.6842 422.778 80.6842C424.536 80.6842 425.415 82.1198 425.415 84.9908C425.415 86.4127 425.167 87.4987 424.671 88.2487C424.175 88.9948 423.481 89.3678 422.591 89.3678ZM422.725 81.4987C421.526 81.4987 420.926 82.7155 420.926 85.149C420.926 87.4225 421.514 88.5592 422.69 88.5592C423.85 88.5592 424.43 87.403 424.43 85.0905C424.43 82.6959 423.862 81.4987 422.725 81.4987Z" fill="black"/>
<path d="M392.727 52.0414H387.975V51.1976H389.873V44.6703L387.928 45.2504V44.3363L390.834 43.4515V51.1976H392.727V52.0414ZM399.037 52.0414H393.975V51.1859L396.424 48.7308C397.049 48.1058 397.494 47.5863 397.76 47.1722C398.03 46.7543 398.164 46.309 398.164 45.8363C398.164 45.3519 398.026 44.9769 397.748 44.7113C397.471 44.4457 397.076 44.3129 396.565 44.3129C395.815 44.3129 395.096 44.6332 394.408 45.2738V44.266C395.065 43.7543 395.828 43.4984 396.699 43.4984C397.449 43.4984 398.039 43.7015 398.469 44.1078C398.899 44.514 399.114 45.059 399.114 45.7426C399.114 46.2816 398.965 46.809 398.668 47.3246C398.371 47.8363 397.838 48.473 397.069 49.2347L395.129 51.1508V51.1742H399.037V52.0414Z" fill="black"/>
<path d="M374.709 52.0414H369.957V51.1976H371.855V44.6703L369.91 45.2504V44.3363L372.816 43.4515V51.1976H374.709V52.0414ZM376.162 51.7308V50.6937C376.736 51.1469 377.385 51.3734 378.107 51.3734C378.693 51.3734 379.16 51.2269 379.508 50.934C379.859 50.641 380.035 50.2465 380.035 49.7504C380.035 48.6527 379.256 48.1039 377.697 48.1039H377V47.2894H377.662C379.049 47.2894 379.742 46.7738 379.742 45.7426C379.742 44.7894 379.213 44.3129 378.154 44.3129C377.564 44.3129 377.008 44.514 376.484 44.9164V43.9789C377.023 43.6586 377.66 43.4984 378.395 43.4984C379.102 43.4984 379.666 43.6859 380.088 44.0609C380.514 44.4359 380.727 44.9164 380.727 45.5023C380.727 46.6078 380.164 47.3187 379.039 47.6351V47.6586C379.645 47.7172 380.125 47.9301 380.48 48.2972C380.84 48.6605 381.02 49.1156 381.02 49.6625C381.02 50.4164 380.748 51.0258 380.205 51.4906C379.666 51.9515 378.953 52.182 378.066 52.182C377.27 52.182 376.635 52.0316 376.162 51.7308Z" fill="black"/>
<path d="M330.665 62.2675H325.913V61.4237H327.812V54.8964L325.866 55.4764V54.5624L328.773 53.6776V61.4237H330.665V62.2675ZM337.409 60.035H336.331V62.2675H335.382V60.035H331.433V59.4081L335.171 53.8651H336.331V59.2557H337.409V60.035ZM335.382 59.2557V55.6229C335.382 55.3651 335.39 55.076 335.406 54.7557H335.382C335.327 54.8964 335.22 55.1112 335.06 55.4003L332.476 59.2557H335.382Z" fill="black"/>
<path d="M296.632 85.5087H291.88V84.6649H293.778V78.1376L291.833 78.7177V77.8036L294.739 76.9188V84.6649H296.632V85.5087ZM298.278 85.3036V84.2841C298.852 84.6552 299.436 84.8407 300.03 84.8407C300.624 84.8407 301.102 84.6727 301.466 84.3368C301.829 84.0009 302.01 83.5555 302.01 83.0009C302.01 82.4501 301.825 82.0204 301.454 81.7118C301.083 81.4032 300.551 81.2489 299.86 81.2489C299.626 81.2489 299.186 81.2723 298.542 81.3192V77.1063H302.608V77.9735H299.45V80.4344C299.708 80.4188 299.946 80.411 300.165 80.411C301.063 80.411 301.759 80.6376 302.251 81.0907C302.743 81.5399 302.989 82.1571 302.989 82.9423C302.989 83.7548 302.723 84.4091 302.192 84.9052C301.665 85.4012 300.94 85.6493 300.018 85.6493C299.241 85.6493 298.661 85.5341 298.278 85.3036Z" fill="black"/>
<path d="M311.646 60.4082H306.895V59.5645H308.793V53.0371L306.848 53.6172V52.7031L309.754 51.8184V59.5645H311.646V60.4082ZM317.805 52.1055V53.0137C317.371 52.791 316.914 52.6797 316.434 52.6797C315.687 52.6797 315.09 53.0117 314.641 53.6758C314.195 54.3398 313.973 55.2285 313.973 56.3418H313.996C314.387 55.5488 315.027 55.1523 315.918 55.1523C316.652 55.1523 317.236 55.3887 317.67 55.8613C318.104 56.3301 318.32 56.959 318.32 57.748C318.32 58.5723 318.072 59.2461 317.576 59.7695C317.08 60.2891 316.449 60.5488 315.684 60.5488C314.84 60.5488 314.178 60.2129 313.697 59.541C313.217 58.8691 312.977 57.9258 312.977 56.7109C312.977 55.2383 313.291 54.0625 313.92 53.1836C314.549 52.3047 315.379 51.8652 316.41 51.8652C316.996 51.8652 317.461 51.9453 317.805 52.1055ZM315.707 55.9668C315.211 55.9668 314.809 56.1348 314.5 56.4707C314.191 56.8066 314.037 57.2031 314.037 57.6602C314.037 58.2344 314.189 58.7246 314.494 59.1309C314.803 59.5371 315.211 59.7402 315.719 59.7402C316.203 59.7402 316.594 59.5645 316.891 59.2129C317.187 58.8574 317.336 58.4082 317.336 57.8652C317.336 57.2715 317.193 56.8066 316.908 56.4707C316.623 56.1348 316.223 55.9668 315.707 55.9668Z" fill="black"/>
<path d="M328.663 43.6744H323.911V42.8307H325.81V36.3033L323.864 36.8834V35.9694L326.771 35.0846V42.8307H328.663V43.6744ZM335.267 35.5768L331.939 43.6744H330.943L334.089 36.1393H329.853V35.2721H335.267V35.5768Z" fill="black"/>
<path d="M375.71 31.5891H370.958V30.7454H372.856V24.218L370.911 24.7981V23.884L373.817 22.9993V30.7454H375.71V31.5891ZM378.798 27.1829V27.1594C377.79 26.6907 377.286 26.011 377.286 25.1204C377.286 24.5149 377.517 24.0188 377.978 23.6321C378.438 23.2415 379.032 23.0461 379.759 23.0461C380.415 23.0461 380.954 23.2278 381.376 23.5911C381.798 23.9543 382.009 24.4211 382.009 24.9915C382.009 25.9211 381.489 26.6438 380.45 27.1594V27.1829C381.677 27.6204 382.29 28.3782 382.29 29.4563C382.29 30.1516 382.04 30.7043 381.54 31.1145C381.04 31.5247 380.345 31.7297 379.454 31.7297C378.735 31.7297 378.144 31.5266 377.679 31.1204C377.214 30.7141 376.981 30.1868 376.981 29.5383C376.981 28.4602 377.587 27.675 378.798 27.1829ZM381.024 25.1086C381.024 24.7219 380.903 24.4172 380.661 24.1946C380.419 23.9719 380.089 23.8606 379.671 23.8606C379.28 23.8606 378.948 23.9778 378.675 24.2122C378.405 24.4426 378.27 24.7375 378.27 25.0969C378.27 25.8274 378.726 26.3782 379.636 26.7493C380.562 26.3665 381.024 25.8196 381.024 25.1086ZM379.571 27.6399C378.501 28.0657 377.966 28.6829 377.966 29.4915C377.966 29.9094 378.12 30.2532 378.429 30.5227C378.741 30.7883 379.151 30.9211 379.659 30.9211C380.144 30.9211 380.538 30.7903 380.843 30.5286C381.151 30.2629 381.306 29.929 381.306 29.5266C381.306 28.6829 380.728 28.054 379.571 27.6399Z" fill="black"/>
<path d="M397.732 31.5891H392.98V30.7454H394.878V24.218L392.933 24.7981V23.884L395.839 22.9993V30.7454H397.732V31.5891ZM399.425 31.4485V30.5227C399.894 30.7883 400.39 30.9211 400.913 30.9211C401.675 30.9211 402.267 30.6145 402.689 30.0012C403.114 29.3879 403.327 28.5168 403.327 27.3879C403.32 27.3918 403.312 27.3918 403.304 27.3879C402.945 28.1106 402.32 28.4719 401.429 28.4719C400.71 28.4719 400.12 28.2278 399.659 27.7395C399.198 27.2512 398.968 26.6223 398.968 25.8528C398.968 25.0325 399.22 24.3606 399.724 23.8372C400.232 23.3098 400.88 23.0461 401.669 23.0461C402.497 23.0461 403.142 23.3743 403.603 24.0305C404.068 24.6829 404.3 25.634 404.3 26.884C404.3 28.4348 403.999 29.6301 403.398 30.47C402.796 31.3098 401.96 31.7297 400.89 31.7297C400.327 31.7297 399.839 31.636 399.425 31.4485ZM401.581 23.8606C401.116 23.8606 400.728 24.0364 400.415 24.3879C400.107 24.7356 399.952 25.179 399.952 25.718C399.952 26.3079 400.105 26.7727 400.409 27.1125C400.714 27.4485 401.126 27.6165 401.646 27.6165C402.099 27.6165 402.482 27.4622 402.794 27.1536C403.111 26.845 403.269 26.468 403.269 26.0227C403.269 25.386 403.113 24.8665 402.8 24.4641C402.488 24.0618 402.081 23.8606 401.581 23.8606Z" fill="black"/>
<path d="M295.472 59.4785H290.41V58.623L292.859 56.168C293.484 55.543 293.929 55.0234 294.195 54.6094C294.465 54.1914 294.599 53.7461 294.599 53.2734C294.599 52.7891 294.461 52.4141 294.183 52.1484C293.906 51.8828 293.511 51.75 293 51.75C292.25 51.75 291.531 52.0703 290.843 52.7109V51.7031C291.5 51.1914 292.263 50.9355 293.135 50.9355C293.885 50.9355 294.474 51.1387 294.904 51.5449C295.334 51.9512 295.549 52.4961 295.549 53.1797C295.549 53.7188 295.4 54.2461 295.103 54.7617C294.806 55.2734 294.273 55.9102 293.504 56.6719L291.564 58.5879V58.6113H295.472V59.4785ZM299.468 59.6191C298.636 59.6191 297.986 59.2617 297.517 58.5469C297.052 57.832 296.82 56.7988 296.82 55.4473C296.82 53.9629 297.062 52.8398 297.547 52.0781C298.035 51.3164 298.738 50.9355 299.656 50.9355C301.414 50.9355 302.293 52.3711 302.293 55.2422C302.293 56.6641 302.045 57.75 301.549 58.5C301.052 59.2461 300.359 59.6191 299.468 59.6191ZM299.603 51.75C298.404 51.75 297.804 52.9668 297.804 55.4004C297.804 57.6738 298.392 58.8105 299.568 58.8105C300.728 58.8105 301.308 57.6543 301.308 55.3418C301.308 52.9473 300.74 51.75 299.603 51.75Z" fill="black"/>
<path d="M276.453 61.3378H271.391V60.4823L273.84 58.0272C274.465 57.4022 274.91 56.8827 275.176 56.4686C275.446 56.0507 275.58 55.6053 275.58 55.1327C275.58 54.6483 275.442 54.2733 275.164 54.0077C274.887 53.7421 274.492 53.6093 273.981 53.6093C273.231 53.6093 272.512 53.9296 271.824 54.5702V53.5624C272.481 53.0507 273.244 52.7948 274.115 52.7948C274.865 52.7948 275.455 52.9979 275.885 53.4042C276.315 53.8104 276.53 54.3553 276.53 55.0389C276.53 55.578 276.381 56.1053 276.084 56.621C275.787 57.1327 275.254 57.7694 274.485 58.5311L272.545 60.4471V60.4706H276.453V61.3378ZM283.08 61.3378H278.328V60.494H280.227V53.9667L278.281 54.5468V53.6327L281.188 52.7479V60.494H283.08V61.3378Z" fill="black"/>
<path d="M216.394 39.0262H211.331V38.1708L213.781 35.7157C214.406 35.0907 214.851 34.5712 215.116 34.1571C215.386 33.7391 215.521 33.2938 215.521 32.8212C215.521 32.3368 215.382 31.9618 215.105 31.6962C214.827 31.4305 214.433 31.2977 213.921 31.2977C213.171 31.2977 212.452 31.618 211.765 32.2587V31.2509C212.421 30.7391 213.185 30.4833 214.056 30.4833C214.806 30.4833 215.396 30.6864 215.825 31.0927C216.255 31.4989 216.47 32.0438 216.47 32.7274C216.47 33.2665 216.322 33.7938 216.025 34.3094C215.728 34.8212 215.195 35.4579 214.425 36.2196L212.486 38.1356V38.1591H216.394V39.0262ZM222.863 39.0262H217.8V38.1708L220.249 35.7157C220.874 35.0907 221.32 34.5712 221.585 34.1571C221.855 33.7391 221.989 33.2938 221.989 32.8212C221.989 32.3368 221.851 31.9618 221.573 31.6962C221.296 31.4305 220.902 31.2977 220.39 31.2977C219.64 31.2977 218.921 31.618 218.234 32.2587V31.2509C218.89 30.7391 219.654 30.4833 220.525 30.4833C221.275 30.4833 221.864 30.6864 222.294 31.0927C222.724 31.4989 222.939 32.0438 222.939 32.7274C222.939 33.2665 222.79 33.7938 222.493 34.3094C222.197 34.8212 221.663 35.4579 220.894 36.2196L218.954 38.1356V38.1591H222.863V39.0262Z" fill="black"/>
<path d="M282.459 31.5891H277.397V30.7336L279.846 28.2786C280.471 27.6536 280.916 27.134 281.182 26.72C281.452 26.302 281.586 25.8567 281.586 25.384C281.586 24.8997 281.448 24.5247 281.17 24.259C280.893 23.9934 280.499 23.8606 279.987 23.8606C279.237 23.8606 278.518 24.1809 277.831 24.8215V23.8137C278.487 23.302 279.25 23.0461 280.122 23.0461C280.872 23.0461 281.461 23.2493 281.891 23.6555C282.321 24.0618 282.536 24.6067 282.536 25.2903C282.536 25.8293 282.387 26.3567 282.09 26.8723C281.793 27.384 281.26 28.0208 280.491 28.7825L278.551 30.6985V30.7219H282.459V31.5891ZM284.071 31.2786V30.2415C284.645 30.6946 285.293 30.9211 286.016 30.9211C286.602 30.9211 287.069 30.7747 287.416 30.4817C287.768 30.1887 287.944 29.7942 287.944 29.2981C287.944 28.2004 287.165 27.6516 285.606 27.6516H284.909V26.8372H285.571C286.958 26.8372 287.651 26.3215 287.651 25.2903C287.651 24.3372 287.122 23.8606 286.063 23.8606C285.473 23.8606 284.916 24.0618 284.393 24.4641V23.5266C284.932 23.2063 285.569 23.0461 286.303 23.0461C287.01 23.0461 287.575 23.2336 287.997 23.6086C288.422 23.9836 288.635 24.4641 288.635 25.05C288.635 26.1555 288.073 26.8665 286.948 27.1829V27.2063C287.553 27.2649 288.034 27.4778 288.389 27.845C288.749 28.2083 288.928 28.6633 288.928 29.2102C288.928 29.9641 288.657 30.5735 288.114 31.0383C287.575 31.4993 286.862 31.7297 285.975 31.7297C285.178 31.7297 284.543 31.5793 284.071 31.2786Z" fill="black"/>
<path d="M198.376 38.0966H193.313V37.2411L195.763 34.786C196.388 34.161 196.833 33.6415 197.099 33.2274C197.368 32.8094 197.503 32.3641 197.503 31.8915C197.503 31.4071 197.364 31.0321 197.087 30.7665C196.81 30.5009 196.415 30.368 195.903 30.368C195.153 30.368 194.435 30.6884 193.747 31.329V30.3212C194.403 29.8094 195.167 29.5536 196.038 29.5536C196.788 29.5536 197.378 29.7567 197.808 30.163C198.237 30.5692 198.452 31.1141 198.452 31.7977C198.452 32.3368 198.304 32.8641 198.007 33.3798C197.71 33.8915 197.177 34.5282 196.407 35.2899L194.468 37.2059V37.2294H198.376V38.0966ZM205.278 35.8641H204.2V38.0966H203.251V35.8641H199.302V35.2372L203.04 29.6942H204.2V35.0848H205.278V35.8641ZM203.251 35.0848V31.452C203.251 31.1942 203.259 30.9052 203.274 30.5848H203.251C203.196 30.7255 203.089 30.9403 202.929 31.2294L200.345 35.0848H203.251Z" fill="black"/>
<path d="M243.421 39.0262H238.358V38.1708L240.807 35.7157C241.432 35.0907 241.878 34.5712 242.143 34.1571C242.413 33.7391 242.548 33.2938 242.548 32.8212C242.548 32.3368 242.409 31.9618 242.132 31.6962C241.854 31.4305 241.46 31.2977 240.948 31.2977C240.198 31.2977 239.479 31.618 238.792 32.2587V31.2509C239.448 30.7391 240.212 30.4833 241.083 30.4833C241.833 30.4833 242.423 30.6864 242.852 31.0927C243.282 31.4989 243.497 32.0438 243.497 32.7274C243.497 33.2665 243.348 33.7938 243.051 34.3094C242.755 34.8212 242.221 35.4579 241.452 36.2196L239.512 38.1356V38.1591H243.421V39.0262ZM245.225 38.8212V37.8016C245.8 38.1727 246.384 38.3583 246.977 38.3583C247.571 38.3583 248.05 38.1903 248.413 37.8544C248.776 37.5184 248.958 37.0731 248.958 36.5184C248.958 35.9677 248.772 35.538 248.401 35.2294C248.03 34.9208 247.499 34.7665 246.807 34.7665C246.573 34.7665 246.134 34.7899 245.489 34.8368V30.6239H249.555V31.4911H246.397V33.952C246.655 33.9364 246.893 33.9286 247.112 33.9286C248.01 33.9286 248.706 34.1552 249.198 34.6083C249.69 35.0575 249.936 35.6747 249.936 36.4598C249.936 37.2723 249.671 37.9266 249.139 38.4227C248.612 38.9188 247.887 39.1669 246.966 39.1669C246.188 39.1669 245.608 39.0516 245.225 38.8212Z" fill="black"/>
<path d="M233.411 61.3378H228.348V60.4823L230.797 58.0272C231.422 57.4022 231.868 56.8827 232.133 56.4686C232.403 56.0507 232.538 55.6053 232.538 55.1327C232.538 54.6483 232.399 54.2733 232.122 54.0077C231.844 53.7421 231.45 53.6093 230.938 53.6093C230.188 53.6093 229.469 53.9296 228.782 54.5702V53.5624C229.438 53.0507 230.202 52.7948 231.073 52.7948C231.823 52.7948 232.413 52.9979 232.842 53.4042C233.272 53.8104 233.487 54.3553 233.487 55.0389C233.487 55.578 233.338 56.1053 233.041 56.621C232.745 57.1327 232.211 57.7694 231.442 58.5311L229.502 60.4471V60.4706H233.411V61.3378ZM239.727 53.035V53.9432C239.293 53.7206 238.836 53.6093 238.356 53.6093C237.61 53.6093 237.012 53.9413 236.563 54.6053C236.118 55.2694 235.895 56.1581 235.895 57.2714H235.918C236.309 56.4784 236.95 56.0819 237.84 56.0819C238.575 56.0819 239.159 56.3182 239.592 56.7909C240.026 57.2596 240.243 57.8885 240.243 58.6776C240.243 59.5018 239.995 60.1757 239.499 60.6991C239.002 61.2186 238.372 61.4784 237.606 61.4784C236.762 61.4784 236.1 61.1425 235.62 60.4706C235.139 59.7987 234.899 58.8553 234.899 57.6405C234.899 56.1678 235.213 54.9921 235.842 54.1132C236.471 53.2343 237.301 52.7948 238.333 52.7948C238.918 52.7948 239.383 52.8749 239.727 53.035ZM237.629 56.8964C237.133 56.8964 236.731 57.0643 236.422 57.4003C236.114 57.7362 235.959 58.1327 235.959 58.5897C235.959 59.1639 236.112 59.6542 236.416 60.0604C236.725 60.4667 237.133 60.6698 237.641 60.6698C238.125 60.6698 238.516 60.494 238.813 60.1425C239.11 59.787 239.258 59.3378 239.258 58.7948C239.258 58.201 239.116 57.7362 238.831 57.4003C238.545 57.0643 238.145 56.8964 237.629 56.8964Z" fill="black"/>
<path d="M213.391 62.2675H208.328V61.412L210.778 58.9569C211.403 58.3319 211.848 57.8124 212.114 57.3983C212.383 56.9803 212.518 56.535 212.518 56.0624C212.518 55.578 212.379 55.203 212.102 54.9374C211.824 54.6718 211.43 54.5389 210.918 54.5389C210.168 54.5389 209.449 54.8593 208.762 55.4999V54.4921C209.418 53.9803 210.182 53.7245 211.053 53.7245C211.803 53.7245 212.393 53.9276 212.822 54.3339C213.252 54.7401 213.467 55.285 213.467 55.9686C213.467 56.5077 213.319 57.035 213.022 57.5507C212.725 58.0624 212.192 58.6991 211.422 59.4608L209.483 61.3768V61.4003H213.391V62.2675ZM220.153 54.1698L216.824 62.2675H215.828L218.975 54.7323H214.739V53.8651H220.153V54.1698Z" fill="black"/>
<path d="M182.36 32.5187H177.298V31.6632L179.747 29.2081C180.372 28.5831 180.817 28.0636 181.083 27.6495C181.352 27.2316 181.487 26.7863 181.487 26.3136C181.487 25.8292 181.348 25.4542 181.071 25.1886C180.794 24.923 180.399 24.7902 179.887 24.7902C179.137 24.7902 178.419 25.1105 177.731 25.7511V24.7433C178.387 24.2316 179.151 23.9757 180.022 23.9757C180.772 23.9757 181.362 24.1788 181.792 24.5851C182.221 24.9913 182.436 25.5363 182.436 26.2198C182.436 26.7589 182.288 27.2863 181.991 27.8019C181.694 28.3136 181.161 28.9503 180.391 29.712L178.452 31.6281V31.6515H182.36V32.5187ZM185.606 28.1124V28.089C184.598 27.6202 184.094 26.9406 184.094 26.0499C184.094 25.4445 184.325 24.9484 184.786 24.5616C185.247 24.171 185.841 23.9757 186.567 23.9757C187.223 23.9757 187.762 24.1573 188.184 24.5206C188.606 24.8839 188.817 25.3507 188.817 25.921C188.817 26.8507 188.298 27.5734 187.259 28.089V28.1124C188.485 28.5499 189.098 29.3077 189.098 30.3859C189.098 31.0812 188.848 31.6339 188.348 32.0441C187.848 32.4542 187.153 32.6593 186.262 32.6593C185.544 32.6593 184.952 32.4562 184.487 32.0499C184.022 31.6437 183.79 31.1163 183.79 30.4679C183.79 29.3898 184.395 28.6046 185.606 28.1124ZM187.833 26.0382C187.833 25.6515 187.712 25.3468 187.469 25.1241C187.227 24.9015 186.897 24.7902 186.479 24.7902C186.089 24.7902 185.757 24.9073 185.483 25.1417C185.214 25.3722 185.079 25.6671 185.079 26.0265C185.079 26.757 185.534 27.3077 186.444 27.6788C187.37 27.296 187.833 26.7491 187.833 26.0382ZM186.38 28.5695C185.309 28.9952 184.774 29.6124 184.774 30.421C184.774 30.839 184.928 31.1827 185.237 31.4523C185.55 31.7179 185.96 31.8507 186.468 31.8507C186.952 31.8507 187.346 31.7198 187.651 31.4581C187.96 31.1925 188.114 30.8585 188.114 30.4562C188.114 29.6124 187.536 28.9835 186.38 28.5695Z" fill="black"/>
<path d="M173.351 65.0564H168.289V64.2009L170.738 61.7458C171.363 61.1208 171.808 60.6013 172.074 60.1873C172.343 59.7693 172.478 59.324 172.478 58.8513C172.478 58.3669 172.339 57.9919 172.062 57.7263C171.785 57.4607 171.39 57.3279 170.878 57.3279C170.128 57.3279 169.41 57.6482 168.722 58.2888V57.281C169.378 56.7693 170.142 56.5134 171.013 56.5134C171.763 56.5134 172.353 56.7166 172.783 57.1228C173.212 57.5291 173.427 58.074 173.427 58.7576C173.427 59.2966 173.279 59.824 172.982 60.3396C172.685 60.8513 172.152 61.488 171.382 62.2498L169.443 64.1658V64.1892H173.351V65.0564ZM175.203 64.9158V63.99C175.671 64.2556 176.167 64.3884 176.691 64.3884C177.453 64.3884 178.044 64.0818 178.466 63.4685C178.892 62.8552 179.105 61.9841 179.105 60.8552C179.097 60.8591 179.089 60.8591 179.082 60.8552C178.722 61.5779 178.097 61.9392 177.207 61.9392C176.488 61.9392 175.898 61.6951 175.437 61.2068C174.976 60.7185 174.746 60.0896 174.746 59.3201C174.746 58.4998 174.998 57.8279 175.501 57.3044C176.009 56.7771 176.658 56.5134 177.447 56.5134C178.275 56.5134 178.919 56.8416 179.38 57.4978C179.845 58.1501 180.078 59.1013 180.078 60.3513C180.078 61.9021 179.777 63.0974 179.175 63.9373C178.574 64.7771 177.738 65.197 176.667 65.197C176.105 65.197 175.617 65.1033 175.203 64.9158ZM177.359 57.3279C176.894 57.3279 176.505 57.5037 176.193 57.8552C175.884 58.2029 175.73 58.6462 175.73 59.1853C175.73 59.7751 175.882 60.24 176.187 60.5798C176.492 60.9158 176.904 61.0837 177.423 61.0837C177.876 61.0837 178.259 60.9294 178.572 60.6208C178.888 60.3123 179.046 59.9353 179.046 59.49C179.046 58.8533 178.89 58.3337 178.578 57.9314C178.265 57.5291 177.859 57.3279 177.359 57.3279Z" fill="black"/>
<path d="M181.507 79.6202V78.5831C182.081 79.0363 182.729 79.2628 183.452 79.2628C184.038 79.2628 184.505 79.1163 184.852 78.8234C185.204 78.5304 185.38 78.1359 185.38 77.6398C185.38 76.5421 184.6 75.9933 183.042 75.9933H182.344V75.1788H183.007C184.393 75.1788 185.087 74.6632 185.087 73.632C185.087 72.6788 184.557 72.2023 183.499 72.2023C182.909 72.2023 182.352 72.4034 181.829 72.8058V71.8683C182.368 71.548 183.005 71.3878 183.739 71.3878C184.446 71.3878 185.01 71.5753 185.432 71.9503C185.858 72.3253 186.071 72.8058 186.071 73.3917C186.071 74.4972 185.509 75.2081 184.384 75.5245V75.548C184.989 75.6066 185.469 75.8195 185.825 76.1866C186.184 76.5499 186.364 77.005 186.364 77.5519C186.364 78.3058 186.093 78.9152 185.55 79.38C185.01 79.8409 184.298 80.0714 183.411 80.0714C182.614 80.0714 181.979 79.921 181.507 79.6202ZM190.36 80.0714C189.528 80.0714 188.878 79.714 188.409 78.9991C187.944 78.2843 187.712 77.2511 187.712 75.8995C187.712 74.4152 187.954 73.2921 188.438 72.5304C188.926 71.7687 189.63 71.3878 190.548 71.3878C192.305 71.3878 193.184 72.8234 193.184 75.6945C193.184 77.1163 192.936 78.2023 192.44 78.9523C191.944 79.6984 191.251 80.0714 190.36 80.0714ZM190.495 72.2023C189.296 72.2023 188.696 73.4191 188.696 75.8527C188.696 78.1261 189.284 79.2628 190.46 79.2628C191.62 79.2628 192.2 78.1066 192.2 75.7941C192.2 73.3995 191.632 72.2023 190.495 72.2023Z" fill="black"/>
<path d="M144.47 36.8564V35.8193C145.044 36.2725 145.693 36.499 146.415 36.499C147.001 36.499 147.468 36.3525 147.816 36.0596C148.167 35.7666 148.343 35.3721 148.343 34.876C148.343 33.7783 147.564 33.2295 146.005 33.2295H145.308V32.415H145.97C147.357 32.415 148.05 31.8994 148.05 30.8682C148.05 29.915 147.521 29.4385 146.462 29.4385C145.872 29.4385 145.316 29.6396 144.792 30.042V29.1045C145.331 28.7842 145.968 28.624 146.702 28.624C147.409 28.624 147.974 28.8115 148.396 29.1865C148.822 29.5615 149.034 30.042 149.034 30.6279C149.034 31.7334 148.472 32.4443 147.347 32.7607V32.7842C147.952 32.8428 148.433 33.0557 148.788 33.4229C149.148 33.7861 149.327 34.2412 149.327 34.7881C149.327 35.542 149.056 36.1514 148.513 36.6162C147.974 37.0771 147.261 37.3076 146.374 37.3076C145.577 37.3076 144.943 37.1572 144.47 36.8564ZM155.954 37.167H151.202V36.3232H153.101V29.7959L151.156 30.376V29.4619L154.062 28.5771V36.3232H155.954V37.167Z" fill="black"/>
<path d="M404.739 106.891H399.987V106.047H401.885V99.5194L399.94 100.099V99.1854L402.846 98.3007V106.047H404.739V106.891ZM411.208 106.891H406.456V106.047H408.354V99.5194L406.409 100.099V99.1854L409.315 98.3007V106.047H411.208V106.891Z" fill="black"/>
<path d="M125.451 34.0675V33.0304C126.025 33.4835 126.674 33.7101 127.396 33.7101C127.982 33.7101 128.449 33.5636 128.797 33.2706C129.148 32.9777 129.324 32.5831 129.324 32.087C129.324 30.9894 128.545 30.4406 126.986 30.4406H126.289V29.6261H126.951C128.338 29.6261 129.031 29.1105 129.031 28.0792C129.031 27.1261 128.502 26.6495 127.443 26.6495C126.853 26.6495 126.297 26.8507 125.773 27.2531V26.3156C126.312 25.9952 126.949 25.8351 127.683 25.8351C128.39 25.8351 128.955 26.0226 129.377 26.3976C129.802 26.7726 130.015 27.2531 130.015 27.839C130.015 28.9445 129.453 29.6554 128.328 29.9718V29.9952C128.933 30.0538 129.414 30.2667 129.769 30.6339C130.129 30.9972 130.308 31.4523 130.308 31.9991C130.308 32.7531 130.037 33.3624 129.494 33.8273C128.955 34.2882 128.242 34.5187 127.355 34.5187C126.558 34.5187 125.924 34.3683 125.451 34.0675ZM136.777 34.3781H131.715V33.5226L134.164 31.0675C134.789 30.4425 135.234 29.923 135.5 29.5089C135.769 29.0909 135.904 28.6456 135.904 28.173C135.904 27.6886 135.765 27.3136 135.488 27.048C135.211 26.7823 134.816 26.6495 134.304 26.6495C133.554 26.6495 132.836 26.9698 132.148 27.6105V26.6027C132.804 26.0909 133.568 25.8351 134.439 25.8351C135.189 25.8351 135.779 26.0382 136.209 26.4445C136.638 26.8507 136.853 27.3956 136.853 28.0792C136.853 28.6183 136.705 29.1456 136.408 29.6613C136.111 30.173 135.578 30.8097 134.808 31.5714L132.869 33.4874V33.5109H136.777V34.3781Z" fill="black"/>
<path d="M108.434 42.4343V41.3972C109.008 41.8503 109.657 42.0769 110.379 42.0769C110.965 42.0769 111.432 41.9304 111.78 41.6375C112.131 41.3445 112.307 40.95 112.307 40.4539C112.307 39.3562 111.528 38.8074 109.969 38.8074H109.272V37.9929H109.934C111.321 37.9929 112.014 37.4773 112.014 36.446C112.014 35.4929 111.485 35.0164 110.426 35.0164C109.836 35.0164 109.28 35.2175 108.756 35.6199V34.6824C109.295 34.3621 109.932 34.2019 110.666 34.2019C111.374 34.2019 111.938 34.3894 112.36 34.7644C112.786 35.1394 112.999 35.6199 112.999 36.2058C112.999 37.3113 112.436 38.0222 111.311 38.3386V38.3621C111.916 38.4207 112.397 38.6335 112.752 39.0007C113.112 39.364 113.291 39.8191 113.291 40.366C113.291 41.1199 113.02 41.7292 112.477 42.1941C111.938 42.655 111.225 42.8855 110.338 42.8855C109.541 42.8855 108.907 42.7351 108.434 42.4343ZM114.903 42.4343V41.3972C115.477 41.8503 116.125 42.0769 116.848 42.0769C117.434 42.0769 117.901 41.9304 118.249 41.6375C118.6 41.3445 118.776 40.95 118.776 40.4539C118.776 39.3562 117.997 38.8074 116.438 38.8074H115.741V37.9929H116.403C117.79 37.9929 118.483 37.4773 118.483 36.446C118.483 35.4929 117.954 35.0164 116.895 35.0164C116.305 35.0164 115.749 35.2175 115.225 35.6199V34.6824C115.764 34.3621 116.401 34.2019 117.135 34.2019C117.842 34.2019 118.407 34.3894 118.829 34.7644C119.254 35.1394 119.467 35.6199 119.467 36.2058C119.467 37.3113 118.905 38.0222 117.78 38.3386V38.3621C118.385 38.4207 118.866 38.6335 119.221 39.0007C119.581 39.364 119.76 39.8191 119.76 40.366C119.76 41.1199 119.489 41.7292 118.946 42.1941C118.407 42.655 117.694 42.8855 116.807 42.8855C116.01 42.8855 115.375 42.7351 114.903 42.4343Z" fill="black"/>
<path d="M84.4104 48.0122V46.9751C84.9846 47.4282 85.633 47.6548 86.3557 47.6548C86.9416 47.6548 87.4084 47.5083 87.7561 47.2153C88.1077 46.9224 88.2834 46.5278 88.2834 46.0317C88.2834 44.9341 87.5041 44.3853 85.9455 44.3853H85.2483V43.5708H85.9104C87.2971 43.5708 87.9905 43.0552 87.9905 42.0239C87.9905 41.0708 87.4612 40.5942 86.4026 40.5942C85.8127 40.5942 85.2561 40.7954 84.7327 41.1978V40.2603C85.2717 39.9399 85.9084 39.7798 86.6428 39.7798C87.3498 39.7798 87.9143 39.9673 88.3362 40.3423C88.7619 40.7173 88.9748 41.1978 88.9748 41.7837C88.9748 42.8892 88.4123 43.6001 87.2873 43.9165V43.9399C87.8928 43.9985 88.3733 44.2114 88.7287 44.5786C89.0881 44.9419 89.2678 45.397 89.2678 45.9438C89.2678 46.6978 88.9963 47.3071 88.4534 47.772C87.9143 48.2329 87.2014 48.4634 86.3147 48.4634C85.5178 48.4634 84.883 48.313 84.4104 48.0122ZM96.1702 46.0903H95.092V48.3228H94.1428V46.0903H90.1936V45.4634L93.9319 39.9204H95.092V45.311H96.1702V46.0903ZM94.1428 45.311V41.6782C94.1428 41.4204 94.1506 41.1313 94.1662 40.811H94.1428C94.0881 40.9517 93.9807 41.1665 93.8205 41.4556L91.2366 45.311H94.1428Z" fill="black"/>
<path d="M57.3835 36.8564V35.8193C57.9577 36.2725 58.6062 36.499 59.3288 36.499C59.9148 36.499 60.3816 36.3525 60.7292 36.0596C61.0808 35.7666 61.2566 35.3721 61.2566 34.876C61.2566 33.7783 60.4773 33.2295 58.9187 33.2295H58.2214V32.415H58.8835C60.2702 32.415 60.9636 31.8994 60.9636 30.8682C60.9636 29.915 60.4343 29.4385 59.3757 29.4385C58.7859 29.4385 58.2292 29.6396 57.7058 30.042V29.1045C58.2449 28.7842 58.8816 28.624 59.616 28.624C60.323 28.624 60.8874 28.8115 61.3093 29.1865C61.7351 29.5615 61.948 30.042 61.948 30.6279C61.948 31.7334 61.3855 32.4443 60.2605 32.7607V32.7842C60.866 32.8428 61.3464 33.0557 61.7019 33.4229C62.0613 33.7861 62.241 34.2412 62.241 34.7881C62.241 35.542 61.9695 36.1514 61.4265 36.6162C60.8874 37.0771 60.1745 37.3076 59.2878 37.3076C58.491 37.3076 57.8562 37.1572 57.3835 36.8564ZM64.0456 36.9619V35.9424C64.6199 36.3135 65.2038 36.499 65.7976 36.499C66.3913 36.499 66.8699 36.3311 67.2331 35.9951C67.5964 35.6592 67.7781 35.2139 67.7781 34.6592C67.7781 34.1084 67.5925 33.6787 67.2214 33.3701C66.8503 33.0615 66.3191 32.9072 65.6277 32.9072C65.3933 32.9072 64.9538 32.9307 64.3093 32.9775V28.7646H68.3757V29.6318H65.2175V32.0928C65.4753 32.0771 65.7136 32.0693 65.9324 32.0693C66.8308 32.0693 67.5261 32.2959 68.0183 32.749C68.5105 33.1982 68.7566 33.8154 68.7566 34.6006C68.7566 35.4131 68.491 36.0674 67.9597 36.5635C67.4324 37.0596 66.7077 37.3076 65.7859 37.3076C65.0085 37.3076 64.4285 37.1924 64.0456 36.9619Z" fill="black"/>
<path d="M110.436 76.8312V75.7941C111.01 76.2472 111.659 76.4738 112.381 76.4738C112.967 76.4738 113.434 76.3273 113.782 76.0343C114.133 75.7413 114.309 75.3468 114.309 74.8507C114.309 73.7531 113.53 73.2042 111.971 73.2042H111.274V72.3898H111.936C113.323 72.3898 114.016 71.8741 114.016 70.8429C114.016 69.8898 113.487 69.4132 112.428 69.4132C111.838 69.4132 111.282 69.6144 110.758 70.0167V69.0792C111.297 68.7589 111.934 68.5988 112.668 68.5988C113.375 68.5988 113.94 68.7863 114.362 69.1613C114.788 69.5363 115 70.0167 115 70.6027C115 71.7081 114.438 72.4191 113.313 72.7355V72.7589C113.918 72.8175 114.399 73.0304 114.754 73.3976C115.114 73.7609 115.293 74.2159 115.293 74.7628C115.293 75.5167 115.022 76.1261 114.479 76.5909C113.94 77.0519 113.227 77.2823 112.34 77.2823C111.543 77.2823 110.909 77.132 110.436 76.8312ZM121.61 68.839V69.7472C121.176 69.5245 120.719 69.4132 120.239 69.4132C119.493 69.4132 118.895 69.7452 118.446 70.4093C118 71.0734 117.778 71.962 117.778 73.0753H117.801C118.192 72.2823 118.833 71.8859 119.723 71.8859C120.458 71.8859 121.041 72.1222 121.475 72.5948C121.909 73.0636 122.125 73.6925 122.125 74.4816C122.125 75.3058 121.877 75.9796 121.381 76.5031C120.885 77.0226 120.254 77.2823 119.489 77.2823C118.645 77.2823 117.983 76.9464 117.502 76.2745C117.022 75.6027 116.782 74.6593 116.782 73.4445C116.782 71.9718 117.096 70.796 117.725 69.9171C118.354 69.0382 119.184 68.5988 120.215 68.5988C120.801 68.5988 121.266 68.6788 121.61 68.839ZM119.512 72.7003C119.016 72.7003 118.614 72.8683 118.305 73.2042C117.997 73.5402 117.842 73.9366 117.842 74.3937C117.842 74.9679 117.995 75.4581 118.299 75.8644C118.608 76.2706 119.016 76.4738 119.524 76.4738C120.008 76.4738 120.399 76.298 120.696 75.9464C120.993 75.5909 121.141 75.1417 121.141 74.5988C121.141 74.005 120.999 73.5402 120.713 73.2042C120.428 72.8683 120.028 72.7003 119.512 72.7003Z" fill="black"/>
<path d="M90.4162 75.9017V74.8646C90.9905 75.3177 91.6389 75.5443 92.3616 75.5443C92.9475 75.5443 93.4143 75.3978 93.7619 75.1049C94.1135 74.8119 94.2893 74.4174 94.2893 73.9213C94.2893 72.8236 93.51 72.2748 91.9514 72.2748H91.2541V71.4603H91.9162C93.303 71.4603 93.9963 70.9447 93.9963 69.9135C93.9963 68.9603 93.467 68.4838 92.4084 68.4838C91.8186 68.4838 91.2619 68.6849 90.7385 69.0873V68.1498C91.2776 67.8295 91.9143 67.6693 92.6487 67.6693C93.3557 67.6693 93.9202 67.8568 94.342 68.2318C94.7678 68.6068 94.9807 69.0873 94.9807 69.6732C94.9807 70.7787 94.4182 71.4896 93.2932 71.806V71.8295C93.8987 71.8881 94.3791 72.101 94.7346 72.4681C95.094 72.8314 95.2737 73.2865 95.2737 73.8334C95.2737 74.5873 95.0022 75.1967 94.4592 75.6615C93.9202 76.1224 93.2073 76.3529 92.3205 76.3529C91.5237 76.3529 90.8889 76.2025 90.4162 75.9017ZM102.035 68.1146L98.7073 76.2123H97.7112L100.858 68.6771H96.6213V67.8099H102.035V68.1146Z" fill="black"/>
<path d="M68.3945 75.9017V74.8646C68.9687 75.3177 69.6172 75.5443 70.3398 75.5443C70.9258 75.5443 71.3926 75.3978 71.7402 75.1049C72.0918 74.8119 72.2676 74.4174 72.2676 73.9213C72.2676 72.8236 71.4883 72.2748 69.9297 72.2748H69.2324V71.4603H69.8945C71.2812 71.4603 71.9746 70.9447 71.9746 69.9135C71.9746 68.9603 71.4453 68.4838 70.3867 68.4838C69.7969 68.4838 69.2402 68.6849 68.7168 69.0873V68.1498C69.2558 67.8295 69.8926 67.6693 70.6269 67.6693C71.334 67.6693 71.8984 67.8568 72.3203 68.2318C72.7461 68.6068 72.959 69.0873 72.959 69.6732C72.959 70.7787 72.3965 71.4896 71.2715 71.806V71.8295C71.8769 71.8881 72.3574 72.101 72.7129 72.4681C73.0723 72.8314 73.2519 73.2865 73.2519 73.8334C73.2519 74.5873 72.9805 75.1967 72.4375 75.6615C71.8984 76.1224 71.1855 76.3529 70.2988 76.3529C69.5019 76.3529 68.8672 76.2025 68.3945 75.9017ZM76.498 71.806V71.7826C75.4902 71.3138 74.9863 70.6342 74.9863 69.7435C74.9863 69.1381 75.2168 68.642 75.6777 68.2552C76.1387 67.8646 76.7324 67.6693 77.459 67.6693C78.1152 67.6693 78.6543 67.851 79.0762 68.2142C79.498 68.5775 79.709 69.0443 79.709 69.6146C79.709 70.5443 79.1894 71.267 78.1504 71.7826V71.806C79.3769 72.2435 79.9902 73.0013 79.9902 74.0795C79.9902 74.7748 79.7402 75.3275 79.2402 75.7377C78.7402 76.1478 78.0449 76.3529 77.1543 76.3529C76.4355 76.3529 75.8437 76.1498 75.3789 75.7435C74.914 75.3373 74.6816 74.8099 74.6816 74.1615C74.6816 73.0834 75.2871 72.2982 76.498 71.806ZM78.7246 69.7318C78.7246 69.3451 78.6035 69.0404 78.3613 68.8177C78.1191 68.5951 77.789 68.4838 77.3711 68.4838C76.9805 68.4838 76.6484 68.601 76.375 68.8353C76.1055 69.0658 75.9707 69.3607 75.9707 69.7201C75.9707 70.4506 76.4258 71.0013 77.3359 71.3724C78.2617 70.9896 78.7246 70.4427 78.7246 69.7318ZM77.2715 72.2631C76.2012 72.6888 75.666 73.306 75.666 74.1146C75.666 74.5326 75.8203 74.8763 76.1289 75.1459C76.4414 75.4115 76.8515 75.5443 77.3594 75.5443C77.8437 75.5443 78.2383 75.4135 78.543 75.1517C78.8515 74.8861 79.0058 74.5521 79.0058 74.1498C79.0058 73.306 78.4277 72.6771 77.2715 72.2631Z" fill="black"/>
<path d="M36.3625 34.0675V33.0304C36.9368 33.4835 37.5852 33.7101 38.3078 33.7101C38.8938 33.7101 39.3606 33.5636 39.7082 33.2706C40.0598 32.9777 40.2356 32.5831 40.2356 32.087C40.2356 30.9894 39.4563 30.4406 37.8977 30.4406H37.2004V29.6261H37.8625C39.2493 29.6261 39.9426 29.1105 39.9426 28.0792C39.9426 27.1261 39.4133 26.6495 38.3547 26.6495C37.7649 26.6495 37.2082 26.8507 36.6848 27.2531V26.3156C37.2239 25.9952 37.8606 25.8351 38.595 25.8351C39.302 25.8351 39.8664 26.0226 40.2883 26.3976C40.7141 26.7726 40.927 27.2531 40.927 27.839C40.927 28.9445 40.3645 29.6554 39.2395 29.9718V29.9952C39.845 30.0538 40.3254 30.2667 40.6809 30.6339C41.0403 30.9972 41.22 31.4523 41.22 31.9991C41.22 32.7531 40.9485 33.3624 40.4055 33.8273C39.8664 34.2882 39.1535 34.5187 38.2668 34.5187C37.47 34.5187 36.8352 34.3683 36.3625 34.0675ZM43.0715 34.2374V33.3116C43.5403 33.5773 44.0364 33.7101 44.5598 33.7101C45.3215 33.7101 45.9133 33.4034 46.3352 32.7902C46.761 32.1769 46.9739 31.3058 46.9739 30.1769C46.966 30.1808 46.9582 30.1808 46.9504 30.1769C46.591 30.8995 45.966 31.2609 45.0754 31.2609C44.3567 31.2609 43.7668 31.0167 43.3059 30.5284C42.845 30.0402 42.6145 29.4113 42.6145 28.6417C42.6145 27.8214 42.8664 27.1495 43.3703 26.6261C43.8782 26.0988 44.5266 25.8351 45.3157 25.8351C46.1438 25.8351 46.7883 26.1632 47.2493 26.8195C47.7141 27.4718 47.9465 28.423 47.9465 29.673C47.9465 31.2238 47.6457 32.4191 47.0442 33.2589C46.4426 34.0988 45.6067 34.5187 44.5364 34.5187C43.9739 34.5187 43.4856 34.4249 43.0715 34.2374ZM45.2278 26.6495C44.7629 26.6495 44.3743 26.8253 44.0618 27.1769C43.7532 27.5245 43.5989 27.9679 43.5989 28.507C43.5989 29.0968 43.7512 29.5616 44.0559 29.9015C44.3606 30.2374 44.7727 30.4054 45.2922 30.4054C45.7453 30.4054 46.1282 30.2511 46.4407 29.9425C46.7571 29.6339 46.9153 29.257 46.9153 28.8116C46.9153 28.1749 46.759 27.6554 46.4465 27.2531C46.134 26.8507 45.7278 26.6495 45.2278 26.6495Z" fill="black"/>
<path d="M27.6398 60.9647H26.5616V63.1971H25.6124V60.9647H21.6632V60.3378L25.4015 54.7948H26.5616V60.1854H27.6398V60.9647ZM25.6124 60.1854V56.5526C25.6124 56.2948 25.6202 56.0057 25.6358 55.6854H25.6124C25.5577 55.826 25.4503 56.0409 25.2901 56.33L22.7062 60.1854H25.6124ZM31.2023 63.3378C30.3702 63.3378 29.7198 62.9803 29.2511 62.2655C28.7862 61.5507 28.5538 60.5175 28.5538 59.1659C28.5538 57.6815 28.796 56.5585 29.2804 55.7968C29.7687 55.035 30.4718 54.6542 31.3898 54.6542C33.1476 54.6542 34.0265 56.0897 34.0265 58.9608C34.0265 60.3827 33.7784 61.4686 33.2823 62.2186C32.7862 62.9647 32.0929 63.3378 31.2023 63.3378ZM31.337 55.4686C30.1378 55.4686 29.5382 56.6854 29.5382 59.119C29.5382 61.3925 30.1261 62.5292 31.3019 62.5292C32.462 62.5292 33.0421 61.3729 33.0421 59.0604C33.0421 56.6659 32.4737 55.4686 31.337 55.4686Z" fill="black"/>
<path d="M45.6577 60.035H44.5796V62.2675H43.6304V60.035H39.6811V59.4081L43.4194 53.8651H44.5796V59.2557H45.6577V60.035ZM43.6304 59.2557V55.6229C43.6304 55.3651 43.6382 55.076 43.6538 54.7557H43.6304C43.5757 54.8964 43.4682 55.1112 43.3081 55.4003L40.7241 59.2557H43.6304ZM51.8511 62.2675H47.0991V61.4237H48.9975V54.8964L47.0522 55.4764V54.5624L49.9585 53.6776V61.4237H51.8511V62.2675Z" fill="black"/>
<path d="M45.6577 80.4872H44.5796V82.7196H43.6304V80.4872H39.6811V79.8602L43.4194 74.3173H44.5796V79.7079H45.6577V80.4872ZM43.6304 79.7079V76.0751C43.6304 75.8173 43.6382 75.5282 43.6538 75.2079H43.6304C43.5757 75.3485 43.4682 75.5634 43.3081 75.8524L40.7241 79.7079H43.6304ZM51.6929 82.7196H46.6304V81.8641L49.0796 79.4091C49.7046 78.7841 50.1499 78.2645 50.4155 77.8505C50.685 77.4325 50.8198 76.9872 50.8198 76.5145C50.8198 76.0302 50.6811 75.6552 50.4038 75.3895C50.1265 75.1239 49.7319 74.9911 49.2202 74.9911C48.4702 74.9911 47.7515 75.3114 47.064 75.952V74.9442C47.7202 74.4325 48.4839 74.1766 49.355 74.1766C50.105 74.1766 50.6948 74.3798 51.1245 74.786C51.5542 75.1923 51.769 75.7372 51.769 76.4208C51.769 76.9598 51.6206 77.4872 51.3237 78.0028C51.0268 78.5145 50.4936 79.1512 49.7241 79.913L47.7847 81.829V81.8524H51.6929V82.7196Z" fill="black"/>
<path d="M57.6694 97.2208H56.5913V99.4532H55.6421V97.2208H51.6929V96.5939L55.4311 91.0509H56.5913V96.4415H57.6694V97.2208ZM55.6421 96.4415V92.8087C55.6421 92.5509 55.6499 92.2618 55.6655 91.9415H55.6421C55.5874 92.0822 55.48 92.297 55.3198 92.5861L52.7358 96.4415H55.6421ZM58.8472 99.1427V98.1056C59.4214 98.5587 60.0698 98.7853 60.7925 98.7853C61.3784 98.7853 61.8452 98.6388 62.1929 98.3458C62.5444 98.0529 62.7202 97.6583 62.7202 97.1622C62.7202 96.0646 61.9409 95.5157 60.3823 95.5157H59.685V94.7013H60.3472C61.7339 94.7013 62.4272 94.1857 62.4272 93.1544C62.4272 92.2013 61.8979 91.7247 60.8393 91.7247C60.2495 91.7247 59.6929 91.9259 59.1694 92.3282V91.3907C59.7085 91.0704 60.3452 90.9103 61.0796 90.9103C61.7866 90.9103 62.3511 91.0978 62.7729 91.4728C63.1987 91.8478 63.4116 92.3282 63.4116 92.9142C63.4116 94.0197 62.8491 94.7306 61.7241 95.047V95.0704C62.3296 95.129 62.81 95.3419 63.1655 95.7091C63.5249 96.0724 63.7046 96.5275 63.7046 97.0743C63.7046 97.8282 63.4331 98.4376 62.8901 98.9025C62.3511 99.3634 61.6382 99.5939 60.7515 99.5939C59.9546 99.5939 59.3198 99.4435 58.8472 99.1427Z" fill="black"/>
<path d="M473.038 91.0865H468.286V90.2428H470.184V83.7155L468.239 84.2955V83.3815L471.145 82.4967V90.2428H473.038V91.0865Z" fill="black"/>
<path d="M490.897 93.8754H485.835V93.0199L488.284 90.5648C488.909 89.9398 489.354 89.4203 489.62 89.0062C489.89 88.5883 490.024 88.1429 490.024 87.6703C490.024 87.1859 489.886 86.8109 489.608 86.5453C489.331 86.2797 488.936 86.1469 488.425 86.1469C487.675 86.1469 486.956 86.4672 486.268 87.1078V86.1C486.925 85.5883 487.688 85.3324 488.56 85.3324C489.31 85.3324 489.899 85.5355 490.329 85.9418C490.759 86.348 490.974 86.8929 490.974 87.5765C490.974 88.1156 490.825 88.6429 490.528 89.1586C490.231 89.6703 489.698 90.307 488.929 91.0687L486.989 92.9847V93.0082H490.897V93.8754Z" fill="black"/>
<path d="M473.027 72.183V71.1459C473.601 71.599 474.25 71.8256 474.972 71.8256C475.558 71.8256 476.025 71.6791 476.373 71.3861C476.724 71.0931 476.9 70.6986 476.9 70.2025C476.9 69.1049 476.121 68.556 474.562 68.556H473.865V67.7416H474.527C475.914 67.7416 476.607 67.226 476.607 66.1947C476.607 65.2416 476.078 64.765 475.019 64.765C474.429 64.765 473.873 64.9662 473.349 65.3685V64.431C473.888 64.1107 474.525 63.9506 475.259 63.9506C475.966 63.9506 476.531 64.1381 476.953 64.5131C477.379 64.8881 477.591 65.3685 477.591 65.9545C477.591 67.0599 477.029 67.7709 475.904 68.0873V68.1107C476.509 68.1693 476.99 68.3822 477.345 68.7494C477.705 69.1127 477.884 69.5677 477.884 70.1146C477.884 70.8685 477.613 71.4779 477.07 71.9427C476.531 72.4037 475.818 72.6342 474.931 72.6342C474.134 72.6342 473.5 72.4838 473.027 72.183Z" fill="black"/>
<path d="M491.331 57.2461H490.253V59.4785H489.304V57.2461H485.354V56.6191L489.093 51.0762H490.253V56.4668H491.331V57.2461ZM489.304 56.4668V52.834C489.304 52.5762 489.311 52.2871 489.327 51.9668H489.304C489.249 52.1074 489.142 52.3223 488.981 52.6113L486.397 56.4668H489.304Z" fill="black"/>
<path d="M500.247 61.1327V60.1132C500.821 60.4843 501.405 60.6698 501.999 60.6698C502.593 60.6698 503.071 60.5018 503.435 60.1659C503.798 59.83 503.98 59.3846 503.98 58.83C503.98 58.2792 503.794 57.8495 503.423 57.5409C503.052 57.2323 502.521 57.078 501.829 57.078C501.595 57.078 501.155 57.1014 500.511 57.1483V52.9354H504.577V53.8026H501.419V56.2635C501.677 56.2479 501.915 56.2401 502.134 56.2401C503.032 56.2401 503.728 56.4667 504.22 56.9198C504.712 57.369 504.958 57.9862 504.958 58.7714C504.958 59.5839 504.693 60.2382 504.161 60.7343C503.634 61.2303 502.909 61.4784 501.987 61.4784C501.21 61.4784 500.63 61.3632 500.247 61.1327Z" fill="black"/>
<path d="M454.154 16.0542L450.825 24.1519H449.829L452.976 16.6167H448.739V15.7495H454.154V16.0542Z" fill="black"/>
<path d="M467.655 16.9567V16.9332C466.647 16.4645 466.143 15.7848 466.143 14.8942C466.143 14.2887 466.373 13.7926 466.834 13.4059C467.295 13.0153 467.889 12.8199 468.616 12.8199C469.272 12.8199 469.811 13.0016 470.233 13.3649C470.655 13.7281 470.866 14.1949 470.866 14.7653C470.866 15.6949 470.346 16.4176 469.307 16.9332V16.9567C470.534 17.3942 471.147 18.152 471.147 19.2301C471.147 19.9254 470.897 20.4781 470.397 20.8883C469.897 21.2985 469.202 21.5035 468.311 21.5035C467.592 21.5035 467 21.3004 466.536 20.8942C466.071 20.4879 465.838 19.9606 465.838 19.3121C465.838 18.234 466.444 17.4489 467.655 16.9567ZM469.881 14.8824C469.881 14.4957 469.76 14.191 469.518 13.9684C469.276 13.7457 468.946 13.6344 468.528 13.6344C468.137 13.6344 467.805 13.7516 467.532 13.986C467.262 14.2164 467.127 14.5114 467.127 14.8707C467.127 15.6012 467.582 16.152 468.493 16.5231C469.418 16.1403 469.881 15.5934 469.881 14.8824ZM468.428 17.4137C467.358 17.8395 466.823 18.4567 466.823 19.2653C466.823 19.6832 466.977 20.027 467.286 20.2965C467.598 20.5621 468.008 20.6949 468.516 20.6949C469 20.6949 469.395 20.5641 469.7 20.3024C470.008 20.0367 470.163 19.7028 470.163 19.3004C470.163 18.4567 469.584 17.8278 468.428 17.4137Z" fill="black"/>
<path d="M483.277 29.5891V28.6633C483.746 28.929 484.242 29.0618 484.765 29.0618C485.527 29.0618 486.119 28.7551 486.541 28.1418C486.966 27.5286 487.179 26.6575 487.179 25.5286C487.172 25.5325 487.164 25.5325 487.156 25.5286C486.797 26.2512 486.172 26.6125 485.281 26.6125C484.562 26.6125 483.972 26.3684 483.511 25.8801C483.05 25.3918 482.82 24.7629 482.82 23.9934C482.82 23.1731 483.072 22.5012 483.576 21.9778C484.084 21.4504 484.732 21.1868 485.521 21.1868C486.349 21.1868 486.994 21.5149 487.455 22.1711C487.92 22.8235 488.152 23.7747 488.152 25.0247C488.152 26.5754 487.851 27.7708 487.25 28.6106C486.648 29.4504 485.812 29.8704 484.742 29.8704C484.179 29.8704 483.691 29.7766 483.277 29.5891ZM485.433 22.0012C484.968 22.0012 484.58 22.177 484.267 22.5286C483.959 22.8762 483.804 23.3196 483.804 23.8586C483.804 24.4485 483.957 24.9133 484.261 25.2532C484.566 25.5891 484.978 25.7571 485.498 25.7571C485.951 25.7571 486.334 25.6028 486.646 25.2942C486.963 24.9856 487.121 24.6086 487.121 24.1633C487.121 23.5266 486.965 23.0071 486.652 22.6047C486.34 22.2024 485.933 22.0012 485.433 22.0012Z" fill="black"/>
<path d="M483.817 10.2072H479.065V9.3634H480.964V2.83606L479.018 3.41614V2.50208L481.925 1.61731V9.3634H483.817V10.2072ZM490.286 10.2072H485.534V9.3634H487.432V2.83606L485.487 3.41614V2.50208L488.393 1.61731V9.3634H490.286V10.2072Z" fill="black"/>
</svg>
