<svg width="818" height="10" viewBox="0 0 818 10" fill="none" xmlns="http://www.w3.org/2000/svg">
<path d="M0.0270996 1.20942L32.0467 2.95481H54.5605C57.5623 4.1184 64.2664 6.27104 67.0681 5.57288H82.5776L102.59 9.5H155.122C159.958 8.77276 171.232 7.75461 177.636 9.5H207.154C214.658 8.19096 230.568 5.57288 234.17 5.57288H258.685L273.695 3.39115H327.227C335.566 1.20942 353.944 -1.845 360.748 3.39115C370.921 4.84566 392.567 7.1438 397.771 4.70026C402.273 3.39117 413.38 1.29664 421.785 3.39115H505.336C510.673 3.10028 523.447 3.21668 531.853 6.0093H588.387H615.904C625.076 4.70021 646.022 2.34387 656.429 3.39115L687.948 1.20949C690.116 1.20949 696.053 1.20949 702.457 1.20949C704.458 2.66393 709.261 5.13648 712.463 3.39115H727.973C733.643 3.82752 746.084 5.31114 750.486 7.75468C755.99 8.77282 769.098 10.1982 777.503 7.75468C787.843 5.4275 810.223 0.773142 817.027 0.773142" stroke="black"/>
</svg>
