<svg width="442" height="83" viewBox="0 0 442 83" fill="none" xmlns="http://www.w3.org/2000/svg">
<path d="M0.177246 59.7346C4.67215 58.0302 15.2601 55.644 21.6529 59.7346C28.1455 58.8049 45.5258 57.5034 63.1059 59.7346L93.5714 64.383L116.046 67.172C117.544 67.6368 122.539 68.9384 130.529 70.4259C137.522 70.7358 152.604 71.7274 156.999 73.2149L169.985 76.4687H186.965C191.46 76.7786 201.749 78.0492 206.943 80.6523C212.603 82.0468 227.819 83.9991 243.401 80.6523C245.732 80.0325 252.192 77.3984 259.383 71.8204L299.338 46.2543L326.807 27.6608L345.785 16.5047L360.269 6.74311C365.763 3.02441 380.946 -2.92551 397.727 3.02441C399.391 3.3343 404.519 5.34858 411.711 10.9266C412.876 12.1662 415.906 14.6453 418.703 14.6453C421.2 14.4904 427.193 15.0172 431.189 18.364C432.187 19.6036 435.584 21.8968 441.177 21.1531" stroke="black"/>
</svg>
