<svg width="251" height="46" viewBox="0 0 251 46" fill="none" xmlns="http://www.w3.org/2000/svg">
<path d="M0.408936 45.5L5.89796 37.7043C4.89995 34.4943 6.29716 26.3317 19.87 19.3615C22.5314 16.6101 30.0497 10.9238 38.8321 10.1901H72.7642C82.7443 8.81435 104.601 6.88836 112.185 10.1901C113.849 11.7187 120.369 14.3173 133.143 12.483C134.807 9.88441 140.629 5.23758 150.609 7.43868C160.422 3.46446 182.046 -3.01658 190.03 2.85304L200.01 4.2288C203.835 4.38163 211.786 5.23758 212.984 7.43868C214.481 10.1901 221.467 8.8145 221.966 8.8145C222.465 8.8145 230.948 6.06278 236.936 10.1901H250.409" stroke="black"/>
</svg>
