<svg width="239" height="26" viewBox="0 0 239 26" fill="none" xmlns="http://www.w3.org/2000/svg">
<path d="M0.360352 25.5C3.19368 22.5552 10.7604 16.0146 18.3604 13.4107C20.1937 13.5657 24.3604 12.8528 26.3604 8.76101C30.527 7.2111 39.2604 4.57626 40.8604 6.43615C42.8604 8.76101 44.8604 6.43615 57.8604 6.43615C67.1937 3.49139 88.0604 -1.28222 96.8604 3.18144C99.527 3.18144 106.16 3.18144 111.36 3.18144C121.194 2.09653 142.66 0.577668 149.86 3.18144C154.527 3.18144 164.96 3.18144 169.36 3.18144C173.86 2.40648 184.06 0.949574 188.86 1.32155C190.527 1.78652 195.16 2.43748 200.36 1.32155C203.86 0.701589 212.26 -0.166357 217.86 1.32155C222.36 3.49133 232.76 7.55193 238.36 6.43615" stroke="black"/>
</svg>
