<svg width="737" height="283" viewBox="0 0 737 283" fill="none" xmlns="http://www.w3.org/2000/svg">
<path d="M409.746 186.797C417.574 187.881 434.829 191.349 441.225 196.553C442.391 196.243 445.322 196.367 447.72 199.34C450.718 203.057 449.719 196.088 460.212 206.309C460.212 206.619 461.811 208.26 468.206 212.348C471.204 212.813 477.6 214.95 479.199 219.782L487.693 229.538L496.687 237.436C505.514 248.276 524.368 272.465 529.165 282.5M736.024 153.347C733.226 155.577 728.529 152.418 726.531 150.559C719.336 142.383 710.209 141.268 706.544 141.732C703.746 142.847 699.716 141.268 698.05 140.339C694.053 133.277 682.727 130.273 677.564 129.653C670.369 130.025 663.241 122.994 660.576 119.432C654.979 111.628 647.251 108.437 644.087 107.818C638.89 102.986 633.261 101.778 631.096 101.778C623.101 99.9201 614.107 95.7389 610.61 93.8806H597.618L588.625 96.2035C578.631 99.1768 571.47 102.708 569.138 104.101C555.147 110.048 536.66 120.516 529.165 125.007C521.97 129.096 514.841 132.596 512.176 133.834C504.981 135.693 494.855 133.06 490.691 131.512C486.294 127.052 472.204 121.91 465.708 119.897C460.911 116.552 438.726 110.451 428.234 107.818L414.743 101.778L398.254 90.1639C394.656 85.3323 380.433 74.8328 373.771 70.187C370.972 65.727 363.944 62.7537 360.779 61.8245C349.587 48.4446 339.46 44.1705 335.796 43.7059L330.3 39.9893C322.705 33.671 311.146 28.3748 306.316 26.5165C299.921 21.6848 278.668 12.4242 268.842 8.39786C259.648 3.56623 229.369 1.11944 215.378 0.5H210.881H182.401L163.413 10.7208C127.438 10.7208 127.938 28.8394 122.941 29.304C118.944 29.6756 112.615 39.0601 109.95 43.7059L73.4745 101.778M163.413 10.7208C139.03 8.86244 93.2944 11.4951 73.4745 13.0437H28.0054C20.8103 10.442 6.35345 10.411 0.0244141 10.7208" stroke="black"/>
</svg>
