<svg width="187" height="300" viewBox="0 0 187 300" fill="none" xmlns="http://www.w3.org/2000/svg">
<path d="M4.74048 0.0883789C5.40715 3.8029 7.64048 11.5105 11.2405 12.6249C15.7405 14.0178 23.7405 22.8398 23.7405 33.5191C26.5738 34.7572 31.8405 39.3694 30.2405 47.9128C34.5738 51.163 43.0405 61.2851 42.2405 75.7717C41.7405 80.7244 42.3405 91.4656 48.7405 94.8086C52.4071 96.8207 60.2405 103.073 62.2405 111.988C61.2405 113.381 59.8405 116.724 62.2405 118.953C65.2405 121.739 66.2405 126.382 67.7405 134.74M6.40485 6.12447C7.90485 7.67219 18.6405 12.6249 30.2405 12.6249C33.5738 10.4581 42.4405 7.42456 51.2405 12.6249C52.2405 14.0178 55.8405 16.7109 62.2405 16.3394H71.2405C72.7405 18.1967 77.6405 21.354 85.2405 19.1253C86.9071 18.3514 92.5405 17.268 101.74 19.1253C102.574 21.9112 108.04 27.0186 123.24 25.1614L132.74 27.483C134.407 28.2568 139.04 29.3402 144.24 27.483C146.407 26.2448 152.24 24.5113 158.24 27.483H186.24L150.74 43.2697C138.74 45.8698 130.407 54.568 127.74 58.5921C123.74 61.9351 117.074 67.414 114.24 69.7356C109.44 68.9927 101.907 79.0219 98.7405 84.1294C79.1405 108.274 69.9071 127.93 67.7405 134.74C58.1405 142.169 46.7405 165.075 42.2405 175.599C38.7405 182.1 34.0738 185.195 33.2405 186.743C32.4071 188.291 31.7405 189.529 27.2405 192.779C23.028 195.822 17.2405 198.815 15.2405 208.566L14.2405 221.567L11.2405 235.496C5.24048 252.583 6.74048 264.284 9.24048 272.177L11.2405 285.178C11.2405 300.036 3.90715 300.191 0.240479 298.179" stroke="black"/>
</svg>
