<svg width="197" height="185" viewBox="0 0 197 185" fill="none" xmlns="http://www.w3.org/2000/svg">
<path d="M0.210693 16.7769L6.19543 13.997V7.51044C10.8502 3.49498 22.1547 -3.05332 30.1344 2.87721C31.4643 3.80386 33.5257 6.0278 31.1318 7.51044C29.6356 7.51045 26.4438 8.25177 25.6458 11.217C25.5074 11.9887 25.5303 13.4029 26.4634 13.8544M26.4634 13.8544C26.6509 13.9451 26.875 13.997 27.142 13.997C28.7379 13.997 27.3546 13.9019 26.4634 13.8544ZM26.4634 13.8544C28.352 13.1891 32.4285 12.2577 33.6255 13.8544C35.4541 14.0564 39.2112 14.831 39.6102 16.3136C40.6076 17.0858 42.802 18.1669 43.6 16.3136C44.398 14.4603 43.6 15.5414 43.1013 16.3136C42.4363 13.1179 42.5028 7.43918 48.0886 10.2904L52.5771 12.1437C54.4058 13.2248 58.0631 16.1283 58.0631 19.0935C58.7281 20.0202 61.1552 21.6881 65.544 20.9468H78.5109C83.8307 21.5646 95.5674 23.5414 99.9562 26.5067C104.777 28.6689 115.616 34.1052 120.404 38.5531C124.56 42.723 132.872 51.5261 132.872 53.3794C132.872 55.696 143.346 69.1324 141.849 75.6189L143.346 83.4954L158.307 109.905L159.804 115.001L163.295 132.608L171.773 147.434C174.932 152.376 181.349 163.002 181.748 165.967L196.211 184.5" stroke="black"/>
</svg>
