<svg width="436" height="232" viewBox="0 0 436 232" fill="none" xmlns="http://www.w3.org/2000/svg">
<path d="M63.3069 79.4557C74.8201 83.329 98.9478 99.0698 103.353 131.047C103.353 134.921 105.055 143.225 111.863 145.456C117.703 149.019 130.885 157.726 136.891 164.047M98.8477 189.146C106.857 181.554 128.882 164.698 152.91 158.005H194.958C205.971 160.949 232.301 166.278 249.521 164.047C257.03 165.132 273.448 166.371 279.055 162.653C284.061 161.259 296.275 158.377 305.085 158.005H349.135C355.476 162.498 371.661 171.205 385.677 170.09C393.853 173.343 412.508 181.523 421.719 188.216M421.719 188.216C425.056 195.498 431.53 211.642 430.729 217.963C430.729 220.752 431.63 227.352 435.234 231.442M421.719 188.216C419.939 184.126 413.969 167.301 411.207 159.399L402.697 148.709L393.687 137.09C391.684 133.371 386.178 127.484 383.675 125.005L368.658 111.526L344.13 90.1459C326.109 77.5966 315.597 73.4135 314.596 72.4839C313.795 71.7402 293.905 64.1177 284.061 60.3994L258.531 51.1036C249.721 48.129 233.502 45.2163 226.494 44.1318H212.478C207.272 44.5036 197.294 42.4276 192.956 41.3431C188.15 39.8557 173.934 38.5543 167.427 38.0895L148.405 34.836C141.597 32.605 127.881 31.1177 121.874 30.6529C110.261 29.5374 99.3483 24.9205 95.3437 22.7515C82.1285 15.3149 59.4691 13.7656 49.7913 13.9205C40.9812 13.9205 35.4415 10.8219 33.7729 9.27264C30.1688 5.55433 17.9214 4.31489 12.2482 4.15996H7.24243L0.234375 0.44165" stroke="black"/>
</svg>
