<svg width="91" height="26" viewBox="0 0 91 26" fill="none" xmlns="http://www.w3.org/2000/svg">
<path d="M8.7738e-05 8.40234V0H2.39071C3.11728 0 3.69345 0.177734 4.11923 0.533203C4.54501 0.888672 4.7579 1.35156 4.7579 1.92188C4.7579 2.39844 4.62899 2.8125 4.37118 3.16406C4.11337 3.51562 3.7579 3.76562 3.30478 3.91406V3.9375C3.87118 4.00391 4.32431 4.21875 4.66415 4.58203C5.00399 4.94141 5.17392 5.41016 5.17392 5.98828C5.17392 6.70703 4.9161 7.28906 4.40048 7.73438C3.88485 8.17969 3.23446 8.40234 2.44931 8.40234H8.7738e-05ZM0.984463 0.890625V3.60352H1.99228C2.53134 3.60352 2.95517 3.47461 3.26376 3.2168C3.57235 2.95508 3.72665 2.58789 3.72665 2.11523C3.72665 1.29883 3.18954 0.890625 2.11532 0.890625H0.984463ZM0.984463 4.48828V7.51172H2.3204C2.89853 7.51172 3.34579 7.375 3.6622 7.10156C3.98251 6.82812 4.14267 6.45312 4.14267 5.97656C4.14267 4.98438 3.46688 4.48828 2.11532 4.48828H0.984463ZM9.6179 8.54297C8.73118 8.54297 8.0222 8.26367 7.49095 7.70508C6.9636 7.14258 6.69993 6.39844 6.69993 5.47266C6.69993 4.46484 6.97532 3.67773 7.5261 3.11133C8.07688 2.54492 8.82103 2.26172 9.75853 2.26172C10.6531 2.26172 11.3503 2.53711 11.8503 3.08789C12.3542 3.63867 12.6062 4.40234 12.6062 5.37891C12.6062 6.33594 12.3347 7.10352 11.7917 7.68164C11.2527 8.25586 10.5281 8.54297 9.6179 8.54297ZM9.68821 3.07031C9.07103 3.07031 8.58274 3.28125 8.22337 3.70312C7.86399 4.12109 7.68431 4.69922 7.68431 5.4375C7.68431 6.14844 7.86595 6.70898 8.22923 7.11914C8.59251 7.5293 9.07884 7.73438 9.68821 7.73438C10.3093 7.73438 10.7859 7.5332 11.1179 7.13086C11.4538 6.72852 11.6218 6.15625 11.6218 5.41406C11.6218 4.66406 11.4538 4.08594 11.1179 3.67969C10.7859 3.27344 10.3093 3.07031 9.68821 3.07031ZM13.9974 8.23242V7.28906C14.5209 7.58203 15.1322 7.72852 15.8314 7.72852C16.89 7.72852 17.4193 7.39258 17.4193 6.7207C17.4193 6.05664 16.8392 5.72461 15.6791 5.72461H15.0873V4.91016H15.6498C16.6693 4.91016 17.1791 4.59375 17.1791 3.96094C17.1791 3.69141 17.0619 3.47656 16.8275 3.31641C16.5931 3.15625 16.2728 3.07617 15.8666 3.07617C15.2845 3.07617 14.7006 3.22266 14.1146 3.51562V2.61914C14.7787 2.37695 15.3881 2.25586 15.9427 2.25586C17.4037 2.25586 18.1342 2.79297 18.1342 3.86719C18.1342 4.21484 18.0248 4.51562 17.806 4.76953C17.5912 5.01953 17.2884 5.18555 16.8978 5.26758V5.29688C17.3431 5.33203 17.7006 5.48242 17.9701 5.74805C18.2396 6.01367 18.3744 6.34961 18.3744 6.75586C18.3744 7.30273 18.1537 7.73828 17.7123 8.0625C17.2709 8.38672 16.6634 8.54883 15.89 8.54883C15.0658 8.54883 14.4349 8.44336 13.9974 8.23242ZM20.2168 8.40234V2.40234H22.8301C23.4199 2.40234 23.8848 2.5332 24.2246 2.79492C24.5684 3.05664 24.7402 3.41406 24.7402 3.86719C24.7402 4.64453 24.3574 5.11719 23.5918 5.28516C24.5098 5.40234 24.9688 5.86523 24.9688 6.67383C24.9688 7.16211 24.7793 7.57227 24.4004 7.9043C24.0254 8.23633 23.5586 8.40234 23 8.40234H20.2168ZM21.1777 3.22266V4.91016H22.6192C23.3926 4.91016 23.7793 4.60938 23.7793 4.00781C23.7793 3.48438 23.4317 3.22266 22.7363 3.22266H21.1777ZM21.1777 5.73047V7.58203H22.8418C23.6192 7.58203 24.0078 7.26758 24.0078 6.63867C24.0078 6.0332 23.5723 5.73047 22.7012 5.73047H21.1777ZM33.5026 8.40234H32.5534V2.40234H33.5026V8.40234ZM26.9401 8.40234V2.40234H27.901V4.70508H29.5182C30.1315 4.70508 30.6178 4.86523 30.9772 5.18555C31.3405 5.50586 31.5221 5.95312 31.5221 6.52734C31.5221 7.10547 31.3405 7.5625 30.9772 7.89844C30.6139 8.23438 30.1549 8.40234 29.6002 8.40234H26.9401ZM27.901 5.53125V7.58203H29.3424C30.1393 7.58203 30.5377 7.23047 30.5377 6.52734C30.5377 5.86328 30.1354 5.53125 29.3307 5.53125H27.901ZM43.472 8.40234H35.8196V2.40234H36.7806V7.58203H39.1712V2.40234H40.1263V7.58203H42.511V2.40234H43.472V8.40234ZM50.5995 5.64258H46.3632C46.3788 6.31055 46.5585 6.82617 46.9023 7.18945C47.246 7.55273 47.7187 7.73438 48.3202 7.73438C48.996 7.73438 49.6171 7.51172 50.1835 7.06641V7.96875C49.6562 8.35156 48.9589 8.54297 48.0917 8.54297C47.2441 8.54297 46.5781 8.27148 46.0937 7.72852C45.6093 7.18164 45.3671 6.41406 45.3671 5.42578C45.3671 4.49219 45.6308 3.73242 46.1581 3.14648C46.6894 2.55664 47.3476 2.26172 48.1327 2.26172C48.9179 2.26172 49.5253 2.51562 49.955 3.02344C50.3847 3.53125 50.5995 4.23633 50.5995 5.13867V5.64258ZM49.6152 4.82812C49.6113 4.27344 49.4765 3.8418 49.2109 3.5332C48.9492 3.22461 48.5839 3.07031 48.1152 3.07031C47.662 3.07031 47.2773 3.23242 46.9609 3.55664C46.6445 3.88086 46.4492 4.30469 46.3749 4.82812H49.6152ZM57.399 8.40234H56.4381V5.67773H53.3795V8.40234H52.4185V2.40234H53.3795V4.86328H56.4381V2.40234H57.399V8.40234ZM64.6848 8.40234H63.7238V5.67773H60.6652V8.40234H59.7043V2.40234H60.6652V4.86328H63.7238V2.40234H64.6848V8.40234ZM69.4979 8.54297C68.6112 8.54297 67.9022 8.26367 67.3709 7.70508C66.8436 7.14258 66.5799 6.39844 66.5799 5.47266C66.5799 4.46484 66.8553 3.67773 67.4061 3.11133C67.9569 2.54492 68.701 2.26172 69.6385 2.26172C70.5331 2.26172 71.2303 2.53711 71.7303 3.08789C72.2342 3.63867 72.4862 4.40234 72.4862 5.37891C72.4862 6.33594 72.2147 7.10352 71.6717 7.68164C71.1327 8.25586 70.4081 8.54297 69.4979 8.54297ZM69.5682 3.07031C68.951 3.07031 68.4627 3.28125 68.1034 3.70312C67.744 4.12109 67.5643 4.69922 67.5643 5.4375C67.5643 6.14844 67.7459 6.70898 68.1092 7.11914C68.4725 7.5293 68.9588 7.73438 69.5682 7.73438C70.1893 7.73438 70.6659 7.5332 70.9979 7.13086C71.3338 6.72852 71.5018 6.15625 71.5018 5.41406C71.5018 4.66406 71.3338 4.08594 70.9979 3.67969C70.6659 3.27344 70.1893 3.07031 69.5682 3.07031ZM78.4712 8.12695C78.0102 8.4043 77.4634 8.54297 76.8306 8.54297C75.9751 8.54297 75.2837 8.26562 74.7563 7.71094C74.2329 7.15234 73.9712 6.42969 73.9712 5.54297C73.9712 4.55469 74.2544 3.76172 74.8208 3.16406C75.3872 2.5625 76.1431 2.26172 77.0884 2.26172C77.6157 2.26172 78.0806 2.35938 78.4829 2.55469V3.53906C78.0376 3.22656 77.561 3.07031 77.0532 3.07031C76.4399 3.07031 75.936 3.29102 75.5415 3.73242C75.1509 4.16992 74.9556 4.74609 74.9556 5.46094C74.9556 6.16406 75.1391 6.71875 75.5063 7.125C75.8774 7.53125 76.3735 7.73438 76.9946 7.73438C77.5181 7.73438 78.0102 7.56055 78.4712 7.21289V8.12695ZM84.0519 3.22266H82.2531V8.40234H81.2921V3.22266H79.4874V2.40234H84.0519V3.22266ZM85.5662 8.40234V2.40234H86.5271V4.70508H88.1443C88.7576 4.70508 89.2439 4.86523 89.6033 5.18555C89.9666 5.50586 90.1482 5.95312 90.1482 6.52734C90.1482 7.10547 89.9666 7.5625 89.6033 7.89844C89.24 8.23438 88.781 8.40234 88.2263 8.40234H85.5662ZM86.5271 5.53125V7.58203H87.9685C88.7654 7.58203 89.1638 7.23047 89.1638 6.52734C89.1638 5.86328 88.7615 5.53125 87.9568 5.53125H86.5271ZM21.5795 22.0508C20.9584 22.3789 20.1849 22.543 19.2591 22.543C18.0638 22.543 17.1068 22.1582 16.3881 21.3887C15.6693 20.6191 15.3099 19.6094 15.3099 18.3594C15.3099 17.0156 15.7142 15.9297 16.5228 15.1016C17.3314 14.2734 18.3568 13.8594 19.599 13.8594C20.3959 13.8594 21.056 13.9746 21.5795 14.2051V15.2539C20.9779 14.918 20.3138 14.75 19.5873 14.75C18.6224 14.75 17.8392 15.0723 17.2377 15.7168C16.64 16.3613 16.3412 17.2227 16.3412 18.3008C16.3412 19.3242 16.6205 20.1406 17.1791 20.75C17.7416 21.3555 18.4779 21.6582 19.3881 21.6582C20.2318 21.6582 20.9623 21.4707 21.5795 21.0957V22.0508ZM28.5488 22.4023H27.6817V17.6152C27.5957 17.7832 27.4649 18.0195 27.2891 18.3242L24.5176 22.4023H23.5215V16.4023H24.4004V21.1309C24.4473 21.0176 24.5488 20.8242 24.7051 20.5508L27.5527 16.4023H28.5488V22.4023ZM34.6217 17.2227H32.8229V22.4023H31.862V17.2227H30.0573V16.4023H34.6217V17.2227ZM41.1165 22.4023H39.7688L37.1204 19.5195H37.097V22.4023H36.136V16.4023H37.097V19.1504H37.1204L39.6399 16.4023H40.8997L38.1165 19.2969L41.1165 22.4023ZM47.2363 16.4023L44.4765 23.3633C43.9843 24.6055 43.2929 25.2266 42.4023 25.2266C42.1523 25.2266 41.9433 25.2012 41.7753 25.1504V24.2891C41.9824 24.3594 42.1718 24.3945 42.3437 24.3945C42.8281 24.3945 43.1913 24.1055 43.4335 23.5273L43.914 22.3906L41.5702 16.4023H42.6367L44.2597 21.0195C44.2792 21.0781 44.3202 21.2305 44.3827 21.4766H44.4179C44.4374 21.3828 44.4765 21.2344 44.5351 21.0312L46.2402 16.4023H47.2363ZM53.6138 22.4023H52.6529V19.6777H49.5943V22.4023H48.6334V16.4023H49.5943V18.8633H52.6529V16.4023H53.6138V22.4023ZM60.2141 22.4023H59.2531V21.4648H59.2297C58.8117 22.1836 58.1965 22.543 57.384 22.543C56.7863 22.543 56.3176 22.3848 55.9777 22.0684C55.6418 21.752 55.4738 21.332 55.4738 20.8086C55.4738 19.6875 56.134 19.0352 57.4543 18.8516L59.2531 18.5996C59.2531 17.5801 58.841 17.0703 58.0168 17.0703C57.2942 17.0703 56.6418 17.3164 56.0598 17.8086V16.8242C56.6496 16.4492 57.3293 16.2617 58.0988 16.2617C59.509 16.2617 60.2141 17.0078 60.2141 18.5V22.4023ZM59.2531 19.3672L57.8059 19.5664C57.3606 19.6289 57.0246 19.7402 56.7981 19.9004C56.5715 20.0566 56.4582 20.3359 56.4582 20.7383C56.4582 21.0312 56.5617 21.2715 56.7688 21.459C56.9797 21.6426 57.259 21.7344 57.6067 21.7344C58.0832 21.7344 58.4758 21.5684 58.7844 21.2363C59.0969 20.9004 59.2531 20.4766 59.2531 19.9648V19.3672ZM65.7186 17.2227H63.3456V22.4023H62.3846V16.4023H65.7186V17.2227ZM71.27 22.4023H70.3091V21.4648H70.2856C69.8677 22.1836 69.2524 22.543 68.4399 22.543C67.8423 22.543 67.3735 22.3848 67.0337 22.0684C66.6977 21.752 66.5298 21.332 66.5298 20.8086C66.5298 19.6875 67.1899 19.0352 68.5102 18.8516L70.3091 18.5996C70.3091 17.5801 69.897 17.0703 69.0727 17.0703C68.3501 17.0703 67.6977 17.3164 67.1157 17.8086V16.8242C67.7056 16.4492 68.3852 16.2617 69.1548 16.2617C70.5649 16.2617 71.27 17.0078 71.27 18.5V22.4023ZM70.3091 19.3672L68.8618 19.5664C68.4165 19.6289 68.0806 19.7402 67.854 19.9004C67.6274 20.0566 67.5142 20.3359 67.5142 20.7383C67.5142 21.0312 67.6177 21.2715 67.8247 21.459C68.0356 21.6426 68.3149 21.7344 68.6626 21.7344C69.1392 21.7344 69.5317 21.5684 69.8403 21.2363C70.1528 20.9004 70.3091 20.4766 70.3091 19.9648V19.3672ZM78.421 22.4023H77.0734L74.4249 19.5195H74.4015V22.4023H73.4406V16.4023H74.4015V19.1504H74.4249L76.9445 16.4023H78.2042L75.421 19.2969L78.421 22.4023Z" fill="black"/>
</svg>
