<svg width="91" height="26" viewBox="0 0 91 26" fill="none" xmlns="http://www.w3.org/2000/svg">
<path d="M-8.7738e-05 8.40234V0H2.39054C3.1171 0 3.69327 0.177734 4.11905 0.533203C4.54483 0.888672 4.75772 1.35156 4.75772 1.92188C4.75772 2.39844 4.62882 2.8125 4.37101 3.16406C4.11319 3.51562 3.75772 3.76562 3.3046 3.91406V3.9375C3.87101 4.00391 4.32413 4.21875 4.66397 4.58203C5.00382 4.94141 5.17374 5.41016 5.17374 5.98828C5.17374 6.70703 4.91593 7.28906 4.4003 7.73438C3.88468 8.17969 3.23429 8.40234 2.44913 8.40234H-8.7738e-05ZM0.984287 0.890625V3.60352H1.9921C2.53116 3.60352 2.95499 3.47461 3.26358 3.2168C3.57218 2.95508 3.72647 2.58789 3.72647 2.11523C3.72647 1.29883 3.18937 0.890625 2.11515 0.890625H0.984287ZM0.984287 4.48828V7.51172H2.32022C2.89835 7.51172 3.34562 7.375 3.66202 7.10156C3.98233 6.82812 4.14249 6.45312 4.14249 5.97656C4.14249 4.98438 3.46671 4.48828 2.11515 4.48828H0.984287ZM9.61772 8.54297C8.73101 8.54297 8.02202 8.26367 7.49077 7.70508C6.96343 7.14258 6.69976 6.39844 6.69976 5.47266C6.69976 4.46484 6.97515 3.67773 7.52593 3.11133C8.07671 2.54492 8.82085 2.26172 9.75835 2.26172C10.6529 2.26172 11.3501 2.53711 11.8501 3.08789C12.3541 3.63867 12.606 4.40234 12.606 5.37891C12.606 6.33594 12.3345 7.10352 11.7916 7.68164C11.2525 8.25586 10.5279 8.54297 9.61772 8.54297ZM9.68804 3.07031C9.07085 3.07031 8.58257 3.28125 8.22319 3.70312C7.86382 4.12109 7.68413 4.69922 7.68413 5.4375C7.68413 6.14844 7.86577 6.70898 8.22905 7.11914C8.59233 7.5293 9.07866 7.73438 9.68804 7.73438C10.3091 7.73438 10.7857 7.5332 11.1177 7.13086C11.4537 6.72852 11.6216 6.15625 11.6216 5.41406C11.6216 4.66406 11.4537 4.08594 11.1177 3.67969C10.7857 3.27344 10.3091 3.07031 9.68804 3.07031ZM13.9973 8.23242V7.28906C14.5207 7.58203 15.132 7.72852 15.8312 7.72852C16.8898 7.72852 17.4191 7.39258 17.4191 6.7207C17.4191 6.05664 16.8391 5.72461 15.6789 5.72461H15.0871V4.91016H15.6496C16.6691 4.91016 17.1789 4.59375 17.1789 3.96094C17.1789 3.69141 17.0617 3.47656 16.8273 3.31641C16.593 3.15625 16.2726 3.07617 15.8664 3.07617C15.2844 3.07617 14.7004 3.22266 14.1144 3.51562V2.61914C14.7785 2.37695 15.3879 2.25586 15.9426 2.25586C17.4035 2.25586 18.134 2.79297 18.134 3.86719C18.134 4.21484 18.0246 4.51562 17.8059 4.76953C17.591 5.01953 17.2883 5.18555 16.8976 5.26758V5.29688C17.343 5.33203 17.7004 5.48242 17.9699 5.74805C18.2394 6.01367 18.3742 6.34961 18.3742 6.75586C18.3742 7.30273 18.1535 7.73828 17.7121 8.0625C17.2707 8.38672 16.6633 8.54883 15.8898 8.54883C15.0656 8.54883 14.4348 8.44336 13.9973 8.23242ZM20.2166 8.40234V2.40234H22.8299C23.4198 2.40234 23.8846 2.5332 24.2244 2.79492C24.5682 3.05664 24.7401 3.41406 24.7401 3.86719C24.7401 4.64453 24.3573 5.11719 23.5916 5.28516C24.5096 5.40234 24.9686 5.86523 24.9686 6.67383C24.9686 7.16211 24.7791 7.57227 24.4002 7.9043C24.0252 8.23633 23.5584 8.40234 22.9998 8.40234H20.2166ZM21.1776 3.22266V4.91016H22.619C23.3924 4.91016 23.7791 4.60938 23.7791 4.00781C23.7791 3.48438 23.4315 3.22266 22.7362 3.22266H21.1776ZM21.1776 5.73047V7.58203H22.8416C23.619 7.58203 24.0076 7.26758 24.0076 6.63867C24.0076 6.0332 23.5721 5.73047 22.701 5.73047H21.1776ZM33.5024 8.40234H32.5532V2.40234H33.5024V8.40234ZM26.9399 8.40234V2.40234H27.9009V4.70508H29.518C30.1313 4.70508 30.6176 4.86523 30.977 5.18555C31.3403 5.50586 31.5219 5.95312 31.5219 6.52734C31.5219 7.10547 31.3403 7.5625 30.977 7.89844C30.6137 8.23438 30.1548 8.40234 29.6001 8.40234H26.9399ZM27.9009 5.53125V7.58203H29.3423C30.1391 7.58203 30.5376 7.23047 30.5376 6.52734C30.5376 5.86328 30.1352 5.53125 29.3305 5.53125H27.9009ZM43.4718 8.40234H35.8194V2.40234H36.7804V7.58203H39.171V2.40234H40.1261V7.58203H42.5108V2.40234H43.4718V8.40234ZM50.5994 5.64258H46.363C46.3787 6.31055 46.5583 6.82617 46.9021 7.18945C47.2458 7.55273 47.7185 7.73438 48.3201 7.73438C48.9958 7.73438 49.6169 7.51172 50.1833 7.06641V7.96875C49.656 8.35156 48.9587 8.54297 48.0916 8.54297C47.2439 8.54297 46.5779 8.27148 46.0935 7.72852C45.6091 7.18164 45.3669 6.41406 45.3669 5.42578C45.3669 4.49219 45.6306 3.73242 46.158 3.14648C46.6892 2.55664 47.3474 2.26172 48.1326 2.26172C48.9177 2.26172 49.5251 2.51562 49.9548 3.02344C50.3845 3.53125 50.5994 4.23633 50.5994 5.13867V5.64258ZM49.615 4.82812C49.6111 4.27344 49.4763 3.8418 49.2107 3.5332C48.949 3.22461 48.5837 3.07031 48.115 3.07031C47.6619 3.07031 47.2771 3.23242 46.9607 3.55664C46.6443 3.88086 46.449 4.30469 46.3748 4.82812H49.615ZM57.3988 8.40234H56.4379V5.67773H53.3793V8.40234H52.4184V2.40234H53.3793V4.86328H56.4379V2.40234H57.3988V8.40234ZM64.6846 8.40234H63.7237V5.67773H60.6651V8.40234H59.7041V2.40234H60.6651V4.86328H63.7237V2.40234H64.6846V8.40234ZM69.4977 8.54297C68.611 8.54297 67.902 8.26367 67.3708 7.70508C66.8434 7.14258 66.5798 6.39844 66.5798 5.47266C66.5798 4.46484 66.8551 3.67773 67.4059 3.11133C67.9567 2.54492 68.7009 2.26172 69.6384 2.26172C70.5329 2.26172 71.2301 2.53711 71.7301 3.08789C72.2341 3.63867 72.486 4.40234 72.486 5.37891C72.486 6.33594 72.2145 7.10352 71.6716 7.68164C71.1325 8.25586 70.4079 8.54297 69.4977 8.54297ZM69.568 3.07031C68.9509 3.07031 68.4626 3.28125 68.1032 3.70312C67.7438 4.12109 67.5641 4.69922 67.5641 5.4375C67.5641 6.14844 67.7458 6.70898 68.1091 7.11914C68.4723 7.5293 68.9587 7.73438 69.568 7.73438C70.1891 7.73438 70.6657 7.5332 70.9977 7.13086C71.3337 6.72852 71.5016 6.15625 71.5016 5.41406C71.5016 4.66406 71.3337 4.08594 70.9977 3.67969C70.6657 3.27344 70.1891 3.07031 69.568 3.07031ZM78.471 8.12695C78.0101 8.4043 77.4632 8.54297 76.8304 8.54297C75.9749 8.54297 75.2835 8.26562 74.7562 7.71094C74.2327 7.15234 73.971 6.42969 73.971 5.54297C73.971 4.55469 74.2542 3.76172 74.8206 3.16406C75.387 2.5625 76.1429 2.26172 77.0882 2.26172C77.6155 2.26172 78.0804 2.35938 78.4827 2.55469V3.53906C78.0374 3.22656 77.5609 3.07031 77.053 3.07031C76.4398 3.07031 75.9359 3.29102 75.5413 3.73242C75.1507 4.16992 74.9554 4.74609 74.9554 5.46094C74.9554 6.16406 75.139 6.71875 75.5062 7.125C75.8773 7.53125 76.3734 7.73438 76.9944 7.73438C77.5179 7.73438 78.0101 7.56055 78.471 7.21289V8.12695ZM84.0517 3.22266H82.2529V8.40234H81.2919V3.22266H79.4873V2.40234H84.0517V3.22266ZM85.566 8.40234V2.40234H86.5269V4.70508H88.1441C88.7574 4.70508 89.2437 4.86523 89.6031 5.18555C89.9664 5.50586 90.148 5.95312 90.148 6.52734C90.148 7.10547 89.9664 7.5625 89.6031 7.89844C89.2398 8.23438 88.7809 8.40234 88.2262 8.40234H85.566ZM86.5269 5.53125V7.58203H87.9684C88.7652 7.58203 89.1637 7.23047 89.1637 6.52734C89.1637 5.86328 88.7613 5.53125 87.9566 5.53125H86.5269ZM30.5568 14.8906H28.131V22.4023H27.1466V14.8906H24.7267V14H30.5568V14.8906ZM36.2078 16.4023L33.448 23.3633C32.9559 24.6055 32.2644 25.2266 31.3738 25.2266C31.1238 25.2266 30.9148 25.2012 30.7469 25.1504V24.2891C30.9539 24.3594 31.1434 24.3945 31.3152 24.3945C31.7996 24.3945 32.1629 24.1055 32.4051 23.5273L32.8855 22.3906L30.5418 16.4023H31.6082L33.2312 21.0195C33.2508 21.0781 33.2918 21.2305 33.3543 21.4766H33.3894C33.409 21.3828 33.448 21.2344 33.5066 21.0312L35.2117 16.4023H36.2078ZM42.5854 22.4023H41.2377L38.5893 19.5195H38.5658V22.4023H37.6049V16.4023H38.5658V19.1504H38.5893L41.1088 16.4023H42.3686L39.5854 19.2969L42.5854 22.4023ZM51.5821 22.4023H43.9298V16.4023H44.8907V21.582H47.2813V16.4023H48.2364V21.582H50.6212V16.4023H51.5821V22.4023ZM58.6628 16.4023L55.903 23.3633C55.4109 24.6055 54.7194 25.2266 53.8288 25.2266C53.5788 25.2266 53.3698 25.2012 53.2019 25.1504V24.2891C53.4089 24.3594 53.5984 24.3945 53.7702 24.3945C54.2546 24.3945 54.6179 24.1055 54.8601 23.5273L55.3405 22.3906L52.9968 16.4023H54.0632L55.6862 21.0195C55.7058 21.0781 55.7468 21.2305 55.8093 21.4766H55.8444C55.864 21.3828 55.903 21.2344 55.9616 21.0312L57.6667 16.4023H58.6628ZM65.0404 22.4023H63.6927L61.0443 19.5195H61.0209V22.4023H60.0599V16.4023H61.0209V19.1504H61.0443L63.5638 16.4023H64.8236L62.0404 19.2969L65.0404 22.4023Z" fill="black"/>
</svg>
