<svg width="48" height="9" viewBox="0 0 48 9" fill="none" xmlns="http://www.w3.org/2000/svg">
<path d="M3.33405 3.36328H0.961006V8.54297H6.86646e-05V2.54297H3.33405V3.36328ZM5.5278 8.67188C5.34812 8.67188 5.19382 8.60742 5.06491 8.47852C4.93991 8.34961 4.87741 8.19531 4.87741 8.01562C4.87741 7.83594 4.93991 7.68164 5.06491 7.55273C5.19382 7.41992 5.34812 7.35352 5.5278 7.35352C5.7114 7.35352 5.86765 7.41992 5.99655 7.55273C6.12546 7.68164 6.18991 7.83594 6.18991 8.01562C6.18991 8.19531 6.12546 8.34961 5.99655 8.47852C5.86765 8.60742 5.7114 8.67188 5.5278 8.67188ZM18.5049 8.54297H17.1338L13.8877 4.69922C13.7666 4.55469 13.6924 4.45703 13.6651 4.40625H13.6416V8.54297H12.6573V0.140625H13.6416V4.08984H13.6651C13.7198 4.00391 13.794 3.9082 13.8877 3.80273L17.0283 0.140625H18.253L14.6494 4.17188L18.5049 8.54297ZM21.3929 0L20.5726 2.61328H19.8812L20.5316 0H21.3929ZM30.2457 8.54297H29.2965V2.54297H30.2457V8.54297ZM23.6832 8.54297V2.54297H24.6441V4.8457H26.2613C26.8746 4.8457 27.3609 5.00586 27.7203 5.32617C28.0836 5.64648 28.2652 6.09375 28.2652 6.66797C28.2652 7.24609 28.0836 7.70312 27.7203 8.03906C27.357 8.375 26.898 8.54297 26.3433 8.54297H23.6832ZM24.6441 5.67188V7.72266H26.0855C26.8824 7.72266 27.2808 7.37109 27.2808 6.66797C27.2808 6.00391 26.8785 5.67188 26.0738 5.67188H24.6441ZM37.9032 8.54297H36.9423V5.81836H33.8837V8.54297H32.9227V2.54297H33.8837V5.00391H36.9423V2.54297H37.9032V8.54297ZM41.7521 0L40.9318 2.61328H40.2404L40.8908 0H41.7521ZM47.7162 8.54297H46.7553V7.60547H46.7319C46.3139 8.32422 45.6987 8.68359 44.8862 8.68359C44.2885 8.68359 43.8198 8.52539 43.4799 8.20898C43.144 7.89258 42.976 7.47266 42.976 6.94922C42.976 5.82812 43.6362 5.17578 44.9565 4.99219L46.7553 4.74023C46.7553 3.7207 46.3432 3.21094 45.519 3.21094C44.7963 3.21094 44.144 3.45703 43.5619 3.94922V2.96484C44.1518 2.58984 44.8315 2.40234 45.601 2.40234C47.0112 2.40234 47.7162 3.14844 47.7162 4.64062V8.54297ZM46.7553 5.50781L45.308 5.70703C44.8627 5.76953 44.5268 5.88086 44.3002 6.04102C44.0737 6.19727 43.9604 6.47656 43.9604 6.87891C43.9604 7.17188 44.0639 7.41211 44.2709 7.59961C44.4819 7.7832 44.7612 7.875 45.1088 7.875C45.5854 7.875 45.978 7.70898 46.2866 7.37695C46.5991 7.04102 46.7553 6.61719 46.7553 6.10547V5.50781Z" fill="black"/>
</svg>
