<svg width="47" height="9" viewBox="0 0 47 9" fill="none" xmlns="http://www.w3.org/2000/svg">
<path d="M3.33402 3.22266H0.960976V8.40234H3.8147e-05V2.40234H3.33402V3.22266ZM5.40777 8.53125C5.22809 8.53125 5.07379 8.4668 4.94488 8.33789C4.81988 8.20898 4.75738 8.05469 4.75738 7.875C4.75738 7.69531 4.81988 7.54102 4.94488 7.41211C5.07379 7.2793 5.22809 7.21289 5.40777 7.21289C5.59137 7.21289 5.74762 7.2793 5.87652 7.41211C6.00543 7.54102 6.06988 7.69531 6.06988 7.875C6.06988 8.05469 6.00543 8.20898 5.87652 8.33789C5.74762 8.4668 5.59137 8.53125 5.40777 8.53125ZM18.6136 8.40234H17.6293V4.57031H13.2816V8.40234H12.2972V0H13.2816V3.68555H17.6293V0H18.6136V8.40234ZM25.5828 8.40234H24.6218V7.46484H24.5984C24.1804 8.18359 23.5652 8.54297 22.7527 8.54297C22.155 8.54297 21.6863 8.38477 21.3464 8.06836C21.0105 7.75195 20.8425 7.33203 20.8425 6.80859C20.8425 5.6875 21.5027 5.03516 22.823 4.85156L24.6218 4.59961C24.6218 3.58008 24.2097 3.07031 23.3855 3.07031C22.6629 3.07031 22.0105 3.31641 21.4285 3.80859V2.82422C22.0183 2.44922 22.698 2.26172 23.4675 2.26172C24.8777 2.26172 25.5828 3.00781 25.5828 4.5V8.40234ZM24.6218 5.36719L23.1746 5.56641C22.7293 5.62891 22.3933 5.74023 22.1668 5.90039C21.9402 6.05664 21.8269 6.33594 21.8269 6.73828C21.8269 7.03125 21.9304 7.27148 22.1375 7.45898C22.3484 7.64258 22.6277 7.73438 22.9754 7.73438C23.4519 7.73438 23.8445 7.56836 24.1531 7.23633C24.4656 6.90039 24.6218 6.47656 24.6218 5.96484V5.36719ZM32.0832 8.12695C31.6222 8.4043 31.0753 8.54297 30.4425 8.54297C29.5871 8.54297 28.8957 8.26562 28.3683 7.71094C27.8449 7.15234 27.5832 6.42969 27.5832 5.54297C27.5832 4.55469 27.8664 3.76172 28.4328 3.16406C28.9992 2.5625 29.755 2.26172 30.7003 2.26172C31.2277 2.26172 31.6925 2.35938 32.0949 2.55469V3.53906C31.6496 3.22656 31.173 3.07031 30.6652 3.07031C30.0519 3.07031 29.548 3.29102 29.1535 3.73242C28.7628 4.16992 28.5675 4.74609 28.5675 5.46094C28.5675 6.16406 28.7511 6.71875 29.1183 7.125C29.4894 7.53125 29.9855 7.73438 30.6066 7.73438C31.13 7.73438 31.6222 7.56055 32.0832 7.21289V8.12695ZM39.1636 8.40234H38.2964V3.61523C38.2105 3.7832 38.0796 4.01953 37.9039 4.32422L35.1324 8.40234H34.1363V2.40234H35.0152V7.13086C35.0621 7.01758 35.1636 6.82422 35.3199 6.55078L38.1675 2.40234H39.1636V8.40234ZM46.6894 8.40234H45.3418L42.6933 5.51953H42.6699V8.40234H41.7089V2.40234H42.6699V5.15039H42.6933L45.2129 2.40234H46.4726L43.6894 5.29688L46.6894 8.40234Z" fill="black"/>
</svg>
