<svg width="49" height="29" viewBox="0 0 49 29" fill="none" xmlns="http://www.w3.org/2000/svg">
<path d="M24.8438 0.820312H22.4707V6H21.5098V0H24.8438V0.820312ZM25.957 6.12891C25.7773 6.12891 25.623 6.06445 25.4941 5.93555C25.3691 5.80664 25.3066 5.65234 25.3066 5.47266C25.3066 5.29297 25.3691 5.13867 25.4941 5.00977C25.623 4.87695 25.7773 4.81055 25.957 4.81055C26.1406 4.81055 26.2969 4.87695 26.4258 5.00977C26.5547 5.13867 26.6191 5.29297 26.6191 5.47266C26.6191 5.65234 26.5547 5.80664 26.4258 5.93555C26.2969 6.06445 26.1406 6.12891 25.957 6.12891ZM6.77344 26H5.78906V19.9297C5.78906 19.3828 5.80859 18.998 5.84766 18.7754H5.8125C5.73828 18.9668 5.64844 19.1426 5.54297 19.3027L1.21875 26H0V17.5977H0.984375V23.5156C0.984375 24.1484 0.96875 24.5605 0.9375 24.752H0.960938C1.04688 24.5801 1.15625 24.3926 1.28906 24.1895L5.50781 17.5977H6.77344V26ZM13.8398 26H12.8789V23.2754H9.82031V26H8.85938V20H9.82031V22.4609H12.8789V20H13.8398V26ZM19.1191 20.8203H16.7461V26H15.7852V20H19.1191V20.8203ZM24.9785 23.2402H20.7422C20.7578 23.9082 20.9375 24.4238 21.2812 24.7871C21.625 25.1504 22.0977 25.332 22.6992 25.332C23.375 25.332 23.9961 25.1094 24.5625 24.6641V25.5664C24.0352 25.9492 23.3379 26.1406 22.4707 26.1406C21.623 26.1406 20.957 25.8691 20.4727 25.3262C19.9883 24.7793 19.7461 24.0117 19.7461 23.0234C19.7461 22.0898 20.0098 21.3301 20.5371 20.7441C21.0684 20.1543 21.7266 19.8594 22.5117 19.8594C23.2969 19.8594 23.9043 20.1133 24.334 20.6211C24.7637 21.1289 24.9785 21.834 24.9785 22.7363V23.2402ZM23.9941 22.4258C23.9902 21.8711 23.8555 21.4395 23.5898 21.1309C23.3281 20.8223 22.9629 20.668 22.4941 20.668C22.041 20.668 21.6562 20.8301 21.3398 21.1543C21.0234 21.4785 20.8281 21.9023 20.7539 22.4258H23.9941ZM29.7715 20.8203H27.3984V26H26.4375V20H29.7715V20.8203ZM32.0156 25.1328H31.9922V28.7598H31.0312V20H31.9922V21.0547H32.0156C32.4883 20.2578 33.1797 19.8594 34.0898 19.8594C34.8633 19.8594 35.4668 20.1289 35.9004 20.668C36.334 21.2031 36.5508 21.9219 36.5508 22.8242C36.5508 23.8281 36.3066 24.6328 35.8184 25.2383C35.3301 25.8398 34.6621 26.1406 33.8145 26.1406C33.0371 26.1406 32.4375 25.8047 32.0156 25.1328ZM31.9922 22.7129V23.5508C31.9922 24.0469 32.1523 24.4688 32.4727 24.8164C32.7969 25.1602 33.207 25.332 33.7031 25.332C34.2852 25.332 34.7402 25.1094 35.0684 24.6641C35.4004 24.2188 35.5664 23.5996 35.5664 22.8066C35.5664 22.1387 35.4121 21.6152 35.1035 21.2363C34.7949 20.8574 34.377 20.668 33.8496 20.668C33.291 20.668 32.8418 20.8633 32.502 21.2539C32.1621 21.6406 31.9922 22.127 31.9922 22.7129ZM42.8613 20L40.1016 26.9609C39.6094 28.2031 38.918 28.8242 38.0273 28.8242C37.7773 28.8242 37.5684 28.7988 37.4004 28.748V27.8867C37.6074 27.957 37.7969 27.9922 37.9688 27.9922C38.4531 27.9922 38.8164 27.7031 39.0586 27.125L39.5391 25.9883L37.1953 20H38.2617L39.8848 24.6172C39.9043 24.6758 39.9453 24.8281 40.0078 25.0742H40.043C40.0625 24.9805 40.1016 24.832 40.1602 24.6289L41.8652 20H42.8613ZM48.8789 26H47.5312L44.8828 23.1172H44.8594V26H43.8984V20H44.8594V22.748H44.8828L47.4023 20H48.6621L45.8789 22.8945L48.8789 26Z" fill="black"/>
</svg>
