<svg width="75" height="12" viewBox="0 0 75 12" fill="none" xmlns="http://www.w3.org/2000/svg">
<path d="M3.33401 3.36328H0.960968V8.54297H3.05176e-05V2.54297H3.33401V3.36328ZM4.92776 8.67188C4.74808 8.67188 4.59378 8.60742 4.46487 8.47852C4.33987 8.34961 4.27737 8.19531 4.27737 8.01562C4.27737 7.83594 4.33987 7.68164 4.46487 7.55273C4.59378 7.41992 4.74808 7.35352 4.92776 7.35352C5.11136 7.35352 5.26761 7.41992 5.39651 7.55273C5.52542 7.68164 5.58987 7.83594 5.58987 8.01562C5.58987 8.19531 5.52542 8.34961 5.39651 8.47852C5.26761 8.60742 5.11136 8.67188 4.92776 8.67188ZM16.7049 8.54297H15.3338L12.0877 4.69922C11.9666 4.55469 11.8924 4.45703 11.865 4.40625H11.8416V8.54297H10.8572V0.140625H11.8416V4.08984H11.865C11.9197 4.00391 11.9939 3.9082 12.0877 3.80273L15.2283 0.140625H16.4529L12.8494 4.17188L16.7049 8.54297ZM22.8366 8.54297H21.9694V3.75586C21.8835 3.92383 21.7526 4.16016 21.5768 4.46484L18.8053 8.54297H17.8092V2.54297H18.6882V7.27148C18.735 7.1582 18.8366 6.96484 18.9928 6.69141L21.8405 2.54297H22.8366V8.54297ZM28.2359 3.36328H25.8628V8.54297H24.9019V2.54297H28.2359V3.36328ZM30.7992 0L29.9789 2.61328H29.2875L29.9379 0H30.7992ZM37.47 8.54297H36.5091V5.81836H33.4505V8.54297H32.4896V2.54297H33.4505V5.00391H36.5091V2.54297H37.47V8.54297ZM44.5627 8.54297H43.6955V3.75586C43.6096 3.92383 43.4787 4.16016 43.3029 4.46484L40.5314 8.54297H39.5353V2.54297H40.4142V7.27148C40.4611 7.1582 40.5627 6.96484 40.7189 6.69141L43.5666 2.54297H44.5627V8.54297ZM51.6085 8.54297H50.2608L47.6124 5.66016H47.5889V8.54297H46.628V2.54297H47.5889V5.29102H47.6124L50.1319 2.54297H51.3917L48.6085 5.4375L51.6085 8.54297ZM53.8964 0L53.0761 2.61328H52.3847L53.0351 0H53.8964ZM59.3543 3.36328H57.5555V8.54297H56.5946V3.36328H54.7899V2.54297H59.3543V3.36328ZM65.6501 2.54297L62.8903 9.50391C62.3982 10.7461 61.7067 11.3672 60.8161 11.3672C60.5661 11.3672 60.3571 11.3418 60.1892 11.291V10.4297C60.3962 10.5 60.5857 10.5352 60.7575 10.5352C61.2419 10.5352 61.6052 10.2461 61.8474 9.66797L62.3278 8.53125L59.9841 2.54297H61.0505L62.6735 7.16016C62.6931 7.21875 62.7341 7.37109 62.7966 7.61719H62.8317C62.8513 7.52344 62.8903 7.375 62.9489 7.17188L64.654 2.54297H65.6501ZM71.7877 8.54297H70.44L67.7916 5.66016H67.7682V8.54297H66.8072V2.54297H67.7682V5.29102H67.7916L70.3111 2.54297H71.5709L68.7877 5.4375L71.7877 8.54297ZM74.0757 0L73.2553 2.61328H72.5639L73.2143 0H74.0757Z" fill="black"/>
</svg>
