<svg width="122" height="12" viewBox="0 0 122 12" fill="none" xmlns="http://www.w3.org/2000/svg">
<path d="M6.37506 8.54297H5.37896V1.05469H0.990292V8.54297H5.72205e-05V0.140625H6.37506V8.54297ZM12.8408 8.54297H11.8798V7.60547H11.8564C11.4384 8.32422 10.8232 8.68359 10.0107 8.68359C9.41303 8.68359 8.94428 8.52539 8.60443 8.20898C8.26849 7.89258 8.10053 7.47266 8.10053 6.94922C8.10053 5.82812 8.76068 5.17578 10.081 4.99219L11.8798 4.74023C11.8798 3.7207 11.4677 3.21094 10.6435 3.21094C9.92084 3.21094 9.26849 3.45703 8.68646 3.94922V2.96484C9.27631 2.58984 9.95599 2.40234 10.7255 2.40234C12.1357 2.40234 12.8408 3.14844 12.8408 4.64062V8.54297ZM11.8798 5.50781L10.4326 5.70703C9.98724 5.76953 9.65131 5.88086 9.42474 6.04102C9.19818 6.19727 9.0849 6.47656 9.0849 6.87891C9.0849 7.17188 9.18842 7.41211 9.39545 7.59961C9.60639 7.7832 9.88568 7.875 10.2333 7.875C10.7099 7.875 11.1025 7.70898 11.4111 7.37695C11.7236 7.04102 11.8798 6.61719 11.8798 6.10547V5.50781ZM21.2518 8.54297H20.3026V3.59766C20.2166 3.84766 20.0838 4.21484 19.9041 4.69922L18.4041 8.54297H17.5428L15.9959 4.69922C15.9139 4.49219 15.7811 4.125 15.5975 3.59766V8.54297H14.7713V2.54297H15.9959L17.5779 6.45703C17.6912 6.74219 17.8358 7.13672 18.0115 7.64062L18.4393 6.48047L19.9744 2.54297H21.2518V8.54297ZM27.4187 8.54297H26.4577V6.05859H25.655C25.2683 6.05859 24.9167 6.37109 24.6003 6.99609L23.821 8.54297H22.7077L23.7155 6.69141C23.9499 6.26172 24.2331 5.97852 24.5651 5.8418C24.0964 5.7793 23.739 5.60742 23.4929 5.32617C23.2468 5.04492 23.1237 4.69336 23.1237 4.27148C23.1237 3.74023 23.3151 3.32031 23.6979 3.01172C24.0847 2.69922 24.6257 2.54297 25.321 2.54297H27.4187V8.54297ZM26.4577 5.25586V3.36328H25.321C24.5124 3.36328 24.1081 3.66992 24.1081 4.2832C24.1081 4.93164 24.5007 5.25586 25.2858 5.25586H26.4577ZM33.2398 3.36328H31.441V8.54297H30.4801V3.36328H28.6754V2.54297H33.2398V3.36328ZM39.4946 8.54297H38.5336V5.81836H35.4751V8.54297H34.5141V2.54297H35.4751V5.00391H38.5336V2.54297H39.4946V8.54297ZM46.5872 8.54297H45.7201V3.75586C45.6341 3.92383 45.5033 4.16016 45.3275 4.46484L42.556 8.54297H41.5599V2.54297H42.4388V7.27148C42.4857 7.1582 42.5872 6.96484 42.7435 6.69141L45.5912 2.54297H46.5872V8.54297ZM53.633 8.54297H52.2854L49.6369 5.66016H49.6135V8.54297H48.6526V2.54297H49.6135V5.29102H49.6369L52.1565 2.54297H53.4162L50.633 5.4375L53.633 8.54297ZM63.998 8.19141C63.3769 8.51953 62.6035 8.68359 61.6777 8.68359C60.4824 8.68359 59.5254 8.29883 58.8066 7.5293C58.0879 6.75977 57.7285 5.75 57.7285 4.5C57.7285 3.15625 58.1328 2.07031 58.9414 1.24219C59.75 0.414062 60.7754 0 62.0176 0C62.8144 0 63.4746 0.115234 63.998 0.345703V1.39453C63.3965 1.05859 62.7324 0.890625 62.0058 0.890625C61.041 0.890625 60.2578 1.21289 59.6562 1.85742C59.0586 2.50195 58.7597 3.36328 58.7597 4.44141C58.7597 5.46484 59.039 6.28125 59.5976 6.89062C60.1601 7.49609 60.8965 7.79883 61.8066 7.79883C62.6504 7.79883 63.3808 7.61133 63.998 7.23633V8.19141ZM66.034 8.67188C65.8544 8.67188 65.7001 8.60742 65.5712 8.47852C65.4462 8.34961 65.3837 8.19531 65.3837 8.01562C65.3837 7.83594 65.4462 7.68164 65.5712 7.55273C65.7001 7.41992 65.8544 7.35352 66.034 7.35352C66.2176 7.35352 66.3739 7.41992 66.5028 7.55273C66.6317 7.68164 66.6962 7.83594 66.6962 8.01562C66.6962 8.19531 66.6317 8.34961 66.5028 8.47852C66.3739 8.60742 66.2176 8.67188 66.034 8.67188ZM79.0238 10.7988H78.1156V8.54297H72.098V10.7988H71.1898V7.65234H71.8402C72.4027 6.625 72.8793 5.42578 73.2699 4.05469C73.6644 2.67969 73.8871 1.375 73.9379 0.140625H77.8929V7.65234H79.0238V10.7988ZM76.9086 7.65234V1.03125H74.7758C74.7133 1.99609 74.4984 3.125 74.1312 4.41797C73.764 5.71094 73.3558 6.78906 72.9066 7.65234H76.9086ZM85.4572 5.7832H81.2208C81.2365 6.45117 81.4162 6.9668 81.7599 7.33008C82.1037 7.69336 82.5763 7.875 83.1779 7.875C83.8537 7.875 84.4747 7.65234 85.0412 7.20703V8.10938C84.5138 8.49219 83.8165 8.68359 82.9494 8.68359C82.1017 8.68359 81.4357 8.41211 80.9513 7.86914C80.4669 7.32227 80.2247 6.55469 80.2247 5.56641C80.2247 4.63281 80.4884 3.87305 81.0158 3.28711C81.547 2.69727 82.2052 2.40234 82.9904 2.40234C83.7755 2.40234 84.3829 2.65625 84.8126 3.16406C85.2423 3.67188 85.4572 4.37695 85.4572 5.2793V5.7832ZM84.4728 4.96875C84.4689 4.41406 84.3341 3.98242 84.0685 3.67383C83.8068 3.36523 83.4415 3.21094 82.9728 3.21094C82.5197 3.21094 82.1349 3.37305 81.8185 3.69727C81.5021 4.02148 81.3068 4.44531 81.2326 4.96875H84.4728ZM95.1249 8.54297H93.8241L91.1405 5.57812H91.1171V8.54297H90.203V5.57812H90.1796L87.4901 8.54297H86.2069L89.1835 5.44922L86.3886 2.54297H87.6132L90.1796 5.34961H90.203V2.54297H91.1171V5.34961H91.1405L93.7069 2.54297H94.9433L92.1366 5.44922L95.1249 8.54297ZM101.33 8.54297H100.369V5.81836H97.3102V8.54297H96.3493V2.54297H97.3102V5.00391H100.369V2.54297H101.33V8.54297ZM108.337 5.7832H104.101C104.117 6.45117 104.296 6.9668 104.64 7.33008C104.984 7.69336 105.456 7.875 106.058 7.875C106.734 7.875 107.355 7.65234 107.921 7.20703V8.10938C107.394 8.49219 106.697 8.68359 105.83 8.68359C104.982 8.68359 104.316 8.41211 103.831 7.86914C103.347 7.32227 103.105 6.55469 103.105 5.56641C103.105 4.63281 103.369 3.87305 103.896 3.28711C104.427 2.69727 105.085 2.40234 105.871 2.40234C106.656 2.40234 107.263 2.65625 107.693 3.16406C108.122 3.67188 108.337 4.37695 108.337 5.2793V5.7832ZM107.353 4.96875C107.349 4.41406 107.214 3.98242 106.949 3.67383C106.687 3.36523 106.322 3.21094 105.853 3.21094C105.4 3.21094 105.015 3.37305 104.699 3.69727C104.382 4.02148 104.187 4.44531 104.113 4.96875H107.353ZM110.036 8.54297V2.54297H112.65C113.239 2.54297 113.704 2.67383 114.044 2.93555C114.388 3.19727 114.56 3.55469 114.56 4.00781C114.56 4.78516 114.177 5.25781 113.411 5.42578C114.329 5.54297 114.788 6.00586 114.788 6.81445C114.788 7.30273 114.599 7.71289 114.22 8.04492C113.845 8.37695 113.378 8.54297 112.82 8.54297H110.036ZM110.997 3.36328V5.05078H112.439C113.212 5.05078 113.599 4.75 113.599 4.14844C113.599 3.625 113.251 3.36328 112.556 3.36328H110.997ZM110.997 5.87109V7.72266H112.661C113.439 7.72266 113.827 7.4082 113.827 6.7793C113.827 6.17383 113.392 5.87109 112.521 5.87109H110.997ZM121.415 2.54297L118.655 9.50391C118.163 10.7461 117.472 11.3672 116.581 11.3672C116.331 11.3672 116.122 11.3418 115.954 11.291V10.4297C116.161 10.5 116.351 10.5352 116.522 10.5352C117.007 10.5352 117.37 10.2461 117.612 9.66797L118.093 8.53125L115.749 2.54297H116.815L118.438 7.16016C118.458 7.21875 118.499 7.37109 118.561 7.61719H118.597C118.616 7.52344 118.655 7.375 118.714 7.17188L120.419 2.54297H121.415Z" fill="black"/>
</svg>
