<svg width="55" height="23" viewBox="0 0 55 23" fill="none" xmlns="http://www.w3.org/2000/svg">
<path d="M1.85934 7.6531L1.83643 7.64816L0.955058 11.1664L0.0157036 10.9639L2.14437 2.46669L3.08373 2.66921L2.82743 3.69228L2.85034 3.69722C3.50603 3.02385 4.27873 2.78307 5.16844 2.97489C5.92451 3.13789 6.44897 3.52654 6.74183 4.14082C7.03564 4.75132 7.07291 5.49421 6.85363 6.36951C6.60968 7.34332 6.17548 8.07244 5.55103 8.55685C4.92753 9.03747 4.20148 9.18846 3.37286 9.00982C2.61298 8.84599 2.10847 8.39375 1.85934 7.6531ZM2.42448 5.30078L2.22087 6.11355C2.10032 6.59478 2.15436 7.03776 2.38299 7.4425C2.6164 7.84428 2.97557 8.09744 3.46052 8.202C4.02948 8.32466 4.52845 8.20459 4.95741 7.84178C5.3902 7.47979 5.70294 6.9142 5.89564 6.145C6.05796 5.49705 6.03432 4.95679 5.82474 4.5242C5.61515 4.09161 5.25261 3.81975 4.73711 3.70861C4.19106 3.59089 3.70447 3.68567 3.27734 3.99296C2.85115 4.29647 2.56687 4.73241 2.42448 5.30078ZM8.11234 10.0196C7.93669 9.98178 7.80152 9.88674 7.70684 9.73453C7.61597 9.58314 7.59237 9.4203 7.63603 9.246C7.6797 9.07169 7.77829 8.93519 7.93181 8.8365C8.09009 8.73483 8.25706 8.70294 8.43271 8.7408C8.61218 8.7795 8.74878 8.87684 8.84252 9.03284C8.93721 9.18505 8.96272 9.34831 8.91905 9.52261C8.87539 9.69691 8.77489 9.833 8.61755 9.93087C8.46022 10.0287 8.29181 10.0583 8.11234 10.0196ZM20.1255 12.4778L18.7852 12.1889L16.546 7.77621C16.4628 7.61049 16.414 7.50012 16.3996 7.4451L16.3767 7.44016L15.3714 11.4529L14.4092 11.2454L16.451 3.09493L17.4132 3.30239L16.4536 7.13324L16.4765 7.13817C16.5508 7.06634 16.6466 6.98915 16.7639 6.9066L20.7239 4.01616L21.921 4.27425L17.4188 7.42521L20.1255 12.4778ZM27.0274 7.83136L22.6381 14.002C21.8551 15.1032 21.0283 15.56 20.1577 15.3723C19.9133 15.3196 19.7152 15.2509 19.5633 15.1663L19.7726 14.3308C19.9579 14.4426 20.1346 14.5166 20.3026 14.5529C20.7761 14.6549 21.2014 14.4511 21.5787 13.9414L22.3246 12.94L21.4887 6.63723L22.5311 6.86198L22.9957 11.6828C23.0006 11.7438 23.0036 11.9002 23.0049 12.1521L23.0393 12.1595C23.0812 12.0727 23.1554 11.9369 23.2621 11.7522L26.0537 7.62143L27.0274 7.83136ZM31.8495 15.0055L31.0018 14.8227L32.1651 10.1791C32.0403 10.3239 31.8549 10.5256 31.6091 10.7841L27.9088 14.1559L26.9351 13.946L28.3931 8.12581L29.2523 8.31104L28.1032 12.8978C28.1766 12.7978 28.3229 12.6317 28.5421 12.3993L32.3338 8.97541L33.3076 9.18534L31.8495 15.0055ZM38.6209 11.1696L36.3011 10.6694L35.0424 15.6939L34.1031 15.4913L35.5611 9.67119L38.8202 10.3738L38.6209 11.1696ZM42.7889 17.364L41.8495 17.1614L42.0773 16.252L42.0544 16.2471C41.4712 16.8562 40.7824 17.0752 39.9882 16.9039C39.404 16.778 38.9842 16.5257 38.7289 16.1472C38.4774 15.7694 38.4152 15.3267 38.5424 14.819C38.8148 13.7315 39.6187 13.2378 40.954 13.338L42.7736 13.4727C43.0214 12.4837 42.7424 11.9024 41.9367 11.7287C41.2303 11.5764 40.5328 11.6776 39.8442 12.0324L40.0834 11.0775C40.7511 10.8381 41.4611 10.7994 42.2134 10.9616C43.5918 11.2588 44.0998 12.1311 43.7372 13.5786L42.7889 17.364ZM42.5871 14.2173L41.1239 14.1055C40.6734 14.0723 40.318 14.1095 40.0576 14.2171C39.7981 14.3209 39.6195 14.5679 39.5218 14.9582C39.4506 15.2424 39.4934 15.4973 39.6502 15.7228C39.8118 15.9453 40.0625 16.0932 40.4023 16.1665C40.8682 16.2669 41.2923 16.1886 41.6747 15.9316C42.0618 15.6716 42.3175 15.2934 42.4419 14.797L42.5871 14.2173ZM49.7793 18.8711L48.4619 18.587L46.5735 15.2325L46.5506 15.2275L45.85 18.0239L44.9107 17.8214L46.3687 12.0013L47.3081 12.2038L46.6403 14.8695L46.6632 14.8744L49.7939 12.7397L51.0254 13.0052L47.6013 15.2264L49.7793 18.8711ZM54.3265 11.1169L52.8895 13.479L52.2136 13.3333L53.4845 10.9354L54.3265 11.1169Z" fill="black"/>
</svg>
