<svg width="89" height="26" viewBox="0 0 89 26" fill="none" xmlns="http://www.w3.org/2000/svg">
<path d="M33.9873 8.19141C33.3662 8.51953 32.5927 8.68359 31.667 8.68359C30.4717 8.68359 29.5146 8.29883 28.7959 7.5293C28.0771 6.75977 27.7177 5.75 27.7177 4.5C27.7177 3.15625 28.122 2.07031 28.9306 1.24219C29.7392 0.414063 30.7646 0 32.0068 0C32.8037 0 33.4638 0.115234 33.9873 0.345703V1.39453C33.3857 1.05859 32.7217 0.890625 31.9951 0.890625C31.0302 0.890625 30.247 1.21289 29.6455 1.85742C29.0478 2.50195 28.749 3.36328 28.749 4.44141C28.749 5.46484 29.0283 6.28125 29.5869 6.89062C30.1494 7.49609 30.8857 7.79883 31.7959 7.79883C32.6396 7.79883 33.3701 7.61133 33.9873 7.23633V8.19141ZM40.9098 8.54297H39.5621L36.9137 5.66016H36.8902V8.54297H35.9293V2.54297H36.8902V5.29102H36.9137L39.4332 2.54297H40.693L37.9098 5.4375L40.9098 8.54297ZM46.5491 8.54297H45.5881V7.60547H45.5647C45.1467 8.32422 44.5315 8.68359 43.719 8.68359C43.1213 8.68359 42.6526 8.52539 42.3127 8.20898C41.9768 7.89258 41.8088 7.47266 41.8088 6.94922C41.8088 5.82812 42.469 5.17578 43.7893 4.99219L45.5881 4.74023C45.5881 3.7207 45.176 3.21094 44.3518 3.21094C43.6292 3.21094 42.9768 3.45703 42.3948 3.94922V2.96484C42.9846 2.58984 43.6643 2.40234 44.4338 2.40234C45.844 2.40234 46.5491 3.14844 46.5491 4.64062V8.54297ZM45.5881 5.50781L44.1409 5.70703C43.6956 5.76953 43.3596 5.88086 43.1331 6.04102C42.9065 6.19727 42.7932 6.47656 42.7932 6.87891C42.7932 7.17188 42.8967 7.41211 43.1038 7.59961C43.3147 7.7832 43.594 7.875 43.9417 7.875C44.4182 7.875 44.8108 7.70898 45.1194 7.37695C45.4319 7.04102 45.5881 6.61719 45.5881 6.10547V5.50781ZM53.0966 8.54297H52.1415V3.35742H50.747C50.5868 5.29883 50.3114 6.66211 49.9208 7.44727C49.5341 8.23242 49.0126 8.625 48.3563 8.625C48.1571 8.625 47.9852 8.59766 47.8407 8.54297V7.7168C47.9774 7.78711 48.1259 7.82227 48.286 7.82227C49.1454 7.82227 49.6981 6.0625 49.9442 2.54297H53.0966V8.54297ZM59.7027 8.54297H58.7417V7.60547H58.7183C58.3003 8.32422 57.6851 8.68359 56.8726 8.68359C56.2749 8.68359 55.8062 8.52539 55.4663 8.20898C55.1304 7.89258 54.9624 7.47266 54.9624 6.94922C54.9624 5.82812 55.6226 5.17578 56.9429 4.99219L58.7417 4.74023C58.7417 3.7207 58.3296 3.21094 57.5054 3.21094C56.7827 3.21094 56.1304 3.45703 55.5484 3.94922V2.96484C56.1382 2.58984 56.8179 2.40234 57.5874 2.40234C58.9976 2.40234 59.7027 3.14844 59.7027 4.64062V8.54297ZM58.7417 5.50781L57.2945 5.70703C56.8492 5.76953 56.5132 5.88086 56.2867 6.04102C56.0601 6.19727 55.9468 6.47656 55.9468 6.87891C55.9468 7.17188 56.0503 7.41211 56.2574 7.59961C56.4683 7.7832 56.7476 7.875 57.0952 7.875C57.5718 7.875 57.9644 7.70898 58.273 7.37695C58.5855 7.04102 58.7417 6.61719 58.7417 6.10547V5.50781ZM6.31649 22.543H5.33212V18.7109H0.984463V22.543H8.7738e-05V14.1406H0.984463V17.8262H5.33212V14.1406H6.31649V22.543ZM13.0456 22.543H12.0847V21.6055H12.0613C11.6433 22.3242 11.0281 22.6836 10.2156 22.6836C9.6179 22.6836 9.14915 22.5254 8.80931 22.209C8.47337 21.8926 8.3054 21.4727 8.3054 20.9492C8.3054 19.8281 8.96556 19.1758 10.2859 18.9922L12.0847 18.7402C12.0847 17.7207 11.6726 17.2109 10.8484 17.2109C10.1257 17.2109 9.47337 17.457 8.89134 17.9492V16.9648C9.48118 16.5898 10.1609 16.4023 10.9304 16.4023C12.3406 16.4023 13.0456 17.1484 13.0456 18.6406V22.543ZM12.0847 19.5078L10.6374 19.707C10.1921 19.7695 9.85618 19.8809 9.62962 20.041C9.40306 20.1973 9.28977 20.4766 9.28977 20.8789C9.28977 21.1719 9.39329 21.4121 9.60032 21.5996C9.81126 21.7832 10.0906 21.875 10.4382 21.875C10.9148 21.875 11.3074 21.709 11.6159 21.377C11.9284 21.041 12.0847 20.6172 12.0847 20.1055V19.5078ZM20.1967 22.543H19.2357V17.3633H16.1771V22.543H15.2162V16.543H20.1967V22.543ZM26.7969 22.543H25.8359V21.6055H25.8125C25.3945 22.3242 24.7793 22.6836 23.9668 22.6836C23.3692 22.6836 22.9004 22.5254 22.5606 22.209C22.2246 21.8926 22.0567 21.4727 22.0567 20.9492C22.0567 19.8281 22.7168 19.1758 24.0371 18.9922L25.8359 18.7402C25.8359 17.7207 25.4238 17.2109 24.5996 17.2109C23.877 17.2109 23.2246 17.457 22.6426 17.9492V16.9648C23.2324 16.5898 23.9121 16.4023 24.6817 16.4023C26.0918 16.4023 26.7969 17.1484 26.7969 18.6406V22.543ZM25.8359 19.5078L24.3887 19.707C23.9434 19.7695 23.6074 19.8809 23.3809 20.041C23.1543 20.1973 23.041 20.4766 23.041 20.8789C23.041 21.1719 23.1445 21.4121 23.3516 21.5996C23.5625 21.7832 23.8418 21.875 24.1895 21.875C24.666 21.875 25.0586 21.709 25.3672 21.377C25.6797 21.041 25.8359 20.6172 25.8359 20.1055V19.5078ZM33.9479 22.543H32.987V19.8184H29.9284V22.543H28.9674V16.543H29.9284V19.0039H32.987V16.543H33.9479V22.543ZM39.5872 17.3633H37.2141V22.543H36.2532V16.543H39.5872V17.3633ZM45.1386 22.543H44.1777V21.6055H44.1542C43.7363 22.3242 43.121 22.6836 42.3085 22.6836C41.7109 22.6836 41.2421 22.5254 40.9023 22.209C40.5663 21.8926 40.3984 21.4727 40.3984 20.9492C40.3984 19.8281 41.0585 19.1758 42.3788 18.9922L44.1777 18.7402C44.1777 17.7207 43.7656 17.2109 42.9413 17.2109C42.2187 17.2109 41.5663 17.457 40.9843 17.9492V16.9648C41.5742 16.5898 42.2538 16.4023 43.0234 16.4023C44.4335 16.4023 45.1386 17.1484 45.1386 18.6406V22.543ZM44.1777 19.5078L42.7304 19.707C42.2851 19.7695 41.9492 19.8809 41.7226 20.041C41.496 20.1973 41.3827 20.4766 41.3827 20.8789C41.3827 21.1719 41.4863 21.4121 41.6933 21.5996C41.9042 21.7832 42.1835 21.875 42.5312 21.875C43.0077 21.875 43.4003 21.709 43.7089 21.377C44.0214 21.041 44.1777 20.6172 44.1777 20.1055V19.5078ZM48.2935 21.6758H48.2701V25.3027H47.3092V16.543H48.2701V17.5977H48.2935C48.7662 16.8008 49.4576 16.4023 50.3677 16.4023C51.1412 16.4023 51.7447 16.6719 52.1783 17.2109C52.6119 17.7461 52.8287 18.4648 52.8287 19.3672C52.8287 20.3711 52.5845 21.1758 52.0963 21.7812C51.608 22.3828 50.94 22.6836 50.0924 22.6836C49.315 22.6836 48.7154 22.3477 48.2935 21.6758ZM48.2701 19.2559V20.0938C48.2701 20.5898 48.4302 21.0117 48.7506 21.3594C49.0748 21.7031 49.4849 21.875 49.981 21.875C50.5631 21.875 51.0181 21.6523 51.3463 21.207C51.6783 20.7617 51.8443 20.1426 51.8443 19.3496C51.8443 18.6816 51.69 18.1582 51.3814 17.7793C51.0728 17.4004 50.6549 17.2109 50.1275 17.2109C49.5689 17.2109 49.1197 17.4062 48.7799 17.7969C48.44 18.1836 48.2701 18.6699 48.2701 19.2559ZM58.8547 22.543H57.8938V21.6055H57.8703C57.4524 22.3242 56.8371 22.6836 56.0246 22.6836C55.427 22.6836 54.9582 22.5254 54.6184 22.209C54.2824 21.8926 54.1145 21.4727 54.1145 20.9492C54.1145 19.8281 54.7746 19.1758 56.0949 18.9922L57.8938 18.7402C57.8938 17.7207 57.4817 17.2109 56.6574 17.2109C55.9348 17.2109 55.2824 17.457 54.7004 17.9492V16.9648C55.2902 16.5898 55.9699 16.4023 56.7395 16.4023C58.1496 16.4023 58.8547 17.1484 58.8547 18.6406V22.543ZM57.8938 19.5078L56.4465 19.707C56.0012 19.7695 55.6652 19.8809 55.4387 20.041C55.2121 20.1973 55.0988 20.4766 55.0988 20.8789C55.0988 21.1719 55.2024 21.4121 55.4094 21.5996C55.6203 21.7832 55.8996 21.875 56.2473 21.875C56.7238 21.875 57.1164 21.709 57.425 21.377C57.7375 21.041 57.8938 20.6172 57.8938 20.1055V19.5078ZM64.3592 17.3633H61.9862V22.543H61.0252V16.543H64.3592V17.3633ZM69.9106 22.543H68.9497V21.6055H68.9263C68.5083 22.3242 67.8931 22.6836 67.0806 22.6836C66.4829 22.6836 66.0141 22.5254 65.6743 22.209C65.3384 21.8926 65.1704 21.4727 65.1704 20.9492C65.1704 19.8281 65.8306 19.1758 67.1509 18.9922L68.9497 18.7402C68.9497 17.7207 68.5376 17.2109 67.7134 17.2109C66.9907 17.2109 66.3384 17.457 65.7563 17.9492V16.9648C66.3462 16.5898 67.0259 16.4023 67.7954 16.4023C69.2056 16.4023 69.9106 17.1484 69.9106 18.6406V22.543ZM68.9497 19.5078L67.5024 19.707C67.0571 19.7695 66.7212 19.8809 66.4946 20.041C66.2681 20.1973 66.1548 20.4766 66.1548 20.8789C66.1548 21.1719 66.2583 21.4121 66.4653 21.5996C66.6763 21.7832 66.9556 21.875 67.3032 21.875C67.7798 21.875 68.1723 21.709 68.4809 21.377C68.7934 21.041 68.9497 20.6172 68.9497 20.1055V19.5078ZM76.4581 22.543H75.5031V17.3574H74.1085C73.9484 19.2988 73.673 20.6621 73.2823 21.4473C72.8956 22.2324 72.3741 22.625 71.7179 22.625C71.5187 22.625 71.3468 22.5977 71.2023 22.543V21.7168C71.339 21.7871 71.4874 21.8223 71.6476 21.8223C72.507 21.8223 73.0597 20.0625 73.3058 16.543H76.4581V22.543ZM82.1033 17.3633H79.7302V22.543H78.7693V16.543H82.1033V17.3633ZM88.3227 19.7832H84.0863C84.102 20.4512 84.2816 20.9668 84.6254 21.3301C84.9691 21.6934 85.4418 21.875 86.0434 21.875C86.7191 21.875 87.3402 21.6523 87.9066 21.207V22.1094C87.3793 22.4922 86.682 22.6836 85.8148 22.6836C84.9672 22.6836 84.3012 22.4121 83.8168 21.8691C83.3324 21.3223 83.0902 20.5547 83.0902 19.5664C83.0902 18.6328 83.3539 17.873 83.8813 17.2871C84.4125 16.6973 85.0707 16.4023 85.8559 16.4023C86.641 16.4023 87.2484 16.6562 87.6781 17.1641C88.1078 17.6719 88.3227 18.377 88.3227 19.2793V19.7832ZM87.3383 18.9688C87.3344 18.4141 87.1996 17.9824 86.934 17.6738C86.6723 17.3652 86.307 17.2109 85.8383 17.2109C85.3852 17.2109 85.0004 17.373 84.684 17.6973C84.3676 18.0215 84.1723 18.4453 84.0981 18.9688H87.3383Z" fill="black"/>
</svg>
