<svg width="73" height="12" viewBox="0 0 73 12" fill="none" xmlns="http://www.w3.org/2000/svg">
<path d="M6.26948 8.19141C5.64839 8.51953 4.87495 8.68359 3.94917 8.68359C2.75386 8.68359 1.79683 8.29883 1.07808 7.5293C0.359325 6.75977 -4.95911e-05 5.75 -4.95911e-05 4.5C-4.95911e-05 3.15625 0.404247 2.07031 1.21284 1.24219C2.02143 0.414062 3.04683 0 4.28901 0C5.08589 0 5.74604 0.115234 6.26948 0.345703V1.39453C5.66792 1.05859 5.00386 0.890625 4.27729 0.890625C3.31245 0.890625 2.52925 1.21289 1.92768 1.85742C1.33003 2.50195 1.0312 3.36328 1.0312 4.44141C1.0312 5.46484 1.3105 6.28125 1.86909 6.89062C2.43159 7.49609 3.16792 7.79883 4.07808 7.79883C4.92183 7.79883 5.65229 7.61133 6.26948 7.23633V8.19141ZM10.5993 8.68359C9.71261 8.68359 9.00362 8.4043 8.47237 7.8457C7.94503 7.2832 7.68136 6.53906 7.68136 5.61328C7.68136 4.60547 7.95675 3.81836 8.50753 3.25195C9.05831 2.68555 9.80245 2.40234 10.74 2.40234C11.6345 2.40234 12.3317 2.67773 12.8317 3.22852C13.3357 3.7793 13.5876 4.54297 13.5876 5.51953C13.5876 6.47656 13.3161 7.24414 12.7732 7.82227C12.2341 8.39648 11.5095 8.68359 10.5993 8.68359ZM10.6696 3.21094C10.0525 3.21094 9.56417 3.42188 9.20479 3.84375C8.84542 4.26172 8.66573 4.83984 8.66573 5.57812C8.66573 6.28906 8.84737 6.84961 9.21065 7.25977C9.57393 7.66992 10.0603 7.875 10.6696 7.875C11.2907 7.875 11.7673 7.67383 12.0993 7.27148C12.4353 6.86914 12.6032 6.29688 12.6032 5.55469C12.6032 4.80469 12.4353 4.22656 12.0993 3.82031C11.7673 3.41406 11.2907 3.21094 10.6696 3.21094ZM20.3432 8.54297H19.3823V3.36328H16.3237V8.54297H15.3628V2.54297H20.3432V8.54297ZM27.509 8.54297H26.1614L23.5129 5.66016H23.4895V8.54297H22.5285V2.54297H23.4895V5.29102H23.5129L26.0324 2.54297H27.2922L24.509 5.4375L27.509 8.54297ZM33.0283 8.54297H32.0674V7.60547H32.0439C31.626 8.32422 31.0107 8.68359 30.1982 8.68359C29.6006 8.68359 29.1318 8.52539 28.792 8.20898C28.456 7.89258 28.2881 7.47266 28.2881 6.94922C28.2881 5.82812 28.9482 5.17578 30.2685 4.99219L32.0674 4.74023C32.0674 3.7207 31.6553 3.21094 30.831 3.21094C30.1084 3.21094 29.456 3.45703 28.874 3.94922V2.96484C29.4639 2.58984 30.1435 2.40234 30.9131 2.40234C32.3232 2.40234 33.0283 3.14844 33.0283 4.64062V8.54297ZM32.0674 5.50781L30.6201 5.70703C30.1748 5.76953 29.8389 5.88086 29.6123 6.04102C29.3857 6.19727 29.2724 6.47656 29.2724 6.87891C29.2724 7.17188 29.376 7.41211 29.583 7.59961C29.7939 7.7832 30.0732 7.875 30.4209 7.875C30.8974 7.875 31.29 7.70898 31.5986 7.37695C31.9111 7.04102 32.0674 6.61719 32.0674 6.10547V5.50781ZM45.5142 8.54297H44.5298V2.47266C44.5298 1.92578 44.5493 1.54102 44.5884 1.31836H44.5532C44.479 1.50977 44.3892 1.68555 44.2837 1.8457L39.9595 8.54297H38.7407V0.140625H39.7251V6.05859C39.7251 6.69141 39.7095 7.10352 39.6782 7.29492H39.7017C39.7876 7.12305 39.897 6.93555 40.0298 6.73242L44.2485 0.140625H45.5142V8.54297ZM47.8401 8.54297V2.54297H50.4534C51.0432 2.54297 51.5081 2.67383 51.8479 2.93555C52.1917 3.19727 52.3635 3.55469 52.3635 4.00781C52.3635 4.78516 51.9807 5.25781 51.2151 5.42578C52.1331 5.54297 52.5921 6.00586 52.5921 6.81445C52.5921 7.30273 52.4026 7.71289 52.0237 8.04492C51.6487 8.37695 51.1819 8.54297 50.6233 8.54297H47.8401ZM48.801 3.36328V5.05078H50.2425C51.0159 5.05078 51.4026 4.75 51.4026 4.14844C51.4026 3.625 51.055 3.36328 50.3596 3.36328H48.801ZM48.801 5.87109V7.72266H50.4651C51.2425 7.72266 51.6311 7.4082 51.6311 6.7793C51.6311 6.17383 51.1956 5.87109 50.3245 5.87109H48.801ZM55.4278 7.67578H55.4043V11.3027H54.4434V2.54297H55.4043V3.59766H55.4278C55.9004 2.80078 56.5918 2.40234 57.502 2.40234C58.2754 2.40234 58.8789 2.67188 59.3125 3.21094C59.7461 3.74609 59.9629 4.46484 59.9629 5.36719C59.9629 6.37109 59.7188 7.17578 59.2305 7.78125C58.7422 8.38281 58.0742 8.68359 57.2266 8.68359C56.4492 8.68359 55.8496 8.34766 55.4278 7.67578ZM55.4043 5.25586V6.09375C55.4043 6.58984 55.5645 7.01172 55.8848 7.35938C56.209 7.70312 56.6192 7.875 57.1153 7.875C57.6973 7.875 58.1524 7.65234 58.4805 7.20703C58.8125 6.76172 58.9785 6.14258 58.9785 5.34961C58.9785 4.68164 58.8242 4.1582 58.5157 3.7793C58.2071 3.40039 57.7891 3.21094 57.2617 3.21094C56.7032 3.21094 56.2539 3.40625 55.9141 3.79688C55.5742 4.18359 55.4043 4.66992 55.4043 5.25586ZM65.8689 8.54297H64.908V7.60547H64.8846C64.4666 8.32422 63.8514 8.68359 63.0389 8.68359C62.4412 8.68359 61.9725 8.52539 61.6326 8.20898C61.2967 7.89258 61.1287 7.47266 61.1287 6.94922C61.1287 5.82812 61.7889 5.17578 63.1092 4.99219L64.908 4.74023C64.908 3.7207 64.4959 3.21094 63.6717 3.21094C62.949 3.21094 62.2967 3.45703 61.7146 3.94922V2.96484C62.3045 2.58984 62.9842 2.40234 63.7537 2.40234C65.1639 2.40234 65.8689 3.14844 65.8689 4.64062V8.54297ZM64.908 5.50781L63.4607 5.70703C63.0154 5.76953 62.6795 5.88086 62.4529 6.04102C62.2264 6.19727 62.1131 6.47656 62.1131 6.87891C62.1131 7.17188 62.2166 7.41211 62.4236 7.59961C62.6346 7.7832 62.9139 7.875 63.2615 7.875C63.7381 7.875 64.1307 7.70898 64.4392 7.37695C64.7517 7.04102 64.908 6.61719 64.908 6.10547V5.50781ZM72.8999 8.54297H71.5523L68.9039 5.66016H68.8804V8.54297H67.9195V2.54297H68.8804V5.29102H68.9039L71.4234 2.54297H72.6832L69.8999 5.4375L72.8999 8.54297Z" fill="black"/>
</svg>
