<svg width="123" height="12" viewBox="0 0 123 12" fill="none" xmlns="http://www.w3.org/2000/svg">
<path d="M6.26957 8.19141C5.64848 8.51953 4.87504 8.68359 3.94926 8.68359C2.75394 8.68359 1.79691 8.29883 1.07816 7.5293C0.359413 6.75977 3.8147e-05 5.75 3.8147e-05 4.5C3.8147e-05 3.15625 0.404335 2.07031 1.21293 1.24219C2.02152 0.414062 3.04691 0 4.2891 0C5.08598 0 5.74613 0.115234 6.26957 0.345703V1.39453C5.66801 1.05859 5.00394 0.890625 4.27738 0.890625C3.31254 0.890625 2.52934 1.21289 1.92777 1.85742C1.33012 2.50195 1.03129 3.36328 1.03129 4.44141C1.03129 5.46484 1.31059 6.28125 1.86918 6.89062C2.43168 7.49609 3.16801 7.79883 4.07816 7.79883C4.92191 7.79883 5.65238 7.61133 6.26957 7.23633V8.19141ZM9.07598 7.67578H9.05254V11.3027H8.0916V2.54297H9.05254V3.59766H9.07598C9.54863 2.80078 10.24 2.40234 11.1502 2.40234C11.9236 2.40234 12.5271 2.67188 12.9607 3.21094C13.3943 3.74609 13.6111 4.46484 13.6111 5.36719C13.6111 6.37109 13.367 7.17578 12.8787 7.78125C12.3904 8.38281 11.7225 8.68359 10.8748 8.68359C10.0975 8.68359 9.49785 8.34766 9.07598 7.67578ZM9.05254 5.25586V6.09375C9.05254 6.58984 9.21269 7.01172 9.53301 7.35938C9.85723 7.70312 10.2674 7.875 10.7635 7.875C11.3455 7.875 11.8006 7.65234 12.1287 7.20703C12.4607 6.76172 12.6268 6.14258 12.6268 5.34961C12.6268 4.68164 12.4725 4.1582 12.1639 3.7793C11.8553 3.40039 11.4373 3.21094 10.91 3.21094C10.3514 3.21094 9.90215 3.40625 9.5623 3.79688C9.22246 4.18359 9.05254 4.66992 9.05254 5.25586ZM20.2086 5.7832H15.9722C15.9879 6.45117 16.1675 6.9668 16.5113 7.33008C16.855 7.69336 17.3277 7.875 17.9293 7.875C18.605 7.875 19.2261 7.65234 19.7925 7.20703V8.10938C19.2652 8.49219 18.5679 8.68359 17.7007 8.68359C16.8531 8.68359 16.1871 8.41211 15.7027 7.86914C15.2183 7.32227 14.9761 6.55469 14.9761 5.56641C14.9761 4.63281 15.2398 3.87305 15.7671 3.28711C16.2984 2.69727 16.9566 2.40234 17.7418 2.40234C18.5269 2.40234 19.1343 2.65625 19.564 3.16406C19.9937 3.67188 20.2086 4.37695 20.2086 5.2793V5.7832ZM19.2242 4.96875C19.2203 4.41406 19.0855 3.98242 18.8199 3.67383C18.5582 3.36523 18.1929 3.21094 17.7242 3.21094C17.2711 3.21094 16.8863 3.37305 16.5699 3.69727C16.2535 4.02148 16.0582 4.44531 15.9839 4.96875H19.2242ZM27.14 10.7285H26.3255V8.54297H21.8607V10.7285H21.0403V7.72852H21.5736C22.597 6.25195 23.1165 4.52344 23.1321 2.54297H26.2493V7.72852H27.14V10.7285ZM25.2884 7.72852V3.35742H23.9583C23.8528 4.97461 23.3978 6.43164 22.5931 7.72852H25.2884ZM33.6905 8.54297H32.7296V5.81836H29.671V8.54297H28.71V2.54297H29.671V5.00391H32.7296V2.54297H33.6905V8.54297ZM40.6981 5.7832H36.4618C36.4774 6.45117 36.6571 6.9668 37.0008 7.33008C37.3446 7.69336 37.8172 7.875 38.4188 7.875C39.0946 7.875 39.7157 7.65234 40.2821 7.20703V8.10938C39.7547 8.49219 39.0575 8.68359 38.1903 8.68359C37.3426 8.68359 36.6766 8.41211 36.1922 7.86914C35.7079 7.32227 35.4657 6.55469 35.4657 5.56641C35.4657 4.63281 35.7293 3.87305 36.2567 3.28711C36.7879 2.69727 37.4461 2.40234 38.2313 2.40234C39.0164 2.40234 39.6239 2.65625 40.0536 3.16406C40.4832 3.67188 40.6981 4.37695 40.6981 5.2793V5.7832ZM39.7137 4.96875C39.7098 4.41406 39.575 3.98242 39.3094 3.67383C39.0477 3.36523 38.6825 3.21094 38.2137 3.21094C37.7606 3.21094 37.3758 3.37305 37.0594 3.69727C36.743 4.02148 36.5477 4.44531 36.4735 4.96875H39.7137ZM47.2193 5.7832H42.983C42.9986 6.45117 43.1783 6.9668 43.5221 7.33008C43.8658 7.69336 44.3385 7.875 44.94 7.875C45.6158 7.875 46.2369 7.65234 46.8033 7.20703V8.10938C46.276 8.49219 45.5787 8.68359 44.7115 8.68359C43.8639 8.68359 43.1978 8.41211 42.7135 7.86914C42.2291 7.32227 41.9869 6.55469 41.9869 5.56641C41.9869 4.63281 42.2506 3.87305 42.7779 3.28711C43.3092 2.69727 43.9674 2.40234 44.7525 2.40234C45.5377 2.40234 46.1451 2.65625 46.5748 3.16406C47.0045 3.67188 47.2193 4.37695 47.2193 5.2793V5.7832ZM46.235 4.96875C46.2311 4.41406 46.0963 3.98242 45.8307 3.67383C45.5689 3.36523 45.2037 3.21094 44.735 3.21094C44.2818 3.21094 43.8971 3.37305 43.5807 3.69727C43.2643 4.02148 43.0689 4.44531 42.9947 4.96875H46.235ZM52.4513 8.54297V2.54297H55.0646C55.6544 2.54297 56.1193 2.67383 56.4591 2.93555C56.8028 3.19727 56.9747 3.55469 56.9747 4.00781C56.9747 4.78516 56.5919 5.25781 55.8263 5.42578C56.7443 5.54297 57.2032 6.00586 57.2032 6.81445C57.2032 7.30273 57.0138 7.71289 56.6349 8.04492C56.2599 8.37695 55.7931 8.54297 55.2345 8.54297H52.4513ZM53.4122 3.36328V5.05078H54.8536C55.6271 5.05078 56.0138 4.75 56.0138 4.14844C56.0138 3.625 55.6661 3.36328 54.9708 3.36328H53.4122ZM53.4122 5.87109V7.72266H55.0763C55.8536 7.72266 56.2423 7.4082 56.2423 6.7793C56.2423 6.17383 55.8068 5.87109 54.9357 5.87109H53.4122ZM61.5624 8.68359C60.6757 8.68359 59.9667 8.4043 59.4354 7.8457C58.9081 7.2832 58.6444 6.53906 58.6444 5.61328C58.6444 4.60547 58.9198 3.81836 59.4706 3.25195C60.0214 2.68555 60.7655 2.40234 61.703 2.40234C62.5975 2.40234 63.2948 2.67773 63.7948 3.22852C64.2987 3.7793 64.5507 4.54297 64.5507 5.51953C64.5507 6.47656 64.2792 7.24414 63.7362 7.82227C63.1971 8.39648 62.4725 8.68359 61.5624 8.68359ZM61.6327 3.21094C61.0155 3.21094 60.5272 3.42188 60.1679 3.84375C59.8085 4.26172 59.6288 4.83984 59.6288 5.57812C59.6288 6.28906 59.8104 6.84961 60.1737 7.25977C60.537 7.66992 61.0233 7.875 61.6327 7.875C62.2538 7.875 62.7304 7.67383 63.0624 7.27148C63.3983 6.86914 63.5663 6.29688 63.5663 5.55469C63.5663 4.80469 63.3983 4.22656 63.0624 3.82031C62.7304 3.41406 62.2538 3.21094 61.6327 3.21094ZM65.8219 8.37305V7.42969C66.3454 7.72266 66.9567 7.86914 67.6559 7.86914C68.7145 7.86914 69.2438 7.5332 69.2438 6.86133C69.2438 6.19727 68.6637 5.86523 67.5036 5.86523H66.9118V5.05078H67.4743C68.4938 5.05078 69.0036 4.73438 69.0036 4.10156C69.0036 3.83203 68.8864 3.61719 68.652 3.45703C68.4176 3.29688 68.0973 3.2168 67.6911 3.2168C67.109 3.2168 66.525 3.36328 65.9391 3.65625V2.75977C66.6032 2.51758 67.2125 2.39648 67.7672 2.39648C69.2282 2.39648 69.9586 2.93359 69.9586 4.00781C69.9586 4.35547 69.8493 4.65625 69.6305 4.91016C69.4157 5.16016 69.1129 5.32617 68.7223 5.4082V5.4375C69.1676 5.47266 69.525 5.62305 69.7946 5.88867C70.0641 6.1543 70.1989 6.49023 70.1989 6.89648C70.1989 7.44336 69.9782 7.87891 69.5368 8.20312C69.0954 8.52734 68.4879 8.68945 67.7145 8.68945C66.8903 8.68945 66.2594 8.58398 65.8219 8.37305ZM71.9213 8.54297V2.54297H74.5346C75.1244 2.54297 75.5893 2.67383 75.9291 2.93555C76.2729 3.19727 76.4447 3.55469 76.4447 4.00781C76.4447 4.78516 76.0619 5.25781 75.2963 5.42578C76.2143 5.54297 76.6732 6.00586 76.6732 6.81445C76.6732 7.30273 76.4838 7.71289 76.1049 8.04492C75.7299 8.37695 75.2631 8.54297 74.7045 8.54297H71.9213ZM72.8822 3.36328V5.05078H74.3236C75.0971 5.05078 75.4838 4.75 75.4838 4.14844C75.4838 3.625 75.1361 3.36328 74.4408 3.36328H72.8822ZM72.8822 5.87109V7.72266H74.5463C75.3236 7.72266 75.7123 7.4082 75.7123 6.7793C75.7123 6.17383 75.2768 5.87109 74.4057 5.87109H72.8822ZM85.0871 8.54297H84.1378V2.54297H85.0871V8.54297ZM78.5246 8.54297V2.54297H79.4855V4.8457H81.1027C81.716 4.8457 82.2023 5.00586 82.5617 5.32617C82.925 5.64648 83.1066 6.09375 83.1066 6.66797C83.1066 7.24609 82.925 7.70312 82.5617 8.03906C82.1984 8.375 81.7394 8.54297 81.1847 8.54297H78.5246ZM79.4855 5.67188V7.72266H80.9269C81.7238 7.72266 82.1222 7.37109 82.1222 6.66797C82.1222 6.00391 81.7199 5.67188 80.9152 5.67188H79.4855ZM94.9364 8.54297H87.2841V2.54297H88.245V7.72266H90.6357V2.54297H91.5907V7.72266H93.9755V2.54297H94.9364V8.54297ZM101.944 5.7832H97.7077C97.7233 6.45117 97.903 6.9668 98.2468 7.33008C98.5905 7.69336 99.0632 7.875 99.6647 7.875C100.341 7.875 100.962 7.65234 101.528 7.20703V8.10938C101.001 8.49219 100.303 8.68359 99.4362 8.68359C98.5886 8.68359 97.9225 8.41211 97.4382 7.86914C96.9538 7.32227 96.7116 6.55469 96.7116 5.56641C96.7116 4.63281 96.9753 3.87305 97.5026 3.28711C98.0339 2.69727 98.6921 2.40234 99.4772 2.40234C100.262 2.40234 100.87 2.65625 101.299 3.16406C101.729 3.67188 101.944 4.37695 101.944 5.2793V5.7832ZM100.96 4.96875C100.956 4.41406 100.821 3.98242 100.555 3.67383C100.294 3.36523 99.9284 3.21094 99.4596 3.21094C99.0065 3.21094 98.6218 3.37305 98.3054 3.69727C97.9889 4.02148 97.7936 4.44531 97.7194 4.96875H100.96ZM108.623 8.54297H107.663V5.81836H104.604V8.54297H103.643V2.54297H104.604V5.00391H107.663V2.54297H108.623V8.54297ZM115.836 8.54297H114.969V3.75586C114.883 3.92383 114.752 4.16016 114.576 4.46484L111.805 8.54297H110.809V2.54297H111.688V7.27148C111.735 7.1582 111.836 6.96484 111.992 6.69141L114.84 2.54297H115.836V8.54297ZM122.844 5.7832H118.607C118.623 6.45117 118.803 6.9668 119.146 7.33008C119.49 7.69336 119.963 7.875 120.564 7.875C121.24 7.875 121.861 7.65234 122.428 7.20703V8.10938C121.9 8.49219 121.203 8.68359 120.336 8.68359C119.488 8.68359 118.822 8.41211 118.338 7.86914C117.853 7.32227 117.611 6.55469 117.611 5.56641C117.611 4.63281 117.875 3.87305 118.402 3.28711C118.934 2.69727 119.592 2.40234 120.377 2.40234C121.162 2.40234 121.769 2.65625 122.199 3.16406C122.629 3.67188 122.844 4.37695 122.844 5.2793V5.7832ZM121.859 4.96875C121.855 4.41406 121.721 3.98242 121.455 3.67383C121.193 3.36523 120.828 3.21094 120.359 3.21094C119.906 3.21094 119.521 3.37305 119.205 3.69727C118.889 4.02148 118.693 4.44531 118.619 4.96875H121.859Z" fill="black"/>
</svg>
