<svg width="130" height="23" viewBox="0 0 130 23" fill="none" xmlns="http://www.w3.org/2000/svg">
<path d="M48.3516 0L45.7559 5.86523C45.2949 6.9043 44.8496 7.61133 44.4199 7.98633C43.9902 8.36133 43.5215 8.54883 43.0137 8.54883C42.5957 8.54883 42.2461 8.48828 41.9648 8.36719V7.37109C42.3008 7.57031 42.625 7.66992 42.9375 7.66992C43.2539 7.66992 43.5449 7.54883 43.8105 7.30664C44.0762 7.06055 44.3633 6.62891 44.6719 6.01172L41.8242 0H42.9434L44.959 4.48828C44.9941 4.5625 45.0664 4.74414 45.1758 5.0332H45.1875C45.1992 4.99805 45.2793 4.80859 45.4277 4.46484L47.2969 0H48.3516ZM53.8008 8.40234H52.8398V5.67773H49.7812V8.40234H48.8203V2.40234H49.7812V4.86328H52.8398V2.40234H53.8008V8.40234ZM62.3086 8.40234H61.3594V2.40234H62.3086V8.40234ZM55.7461 8.40234V2.40234H56.707V4.70508H58.3242C58.9375 4.70508 59.4238 4.86523 59.7832 5.18555C60.1465 5.50586 60.3281 5.95312 60.3281 6.52734C60.3281 7.10547 60.1465 7.5625 59.7832 7.89844C59.4199 8.23438 58.9609 8.40234 58.4062 8.40234H55.7461ZM56.707 5.53125V7.58203H58.1484C58.9453 7.58203 59.3438 7.23047 59.3438 6.52734C59.3438 5.86328 58.9414 5.53125 58.1367 5.53125H56.707ZM68.6484 2.40234L66.6328 5.4375L68.6133 8.40234H67.4941L66.3164 6.45703C66.2422 6.33594 66.1543 6.18359 66.0527 6H66.0293C66.0098 6.03516 65.918 6.1875 65.7539 6.45703L64.5527 8.40234H63.4453L65.4902 5.46094L63.5332 2.40234H64.6523L65.8125 4.45312C65.8984 4.60547 65.9824 4.76172 66.0645 4.92188H66.0879L67.5879 2.40234H68.6484ZM74.7539 8.40234H73.4062L70.7578 5.51953H70.7344V8.40234H69.7734V2.40234H70.7344V5.15039H70.7578L73.2773 2.40234H74.5371L71.7539 5.29688L74.7539 8.40234ZM78 8.54297C77.1133 8.54297 76.4043 8.26367 75.873 7.70508C75.3457 7.14258 75.082 6.39844 75.082 5.47266C75.082 4.46484 75.3574 3.67773 75.9082 3.11133C76.459 2.54492 77.2031 2.26172 78.1406 2.26172C79.0352 2.26172 79.7324 2.53711 80.2324 3.08789C80.7363 3.63867 80.9883 4.40234 80.9883 5.37891C80.9883 6.33594 80.7168 7.10352 80.1738 7.68164C79.6348 8.25586 78.9102 8.54297 78 8.54297ZM78.0703 3.07031C77.4531 3.07031 76.9648 3.28125 76.6055 3.70312C76.2461 4.12109 76.0664 4.69922 76.0664 5.4375C76.0664 6.14844 76.248 6.70898 76.6113 7.11914C76.9746 7.5293 77.4609 7.73438 78.0703 7.73438C78.6914 7.73438 79.168 7.5332 79.5 7.13086C79.8359 6.72852 80.0039 6.15625 80.0039 5.41406C80.0039 4.66406 79.8359 4.08594 79.5 3.67969C79.168 3.27344 78.6914 3.07031 78.0703 3.07031ZM87.5039 8.40234H86.1562L83.5078 5.51953H83.4844V8.40234H82.5234V2.40234H83.4844V5.15039H83.5078L86.0273 2.40234H87.2871L84.5039 5.29688L87.5039 8.40234ZM0 22.4023V14H2.39062C3.11719 14 3.69336 14.1777 4.11914 14.5332C4.54492 14.8887 4.75781 15.3516 4.75781 15.9219C4.75781 16.3984 4.62891 16.8125 4.37109 17.1641C4.11328 17.5156 3.75781 17.7656 3.30469 17.9141V17.9375C3.87109 18.0039 4.32422 18.2188 4.66406 18.582C5.00391 18.9414 5.17383 19.4102 5.17383 19.9883C5.17383 20.707 4.91602 21.2891 4.40039 21.7344C3.88477 22.1797 3.23438 22.4023 2.44922 22.4023H0ZM0.984375 14.8906V17.6035H1.99219C2.53125 17.6035 2.95508 17.4746 3.26367 17.2168C3.57227 16.9551 3.72656 16.5879 3.72656 16.1152C3.72656 15.2988 3.18945 14.8906 2.11523 14.8906H0.984375ZM0.984375 18.4883V21.5117H2.32031C2.89844 21.5117 3.3457 21.375 3.66211 21.1016C3.98242 20.8281 4.14258 20.4531 4.14258 19.9766C4.14258 18.9844 3.4668 18.4883 2.11523 18.4883H0.984375ZM9.25781 22.543C8.37109 22.543 7.66211 22.2637 7.13086 21.7051C6.60352 21.1426 6.33984 20.3984 6.33984 19.4727C6.33984 18.4648 6.61523 17.6777 7.16602 17.1113C7.7168 16.5449 8.46094 16.2617 9.39844 16.2617C10.293 16.2617 10.9902 16.5371 11.4902 17.0879C11.9941 17.6387 12.2461 18.4023 12.2461 19.3789C12.2461 20.3359 11.9746 21.1035 11.4316 21.6816C10.8926 22.2559 10.168 22.543 9.25781 22.543ZM9.32812 17.0703C8.71094 17.0703 8.22266 17.2812 7.86328 17.7031C7.50391 18.1211 7.32422 18.6992 7.32422 19.4375C7.32422 20.1484 7.50586 20.709 7.86914 21.1191C8.23242 21.5293 8.71875 21.7344 9.32812 21.7344C9.94922 21.7344 10.4258 21.5332 10.7578 21.1309C11.0938 20.7285 11.2617 20.1562 11.2617 19.4141C11.2617 18.6641 11.0938 18.0859 10.7578 17.6797C10.4258 17.2734 9.94922 17.0703 9.32812 17.0703ZM17.8711 22.127C17.4102 22.4043 16.8633 22.543 16.2305 22.543C15.375 22.543 14.6836 22.2656 14.1562 21.7109C13.6328 21.1523 13.3711 20.4297 13.3711 19.543C13.3711 18.5547 13.6543 17.7617 14.2207 17.1641C14.7871 16.5625 15.543 16.2617 16.4883 16.2617C17.0156 16.2617 17.4805 16.3594 17.8828 16.5547V17.5391C17.4375 17.2266 16.9609 17.0703 16.4531 17.0703C15.8398 17.0703 15.3359 17.291 14.9414 17.7324C14.5508 18.1699 14.3555 18.7461 14.3555 19.4609C14.3555 20.1641 14.5391 20.7188 14.9062 21.125C15.2773 21.5312 15.7734 21.7344 16.3945 21.7344C16.918 21.7344 17.4102 21.5605 17.8711 21.2129V22.127ZM23.0918 17.2227H21.293V22.4023H20.332V17.2227H18.5273V16.4023H23.0918V17.2227ZM26.5312 22.543C25.6445 22.543 24.9355 22.2637 24.4043 21.7051C23.877 21.1426 23.6133 20.3984 23.6133 19.4727C23.6133 18.4648 23.8887 17.6777 24.4395 17.1113C24.9902 16.5449 25.7344 16.2617 26.6719 16.2617C27.5664 16.2617 28.2637 16.5371 28.7637 17.0879C29.2676 17.6387 29.5195 18.4023 29.5195 19.3789C29.5195 20.3359 29.248 21.1035 28.7051 21.6816C28.166 22.2559 27.4414 22.543 26.5312 22.543ZM26.6016 17.0703C25.9844 17.0703 25.4961 17.2812 25.1367 17.7031C24.7773 18.1211 24.5977 18.6992 24.5977 19.4375C24.5977 20.1484 24.7793 20.709 25.1426 21.1191C25.5059 21.5293 25.9922 21.7344 26.6016 21.7344C27.2227 21.7344 27.6992 21.5332 28.0312 21.1309C28.3672 20.7285 28.5352 20.1562 28.5352 19.4141C28.5352 18.6641 28.3672 18.0859 28.0312 17.6797C27.6992 17.2734 27.2227 17.0703 26.6016 17.0703ZM35.8887 22.4023H34.9336V19.9883C34.2305 20.3711 33.582 20.5625 32.9883 20.5625C31.6445 20.5625 30.9727 19.8516 30.9727 18.4297V16.4023H31.9336V18.3828C31.9336 19.2617 32.3125 19.7012 33.0703 19.7012C33.6484 19.7012 34.2695 19.5332 34.9336 19.1973V16.4023H35.8887V22.4023ZM42.8203 22.4023H41.8594V19.6777H38.8008V22.4023H37.8398V16.4023H38.8008V18.8633H41.8594V16.4023H42.8203V22.4023ZM47.2734 22.543C46.3867 22.543 45.6777 22.2637 45.1465 21.7051C44.6191 21.1426 44.3555 20.3984 44.3555 19.4727C44.3555 18.4648 44.6309 17.6777 45.1816 17.1113C45.7324 16.5449 46.4766 16.2617 47.4141 16.2617C48.3086 16.2617 49.0059 16.5371 49.5059 17.0879C50.0098 17.6387 50.2617 18.4023 50.2617 19.3789C50.2617 20.3359 49.9902 21.1035 49.4473 21.6816C48.9082 22.2559 48.1836 22.543 47.2734 22.543ZM47.3438 17.0703C46.7266 17.0703 46.2383 17.2812 45.8789 17.7031C45.5195 18.1211 45.3398 18.6992 45.3398 19.4375C45.3398 20.1484 45.5215 20.709 45.8848 21.1191C46.248 21.5293 46.7344 21.7344 47.3438 21.7344C47.9648 21.7344 48.4414 21.5332 48.7734 21.1309C49.1094 20.7285 49.2773 20.1562 49.2773 19.4141C49.2773 18.6641 49.1094 18.0859 48.7734 17.6797C48.4414 17.2734 47.9648 17.0703 47.3438 17.0703ZM56.6191 19.6426H52.3828C52.3984 20.3105 52.5781 20.8262 52.9219 21.1895C53.2656 21.5527 53.7383 21.7344 54.3398 21.7344C55.0156 21.7344 55.6367 21.5117 56.2031 21.0664V21.9688C55.6758 22.3516 54.9785 22.543 54.1113 22.543C53.2637 22.543 52.5977 22.2715 52.1133 21.7285C51.6289 21.1816 51.3867 20.4141 51.3867 19.4258C51.3867 18.4922 51.6504 17.7324 52.1777 17.1465C52.709 16.5566 53.3672 16.2617 54.1523 16.2617C54.9375 16.2617 55.5449 16.5156 55.9746 17.0234C56.4043 17.5312 56.6191 18.2363 56.6191 19.1387V19.6426ZM55.6348 18.8281C55.6309 18.2734 55.4961 17.8418 55.2305 17.5332C54.9688 17.2246 54.6035 17.0703 54.1348 17.0703C53.6816 17.0703 53.2969 17.2324 52.9805 17.5566C52.6641 17.8809 52.4688 18.3047 52.3945 18.8281H55.6348ZM61.3711 22.4023V16.4023H63.9844C64.5742 16.4023 65.0391 16.5332 65.3789 16.7949C65.7227 17.0566 65.8945 17.4141 65.8945 17.8672C65.8945 18.6445 65.5117 19.1172 64.7461 19.2852C65.6641 19.4023 66.123 19.8652 66.123 20.6738C66.123 21.1621 65.9336 21.5723 65.5547 21.9043C65.1797 22.2363 64.7129 22.4023 64.1543 22.4023H61.3711ZM62.332 17.2227V18.9102H63.7734C64.5469 18.9102 64.9336 18.6094 64.9336 18.0078C64.9336 17.4844 64.5859 17.2227 63.8906 17.2227H62.332ZM62.332 19.7305V21.582H63.9961C64.7734 21.582 65.1621 21.2676 65.1621 20.6387C65.1621 20.0332 64.7266 19.7305 63.8555 19.7305H62.332ZM70.2422 22.543C69.3555 22.543 68.6465 22.2637 68.1152 21.7051C67.5879 21.1426 67.3242 20.3984 67.3242 19.4727C67.3242 18.4648 67.5996 17.6777 68.1504 17.1113C68.7012 16.5449 69.4453 16.2617 70.3828 16.2617C71.2773 16.2617 71.9746 16.5371 72.4746 17.0879C72.9785 17.6387 73.2305 18.4023 73.2305 19.3789C73.2305 20.3359 72.959 21.1035 72.416 21.6816C71.877 22.2559 71.1523 22.543 70.2422 22.543ZM70.3125 17.0703C69.6953 17.0703 69.207 17.2812 68.8477 17.7031C68.4883 18.1211 68.3086 18.6992 68.3086 19.4375C68.3086 20.1484 68.4902 20.709 68.8535 21.1191C69.2168 21.5293 69.7031 21.7344 70.3125 21.7344C70.9336 21.7344 71.4102 21.5332 71.7422 21.1309C72.0781 20.7285 72.2461 20.1562 72.2461 19.4141C72.2461 18.6641 72.0781 18.0859 71.7422 17.6797C71.4102 17.2734 70.9336 17.0703 70.3125 17.0703ZM74.2617 22.2324V21.2891C74.7852 21.582 75.3965 21.7285 76.0957 21.7285C77.1543 21.7285 77.6836 21.3926 77.6836 20.7207C77.6836 20.0566 77.1035 19.7246 75.9434 19.7246H75.3516V18.9102H75.9141C76.9336 18.9102 77.4434 18.5938 77.4434 17.9609C77.4434 17.6914 77.3262 17.4766 77.0918 17.3164C76.8574 17.1562 76.5371 17.0762 76.1309 17.0762C75.5488 17.0762 74.9648 17.2227 74.3789 17.5156V16.6191C75.043 16.377 75.6523 16.2559 76.207 16.2559C77.668 16.2559 78.3984 16.793 78.3984 17.8672C78.3984 18.2148 78.2891 18.5156 78.0703 18.7695C77.8555 19.0195 77.5527 19.1855 77.1621 19.2676V19.2969C77.6074 19.332 77.9648 19.4824 78.2344 19.748C78.5039 20.0137 78.6387 20.3496 78.6387 20.7559C78.6387 21.3027 78.418 21.7383 77.9766 22.0625C77.5352 22.3867 76.9277 22.5488 76.1543 22.5488C75.3301 22.5488 74.6992 22.4434 74.2617 22.2324ZM80.1211 22.4023V16.4023H82.7344C83.3242 16.4023 83.7891 16.5332 84.1289 16.7949C84.4727 17.0566 84.6445 17.4141 84.6445 17.8672C84.6445 18.6445 84.2617 19.1172 83.4961 19.2852C84.4141 19.4023 84.873 19.8652 84.873 20.6738C84.873 21.1621 84.6836 21.5723 84.3047 21.9043C83.9297 22.2363 83.4629 22.4023 82.9043 22.4023H80.1211ZM81.082 17.2227V18.9102H82.5234C83.2969 18.9102 83.6836 18.6094 83.6836 18.0078C83.6836 17.4844 83.3359 17.2227 82.6406 17.2227H81.082ZM81.082 19.7305V21.582H82.7461C83.5234 21.582 83.9121 21.2676 83.9121 20.6387C83.9121 20.0332 83.4766 19.7305 82.6055 19.7305H81.082ZM93.0469 22.4023H92.0977V16.4023H93.0469V22.4023ZM86.4844 22.4023V16.4023H87.4453V18.7051H89.0625C89.6758 18.7051 90.1621 18.8652 90.5215 19.1855C90.8848 19.5059 91.0664 19.9531 91.0664 20.5273C91.0664 21.1055 90.8848 21.5625 90.5215 21.8984C90.1582 22.2344 89.6992 22.4023 89.1445 22.4023H86.4844ZM87.4453 19.5312V21.582H88.8867C89.6836 21.582 90.082 21.2305 90.082 20.5273C90.082 19.8633 89.6797 19.5312 88.875 19.5312H87.4453ZM102.656 22.4023H95.0039V16.4023H95.9648V21.582H98.3555V16.4023H99.3105V21.582H101.695V16.4023H102.656V22.4023ZM109.424 19.6426H105.188C105.203 20.3105 105.383 20.8262 105.727 21.1895C106.07 21.5527 106.543 21.7344 107.145 21.7344C107.82 21.7344 108.441 21.5117 109.008 21.0664V21.9688C108.48 22.3516 107.783 22.543 106.916 22.543C106.068 22.543 105.402 22.2715 104.918 21.7285C104.434 21.1816 104.191 20.4141 104.191 19.4258C104.191 18.4922 104.455 17.7324 104.982 17.1465C105.514 16.5566 106.172 16.2617 106.957 16.2617C107.742 16.2617 108.35 16.5156 108.779 17.0234C109.209 17.5312 109.424 18.2363 109.424 19.1387V19.6426ZM108.439 18.8281C108.436 18.2734 108.301 17.8418 108.035 17.5332C107.773 17.2246 107.408 17.0703 106.939 17.0703C106.486 17.0703 106.102 17.2324 105.785 17.5566C105.469 17.8809 105.273 18.3047 105.199 18.8281H108.439ZM115.863 22.4023H114.902V19.6777H111.844V22.4023H110.883V16.4023H111.844V18.8633H114.902V16.4023H115.863V22.4023ZM122.836 22.4023H121.969V17.6152C121.883 17.7832 121.752 18.0195 121.576 18.3242L118.805 22.4023H117.809V16.4023H118.688V21.1309C118.734 21.0176 118.836 20.8242 118.992 20.5508L121.84 16.4023H122.836V22.4023ZM129.604 19.6426H125.367C125.383 20.3105 125.562 20.8262 125.906 21.1895C126.25 21.5527 126.723 21.7344 127.324 21.7344C128 21.7344 128.621 21.5117 129.188 21.0664V21.9688C128.66 22.3516 127.963 22.543 127.096 22.543C126.248 22.543 125.582 22.2715 125.098 21.7285C124.613 21.1816 124.371 20.4141 124.371 19.4258C124.371 18.4922 124.635 17.7324 125.162 17.1465C125.693 16.5566 126.352 16.2617 127.137 16.2617C127.922 16.2617 128.529 16.5156 128.959 17.0234C129.389 17.5312 129.604 18.2363 129.604 19.1387V19.6426ZM128.619 18.8281C128.615 18.2734 128.48 17.8418 128.215 17.5332C127.953 17.2246 127.588 17.0703 127.119 17.0703C126.666 17.0703 126.281 17.2324 125.965 17.5566C125.648 17.8809 125.453 18.3047 125.379 18.8281H128.619Z" fill="black"/>
</svg>
