<svg width="58" height="26" viewBox="0 0 58 26" fill="none" xmlns="http://www.w3.org/2000/svg">
<path d="M8.16436 0L5.56865 5.86523C5.10772 6.9043 4.6624 7.61133 4.23272 7.98633C3.80303 8.36133 3.33428 8.54883 2.82647 8.54883C2.4085 8.54883 2.05889 8.48828 1.77764 8.36719V7.37109C2.11357 7.57031 2.43779 7.66992 2.75029 7.66992C3.0667 7.66992 3.35772 7.54883 3.62334 7.30664C3.88897 7.06055 4.17607 6.62891 4.48467 6.01172L1.63701 0H2.75615L4.77178 4.48828C4.80693 4.5625 4.8792 4.74414 4.98857 5.0332H5.00029C5.01201 4.99805 5.09209 4.80859 5.24053 4.46484L7.10967 0H8.16436ZM10.2175 7.53516H10.194V11.1621H9.23311V2.40234H10.194V3.45703H10.2175C10.6901 2.66016 11.3815 2.26172 12.2917 2.26172C13.0651 2.26172 13.6687 2.53125 14.1022 3.07031C14.5358 3.60547 14.7526 4.32422 14.7526 5.22656C14.7526 6.23047 14.5085 7.03516 14.0202 7.64062C13.5319 8.24219 12.864 8.54297 12.0163 8.54297C11.239 8.54297 10.6394 8.20703 10.2175 7.53516ZM10.194 5.11523V5.95312C10.194 6.44922 10.3542 6.87109 10.6745 7.21875C10.9987 7.5625 11.4089 7.73438 11.905 7.73438C12.487 7.73438 12.9421 7.51172 13.2702 7.06641C13.6022 6.62109 13.7683 6.00195 13.7683 5.20898C13.7683 4.54102 13.614 4.01758 13.3054 3.63867C12.9968 3.25977 12.5788 3.07031 12.0515 3.07031C11.4929 3.07031 11.0437 3.26562 10.7038 3.65625C10.364 4.04297 10.194 4.5293 10.194 5.11523ZM19.3956 8.54297C18.5089 8.54297 17.7999 8.26367 17.2687 7.70508C16.7413 7.14258 16.4776 6.39844 16.4776 5.47266C16.4776 4.46484 16.753 3.67773 17.3038 3.11133C17.8546 2.54492 18.5987 2.26172 19.5362 2.26172C20.4308 2.26172 21.128 2.53711 21.628 3.08789C22.1319 3.63867 22.3839 4.40234 22.3839 5.37891C22.3839 6.33594 22.1124 7.10352 21.5694 7.68164C21.0304 8.25586 20.3058 8.54297 19.3956 8.54297ZM19.4659 3.07031C18.8487 3.07031 18.3605 3.28125 18.0011 3.70312C17.6417 4.12109 17.462 4.69922 17.462 5.4375C17.462 6.14844 17.6437 6.70898 18.0069 7.11914C18.3702 7.5293 18.8565 7.73438 19.4659 7.73438C20.087 7.73438 20.5636 7.5332 20.8956 7.13086C21.2315 6.72852 21.3995 6.15625 21.3995 5.41406C21.3995 4.66406 21.2315 4.08594 20.8956 3.67969C20.5636 3.27344 20.087 3.07031 19.4659 3.07031ZM29.353 8.40234H28.3979V5.98828C27.6948 6.37109 27.0464 6.5625 26.4526 6.5625C25.1089 6.5625 24.437 5.85156 24.437 4.42969V2.40234H25.3979V4.38281C25.3979 5.26172 25.7769 5.70117 26.5347 5.70117C27.1128 5.70117 27.7339 5.5332 28.3979 5.19727V2.40234H29.353V8.40234ZM36.9315 8.40234H36.0644V3.61523C35.9784 3.7832 35.8476 4.01953 35.6718 4.32422L32.9003 8.40234H31.9042V2.40234H32.7831V7.13086C32.83 7.01758 32.9315 6.82422 33.0878 6.55078L35.9354 2.40234H36.9315V8.40234ZM48.0315 10.5879H47.1937V8.40234H39.4769V2.40234H40.4378V7.58789H42.8226V2.40234H43.7835V7.58789H46.1741V2.40234H47.1351V7.58789H48.0315V10.5879ZM54.7897 5.64258H50.5534C50.569 6.31055 50.7487 6.82617 51.0925 7.18945C51.4362 7.55273 51.9089 7.73438 52.5104 7.73438C53.1862 7.73438 53.8073 7.51172 54.3737 7.06641V7.96875C53.8464 8.35156 53.1491 8.54297 52.2819 8.54297C51.4343 8.54297 50.7683 8.27148 50.2839 7.72852C49.7995 7.18164 49.5573 6.41406 49.5573 5.42578C49.5573 4.49219 49.821 3.73242 50.3483 3.14648C50.8796 2.55664 51.5378 2.26172 52.3229 2.26172C53.1081 2.26172 53.7155 2.51562 54.1452 3.02344C54.5749 3.53125 54.7897 4.23633 54.7897 5.13867V5.64258ZM53.8054 4.82812C53.8015 4.27344 53.6667 3.8418 53.4011 3.5332C53.1394 3.22461 52.7741 3.07031 52.3054 3.07031C51.8522 3.07031 51.4675 3.23242 51.1511 3.55664C50.8347 3.88086 50.6394 4.30469 50.5651 4.82812H53.8054ZM5.84756 22.4023H4.47647L1.23037 18.5586C1.10928 18.4141 1.03506 18.3164 1.00772 18.2656H0.984278V22.4023H-9.72748e-05V14H0.984278V17.9492H1.00772C1.0624 17.8633 1.13662 17.7676 1.23037 17.6621L4.371 14H5.59561L1.99209 18.0312L5.84756 22.4023ZM11.7269 22.4023H10.7659V21.4648H10.7425C10.3245 22.1836 9.70928 22.543 8.89678 22.543C8.29912 22.543 7.83037 22.3848 7.49053 22.0684C7.15459 21.752 6.98662 21.332 6.98662 20.8086C6.98662 19.6875 7.64678 19.0352 8.96709 18.8516L10.7659 18.5996C10.7659 17.5801 10.3538 17.0703 9.52959 17.0703C8.80693 17.0703 8.15459 17.3164 7.57256 17.8086V16.8242C8.1624 16.4492 8.84209 16.2617 9.61162 16.2617C11.0218 16.2617 11.7269 17.0078 11.7269 18.5V22.4023ZM10.7659 19.3672L9.31865 19.5664C8.87334 19.6289 8.5374 19.7402 8.31084 19.9004C8.08428 20.0566 7.971 20.3359 7.971 20.7383C7.971 21.0312 8.07451 21.2715 8.28154 21.459C8.49248 21.6426 8.77178 21.7344 9.11943 21.7344C9.596 21.7344 9.98857 21.5684 10.2972 21.2363C10.6097 20.9004 10.7659 20.4766 10.7659 19.9648V19.3672ZM19.1179 22.4023H18.1569V17.2227H15.0983V22.4023H14.1374V16.4023H19.1179V22.4023ZM28.2257 22.4023H27.2765V16.4023H28.2257V22.4023ZM21.6632 22.4023V16.4023H22.6241V18.7051H24.2413C24.8546 18.7051 25.3409 18.8652 25.7003 19.1855C26.0636 19.5059 26.2452 19.9531 26.2452 20.5273C26.2452 21.1055 26.0636 21.5625 25.7003 21.8984C25.337 22.2344 24.878 22.4023 24.3233 22.4023H21.6632ZM22.6241 19.5312V21.582H24.0655C24.8624 21.582 25.2608 21.2305 25.2608 20.5273C25.2608 19.8633 24.8585 19.5312 24.0538 19.5312H22.6241ZM35.1597 22.4023H34.2046V17.2168H32.8101C32.6499 19.1582 32.3745 20.5215 31.9839 21.3066C31.5972 22.0918 31.0757 22.4844 30.4194 22.4844C30.2202 22.4844 30.0483 22.457 29.9038 22.4023V21.5762C30.0405 21.6465 30.189 21.6816 30.3491 21.6816C31.2085 21.6816 31.7612 19.9219 32.0073 16.4023H35.1597V22.4023ZM41.0448 17.2227H38.6718V22.4023H37.7108V16.4023H41.0448V17.2227ZM44.0882 13.8594L43.2679 16.4727H42.5765L43.2269 13.8594H44.0882ZM51.0339 16.4023L48.2741 23.3633C47.7819 24.6055 47.0905 25.2266 46.1999 25.2266C45.9499 25.2266 45.7409 25.2012 45.573 25.1504V24.2891C45.78 24.3594 45.9694 24.3945 46.1413 24.3945C46.6257 24.3945 46.989 24.1055 47.2312 23.5273L47.7116 22.3906L45.3679 16.4023H46.4343L48.0573 21.0195C48.0769 21.0781 48.1179 21.2305 48.1804 21.4766H48.2155C48.2351 21.3828 48.2741 21.2344 48.3327 21.0312L50.0378 16.4023H51.0339ZM57.6515 22.4023H56.3038L53.6554 19.5195H53.6319V22.4023H52.671V16.4023H53.6319V19.1504H53.6554L56.1749 16.4023H57.4347L54.6515 19.2969L57.6515 22.4023Z" fill="black"/>
</svg>
