<svg width="57" height="23" viewBox="0 0 57 23" fill="none" xmlns="http://www.w3.org/2000/svg">
<path d="M9.82031 0L7.22461 5.86523C6.76367 6.9043 6.31836 7.61133 5.88867 7.98633C5.45898 8.36133 4.99023 8.54883 4.48242 8.54883C4.06445 8.54883 3.71484 8.48828 3.43359 8.36719V7.37109C3.76953 7.57031 4.09375 7.66992 4.40625 7.66992C4.72266 7.66992 5.01367 7.54883 5.2793 7.30664C5.54492 7.06055 5.83203 6.62891 6.14062 6.01172L3.29297 0H4.41211L6.42773 4.48828C6.46289 4.5625 6.53516 4.74414 6.64453 5.0332H6.65625C6.66797 4.99805 6.74805 4.80859 6.89648 4.46484L8.76562 0H9.82031ZM11.2734 7.53516H11.25V11.1621H10.2891V2.40234H11.25V3.45703H11.2734C11.7461 2.66016 12.4375 2.26172 13.3477 2.26172C14.1211 2.26172 14.7246 2.53125 15.1582 3.07031C15.5918 3.60547 15.8086 4.32422 15.8086 5.22656C15.8086 6.23047 15.5645 7.03516 15.0762 7.64062C14.5879 8.24219 13.9199 8.54297 13.0723 8.54297C12.2949 8.54297 11.6953 8.20703 11.2734 7.53516ZM11.25 5.11523V5.95312C11.25 6.44922 11.4102 6.87109 11.7305 7.21875C12.0547 7.5625 12.4648 7.73438 12.9609 7.73438C13.543 7.73438 13.998 7.51172 14.3262 7.06641C14.6582 6.62109 14.8242 6.00195 14.8242 5.20898C14.8242 4.54102 14.6699 4.01758 14.3613 3.63867C14.0527 3.25977 13.6348 3.07031 13.1074 3.07031C12.5488 3.07031 12.0996 3.26562 11.7598 3.65625C11.4199 4.04297 11.25 4.5293 11.25 5.11523ZM19.8516 8.54297C18.9648 8.54297 18.2559 8.26367 17.7246 7.70508C17.1973 7.14258 16.9336 6.39844 16.9336 5.47266C16.9336 4.46484 17.209 3.67773 17.7598 3.11133C18.3105 2.54492 19.0547 2.26172 19.9922 2.26172C20.8867 2.26172 21.584 2.53711 22.084 3.08789C22.5879 3.63867 22.8398 4.40234 22.8398 5.37891C22.8398 6.33594 22.5684 7.10352 22.0254 7.68164C21.4863 8.25586 20.7617 8.54297 19.8516 8.54297ZM19.9219 3.07031C19.3047 3.07031 18.8164 3.28125 18.457 3.70312C18.0977 4.12109 17.918 4.69922 17.918 5.4375C17.918 6.14844 18.0996 6.70898 18.4629 7.11914C18.8262 7.5293 19.3125 7.73438 19.9219 7.73438C20.543 7.73438 21.0195 7.5332 21.3516 7.13086C21.6875 6.72852 21.8555 6.15625 21.8555 5.41406C21.8555 4.66406 21.6875 4.08594 21.3516 3.67969C21.0195 3.27344 20.543 3.07031 19.9219 3.07031ZM29.209 8.40234H28.2539V5.98828C27.5508 6.37109 26.9023 6.5625 26.3086 6.5625C24.9648 6.5625 24.293 5.85156 24.293 4.42969V2.40234H25.2539V4.38281C25.2539 5.26172 25.6328 5.70117 26.3906 5.70117C26.9688 5.70117 27.5898 5.5332 28.2539 5.19727V2.40234H29.209V8.40234ZM36.1875 8.40234H35.3203V3.61523C35.2344 3.7832 35.1035 4.01953 34.9277 4.32422L32.1562 8.40234H31.1602V2.40234H32.0391V7.13086C32.0859 7.01758 32.1875 6.82422 32.3438 6.55078L35.1914 2.40234H36.1875V8.40234ZM46.6875 10.5879H45.8496V8.40234H38.1328V2.40234H39.0938V7.58789H41.4785V2.40234H42.4395V7.58789H44.8301V2.40234H45.791V7.58789H46.6875V10.5879ZM52.8457 5.64258H48.6094C48.625 6.31055 48.8047 6.82617 49.1484 7.18945C49.4922 7.55273 49.9648 7.73438 50.5664 7.73438C51.2422 7.73438 51.8633 7.51172 52.4297 7.06641V7.96875C51.9023 8.35156 51.2051 8.54297 50.3379 8.54297C49.4902 8.54297 48.8242 8.27148 48.3398 7.72852C47.8555 7.18164 47.6133 6.41406 47.6133 5.42578C47.6133 4.49219 47.877 3.73242 48.4043 3.14648C48.9355 2.55664 49.5938 2.26172 50.3789 2.26172C51.1641 2.26172 51.7715 2.51562 52.2012 3.02344C52.6309 3.53125 52.8457 4.23633 52.8457 5.13867V5.64258ZM51.8613 4.82812C51.8574 4.27344 51.7227 3.8418 51.457 3.5332C51.1953 3.22461 50.8301 3.07031 50.3613 3.07031C49.9082 3.07031 49.5234 3.23242 49.207 3.55664C48.8906 3.88086 48.6953 4.30469 48.6211 4.82812H51.8613ZM6.52734 14L3.93164 19.8652C3.4707 20.9043 3.02539 21.6113 2.5957 21.9863C2.16602 22.3613 1.69727 22.5488 1.18945 22.5488C0.771484 22.5488 0.421875 22.4883 0.140625 22.3672V21.3711C0.476562 21.5703 0.800781 21.6699 1.11328 21.6699C1.42969 21.6699 1.7207 21.5488 1.98633 21.3066C2.25195 21.0605 2.53906 20.6289 2.84766 20.0117L0 14H1.11914L3.13477 18.4883C3.16992 18.5625 3.24219 18.7441 3.35156 19.0332H3.36328C3.375 18.998 3.45508 18.8086 3.60352 18.4648L5.47266 14H6.52734ZM11.5957 19.6426H7.35938C7.375 20.3105 7.55469 20.8262 7.89844 21.1895C8.24219 21.5527 8.71484 21.7344 9.31641 21.7344C9.99219 21.7344 10.6133 21.5117 11.1797 21.0664V21.9688C10.6523 22.3516 9.95508 22.543 9.08789 22.543C8.24023 22.543 7.57422 22.2715 7.08984 21.7285C6.60547 21.1816 6.36328 20.4141 6.36328 19.4258C6.36328 18.4922 6.62695 17.7324 7.1543 17.1465C7.68555 16.5566 8.34375 16.2617 9.12891 16.2617C9.91406 16.2617 10.5215 16.5156 10.9512 17.0234C11.3809 17.5312 11.5957 18.2363 11.5957 19.1387V19.6426ZM10.6113 18.8281C10.6074 18.2734 10.4727 17.8418 10.207 17.5332C9.94531 17.2246 9.58008 17.0703 9.11133 17.0703C8.6582 17.0703 8.27344 17.2324 7.95703 17.5566C7.64062 17.8809 7.44531 18.3047 7.37109 18.8281H10.6113ZM18.0352 22.4023H17.0742V19.6777H14.0156V22.4023H13.0547V16.4023H14.0156V18.8633H17.0742V16.4023H18.0352V22.4023ZM21.1641 13.8594L20.3438 16.4727H19.6523L20.3027 13.8594H21.1641ZM29.2969 22.4023H28.3477V16.4023H29.2969V22.4023ZM22.7344 22.4023V16.4023H23.6953V18.7051H25.3125C25.9258 18.7051 26.4121 18.8652 26.7715 19.1855C27.1348 19.5059 27.3164 19.9531 27.3164 20.5273C27.3164 21.1055 27.1348 21.5625 26.7715 21.8984C26.4082 22.2344 25.9492 22.4023 25.3945 22.4023H22.7344ZM23.6953 19.5312V21.582H25.1367C25.9336 21.582 26.332 21.2305 26.332 20.5273C26.332 19.8633 25.9297 19.5312 25.125 19.5312H23.6953ZM34.5879 17.2227H32.2148V22.4023H31.2539V16.4023H34.5879V17.2227ZM37.0312 13.8594L36.2109 16.4727H35.5195L36.1699 13.8594H37.0312ZM43.582 22.4023H42.6211V19.6777H39.5625V22.4023H38.6016V16.4023H39.5625V18.8633H42.6211V16.4023H43.582V22.4023ZM49.8223 22.4023H48.8613V21.4648H48.8379C48.4199 22.1836 47.8047 22.543 46.9922 22.543C46.3945 22.543 45.9258 22.3848 45.5859 22.0684C45.25 21.752 45.082 21.332 45.082 20.8086C45.082 19.6875 45.7422 19.0352 47.0625 18.8516L48.8613 18.5996C48.8613 17.5801 48.4492 17.0703 47.625 17.0703C46.9023 17.0703 46.25 17.3164 45.668 17.8086V16.8242C46.2578 16.4492 46.9375 16.2617 47.707 16.2617C49.1172 16.2617 49.8223 17.0078 49.8223 18.5V22.4023ZM48.8613 19.3672L47.4141 19.5664C46.9688 19.6289 46.6328 19.7402 46.4062 19.9004C46.1797 20.0566 46.0664 20.3359 46.0664 20.7383C46.0664 21.0312 46.1699 21.2715 46.377 21.459C46.5879 21.6426 46.8672 21.7344 47.2148 21.7344C47.6914 21.7344 48.084 21.5684 48.3926 21.2363C48.7051 20.9004 48.8613 20.4766 48.8613 19.9648V19.3672ZM56.6133 22.4023H55.2656L52.6172 19.5195H52.5938V22.4023H51.6328V16.4023H52.5938V19.1504H52.6172L55.1367 16.4023H56.3965L53.6133 19.2969L56.6133 22.4023Z" fill="black"/>
</svg>
