<svg width="142" height="12" viewBox="0 0 142 12" fill="none" xmlns="http://www.w3.org/2000/svg">
<path d="M2.94141 5.02734H0.984375V8.95312H0V0.550781H0.984375V4.14258H2.97656C3.09375 2.9707 3.49414 2.05664 4.17773 1.40039C4.86133 0.740234 5.75 0.410156 6.84375 0.410156C7.97266 0.410156 8.87305 0.796875 9.54492 1.57031C10.2207 2.33984 10.5586 3.36523 10.5586 4.64648C10.5586 6.0332 10.2129 7.12109 9.52148 7.91016C8.83008 8.69922 7.88867 9.09375 6.69727 9.09375C5.58008 9.09375 4.68164 8.72266 4.00195 7.98047C3.32617 7.23828 2.97266 6.25391 2.94141 5.02734ZM6.80859 1.30078C5.92188 1.30078 5.22656 1.60547 4.72266 2.21484C4.22266 2.82422 3.97266 3.66211 3.97266 4.72852C3.97266 5.83398 4.21094 6.69141 4.6875 7.30078C5.16406 7.90625 5.83398 8.20898 6.69727 8.20898C7.5957 8.20898 8.29102 7.91016 8.7832 7.3125C9.2793 6.71484 9.52734 5.87109 9.52734 4.78125C9.52734 3.65625 9.28906 2.79492 8.8125 2.19727C8.33984 1.59961 7.67188 1.30078 6.80859 1.30078ZM16.4766 2.95312L14.4609 5.98828L16.4414 8.95312H15.3223L14.1445 7.00781C14.0703 6.88672 13.9824 6.73438 13.8809 6.55078H13.8574C13.8379 6.58594 13.7461 6.73828 13.582 7.00781L12.3809 8.95312H11.2734L13.3184 6.01172L11.3613 2.95312H12.4805L13.6406 5.00391C13.7266 5.15625 13.8105 5.3125 13.8926 5.47266H13.916L15.416 2.95312H16.4766ZM21.5859 8.67773C21.125 8.95508 20.5781 9.09375 19.9453 9.09375C19.0898 9.09375 18.3984 8.81641 17.8711 8.26172C17.3477 7.70312 17.0859 6.98047 17.0859 6.09375C17.0859 5.10547 17.3691 4.3125 17.9355 3.71484C18.502 3.11328 19.2578 2.8125 20.2031 2.8125C20.7305 2.8125 21.1953 2.91016 21.5977 3.10547V4.08984C21.1523 3.77734 20.6758 3.62109 20.168 3.62109C19.5547 3.62109 19.0508 3.8418 18.6562 4.2832C18.2656 4.7207 18.0703 5.29688 18.0703 6.01172C18.0703 6.71484 18.2539 7.26953 18.6211 7.67578C18.9922 8.08203 19.4883 8.28516 20.1094 8.28516C20.6328 8.28516 21.125 8.11133 21.5859 7.76367V8.67773ZM27.8145 2.95312L25.0547 9.91406C24.5625 11.1562 23.8711 11.7773 22.9805 11.7773C22.7305 11.7773 22.5215 11.752 22.3535 11.7012V10.8398C22.5605 10.9102 22.75 10.9453 22.9219 10.9453C23.4062 10.9453 23.7695 10.6562 24.0117 10.0781L24.4922 8.94141L22.1484 2.95312H23.2148L24.8379 7.57031C24.8574 7.62891 24.8984 7.78125 24.9609 8.02734H24.9961C25.0156 7.93359 25.0547 7.78516 25.1133 7.58203L26.8184 2.95312H27.8145ZM32.8652 3.77344H31.0664V8.95312H30.1055V3.77344H28.3008V2.95312H32.8652V3.77344ZM40.3828 5.98828H37.1836V5.23242H40.3828V5.98828ZM50.3906 8.95312H49.043L46.3945 6.07031H46.3711V8.95312H45.4102V2.95312H46.3711V5.70117H46.3945L48.9141 2.95312H50.1738L47.3906 5.84766L50.3906 8.95312ZM55.6699 8.95312H54.709V8.01562H54.6855C54.2676 8.73438 53.6523 9.09375 52.8398 9.09375C52.2422 9.09375 51.7734 8.93555 51.4336 8.61914C51.0977 8.30273 50.9297 7.88281 50.9297 7.35938C50.9297 6.23828 51.5898 5.58594 52.9102 5.40234L54.709 5.15039C54.709 4.13086 54.2969 3.62109 53.4727 3.62109C52.75 3.62109 52.0977 3.86719 51.5156 4.35938V3.375C52.1055 3 52.7852 2.8125 53.5547 2.8125C54.9648 2.8125 55.6699 3.55859 55.6699 5.05078V8.95312ZM54.709 5.91797L53.2617 6.11719C52.8164 6.17969 52.4805 6.29102 52.2539 6.45117C52.0273 6.60742 51.9141 6.88672 51.9141 7.28906C51.9141 7.58203 52.0176 7.82227 52.2246 8.00977C52.4355 8.19336 52.7148 8.28516 53.0625 8.28516C53.5391 8.28516 53.9316 8.11914 54.2402 7.78711C54.5527 7.45117 54.709 7.02734 54.709 6.51562V5.91797ZM63.9609 8.95312H63.0117V4.00781C62.9258 4.25781 62.793 4.625 62.6133 5.10938L61.1133 8.95312H60.252L58.7051 5.10938C58.623 4.90234 58.4902 4.53516 58.3066 4.00781V8.95312H57.4805V2.95312H58.7051L60.2871 6.86719C60.4004 7.15234 60.5449 7.54688 60.7207 8.05078L61.1484 6.89062L62.6836 2.95312H63.9609V8.95312ZM70.7285 6.19336H66.4922C66.5078 6.86133 66.6875 7.37695 67.0312 7.74023C67.375 8.10352 67.8477 8.28516 68.4492 8.28516C69.125 8.28516 69.7461 8.0625 70.3125 7.61719V8.51953C69.7852 8.90234 69.0879 9.09375 68.2207 9.09375C67.373 9.09375 66.707 8.82227 66.2227 8.2793C65.7383 7.73242 65.4961 6.96484 65.4961 5.97656C65.4961 5.04297 65.7598 4.2832 66.2871 3.69727C66.8184 3.10742 67.4766 2.8125 68.2617 2.8125C69.0469 2.8125 69.6543 3.06641 70.084 3.57422C70.5137 4.08203 70.7285 4.78711 70.7285 5.68945V6.19336ZM69.7441 5.37891C69.7402 4.82422 69.6055 4.39258 69.3398 4.08398C69.0781 3.77539 68.7129 3.62109 68.2441 3.62109C67.791 3.62109 67.4062 3.7832 67.0898 4.10742C66.7734 4.43164 66.5781 4.85547 66.5039 5.37891H69.7441ZM77.168 8.95312H76.207V6.22852H73.1484V8.95312H72.1875V2.95312H73.1484V5.41406H76.207V2.95312H77.168V8.95312ZM84.0938 8.95312H83.1328V6.22852H80.0742V8.95312H79.1133V2.95312H80.0742V5.41406H83.1328V2.95312H84.0938V8.95312ZM92.6016 8.95312H91.6523V2.95312H92.6016V8.95312ZM86.0391 8.95312V2.95312H87V5.25586H88.6172C89.2305 5.25586 89.7168 5.41602 90.0762 5.73633C90.4395 6.05664 90.6211 6.50391 90.6211 7.07812C90.6211 7.65625 90.4395 8.11328 90.0762 8.44922C89.7129 8.78516 89.2539 8.95312 88.6992 8.95312H86.0391ZM87 6.08203V8.13281H88.4414C89.2383 8.13281 89.6367 7.78125 89.6367 7.07812C89.6367 6.41406 89.2344 6.08203 88.4297 6.08203H87ZM99.3809 6.19336H95.1445C95.1602 6.86133 95.3398 7.37695 95.6836 7.74023C96.0273 8.10352 96.5 8.28516 97.1016 8.28516C97.7773 8.28516 98.3984 8.0625 98.9648 7.61719V8.51953C98.4375 8.90234 97.7402 9.09375 96.873 9.09375C96.0254 9.09375 95.3594 8.82227 94.875 8.2793C94.3906 7.73242 94.1484 6.96484 94.1484 5.97656C94.1484 5.04297 94.4121 4.2832 94.9395 3.69727C95.4707 3.10742 96.1289 2.8125 96.9141 2.8125C97.6992 2.8125 98.3066 3.06641 98.7363 3.57422C99.166 4.08203 99.3809 4.78711 99.3809 5.68945V6.19336ZM98.3965 5.37891C98.3926 4.82422 98.2578 4.39258 97.9922 4.08398C97.7305 3.77539 97.3652 3.62109 96.8965 3.62109C96.4434 3.62109 96.0586 3.7832 95.7422 4.10742C95.4258 4.43164 95.2305 4.85547 95.1562 5.37891H98.3965ZM108.223 8.67773C107.762 8.95508 107.215 9.09375 106.582 9.09375C105.727 9.09375 105.035 8.81641 104.508 8.26172C103.984 7.70312 103.723 6.98047 103.723 6.09375C103.723 5.10547 104.006 4.3125 104.572 3.71484C105.139 3.11328 105.895 2.8125 106.84 2.8125C107.367 2.8125 107.832 2.91016 108.234 3.10547V4.08984C107.789 3.77734 107.312 3.62109 106.805 3.62109C106.191 3.62109 105.688 3.8418 105.293 4.2832C104.902 4.7207 104.707 5.29688 104.707 6.01172C104.707 6.71484 104.891 7.26953 105.258 7.67578C105.629 8.08203 106.125 8.28516 106.746 8.28516C107.27 8.28516 107.762 8.11133 108.223 7.76367V8.67773ZM113.443 3.77344H111.645V8.95312H110.684V3.77344H108.879V2.95312H113.443V3.77344ZM116.883 9.09375C115.996 9.09375 115.287 8.81445 114.756 8.25586C114.229 7.69336 113.965 6.94922 113.965 6.02344C113.965 5.01562 114.24 4.22852 114.791 3.66211C115.342 3.0957 116.086 2.8125 117.023 2.8125C117.918 2.8125 118.615 3.08789 119.115 3.63867C119.619 4.18945 119.871 4.95312 119.871 5.92969C119.871 6.88672 119.6 7.6543 119.057 8.23242C118.518 8.80664 117.793 9.09375 116.883 9.09375ZM116.953 3.62109C116.336 3.62109 115.848 3.83203 115.488 4.25391C115.129 4.67188 114.949 5.25 114.949 5.98828C114.949 6.69922 115.131 7.25977 115.494 7.66992C115.857 8.08008 116.344 8.28516 116.953 8.28516C117.574 8.28516 118.051 8.08398 118.383 7.68164C118.719 7.2793 118.887 6.70703 118.887 5.96484C118.887 5.21484 118.719 4.63672 118.383 4.23047C118.051 3.82422 117.574 3.62109 116.953 3.62109ZM125.783 8.95312H124.828V3.76758H123.434C123.273 5.70898 122.998 7.07227 122.607 7.85742C122.221 8.64258 121.699 9.03516 121.043 9.03516C120.844 9.03516 120.672 9.00781 120.527 8.95312V8.12695C120.664 8.19727 120.812 8.23242 120.973 8.23242C121.832 8.23242 122.385 6.47266 122.631 2.95312H125.783V8.95312ZM132.375 0V0.902344C132.215 1.01953 131.957 1.10742 131.602 1.16602C130.723 1.29883 130.107 1.42773 129.756 1.55273C129.408 1.67383 129.121 1.93555 128.895 2.33789C128.672 2.74023 128.529 3.32812 128.467 4.10156H128.49C128.959 3.42188 129.627 3.08203 130.494 3.08203C131.287 3.08203 131.926 3.35352 132.41 3.89648C132.895 4.43945 133.137 5.15625 133.137 6.04688C133.137 6.96484 132.883 7.70312 132.375 8.26172C131.871 8.81641 131.191 9.09375 130.336 9.09375C129.414 9.09375 128.703 8.76758 128.203 8.11523C127.707 7.45898 127.459 6.52344 127.459 5.30859C127.459 4.36328 127.549 3.5625 127.729 2.90625C127.908 2.24609 128.156 1.75 128.473 1.41797C128.793 1.08594 129.146 0.857422 129.533 0.732422C129.924 0.607422 130.592 0.460938 131.537 0.292969C131.912 0.207031 132.191 0.109375 132.375 0ZM128.455 5.05078V5.88281C128.459 6.19531 128.506 6.50195 128.596 6.80273C128.686 7.10352 128.814 7.36914 128.982 7.59961C129.15 7.83008 129.348 8.00195 129.574 8.11523C129.805 8.22852 130.066 8.28516 130.359 8.28516C130.895 8.28516 131.326 8.08594 131.654 7.6875C131.986 7.28516 132.152 6.77148 132.152 6.14648C132.152 5.45898 131.982 4.91406 131.643 4.51172C131.307 4.10547 130.852 3.90234 130.277 3.90234C129.473 3.90234 128.865 4.28516 128.455 5.05078ZM141.246 8.95312H140.297V2.95312H141.246V8.95312ZM134.684 8.95312V2.95312H135.645V5.25586H137.262C137.875 5.25586 138.361 5.41602 138.721 5.73633C139.084 6.05664 139.266 6.50391 139.266 7.07812C139.266 7.65625 139.084 8.11328 138.721 8.44922C138.357 8.78516 137.898 8.95312 137.344 8.95312H134.684ZM135.645 6.08203V8.13281H137.086C137.883 8.13281 138.281 7.78125 138.281 7.07812C138.281 6.41406 137.879 6.08203 137.074 6.08203H135.645Z" fill="black"/>
</svg>
